<svg xmlns="http://www.w3.org/2000/svg" width="18.449" height="18.449" viewBox="0 0 18.449 18.449">
  <path id="loyalty_points_icon" data-name="loyalty points icon" d="M0,14.6v1.539c0,1.272,3.1,2.306,6.918,2.306s6.918-1.034,6.918-2.306V14.6c-1.488,1.049-4.209,1.539-6.918,1.539S1.488,15.653,0,14.6ZM11.531,4.612c3.82,0,6.918-1.034,6.918-2.306S15.35,0,11.531,0,4.612,1.034,4.612,2.306,7.711,4.612,11.531,4.612ZM0,10.825v1.859c0,1.272,3.1,2.306,6.918,2.306s6.918-1.034,6.918-2.306V10.825c-1.488,1.225-4.212,1.859-6.918,1.859S1.488,12.05,0,10.825Zm14.99.4c2.065-.4,3.459-1.142,3.459-2V7.686A8.849,8.849,0,0,1,14.99,8.929ZM6.918,5.765C3.1,5.765,0,7.055,0,8.648s3.1,2.883,6.918,2.883,6.918-1.29,6.918-2.883S10.738,5.765,6.918,5.765Zm7.9,2.029c2.162-.389,3.629-1.153,3.629-2.029V4.227a11.731,11.731,0,0,1-5.791,1.506A4.035,4.035,0,0,1,14.821,7.794Z" fill="#c0c8d3"/>
</svg>
