<svg xmlns="http://www.w3.org/2000/svg" width="15.397" height="15.397" viewBox="0 0 15.397 15.397">
  <path id="upcoming_icon" d="M20.426,10.307a2.846,2.846,0,0,0-4-4,7.658,7.658,0,0,0-6.115,0,2.846,2.846,0,0,0-4,4,7.654,7.654,0,0,0,1.338,8.188L5.789,20.347a.42.42,0,1,0,.594.594l1.852-1.852a7.651,7.651,0,0,0,10.26,0l1.852,1.851a.42.42,0,0,0,.594-.594L19.088,18.5a7.655,7.655,0,0,0,1.338-8.188Zm-2.21-3.8a2.009,2.009,0,0,1,2.007,2.006,1.987,1.987,0,0,1-.242.937,7.743,7.743,0,0,0-2.7-2.7A1.988,1.988,0,0,1,18.217,6.506ZM6.506,8.512A2.009,2.009,0,0,1,8.513,6.506a1.986,1.986,0,0,1,.937.242,7.743,7.743,0,0,0-2.7,2.7A1.987,1.987,0,0,1,6.506,8.512Zm11.708,9.7,0,0,0,0a6.855,6.855,0,1,1,2.013-4.849A6.836,6.836,0,0,1,18.21,18.214Zm-4.43-10.3v5.459a.42.42,0,0,1-.123.3L9.8,17.521a.42.42,0,0,1-.594-.594l3.737-3.737V7.906a.42.42,0,0,1,.84,0Z" transform="translate(-5.666 -5.666)" fill="#8ce0b6"/>
</svg>
