<svg xmlns="http://www.w3.org/2000/svg" xmlns:xlink="http://www.w3.org/1999/xlink" width="20.895" height="20.035" viewBox="0 0 20.895 20.035"><defs><linearGradient id="a" x1="0.5" x2="0.5" y2="1" gradientUnits="objectBoundingBox"><stop offset="0" stop-color="#e8d48a"/><stop offset="1" stop-color="#d6ad14"/></linearGradient><clipPath id="b"><path d="M343.864,4.414c.561,1.1.986,1.818,1.307,2.584a2.3,2.3,0,0,0,2.082,1.571c.838.07,1.666.25,2.585.394-.913,1.034-2.135,1.87-2.5,2.987s.11,2.533.242,4.1c-2.355-1.931-4.713-2.287-7.058.032l-.151-.3c.129-.81.215-1.629.4-2.427a2.376,2.376,0,0,0-.871-2.572c-.6-.5-1.121-1.078-1.678-1.622l-.1-.354a8.394,8.394,0,0,0,.872.048c2.65,0,4.264-1.428,4.875-4.439m.194-4.365a2.208,2.208,0,0,0-1.5,1c-.749,1.23-1.272,2.6-1.99,3.849a2.029,2.029,0,0,1-1.2.878c-1.413.3-2.872.386-4.278.71A2.227,2.227,0,0,0,333.6,7.531a2.181,2.181,0,0,0,.575,1.714c.953,1.084,2.094,2,3.069,3.07a2.014,2.014,0,0,1,.461,1.419c-.184,1.582-.5,3.148-.746,4.58-.044,1.5.985,2.159,2.246,1.539,1.4-.687,2.744-1.479,4.152-2.142a1.722,1.722,0,0,1,1.295.008c1.31.609,2.541,1.4,3.868,1.958a2.359,2.359,0,0,0,1.916.068,2.372,2.372,0,0,0,.526-1.849c-.126-1.436-.495-2.85-.668-4.284a1.716,1.716,0,0,1,.4-1.226c1.015-1.082,2.169-2.037,3.149-3.148a2.175,2.175,0,0,0,.572-1.717,2.237,2.237,0,0,0-1.5-1.033c-1.444-.326-2.936-.43-4.39-.716a1.734,1.734,0,0,1-1.05-.763c-.721-1.294-1.282-2.679-2.034-3.954A2.067,2.067,0,0,0,344.077.049h-.019" transform="translate(-333.561 -0.049)" stroke="rgba(0,0,0,0)" stroke-width="1" fill="url(#a)"/></clipPath></defs><g clip-path="url(#b)"><path d="M0,0H28.513V28.254H0Z" transform="matrix(0.866, -0.5, 0.5, 0.866, -8.962, 5.106)" stroke="rgba(0,0,0,0)" stroke-width="1" fill="url(#a)"/></g></svg>