<svg xmlns="http://www.w3.org/2000/svg" xmlns:xlink="http://www.w3.org/1999/xlink" width="8.993" height="8.58" viewBox="0 0 8.993 8.58"><defs><linearGradient id="a" x1="0.5" x2="0.5" y2="1" gradientUnits="objectBoundingBox"><stop offset="0" stop-color="#e8d48a"/><stop offset="1" stop-color="#d6ad14"/></linearGradient><clipPath id="b"><path d="M4.518,0a1.054,1.054,0,0,0-.594.369,1.933,1.933,0,0,0-.262.5c-.259.507-.4,1.175-.814,1.474s-1.09.224-1.652.318c-.429.072-.891.064-1.2.46V3.6c.538.537,1.067,1.082,1.617,1.607a.616.616,0,0,1,.228.657A14.748,14.748,0,0,0,1.539,7.74a.877.877,0,0,0,.244.694.9.9,0,0,0,.737-.005c.579-.254,1.12-.6,1.695-.861a.8.8,0,0,1,.593,0c.548.248,1.075.544,1.606.828.292.156.633.318.871.035a1.2,1.2,0,0,0,.205-.812c-.054-.6-.214-1.186-.284-1.783a.8.8,0,0,1,.183-.567c.431-.465.924-.873,1.347-1.345a.873.873,0,0,0,.239-.693.96.96,0,0,0-.624-.465c-.616-.142-1.255-.182-1.876-.308A.8.8,0,0,1,6,2.1C5.678,1.538,5.433.931,5.1.372A.823.823,0,0,0,4.518,0Z" fill="url(#a)"/></clipPath></defs><g clip-path="url(#b)"><path d="M0,0H12.187V12.064H0Z" transform="translate(-3.771 2.177) rotate(-30)" fill="url(#a)"/></g></svg>