<svg xmlns="http://www.w3.org/2000/svg" width="22.271" height="19.596" viewBox="0 0 22.271 19.596">
  <path id="aboutus_icon" d="M29.166,24.573c-.5-1-4.375-1.415-5-1.965a8.21,8.21,0,0,1-.262-1.127c1.179-1.362.969-2.62.969-4.925a3.93,3.93,0,0,0-7.781-.812,4.067,4.067,0,0,0-.812-.079,3.947,3.947,0,0,0-3.93,3.956c0,2.253-.21,3.537.969,4.9a4.357,4.357,0,0,1-.262,1.127c-.655.5-4.532,1-5,1.965-.5,1-.524,3.877-.55,4.192a.381.381,0,0,0,.367.393H24.686a.365.365,0,0,0,.367-.393,23.742,23.742,0,0,0-.183-2.436H29.4a.365.365,0,0,0,.367-.393A15.987,15.987,0,0,0,29.166,24.573Zm-20.88,6.89a12.247,12.247,0,0,1,.445-3.484c.341-.55,4.244-1.153,4.873-1.781.1-.1.288-.262.472-1.729a.36.36,0,0,0-.1-.314c-1.1-1.1-.891-2.384-.891-4.532a3.17,3.17,0,0,1,3.17-3.2,3.209,3.209,0,0,1,3.2,3.2c0,2.279.21,3.38-.891,4.532a.418.418,0,0,0-.1.314,3.944,3.944,0,0,0,.472,1.729c.681.681,4.558,1.258,4.873,1.781a13.987,13.987,0,0,1,.5,3.484Zm16.5-2.829a4.223,4.223,0,0,0-.288-1c-.5-1-4.375-1.415-5-1.965a5.974,5.974,0,0,1-.262-1.127c1.205-1.389,1-2.672,1-4.925a3.945,3.945,0,0,0-2.41-3.642,3.152,3.152,0,0,1,3.118-2.62,3.187,3.187,0,0,1,3.17,3.2c0,2.279.21,3.38-.891,4.532a.418.418,0,0,0-.1.314c.183,1.441.393,1.65.472,1.729.681.681,4.558,1.258,4.873,1.781a14.423,14.423,0,0,1,.524,3.72Z" transform="translate(-7.5 -12.6)" fill="#c0c8d3"/>
</svg>
