<svg xmlns="http://www.w3.org/2000/svg" width="34" height="34" viewBox="0 0 34 34">
  <g id="changeprofileimage" transform="translate(-143 -295)">
    <circle id="Ellipse_1731" data-name="Ellipse 1731" cx="17" cy="17" r="17" transform="translate(143 295)" fill="#fff"/>
    <g id="Icon_ionic-ios-camera" data-name="Icon ionic-ios-camera" transform="translate(147.5 298.125)">
      <path id="Path_461701" data-name="Path 461701" d="M18.853,17.741a2.448,2.448,0,1,1-2.448-2.448A2.448,2.448,0,0,1,18.853,17.741Z" transform="translate(-3.731 -2.926)" fill="#c0c8d3"/>
      <path id="Path_461702" data-name="Path 461702" d="M19.55,9.919H17.23a.691.691,0,0,1-.511-.23c-1.209-1.354-1.665-1.814-2.159-1.814H10.92c-.5,0-.988.46-2.2,1.818a.678.678,0,0,1-.507.226H8.038V9.578A.342.342,0,0,0,7.7,9.237H6.59a.342.342,0,0,0-.341.341v.341H5.931A1.381,1.381,0,0,0,4.5,11.226v7.493a1.474,1.474,0,0,0,1.426,1.418H19.55a1.365,1.365,0,0,0,1.3-1.418V11.226A1.269,1.269,0,0,0,19.55,9.919Zm-6.706,8.532a3.64,3.64,0,1,1,3.466-3.466A3.643,3.643,0,0,1,12.845,18.451Zm3.917-6.063a.553.553,0,1,1,.553-.553A.552.552,0,0,1,16.762,12.388Z" fill="#c0c8d3"/>
    </g>
  </g>
</svg>
