<svg xmlns="http://www.w3.org/2000/svg" width="17.521" height="17.521" viewBox="0 0 17.521 17.521">
  <path id="coin_icon" d="M0,13.869V15.33c0,1.208,2.943,2.19,6.57,2.19s6.57-.982,6.57-2.19V13.869c-1.413,1-4,1.461-6.57,1.461S1.413,14.865,0,13.869ZM10.95,4.38c3.627,0,6.57-.982,6.57-2.19S14.578,0,10.95,0,4.38.982,4.38,2.19,7.323,4.38,10.95,4.38ZM0,10.28v1.766c0,1.208,2.943,2.19,6.57,2.19s6.57-.982,6.57-2.19V10.28c-1.413,1.163-4,1.766-6.57,1.766S1.413,11.443,0,10.28Zm14.235.376c1.961-.38,3.285-1.085,3.285-1.9V7.3A8.4,8.4,0,0,1,14.235,8.48ZM6.57,5.475C2.943,5.475,0,6.7,0,8.213S2.943,10.95,6.57,10.95s6.57-1.225,6.57-2.738S10.2,5.475,6.57,5.475Zm7.5,1.927c2.053-.37,3.446-1.1,3.446-1.927V4.014a11.14,11.14,0,0,1-5.5,1.43A3.832,3.832,0,0,1,14.075,7.4Z" fill="#d3bb8a"/>
</svg>
