<svg xmlns="http://www.w3.org/2000/svg" width="17.5" height="20" viewBox="0 0 17.5 20">
  <path id="Icon_awesome-calendar-check" data-name="Icon awesome-calendar-check" d="M17.031,6.25H.469A.469.469,0,0,1,0,5.781V4.375A1.875,1.875,0,0,1,1.875,2.5H3.75V.469A.469.469,0,0,1,4.219,0H5.781A.469.469,0,0,1,6.25.469V2.5h5V.469A.469.469,0,0,1,11.719,0h1.563a.469.469,0,0,1,.469.469V2.5h1.875A1.875,1.875,0,0,1,17.5,4.375V5.781A.469.469,0,0,1,17.031,6.25ZM.469,7.5H17.031a.469.469,0,0,1,.469.469V18.125A1.875,1.875,0,0,1,15.625,20H1.875A1.875,1.875,0,0,1,0,18.125V7.969A.469.469,0,0,1,.469,7.5Zm13.019,3.748-1.1-1.109a.469.469,0,0,0-.663,0L7.583,14.245l-1.8-1.811a.469.469,0,0,0-.663,0l-1.109,1.1a.469.469,0,0,0,0,.663l3.227,3.253a.469.469,0,0,0,.663,0l5.584-5.539a.469.469,0,0,0,0-.663Z" fill="#c0c8d3"/>
</svg>
