<svg xmlns="http://www.w3.org/2000/svg" width="16.208" height="15.397" viewBox="0 0 16.208 15.397">
  <path id="redeem_icon" d="M17.587,6.242H15.82a2.425,2.425,0,0,0-4.311-2.148l-.405.543L10.7,4.086A2.426,2.426,0,0,0,6.387,6.242H4.621A1.608,1.608,0,0,0,3.008,7.862L3,16.777A1.615,1.615,0,0,0,4.621,18.4H17.587a1.615,1.615,0,0,0,1.621-1.621V7.862A1.615,1.615,0,0,0,17.587,6.242ZM13.535,4.621a.81.81,0,1,1-.81.81A.813.813,0,0,1,13.535,4.621Zm-4.862,0a.81.81,0,1,1-.81.81A.813.813,0,0,1,8.673,4.621Zm8.914,12.156H4.621V15.156H17.587Zm0-4.052H4.621V7.862H8.738L7.052,10.156l1.313.948,1.929-2.626.81-1.1.81,1.1L13.843,11.1l1.313-.948L13.47,7.862h4.117Z" transform="translate(-3 -3)" fill="#8be0b6"/>
</svg>
