<svg xmlns="http://www.w3.org/2000/svg" width="18.025" height="16.718" viewBox="0 0 18.025 16.718">
  <g id="support" transform="translate(0 0)">
    <path id="Path_461654" data-name="Path 461654" d="M118.811,232.634a7.007,7.007,0,0,0-7.183-3.088,6.55,6.55,0,0,0-5.454,4.88c-.088.312-.118.638-.175.958v.814c.018.1.03.192.054.286.15.567.276,1.141.461,1.7a3.451,3.451,0,0,1-.37,3.111.477.477,0,0,0,.24.725,3.678,3.678,0,0,0,3.733-.212.249.249,0,0,1,.251-.03,6.981,6.981,0,0,0,3.944.276C118.824,241.068,121.189,236.467,118.811,232.634Zm-6.8-.519h1.718v.527h-1.718Zm4.891,5.1h-8.06v-1.336h.585a3.178,3.178,0,0,1,1.488-2.389,3.511,3.511,0,0,1,2.141-.565,3.354,3.354,0,0,1,3.261,2.952h.584Z" transform="translate(-106 -229.42)" fill="#c0c8d3"/>
    <path id="Path_461655" data-name="Path 461655" d="M8.19,16.072a4.973,4.973,0,0,0,3.1,1.45,5.7,5.7,0,0,0,3.241-.395,3.566,3.566,0,0,0,3.09.649c1.489-.6-1.006-1.443-.25-3.2a5.878,5.878,0,0,0-.8-6.558" transform="translate(-0.577 -1.753)" fill="none" stroke="#c0c8d3" stroke-linecap="round" stroke-width="1"/>
  </g>
</svg>
