<svg xmlns="http://www.w3.org/2000/svg" xmlns:xlink="http://www.w3.org/1999/xlink" width="60" height="60" viewBox="0 0 60 60"><defs><clipPath id="a"><rect width="60" height="60" transform="translate(4253 -14495)" fill="#fff" stroke="#707070" stroke-width="1"/></clipPath></defs><g transform="translate(-4253 14495)" clip-path="url(#a)"><g transform="translate(4117.115 -14864)"><g transform="translate(138 369)"><rect width="53.86" height="53.858" rx="26.929" transform="translate(0)" fill="#dcdbdc"/><g transform="translate(13.068 11.434)"><circle cx="8.14" cy="8.14" r="8.14" transform="translate(5.736)" fill="#171717"/><path d="M376.567,374.568v2.677H348.815v-2.677a9.92,9.92,0,0,1,9.919-9.919h7.913A9.92,9.92,0,0,1,376.567,374.568Z" transform="translate(-348.815 -346.716)" fill="#171717"/></g></g><g transform="translate(167.312 402.543)"><circle cx="13.229" cy="13.229" r="13.229" transform="translate(0 0)" fill="#e4d4a0"/><g transform="translate(7.868 5.892)"><path d="M568.115,409.557V408.08h-10.8v1.477h.914v.986a4.207,4.207,0,0,0,.245,1.647,7.622,7.622,0,0,0,2.646,3.5.066.066,0,0,1,0,.1,7.622,7.622,0,0,0-2.646,3.5,4.207,4.207,0,0,0-.245,1.647v.969h-.914v1.477h10.8v-1.477h-.957v-.969a4.206,4.206,0,0,0-.245-1.647,7.623,7.623,0,0,0-2.646-3.5.066.066,0,0,1,0-.1h0a7.624,7.624,0,0,0,2.646-3.5,4.206,4.206,0,0,0,.245-1.647v-.986Zm-1.8,2.475a7.046,7.046,0,0,1-2.43,3.178h0a.683.683,0,0,0,0,1.072,7.046,7.046,0,0,1,2.43,3.178,3.619,3.619,0,0,1,.229,1.434.305.305,0,0,0,0,.039v.863h-7.694v-.863a.283.283,0,0,0,0-.037,3.608,3.608,0,0,1,.229-1.435,7.048,7.048,0,0,1,2.43-3.178.683.683,0,0,0,0-1.072,7.048,7.048,0,0,1-2.43-3.178,3.612,3.612,0,0,1-.229-1.434.306.306,0,0,0,0-.039V409.7h7.694v.863a.3.3,0,0,0,0,.037A3.614,3.614,0,0,1,566.315,412.032Z" transform="translate(-557.317 -408.08)"/><path d="M569.113,461.47h6.01a3.005,3.005,0,1,0-6.01,0Z" transform="translate(-566.736 -448.312)"/><path d="M573.212,429.492a3.756,3.756,0,0,1-1.323.177,4.157,4.157,0,0,1-1.512-.357,9.692,9.692,0,0,0,1.851,1.851,3.013,3.013,0,0,1,.844,1.051.184.184,0,0,0,.314.028,13.708,13.708,0,0,1,2.357-2.607A3.364,3.364,0,0,0,573.212,429.492Z" transform="translate(-567.745 -425.034)"/></g></g></g></g></svg>