<svg xmlns="http://www.w3.org/2000/svg" xmlns:xlink="http://www.w3.org/1999/xlink" width="60" height="60" viewBox="0 0 60 60"><defs><clipPath id="a"><rect width="60" height="60" transform="translate(4580 -14501)" fill="#fff" stroke="#707070" stroke-width="1"/></clipPath><filter id="b" x="23.647" y="25.985" width="45.353" height="45.353" filterUnits="userSpaceOnUse"><feOffset dy="3" input="SourceAlpha"/><feGaussianBlur stdDeviation="3" result="c"/><feFlood flood-opacity="0.161"/><feComposite operator="in" in2="c"/><feComposite in="SourceGraphic"/></filter></defs><g transform="translate(-4580 14501)" clip-path="url(#a)"><g transform="translate(4411.924 -14899.414)"><g transform="translate(168.076 399.075)"><rect width="53.298" height="53.296" rx="26.648" fill="#dcdbdc"/><g transform="translate(12.931 11.315)"><circle cx="8.055" cy="8.055" r="8.055" transform="translate(5.676)" fill="#171717"/><path d="M376.277,374.465v2.649H348.815v-2.649a9.817,9.817,0,0,1,9.816-9.816h7.831A9.817,9.817,0,0,1,376.277,374.465Z" transform="translate(-348.815 -346.903)" fill="#171717"/></g></g><g transform="translate(200.724 430.4)"><g transform="matrix(1, 0, 0, 1, -32.65, -31.99)" filter="url(#b)"><circle cx="13.676" cy="13.676" r="13.676" transform="translate(32.65 31.99)" fill="#3452ee"/></g><g transform="translate(8.221 6.444)"><path d="M568.227,409.572V408.08h-10.91v1.492h.923v1a4.249,4.249,0,0,0,.248,1.664,7.7,7.7,0,0,0,2.673,3.54.066.066,0,0,1,0,.1,7.7,7.7,0,0,0-2.673,3.54,4.249,4.249,0,0,0-.248,1.664v.979h-.923v1.492h10.91V422.06h-.967v-.979a4.248,4.248,0,0,0-.248-1.664,7.7,7.7,0,0,0-2.673-3.54.067.067,0,0,1,0-.1h0a7.7,7.7,0,0,0,2.673-3.54,4.248,4.248,0,0,0,.248-1.664v-1Zm-1.819,2.5a7.118,7.118,0,0,1-2.455,3.211h0a.69.69,0,0,0,0,1.083,7.118,7.118,0,0,1,2.455,3.211,3.657,3.657,0,0,1,.231,1.449.312.312,0,0,0,0,.039v.872h-7.773v-.872a.279.279,0,0,0,0-.038,3.647,3.647,0,0,1,.231-1.45,7.121,7.121,0,0,1,2.456-3.211.69.69,0,0,0,0-1.083,7.121,7.121,0,0,1-2.456-3.211,3.648,3.648,0,0,1-.231-1.449.312.312,0,0,0,0-.039v-.872h7.773v.872a.289.289,0,0,0,0,.038A3.652,3.652,0,0,1,566.408,412.073Z" transform="translate(-557.317 -408.08)" fill="#fff"/><path d="M569.113,461.5h6.072a3.036,3.036,0,1,0-6.072,0Z" transform="translate(-566.711 -448.207)" fill="#fff"/><path d="M573.241,429.494a3.8,3.8,0,0,1-1.337.179,4.2,4.2,0,0,1-1.527-.361,9.792,9.792,0,0,0,1.87,1.87,3.044,3.044,0,0,1,.852,1.061.186.186,0,0,0,.317.029,13.846,13.846,0,0,1,2.381-2.634A3.4,3.4,0,0,0,573.241,429.494Z" transform="translate(-567.718 -424.989)" fill="#fff"/></g></g></g></g></svg>