<svg xmlns="http://www.w3.org/2000/svg" xmlns:xlink="http://www.w3.org/1999/xlink" width="60" height="60" viewBox="0 0 60 60"><defs><clipPath id="a"><rect width="60" height="60" transform="translate(4829 -14495)" fill="#fff" stroke="#707070" stroke-width="1"/></clipPath><linearGradient id="b" x1="1.123" y1="-0.288" x2="0.275" y2="0.554" gradientUnits="objectBoundingBox"><stop offset="0" stop-color="#dba611"/><stop offset="1" stop-color="#f7ce73"/></linearGradient></defs><g transform="translate(-4829 14495)" clip-path="url(#a)"><g transform="translate(4660.924 -14893.435)"><g transform="translate(168.076 399.075)"><rect width="53.335" height="53.333" rx="26.667" fill="#dcdbdc"/><g transform="translate(12.941 11.323)"><circle cx="8.061" cy="8.061" r="8.061" transform="translate(5.68)" fill="#171717"/><path d="M376.3,374.472v2.651H348.815v-2.651a9.824,9.824,0,0,1,9.823-9.823h7.836A9.824,9.824,0,0,1,376.3,374.472Z" transform="translate(-348.815 -346.891)" fill="#171717"/></g></g><g transform="translate(200.852 430.569)"><circle cx="13.612" cy="13.612" r="13.612" fill="url(#b)"/><path d="M495.439,357.264l3.232,3.232,5.816-5.816" transform="translate(-485.845 -344.05)" fill="none" stroke="#171717" stroke-linecap="round" stroke-linejoin="round" stroke-width="4"/></g></g></g></svg>