<svg xmlns="http://www.w3.org/2000/svg" width="94.494" height="41.103" viewBox="0 0 94.494 41.103">
  <g id="Group_6156" data-name="Group 6156" transform="translate(-137.606 -437.787)">
    <g id="Group_15" data-name="Group 15" transform="translate(82 437.787)">
      <g id="Rectangle_12" data-name="Rectangle 12" transform="translate(55.606)" fill="none" stroke="#fff" stroke-width="0.6">
        <rect width="41.1" height="41.103" rx="20.55" stroke="none"/>
        <rect x="0.3" y="0.3" width="40.5" height="40.503" rx="20.25" fill="none"/>
      </g>
      <path id="Icon_awesome-apple" data-name="Icon awesome-apple" d="M17.591,15.269a5.135,5.135,0,0,1,2.75-4.664,5.91,5.91,0,0,0-4.659-2.453C13.729,8,11.6,9.29,10.814,9.29c-.825,0-2.717-1.084-4.2-1.084C3.543,8.256.281,10.654.281,15.533A13.709,13.709,0,0,0,1.073,20c.7,2.019,3.245,6.969,5.9,6.886,1.386-.033,2.365-.985,4.169-.985,1.749,0,2.657.985,4.2.985,2.673-.038,4.972-4.538,5.643-6.562A5.452,5.452,0,0,1,17.591,15.269ZM14.478,6.238A5.18,5.18,0,0,0,15.8,2.25a5.832,5.832,0,0,0-3.735,1.92,5.262,5.262,0,0,0-1.408,3.955A4.619,4.619,0,0,0,14.478,6.238Z" transform="translate(64.584 5.244)" fill="#fff"/>
    </g>
    <g id="Group_309" data-name="Group 309" transform="translate(191 437.787)">
      <g id="Rectangle_12-2" data-name="Rectangle 12" transform="translate(0)" fill="none" stroke="#fff" stroke-width="0.6">
        <rect width="41.1" height="41.103" rx="20.55" stroke="none"/>
        <rect x="0.3" y="0.3" width="40.5" height="40.503" rx="20.25" fill="none"/>
      </g>
      <path id="google" d="M14.057,16.171V12.053H24.416a9.635,9.635,0,0,1,.277,2.269c0,6.32-4.239,10.813-10.625,10.813A11.068,11.068,0,1,1,14.068,3a10.6,10.6,0,0,1,7.4,2.889L18.329,8.943a6.083,6.083,0,0,0-4.261-1.638,6.775,6.775,0,0,0,0,13.547c4.239,0,5.8-2.933,6.087-4.671h-6.1Z" transform="translate(6.704 6.619)" fill="#fff"/>
    </g>
  </g>
</svg>
