<?xml version="1.0" encoding="UTF-8"?>
<svg id="Layer_1" data-name="Layer 1" xmlns="http://www.w3.org/2000/svg" xmlns:xlink="http://www.w3.org/1999/xlink" viewBox="0 0 1818 1040">
  <defs>
    <style>
      .cls-1 {
        stroke: url(#linear-gradient-2);
      }

      .cls-1, .cls-2, .cls-3, .cls-4, .cls-5 {
        stroke-miterlimit: 10;
      }

      .cls-1, .cls-2, .cls-3, .cls-4, .cls-5, .cls-6 {
        fill: none;
      }

      .cls-2 {
        stroke: url(#linear-gradient-3);
      }

      .cls-7 {
        fill: url(#linear-gradient-51);
      }

      .cls-8 {
        fill: url(#linear-gradient-17);
      }

      .cls-9 {
        fill: url(#linear-gradient-43);
      }

      .cls-10 {
        fill: url(#linear-gradient-15);
      }

      .cls-11 {
        fill: url(#linear-gradient-58);
      }

      .cls-12 {
        fill: url(#linear-gradient-18);
      }

      .cls-13 {
        fill: url(#linear-gradient-56);
      }

      .cls-3 {
        stroke: url(#linear-gradient-4);
      }

      .cls-14 {
        fill: url(#linear-gradient-40);
      }

      .cls-4 {
        stroke: url(#linear-gradient-6);
      }

      .cls-15 {
        fill: url(#linear-gradient-52);
      }

      .cls-16 {
        fill: url(#linear-gradient-28);
      }

      .cls-17 {
        fill: url(#linear-gradient-14);
      }

      .cls-18 {
        fill: url(#linear-gradient-36);
      }

      .cls-19 {
        fill: url(#linear-gradient-20);
      }

      .cls-20 {
        fill: url(#linear-gradient-53);
      }

      .cls-21 {
        fill: url(#linear-gradient-60);
      }

      .cls-22 {
        fill: url(#linear-gradient-35);
      }

      .cls-23 {
        fill: url(#linear-gradient-48);
      }

      .cls-24 {
        fill: url(#linear-gradient-32);
      }

      .cls-25 {
        fill: url(#linear-gradient-11);
      }

      .cls-26 {
        fill: url(#linear-gradient-50);
      }

      .cls-27 {
        fill: url(#linear-gradient-63);
      }

      .cls-28 {
        fill: url(#linear-gradient-39);
      }

      .cls-29 {
        fill: url(#linear-gradient-10);
      }

      .cls-30 {
        fill: url(#linear-gradient-59);
      }

      .cls-31 {
        fill: url(#linear-gradient-49);
      }

      .cls-32 {
        fill: url(#linear-gradient-37);
      }

      .cls-33 {
        fill: url(#linear-gradient-16);
      }

      .cls-5 {
        stroke: url(#linear-gradient-5);
      }

      .cls-34 {
        fill: url(#linear-gradient-31);
      }

      .cls-35 {
        fill: url(#linear-gradient-61);
      }

      .cls-36 {
        fill: url(#linear-gradient-62);
      }

      .cls-37 {
        fill: url(#linear-gradient-41);
      }

      .cls-38 {
        fill: url(#linear-gradient-21);
      }

      .cls-39 {
        fill: url(#linear-gradient-25);
      }

      .cls-40 {
        fill: url(#linear-gradient-54);
      }

      .cls-41 {
        fill: url(#linear-gradient-45);
      }

      .cls-42 {
        fill: url(#linear-gradient-55);
      }

      .cls-43 {
        clip-path: url(#clippath);
      }

      .cls-44 {
        fill: url(#linear-gradient-34);
      }

      .cls-45 {
        fill: url(#linear-gradient-7);
      }

      .cls-46 {
        fill: url(#linear-gradient-24);
      }

      .cls-47 {
        fill: url(#linear-gradient-9);
      }

      .cls-48 {
        fill: url(#linear-gradient-22);
      }

      .cls-49 {
        fill: url(#linear-gradient-42);
      }

      .cls-50 {
        fill: url(#linear-gradient);
      }

      .cls-51 {
        fill: url(#linear-gradient-27);
      }

      .cls-52 {
        fill: url(#linear-gradient-33);
      }

      .cls-53 {
        fill: url(#linear-gradient-38);
      }

      .cls-54 {
        fill: url(#linear-gradient-29);
      }

      .cls-55 {
        fill: url(#linear-gradient-30);
      }

      .cls-56 {
        fill: url(#linear-gradient-23);
      }

      .cls-57 {
        fill: url(#linear-gradient-19);
      }

      .cls-58 {
        fill: url(#linear-gradient-8);
      }

      .cls-59 {
        fill: url(#linear-gradient-44);
      }

      .cls-60 {
        fill: url(#linear-gradient-57);
      }

      .cls-61 {
        fill: url(#linear-gradient-47);
      }

      .cls-62 {
        fill: url(#linear-gradient-46);
      }

      .cls-63 {
        fill: url(#linear-gradient-12);
      }

      .cls-64 {
        fill: url(#linear-gradient-13);
      }

      .cls-65 {
        fill: url(#linear-gradient-26);
      }
    </style>
    <clipPath id="clippath">
      <rect class="cls-6" width="1818" height="1040" rx="91.49" ry="91.49"/>
    </clipPath>
    <linearGradient id="linear-gradient" x1="456.58" y1="-263.61" x2="1361.42" y2="1303.61" gradientUnits="userSpaceOnUse">
      <stop offset="0" stop-color="#7a7a7b"/>
      <stop offset="1" stop-color="#0c0c0e"/>
    </linearGradient>
    <linearGradient id="linear-gradient-2" x1="1364.46" y1="157.89" x2="1921.52" y2="157.89" gradientUnits="userSpaceOnUse">
      <stop offset="0" stop-color="#f9efa1"/>
      <stop offset="1" stop-color="#b98948"/>
    </linearGradient>
    <linearGradient id="linear-gradient-3" x1="874.18" y1="404.59" x2="1601.97" y2="404.59" xlink:href="#linear-gradient-2"/>
    <linearGradient id="linear-gradient-4" x1="1684.01" y1="404.59" x2="2411.8" y2="404.59" xlink:href="#linear-gradient-2"/>
    <linearGradient id="linear-gradient-5" x1="1661.69" y1="928.5" x2="2234.02" y2="928.5" xlink:href="#linear-gradient-2"/>
    <linearGradient id="linear-gradient-6" x1="1051.96" y1="928.5" x2="1624.29" y2="928.5" xlink:href="#linear-gradient-2"/>
    <linearGradient id="linear-gradient-7" x1="126.33" y1="927.09" x2="135.53" y2="943.02" xlink:href="#linear-gradient-2"/>
    <linearGradient id="linear-gradient-8" x1="138.98" y1="926.91" x2="147.61" y2="941.86" xlink:href="#linear-gradient-2"/>
    <linearGradient id="linear-gradient-9" x1="151.3" y1="931.1" x2="158.18" y2="943" xlink:href="#linear-gradient-2"/>
    <linearGradient id="linear-gradient-10" x1="163.94" y1="925.7" x2="174.28" y2="943.62" xlink:href="#linear-gradient-2"/>
    <linearGradient id="linear-gradient-11" x1="182.9" y1="930.94" x2="190.77" y2="944.58" xlink:href="#linear-gradient-2"/>
    <linearGradient id="linear-gradient-12" x1="193.71" y1="926.91" x2="202.34" y2="941.86" xlink:href="#linear-gradient-2"/>
    <linearGradient id="linear-gradient-13" x1="210.31" y1="929.53" x2="220.49" y2="947.17" xlink:href="#linear-gradient-2"/>
    <linearGradient id="linear-gradient-14" x1="230.85" y1="931.16" x2="237.72" y2="943.06" xlink:href="#linear-gradient-2"/>
    <linearGradient id="linear-gradient-15" x1="244.92" y1="931.16" x2="251.79" y2="943.06" xlink:href="#linear-gradient-2"/>
    <linearGradient id="linear-gradient-16" x1="258.85" y1="931.16" x2="265.84" y2="943.26" xlink:href="#linear-gradient-2"/>
    <linearGradient id="linear-gradient-17" x1="272.6" y1="931.23" x2="279.48" y2="943.14" xlink:href="#linear-gradient-2"/>
    <linearGradient id="linear-gradient-18" x1="285.12" y1="931.23" x2="292" y2="943.14" xlink:href="#linear-gradient-2"/>
    <linearGradient id="linear-gradient-19" x1="123.72" y1="160.92" x2="132.62" y2="176.34" xlink:href="#linear-gradient-2"/>
    <linearGradient id="linear-gradient-20" x1="135.14" y1="160.87" x2="143.48" y2="175.31" xlink:href="#linear-gradient-2"/>
    <linearGradient id="linear-gradient-21" x1="146.04" y1="163.55" x2="154.75" y2="178.65" xlink:href="#linear-gradient-2"/>
    <linearGradient id="linear-gradient-22" x1="164" y1="164.86" x2="170.77" y2="176.58" xlink:href="#linear-gradient-2"/>
    <linearGradient id="linear-gradient-23" x1="177.71" y1="164.86" x2="184.57" y2="176.75" xlink:href="#linear-gradient-2"/>
    <linearGradient id="linear-gradient-24" x1="196.6" y1="161.06" x2="206.55" y2="178.28" xlink:href="#linear-gradient-2"/>
    <linearGradient id="linear-gradient-25" x1="213.2" y1="161.03" x2="221.8" y2="175.92" xlink:href="#linear-gradient-2"/>
    <linearGradient id="linear-gradient-26" x1="227.2" y1="161.06" x2="237.15" y2="178.28" xlink:href="#linear-gradient-2"/>
    <linearGradient id="linear-gradient-27" x1="241.4" y1="161.06" x2="251.34" y2="178.28" xlink:href="#linear-gradient-2"/>
    <linearGradient id="linear-gradient-28" x1="122.57" y1="97.75" x2="138.65" y2="125.6" xlink:href="#linear-gradient-2"/>
    <linearGradient id="linear-gradient-29" x1="157.78" y1="108.23" x2="173.16" y2="134.87" xlink:href="#linear-gradient-2"/>
    <linearGradient id="linear-gradient-30" x1="184.94" y1="107.33" x2="197.22" y2="128.6" xlink:href="#linear-gradient-2"/>
    <linearGradient id="linear-gradient-31" x1="204.21" y1="102.81" x2="220.77" y2="131.5" xlink:href="#linear-gradient-2"/>
    <linearGradient id="linear-gradient-32" x1="223.63" y1="105.61" x2="241.23" y2="136.09" xlink:href="#linear-gradient-2"/>
    <linearGradient id="linear-gradient-33" x1="265.36" y1="105.29" x2="285.43" y2="140.05" xlink:href="#linear-gradient-2"/>
    <linearGradient id="linear-gradient-34" x1="304.1" y1="105.88" x2="321.54" y2="136.09" xlink:href="#linear-gradient-2"/>
    <linearGradient id="linear-gradient-35" x1="329.61" y1="100.52" x2="346.29" y2="129.42" xlink:href="#linear-gradient-2"/>
    <linearGradient id="linear-gradient-36" x1="358.62" y1="101.71" x2="380.86" y2="140.23" xlink:href="#linear-gradient-2"/>
    <linearGradient id="linear-gradient-37" x1="404.28" y1="108.23" x2="419.65" y2="134.87" xlink:href="#linear-gradient-2"/>
    <linearGradient id="linear-gradient-38" x1="425.42" y1="100.01" x2="442.37" y2="129.37" xlink:href="#linear-gradient-2"/>
    <linearGradient id="linear-gradient-39" x1="439.06" y1="100.52" x2="455.74" y2="129.42" xlink:href="#linear-gradient-2"/>
    <linearGradient id="linear-gradient-40" x1="460.68" y1="108.23" x2="476.05" y2="134.87" xlink:href="#linear-gradient-2"/>
    <linearGradient id="linear-gradient-41" x1="123.82" y1="456.88" x2="163.58" y2="525.75" xlink:href="#linear-gradient-2"/>
    <linearGradient id="linear-gradient-42" x1="210.88" y1="482.8" x2="248.9" y2="548.65" xlink:href="#linear-gradient-2"/>
    <linearGradient id="linear-gradient-43" x1="278.04" y1="480.58" x2="308.39" y2="533.15" xlink:href="#linear-gradient-2"/>
    <linearGradient id="linear-gradient-44" x1="325.68" y1="469.4" x2="366.63" y2="540.32" xlink:href="#linear-gradient-2"/>
    <linearGradient id="linear-gradient-45" x1="373.7" y1="476.31" x2="417.21" y2="551.67" xlink:href="#linear-gradient-2"/>
    <linearGradient id="linear-gradient-46" x1="444.53" y1="539.02" x2="447.73" y2="544.56" xlink:href="#linear-gradient-2"/>
    <linearGradient id="linear-gradient-47" x1="476.45" y1="484.63" x2="508.81" y2="540.68" xlink:href="#linear-gradient-2"/>
    <linearGradient id="linear-gradient-48" x1="547.6" y1="478.95" x2="589" y2="550.66" xlink:href="#linear-gradient-2"/>
    <linearGradient id="linear-gradient-49" x1="633.35" y1="484.84" x2="666.14" y2="541.62" xlink:href="#linear-gradient-2"/>
    <linearGradient id="linear-gradient-50" x1="130.27" y1="580.71" x2="142.94" y2="602.66" xlink:href="#linear-gradient-2"/>
    <linearGradient id="linear-gradient-51" x1="155.28" y1="582.35" x2="168.61" y2="605.43" xlink:href="#linear-gradient-2"/>
    <linearGradient id="linear-gradient-52" x1="177.21" y1="587.27" x2="190.29" y2="609.94" xlink:href="#linear-gradient-2"/>
    <linearGradient id="linear-gradient-53" x1="200.05" y1="584.48" x2="213.41" y2="607.62" xlink:href="#linear-gradient-2"/>
    <linearGradient id="linear-gradient-54" x1="214.52" y1="582.35" x2="227.9" y2="605.51" xlink:href="#linear-gradient-2"/>
    <linearGradient id="linear-gradient-55" x1="232.46" y1="587.15" x2="246.68" y2="611.79" xlink:href="#linear-gradient-2"/>
    <linearGradient id="linear-gradient-56" x1="265.08" y1="585.19" x2="279.26" y2="609.75" xlink:href="#linear-gradient-2"/>
    <linearGradient id="linear-gradient-57" x1="297.27" y1="583.62" x2="315.56" y2="615.29" xlink:href="#linear-gradient-2"/>
    <linearGradient id="linear-gradient-58" x1="354.03" y1="577.79" x2="373.67" y2="611.81" xlink:href="#linear-gradient-2"/>
    <linearGradient id="linear-gradient-59" x1="391.38" y1="588.71" x2="402.95" y2="608.74" xlink:href="#linear-gradient-2"/>
    <linearGradient id="linear-gradient-60" x1="422.27" y1="583.62" x2="440.55" y2="615.29" xlink:href="#linear-gradient-2"/>
    <linearGradient id="linear-gradient-61" x1="458.57" y1="580.95" x2="475.18" y2="609.7" xlink:href="#linear-gradient-2"/>
    <linearGradient id="linear-gradient-62" x1="492.95" y1="588.71" x2="504.52" y2="608.74" xlink:href="#linear-gradient-2"/>
    <linearGradient id="linear-gradient-63" x1="515.99" y1="588.15" x2="525.81" y2="605.17" xlink:href="#linear-gradient-2"/>
  </defs>
  <g class="cls-43">
    <rect class="cls-50" width="1818" height="1040"/>
    <g>
      <path class="cls-1" d="m1732.07-204.42c-27.51-10.18-56.29-15.08-86.31-14.58-.88-.13-1.89-.13-2.76-.13-153.53,0-278.04,124.51-278.04,278.04,0,15.58,1.26,30.78,3.9,45.6v.5c5.9,43.97,22.99,89.33,52.39,130.66,68.09,95.74,136.44,191.47,204.66,287.08,11.43,16.08,23.87,16.21,35.18.37,67.34-94.73,134.93-189.21,202.27-283.94,26.38-37.19,43.47-77.52,51.14-120.74.13-.5.25-1.13.38-1.63,4.02-18.72,6.16-38.07,6.16-57.92,0-122.37-79.03-226.4-188.96-263.33Zm-161.32,309.82c-.38,4.78.75,9.67.75,9.67,3.52,21.73,2.39,37.94-.25,49.38l-.12.25c-.5,2.13-5.78,20.1-15.2,27.89,0,0,.75.5,1.89,1.01l2.51,1.13c-.88,2.77-1.63,5.53-2.51,8.29l-.25.38-18.34,60.68c-3.9-14.58-9.17-21.24-9.17-21.24-9.05-11.05-11.18-27.77-11.18-27.77,0-8.54-1.38-16.83-3.77-24.62,1.76-.63,2.76-1.01,2.76-1.01-3.89-16.96-13.69-28.77-13.69-28.77-12.31-12.94-18.22-26.13-18.85-27.64l-.13-.25c-5.03-24.75,10.18-31.29,10.18-31.29,11.43-2.89,35.18-19.85,48.24-29.52,4.65,3.89,8.79,8.79,10.55,10.67-.38.88-.63,1.64-.88,2.39,0,0,16.84,15.07,17.47,20.35Zm21.36,128.27s10.3,31.29,21.61,61.69c-19.73-2.26-38.82-7.04-56.79-13.94,10.43-34.68,25.38-72.37,35.18-47.75Zm-107.29-34.3c5.15,24.62,21.11,40.58,21.11,40.58,3.02,2.77,6.16,9.55,6.16,9.55.75,3.77,3.39,8.67,6.41,13.19-16.58-9.93-31.79-21.73-45.48-35.3,2.13-11.68,2.76-22.86,2.76-22.86v-3.02c3.02-.63,6.03-1.38,9.05-2.13Zm170.49-113.7s3.02-4.52,3.64-6.16c0,0,9.8,14.32,16.33,22.87,0,0,.13.12.38.37,2.89,3.27,29.15,33.17,22.74,56.29v.13c-.75,3.39-2.39,6.66-5.28,9.8-1.26,1.51-2.89,2.77-4.65,4.02,0,0-21.23,13.19-14.82,53.27l5.28,2.13s7.92,15.08,7.67,37.44c0,0-5.53,6.53,1.13,27.26-14.45,2.77-29.4,4.15-44.72,4.15h-2.01c-11.05-27.89-19.1-70.61-19.1-70.61-5.65-20.23-1.76-37.81-1.76-37.81,2.51-18.22,4.52-55.41,4.52-55.41.88-12.43,15.96-29.4,25.26-38.57.25-.37.63-.75,1-1.01l1.13-1.26c2.89-2.89,4.77-4.52,4.77-4.52l-1.51-2.39Zm75.88,23.75c-.12,0-.12-.13-.25-.13-.25-1.88.75-7.79,10.93-26.76,0,0,6.41-9.8,7.29-20.35,0,0-1.13-2.52,6.41-11.43,0,0,8.29-10.42,12.44-29.02,0,0,1.38-4.9,5.02-7.79,0,4.77.63,9.93,2.64,12.82v.12c.13.13.25.5.25.75.63,2.13,2.39,7.17,4.4,11.43,0,.12.13.25.13.37.38.75.75,1.26,1,1.88.38.63.75,1.39,1.13,2.01.13.13.13.25.13.25v.13c1.88,3.52,3.27,7.41,4.52,11.43.38.88.75,1.64,1.13,2.39,3.64,7.42,9.17,15.96,16.71,21.11,1.01,15.7-5.65,41.71-5.65,41.71-5.65,16.84-11.43,35.43-14.7,46.49-1.76,5.78-2.89,9.55-2.89,10.05,1,.25,2.26.38,3.52.5-6.16,15.08-7.41,55.03-7.41,78.9-21.11,14.2-44.73,25.13-69.85,32.03.13-9.8,1.26-24.37,1.26-24.37.12-4.15,2.39-12.69,4.14-19.1l.63-2.26,2.64-9.55,4.4.88s2.89-57.29,12.94-85.43c.13-.13.13-.25.13-.38,0,0,.12,0,.5-.12.12,0,.37-.12.75-.25.38-.13.75-.37,1.13-.37.13,0,.13-.13.25-.13,4.9-2.51,13.94-11.05-5.66-37.81Zm78.9,120.99c1.13-10.68,3.52-25.76,7.41-32.04,2.51,4.53,4.9,10.18,7.16,16.71-4.52,5.4-9.42,10.43-14.57,15.33Zm43.84-56.16c0-1.63.13-5.9.25-11.56.25-5.78.5-12.94,1.01-20.35,0,0,.75-12.31,3.14-23.37,0,0,.13-.12.13-.25s.13-.37.13-.63c.63-3.27,1.63-6.41,2.64-9.05l.5-1.38,1.26-4.4c1.76-8.04.5-15.58.12-17.84-.12-.37-.12-.63-.12-.63-3.77-12.18-13.19-16.96-13.19-16.96.5-1.26-.38-2.77-.38-2.77-1.26-1.01-1.76-3.77-1.76-3.77,0-3.52-2.26-3.77-3.52-3.77,1-8.79,6.53-12.31,6.53-12.31,4.77-3.14,3.14-11.68,3.14-11.68-5.53-23.75-27.14-9.67-27.14-9.67l-10.3-1.76c-5.78,8.42,3.64,12.69,3.64,12.69.38-.26,2.51-1.01,2.76-1.01l-.12.12c0,.63-.75,3.27-.88,6.53v.37c-.13,1.01-.25,1.89-.25,3.02,0,4.15,1,8.55,3.89,11.18,0,0,1.26,2.89.25,3.77l-2.39,1.26h-.13c-3.02.37-5.28-2.77-6.41-4.77-.25-.63-.37-1.13-.5-1.39-.12,0-.12-.12-.12-.12-6.28-13.69-22.24-28.02-22.24-28.02-6.16-3.52-5.15-9.55-5.15-9.55.75-8.79-1.63-15.83-1.63-15.83-6.28-24.88-.63-30.28-.63-30.28,4.9-5.9,3.9-12.94,3.9-12.94-1.01-11.56-4.9-6.78-4.9-6.78-.25-5.15-3.77-2.01-3.77-2.01-2.89-3.52-7.28,2.64-7.28,2.64,0,0-5.78,1.26-3.77,7.54,0,0,.13,4.65,1.63,9.17,0,0,2.77,4.9,2.26,21.36v.25c-.75,6.4-3.02,6.66-3.39,6.66-1.88-.63.13-6.15.13-6.15,3.27-8.42,1.13-8.55,1.13-8.55-1.38-.37-4.15,9.8-4.15,9.8-2.26,7.79-4.65,8.04-5.03,8.04-2.26-.12-1.63-2.51-1.63-2.51,1.63-8.04-2.14-6.66-2.14-6.66-1.13.13-.88,2.39-.88,2.39,0,1.38-.25,2.26-.25,2.26-2.13,7.29,1.76,13.69,1.76,13.69,3.39,6.03-3.64,15.08-3.64,15.08-13.7,17.59-13.19,22.99-13.19,22.99-.88,7.29-4.02,10.17-4.02,10.17-6.91,8.17-7.41,15.08-7.41,15.08-9.42-27.51-24.62-23.5-24.62-23.5-18.59-.12-22.11,41.97-22.11,41.97-7.04-2.77-19.35-20.99-19.35-20.99,5.78-4.64,7.79-16.83,7.79-16.83,3.02-16.58,9.55-29.65,9.55-29.65,2.76-4.65,1.25-7.29,1.25-7.29-1-1.38-3.39-6.91-3.39-6.91-5.53-8.55-7.66-6.03-7.66-6.03-.5.37.75,2.76,1.51,4.27-4.9-7.29-5.66-5.91-5.66-5.91-1.13.13-.88,1.64-.63,2.52-1.89-4.02-3.14-3.14-3.14-3.14-1.63.88-.25,4.27.5,5.91-1.76-2.9-3.02-2.52-3.02-2.52-3.02,2.52,6.66,15.83,6.66,15.83,3.27,2.77,1.63,5.78,1.63,5.78-3.27,12.44-14.32,26.38-14.32,26.38-1.88-7.16-12.19-16.08-12.19-16.08-8.42-9.42-7.54-13.57-7.54-13.57.5-5.28-2.14-6.66-2.14-6.66-2.01-.75-4.27-4.02-4.27-4.02-2.64-3.39-5.9-9.17-5.9-9.17-4.15-8.17-5.66-6.03-5.66-6.03-1.63,2.52,3.27,7.29,3.27,7.29.5,2.13,1.51,4.15,1.51,4.15-3.39.12-5.4,1.38-5.4,1.38-5.91-3.52-7.41-1.88-7.41-1.88-.75.88.13,1.88.25,2.01-3.14-1.51-3.39-.5-3.39-.5-.88,1.63,2.01,2.89,2.01,2.89,3.52,1.25,7.29,4.9,7.29,4.9.25,1.51,2.64,3.27,2.64,3.27,3.39,7.66,6.91,7.91,6.91,7.91,3.52.88,4.9,6.03,4.9,6.03,6.28,20.61,18.22,33.17,18.22,33.17.5,4.02-6.28,9.93-7.29,10.8h-.13c-.5-.63-1.13-1.13-1.13-1.13-.38,3.26-6.28,5.9-6.28,5.9-11.43,2.77-14.32,9.05-14.82,10.68.13-2.39.88-6.66,3.02-10.3,0,0,3.27-2.26,3.52-5.28,0,0,3.77-2.39,3.89-6.16,0,0,2.01-2.76.25-5.65v-.25c.25-.88.25-1.64.25-2.39,1.01-5.53-3.52-9.55-3.52-9.55h-.25c-2.39-3.14-4.65-2.52-4.65-2.52-1.51.13-2.39-.5-2.39-.5-.88-.75-1.88-1-2.89-1.25-4.65-3.02-9.3,0-9.55,0-2.51.12-5.78.5-4.52,1.75,0,0-1.63.5-1.25,1.64,0,0-3.77,1.13-3.52,4.14,0,0-3.02,1.89-.88,4.78,0,0-4.15,2.51-.38,7.91,0,0-2.26-.88-.5,3.14,0,0,.88,2.89-.37,5.4,0,0-1.38,2.13,2.13,3.14,0,0,2.89,4.15,1.25,10.05,0,0-5.65.25-10.17-5.15,0,0-4.52-5.78-15.33-8.04,0,0-7.03-3.02-8.79-7.54,0,0-.5.5-1.51,1.26-2.13-3.77-5.4-6.78-8.17-8.8,6.41-2.52,16.84.63,16.84.63,3.52,2.26,5.78.88,5.78.88,1.01-1.13-.75-4.15-.75-4.15-5.9-7.54-22.36-5.28-22.36-5.28-1.26.12-2.77.63-4.65,1.38-1.01-4.15-4.27-8.17-4.27-8.17-8.54-12.06-3.64-17.97-3.64-17.97,2.89-4.9,1.63-7.78,1.63-7.78-.88-1.64-.63-3.52-.63-3.52.13-4.77-2.64-2.64-2.64-2.64-1.13,1.26-2.01.37-2.01.37-7.04-8.67-8.04.75-8.04.75-3.39-.12-1.88,3.02-1.88,3.02.5,1.13,0,1.63,0,1.63-1.88,1.38.38,3.9.38,3.9-2.26.88.25,3.64.25,3.64,3.39,4.02,2.89,7.29,2.89,7.29-1.01,13.44,1.13,21.73,3.64,26.88-7.79,4.65-14.57,9.17-14.57,9.17-31.79,16.46-40.58,13.57-40.58,13.57,10.43-7.66,9.17-19.97,9.17-19.97-1-13.57-8.67-18.22-13.7-19.85-3.01-1.01-6.28-.75-9.29.63-13.82,6.28-15.96,28.65-15.96,28.65q0-.12-.13-.25c.13.37.25.75.25,1.26-7.54-10.81-9.8-35.18-9.8-35.18,12.31-7.53,30.4-8.17,30.4-8.17,3.39,4.9,16.08,10.31,16.08,10.31-.13,8.04,2.13,7.78,2.13,7.78,3.77-2.64,1.76-12.18,1.76-12.18-1.63-4.9-16.71-11.94-16.71-11.94-8.29-4.15-40.96,2.26-40.96,2.26-4.4,11.18-6.03,22.74-6.03,33.8,0,9.8,1.26,19.22,3.02,27.51,0,.12,0,.25.13.25.75,3.9,1.76,7.66,2.76,10.93,4.52,19.22,11.56,52.89,11.68,53.52.63,13.07-.88,27.64-2.39,37.19-2.76-3.9-5.4-8.04-7.91-12.18-.13-.25-.38-.63-.5-.88-2.52-4.02-4.78-8.17-7.04-12.43-.13-.38-.38-.75-.63-1.26-1.88-3.64-3.77-7.41-5.4-11.18-.13-.37-.38-.75-.5-1.13-1.13-2.39-2.13-4.9-3.14-7.54-.13-.12-.25-.25-.25-.5-1.01-2.26-1.88-4.52-2.64-6.91-1.88-4.9-3.64-10.05-5.02-15.2-.88-2.77-1.63-5.53-2.39-8.42-.75-2.77-1.38-5.66-2.01-8.55-.88-3.9-1.63-7.79-2.26-11.81-.63-4.02-1.26-8.04-1.76-12.06-.25-2.77-.5-5.4-.75-8.17-.25-2.89-.38-5.91-.5-8.8-.13-2.64-.25-5.28-.25-8.04.63-133.3,108.8-241.22,242.23-241.22s241.73,107.92,242.35,241.1c0,1.88-.12,3.77-.12,5.78-.13,5.28-.63,10.43-1.01,15.7-3.52,34.3-14.07,66.46-30.28,95.1Z"/>
      <g>
        <path class="cls-2" d="m935.44,230.42c-18.93,22.41-33.32,47.8-43.06,76.21-.42.78-.76,1.73-1.06,2.56-52.21,144.38,22.53,303.81,166.91,356.02,14.65,5.3,29.37,9.28,44.21,11.85l.47.17c43.36,9.4,91.82,8.76,140.69-4.83,113.19-31.48,226.46-63.19,339.57-94.83,19.01-5.28,23.36-16.93,12.32-32.95-66.18-95.55-132.04-191.24-198.22-286.78-26-37.46-58.11-67.24-96.15-89.15-.43-.29-.98-.62-1.41-.91-16.24-10.15-33.7-18.74-52.37-25.49-115.08-41.62-239.78-2.68-311.9,88.14Zm236.49,257.07c4.37,1.98,9.35,2.58,9.35,2.58,21.64,4.08,36.49,10.66,46.35,17.03l.19.2c1.84,1.2,16.94,12.27,21.05,23.78,0,0,.73-.54,1.59-1.43l1.92-1.98c2.3,1.77,4.65,3.42,6.95,5.18l.27.37,50.83,37.89c-15.03-1.29-23.09,1.4-23.09,1.4-13.47,4.75-29.91,1.07-29.91,1.07-8.03-2.9-16.3-4.43-24.44-4.83.01-1.87,0-2.94,0-2.94-17.27-2.11-31.71,3.09-31.71,3.09-16.35,7.18-30.77,8.25-32.4,8.32l-.28.03c-24.99-3.69-25.96-20.21-25.96-20.21,1.17-11.73-6.7-39.83-11.35-55.41,5.24-3.05,11.26-5.28,13.63-6.3.7.66,1.33,1.15,1.95,1.64,0,0,19.9-10.71,25.08-9.5Zm127.89,23.54s32.92.95,65.36.66c-8.84,17.78-19.82,34.12-32.43,48.66-29.06-21.6-59.42-48.48-32.94-49.32Zm-68.74,89.23c24.91,3.53,45.34-6.05,45.34-6.05,3.63-1.89,11.08-2.54,11.08-2.54,3.8.57,9.31-.24,14.58-1.54-14.97,12.22-31.25,22.5-48.67,30.76-10.26-5.98-20.56-10.37-20.56-10.37l-2.84-1.03c.44-3.05.75-6.14,1.07-9.23Zm-48.94-199s-3.23-4.37-4.55-5.52c0,0,16.8-4.35,27.06-7.58,0,0,.16-.08.48-.23,4.06-1.61,41.11-16.13,60.66-2.24l.12.04c2.93,1.86,5.45,4.51,7.42,8.29.99,1.7,1.62,3.66,2.2,5.74,0,0,5.18,24.45,45.05,32.06l3.8-4.24s16.87-2.32,37.81,5.52c0,0,4.26,7.42,26.02,8.21-2.31,14.53-6.1,29.06-11.31,43.47l-.68,1.89c-29.99.91-72.9-6.06-72.9-6.06-20.94-1.56-36.16-11.21-36.16-11.21-16.28-8.56-50.57-23.1-50.57-23.1-11.39-5.06-22.22-25-27.68-36.87-.27-.36-.5-.85-.6-1.29l-.8-1.49c-1.73-3.7-2.63-6.03-2.63-6.03l-2.76.6Zm48.14-63.28c-.04.12-.16.07-.21.19-1.86-.4-7.07-3.36-21.45-19.38,0,0-7.04-9.36-16.66-13.78,0,0-2.75.21-8.57-9.91,0,0-6.98-11.34-23.06-21.57,0,0-4.14-2.97-5.62-7.37,4.49,1.62,9.55,2.78,12.95,1.88l.12.04c.16-.07.56-.07.8.02,2.22.13,7.55.19,12.25-.25.12.04.28-.03.39,0,.84-.1,1.44-.28,2.11-.3.72-.14,1.56-.24,2.28-.38.16-.07.28-.03.28-.03l.12.04c3.95-.58,8.08-.55,12.29-.37.96-.05,1.8-.15,2.63-.25,8.21-.9,18.13-3.2,25.53-8.54,15.11,4.39,37.3,19.5,37.3,19.5,13.91,11.04,29.43,22.8,38.72,29.63,4.84,3.62,7.99,5.96,8.47,6.13.58-.86,1.13-2,1.67-3.13,12.09,10.92,49.23,25.68,71.68,33.8,6.17,24.68,8.42,50.61,6.37,76.59-9.17-3.45-22.49-9.47-22.49-9.47-3.86-1.53-11.12-6.56-16.55-10.39l-1.91-1.36-8.08-5.73,2.32-3.84s-52.89-22.2-75.94-41.22c-.08-.16-.19-.2-.31-.25,0,0,.04-.12.06-.51.04-.12.01-.39.02-.79,0-.4-.1-.84.03-1.19.04-.12-.08-.16-.04-.28-.69-5.46-5.65-16.87-37.48-7.54Zm140.61-33.05c-9.66-4.69-23.03-12.07-27.61-17.87,5.11-.82,11.24-1.15,18.15-1.05,3.54,6.09,6.6,12.41,9.46,18.92Zm-37.9-60.33c-1.53-.55-5.51-2.13-10.78-4.17-5.35-2.2-12-4.87-18.8-7.87,0,0-11.32-4.9-20.91-10.9,0,0-.07-.16-.19-.2s-.31-.25-.55-.33c-2.86-1.7-5.47-3.71-7.61-5.56l-1.13-.94-3.71-2.68c-6.97-4.39-14.48-5.77-16.73-6.18-.39-.01-.64-.1-.64-.1-12.74-.6-20.43,6.64-20.43,6.64-1.01-.9-2.73-.59-2.73-.59-1.37.84-4.14.37-4.14.37-3.31-1.2-4.32.84-4.74,2.02-7.93-3.93-9.36-10.33-9.36-10.33-1.33-5.56-9.92-6.93-9.92-6.93-24.21-2.88-18.33,22.23-18.33,22.23l-5.16,9.09c5.95,8.3,13.17.89,13.17.89-.11-.44-.09-2.7,0-2.94l.07.16c.59.21,2.82,1.82,5.84,3.05l.35.13c.9.46,1.69.88,2.75,1.26,3.9,1.41,8.38,1.96,11.84.14,0,0,3.14-.2,3.63,1.04l.37,2.67-.04.12c-.67,2.96-4.4,4.02-6.67,4.4-.68.02-1.19-.03-1.47,0-.04.12-.16.07-.16.07-15.01,1.25-33.91,11.38-33.91,11.38-5.4,4.6-10.73,1.6-10.73,1.6-8.01-3.7-15.44-3.85-15.44-3.85-25.53-2.55-28.69-9.71-28.69-9.71-3.88-6.61-10.84-8.06-10.84-8.06-11.21-2.98-8.05,2.3-8.05,2.3-4.93-1.52-3.17,2.86-3.17,2.86-4.29,1.52,0,7.75,0,7.75,0,0-.78,5.86,5.81,6.11,0,0,4.42,1.46,9.18,1.58,0,0,5.55-.93,20.86,5.14l.24.09c5.77,2.89,5.23,5.1,5.11,5.45-1.23,1.56-5.74-2.21-5.74-2.21-6.8-5.93-7.65-3.97-7.65-3.97-.82,1.17,7.8,7.23,7.8,7.23,6.56,4.78,5.98,7.11,5.85,7.46-.88,2.08-2.91.68-2.91.68-7.01-4.27-6.99-.26-6.99-.26-.26,1.11,1.95,1.64,1.95,1.64,1.3.47,2.04,1.01,2.04,1.01,6.13,4.49,13.47,3,13.47,3,6.82-1.14,12.94,8.55,12.94,8.55,11.88,18.86,17.14,20.23,17.14,20.23,6.55,3.31,8.2,7.24,8.2,7.24,5.33,9.28,11.66,12.1,11.66,12.1-29.08-.5-30.47,15.17-30.47,15.17-6.44,17.44,31.94,35.07,31.94,35.07-4.99,5.68-26.32,11.06-26.32,11.06-2.4-7.01-13.18-13.05-13.18-13.05-14.57-8.47-24.63-19.06-24.63-19.06-3.43-4.18-6.43-3.66-6.43-3.66-1.64.47-7.65.84-7.65.84-9.92,2.29-8.28,5.15-8.28,5.15.18.6,2.85.23,4.53.03-8.52,2.13-7.48,3.31-7.48,3.31-.26,1.11,1.24,1.38,2.15,1.44-4.42.41-4.02,1.89-4.02,1.89.27,1.84,3.93,1.69,5.73,1.54-3.32.67-3.39,1.98-3.39,1.98,1.34,3.69,17.15-.88,17.15-.88,3.71-2.13,5.99.43,5.99.43,10.59,7.3,19.94,22.44,19.94,22.44-7.37-.66-19.26,5.99-19.26,5.99-11.72,4.71-15.32,2.47-15.32,2.47-4.79-2.26-6.99-.25-6.99-.25-1.39,1.63-5.24,2.65-5.24,2.65-4.09,1.33-10.63,2.43-10.63,2.43-9.09,1.12-7.59,3.27-7.59,3.27,1.81,2.39,7.96-.59,7.96-.59,2.18.25,4.41,0,4.41,0-1.04,3.23-.54,5.55-.54,5.55-5.31,4.36-4.29,6.33-4.29,6.33.57,1.01,1.81.52,1.98.45-2.49,2.44-1.63,3.02-1.63,3.02,1.24,1.38,3.4-.91,3.4-.91,2.37-2.88,7.08-5.19,7.08-5.19,1.5.28,3.97-1.37,3.97-1.37,8.36-.58,9.79-3.81,9.79-3.81,2.02-3.01,7.34-2.56,7.34-2.56,21.51,1.1,37.39-5.85,37.39-5.85,3.95.9,7.2,9.28,7.68,10.53l-.04.12c-.76.26-1.45.68-1.45.68,2.94,1.46,3.41,7.91,3.41,7.91-1.29,11.69,3.64,16.54,5,17.57-2.2-.93-5.96-3.09-8.66-6.34,0,0-1.02-3.84-3.76-5.1,0,0-.96-4.36-4.47-5.76,0,0-1.91-2.83-5.23-2.16l-.24-.09c-.75-.54-1.45-.79-2.16-1.05-4.86-2.83-10.17.06-10.17.06l-.09.24c-3.77,1.18-3.95,3.52-3.95,3.52-.39,1.46-1.28,2.07-1.28,2.07-1,.57-1.58,1.43-2.16,2.29-4.42,3.35-3.16,8.74-3.25,8.98-.74,2.4-1.49,5.61.11,4.85,0,0-.08,1.71,1.11,1.74,0,0-.22,3.93,2.7,4.72,0,0,.75,3.48,4.19,2.45,0,0,.95,4.75,7.31,3.05,0,0-1.59,1.83,2.78,1.54,0,0,3.02.15,4.96,2.19,0,0,1.54,2.03,3.68-.94,0,0,4.88-1.31,9.88,2.24,0,0-1.69,5.4-8.31,7.82,0,0-6.97,2.29-12.77,11.68,0,0-5.23,5.59-10.08,5.71,0,0,.3.64.67,1.84-4.27.72-8.22,2.77-11.05,4.69-.19-6.88,6.31-15.62,6.31-15.62,3.33-2.54,2.8-5.13,2.8-5.13-.72-1.33-4.16-.7-4.16-.7-9.1,2.99-12.57,19.23-12.57,19.23-.31,1.22-.35,2.81-.28,4.84-4.24-.46-9.13,1.24-9.13,1.24-14.25,3.93-18.14-2.69-18.14-2.69-3.63-4.38-6.77-4.18-6.77-4.18-1.84.27-3.53-.61-3.53-.61-4.45-1.74-3.38,1.58-3.38,1.58.8,1.49-.33,2.02-.33,2.02-10.54,3.67-2.03,7.82-2.03,7.82-1.27,3.15,2.2,2.8,2.2,2.8,1.23-.09,1.53.55,1.53.55.66,2.24,3.79.97,3.79.97.06,2.42,3.51,1,3.51,1,4.93-1.82,7.84-.24,7.84-.24,12.3,5.52,20.82,6.33,26.52,5.72,1.72,8.91,3.67,16.82,3.67,16.82,4.67,35.49-1.04,42.78-1.04,42.78-3.66-12.41-15.66-15.42-15.66-15.42-13.1-3.67-20.08,1.95-23.33,6.13-1.97,2.49-2.85,5.65-2.57,8.95,1.21,15.13,21.51,24.75,21.51,24.75q-.12-.04-.28.03c.39,0,.79.02,1.27.19-12.73,3.41-36.42-2.75-36.42-2.75-2.9-14.14,2.66-31.37,2.66-31.37,5.76-1.52,15.16-11.62,15.16-11.62,7.51,2.85,8.05.64,8.05.64-1.2-4.44-10.86-5.8-10.86-5.8-5.17-.13-16.91,11.65-16.91,11.65-6.72,6.39-11.8,39.29-11.8,39.29,9.02,7.94,19.33,13.41,29.73,17.16,9.21,3.33,18.5,5.35,26.9,6.52.12.04.24.09.28-.03,3.92.62,7.8.95,11.22,1.12,19.61,2.28,53.67,7.12,54.3,7.21,12.5,3.85,25.7,10.23,34.16,14.89-4.6,1.27-9.39,2.35-14.15,3.3-.28.03-.72.14-1,.17-4.63,1-9.3,1.71-14.09,2.39-.4-.01-.84.1-1.4.16-4.07.53-8.25,1.02-12.35,1.28-.39,0-.83.1-1.23.09-2.63.25-5.34.34-8.16.39-.16.08-.32.15-.56.07-2.47.18-4.89.23-7.39.13-5.25.1-10.69,0-16-.45-2.9-.11-5.75-.34-8.73-.62-2.86-.23-5.79-.63-8.72-1.02-3.96-.5-7.88-1.12-11.87-1.89-3.99-.78-7.99-1.55-11.94-2.45-2.69-.7-5.25-1.37-7.93-2.07-2.8-.75-5.68-1.65-8.44-2.52-2.52-.78-5.05-1.56-7.65-2.5-125.14-45.92-189.84-184.35-144.46-309.83,45.42-125.59,183.7-190.61,309.15-145.91,1.77.64,3.5,1.4,5.39,2.08,4.92,1.92,9.59,4.14,14.43,6.29,31.06,14.97,57.71,35.84,79.14,60.82Z"/>
        <path class="cls-3" d="m2038.64,142.28c-18.67,6.75-36.13,15.34-52.37,25.49-.43.29-.98.62-1.41.91-38.04,21.9-70.15,51.69-96.15,89.15-66.18,95.54-132.04,191.24-198.22,286.78-11.04,16.02-6.69,27.67,12.32,32.95,113.12,31.64,226.39,63.35,339.57,94.83,48.87,13.59,97.33,14.23,140.69,4.83l.47-.17c14.84-2.56,29.56-6.55,44.21-11.85,144.38-52.22,219.12-211.65,166.91-356.02-.3-.82-.64-1.77-1.06-2.56-9.74-28.41-24.13-53.8-43.06-76.21-72.12-90.82-196.82-129.75-311.9-88.14Zm100.49,354.71c.62-.49,1.25-.99,1.95-1.64,2.37,1.02,8.39,3.25,13.63,6.3-4.65,15.57-12.52,43.67-11.35,55.41,0,0-.97,16.52-25.96,20.21l-.28-.03c-1.63-.08-16.04-1.14-32.4-8.32,0,0-14.44-5.2-31.71-3.09,0,0-.02,1.07,0,2.94-8.14.4-16.41,1.93-24.44,4.83,0,0-16.44,3.68-29.91-1.07,0,0-8.06-2.7-23.09-1.4l50.83-37.89.27-.37c2.3-1.76,4.64-3.41,6.95-5.18l1.92,1.98c.86.89,1.59,1.43,1.59,1.43,4.12-11.51,19.22-22.58,21.05-23.78l.19-.2c9.86-6.37,24.71-12.95,46.35-17.03,0,0,4.99-.6,9.35-2.58,5.18-1.2,25.08,9.5,25.08,9.5Zm-185.9,63.36c-12.61-14.55-23.59-30.88-32.43-48.66,32.44.29,65.36-.66,65.36-.66,26.49.84-3.87,27.72-32.94,49.32Zm102.75,49.15l-2.84,1.03s-10.3,4.39-20.56,10.37c-17.42-8.26-33.69-18.54-48.67-30.76,5.28,1.3,10.78,2.11,14.58,1.54,0,0,7.45.65,11.08,2.54,0,0,20.43,9.58,45.34,6.05.32,3.09.63,6.18,1.07,9.23Zm45.11-208.83s-.89,2.33-2.63,6.03l-.8,1.49c-.11.44-.34.92-.6,1.29-5.46,11.86-16.29,31.81-27.68,36.87,0,0-34.29,14.54-50.57,23.1,0,0-15.21,9.64-36.16,11.21,0,0-42.91,6.97-72.9,6.06l-.68-1.89c-5.21-14.41-9-28.94-11.31-43.47,21.76-.79,26.02-8.21,26.02-8.21,20.94-7.84,37.81-5.52,37.81-5.52l3.8,4.24c39.87-7.6,45.05-32.06,45.05-32.06.58-2.08,1.21-4.05,2.2-5.74,1.97-3.79,4.49-6.43,7.42-8.29l.12-.04c19.56-13.89,56.61.64,60.66,2.24.32.15.48.23.48.23,10.26,3.23,27.06,7.58,27.06,7.58-1.33,1.15-4.55,5.52-4.55,5.52l-2.76-.6Zm-82.87-55.14c.04.12-.08.16-.04.28.13.35.03.79.03,1.19,0,.4-.02.68.02.79.01.4.06.51.06.51-.12.04-.24.09-.31.25-23.04,19.02-75.94,41.22-75.94,41.22l2.32,3.84-8.08,5.73-1.91,1.36c-5.43,3.83-12.69,8.87-16.55,10.39,0,0-13.32,6.02-22.49,9.47-2.05-25.98.2-51.91,6.37-76.59,22.45-8.12,59.59-22.89,71.68-33.8.54,1.14,1.09,2.28,1.67,3.13.47-.17,3.63-2.51,8.47-6.13,9.29-6.83,24.8-18.59,38.72-29.63,0,0,22.19-15.11,37.3-19.5,7.41,5.33,17.32,7.63,25.53,8.54.83.1,1.67.2,2.63.25,4.21-.18,8.34-.21,12.29.37l.12-.04s.12-.04.28.03c.72.14,1.55.24,2.28.38.67.02,1.27.2,2.11.3.12-.04.28.03.39,0,4.7.44,10.03.38,12.25.25.24-.09.63-.09.8-.02l.12-.04c3.4.91,8.46-.25,12.95-1.88-1.48,4.41-5.62,7.37-5.62,7.37-16.08,10.22-23.06,21.57-23.06,21.57-5.82,10.12-8.57,9.91-8.57,9.91-9.62,4.42-16.66,13.78-16.66,13.78-14.38,16.02-19.59,18.97-21.45,19.38-.04-.12-.16-.07-.21-.19-31.83-9.33-36.79,2.08-37.48,7.54Zm-93.67-59.51c6.91-.1,13.04.23,18.15,1.05-4.58,5.8-17.95,13.17-27.61,17.87,2.86-6.51,5.92-12.83,9.46-18.92Zm107.58-102.23c4.83-2.15,9.51-4.37,14.43-6.29,1.89-.68,3.62-1.44,5.39-2.08,125.45-44.7,263.73,20.32,309.15,145.91s-19.32,263.9-144.46,309.83c-2.6.94-5.13,1.72-7.65,2.5-2.76.86-5.64,1.77-8.44,2.52-2.68.7-5.25,1.37-7.93,2.07-3.95.89-7.95,1.67-11.94,2.45-3.99.78-7.91,1.39-11.87,1.89-2.93.39-5.86.78-8.72,1.02-2.97.27-5.83.5-8.73.62-5.31.45-10.75.55-16,.45-2.5.1-4.93.05-7.39-.13-.24.09-.4.01-.56-.07-2.82-.05-5.53-.14-8.16-.39-.4.01-.84-.1-1.23-.09-4.1-.25-8.29-.74-12.35-1.28-.56-.07-1-.17-1.4-.16-4.78-.67-9.45-1.39-14.09-2.39-.28-.03-.72-.14-1-.17-4.75-.95-9.55-2.02-14.15-3.3,8.46-4.67,21.66-11.04,34.16-14.89.63-.09,34.69-4.93,54.3-7.21,3.42-.17,7.3-.5,11.22-1.12.04.12.16.07.28.03,8.4-1.17,17.69-3.19,26.9-6.52,10.4-3.76,20.72-9.23,29.73-17.16,0,0-5.08-32.9-11.8-39.29,0,0-11.74-11.78-16.91-11.65,0,0-9.66,1.36-10.86,5.8,0,0,.53,2.21,8.05-.64,0,0,9.4,10.09,15.16,11.62,0,0,5.56,17.23,2.66,31.37,0,0-23.69,6.16-36.42,2.75.47-.17.87-.19,1.27-.19q-.16-.07-.28-.03s20.31-9.61,21.51-24.75c.27-3.3-.6-6.46-2.57-8.95-3.24-4.17-10.22-9.8-23.33-6.13,0,0-12.01,3-15.66,15.42,0,0-5.71-7.29-1.04-42.78,0,0,1.94-7.92,3.67-16.82,5.69.61,14.22-.2,26.52-5.72,0,0,2.9-1.58,7.84.24,0,0,3.46,1.42,3.51-1,0,0,3.13,1.27,3.79-.97,0,0,.3-.64,1.53-.55,0,0,3.47.35,2.2-2.8,0,0,8.52-4.15-2.03-7.82,0,0-1.13-.52-.33-2.02,0,0,1.07-3.32-3.38-1.58,0,0-1.69.88-3.53.61,0,0-3.14-.2-6.77,4.18,0,0-3.89,6.62-18.14,2.69,0,0-4.89-1.71-9.13-1.24.07-2.03.03-3.62-.28-4.84,0,0-3.47-16.25-12.57-19.23,0,0-3.44-.63-4.16.7,0,0-.53,2.6,2.8,5.13,0,0,6.5,8.74,6.31,15.62-2.83-1.91-6.78-3.97-11.05-4.69.37-1.2.67-1.84.67-1.84-4.85-.12-10.08-5.71-10.08-5.71-5.8-9.39-12.77-11.68-12.77-11.68-6.62-2.41-8.31-7.82-8.31-7.82,4.99-3.54,9.88-2.24,9.88-2.24,2.14,2.97,3.68.94,3.68.94,1.94-2.04,4.96-2.19,4.96-2.19,4.38.29,2.78-1.54,2.78-1.54,6.36,1.71,7.31-3.05,7.31-3.05,3.44,1.02,4.19-2.45,4.19-2.45,2.92-.79,2.7-4.72,2.7-4.72,1.2-.03,1.11-1.74,1.11-1.74,1.6.75.85-2.45.11-4.85-.09-.24,1.17-5.63-3.25-8.98-.58-.86-1.16-1.72-2.16-2.29,0,0-.89-.61-1.28-2.07,0,0-.18-2.34-3.95-3.52l-.09-.24s-5.32-2.89-10.17-.06c-.71.26-1.42.51-2.16,1.05l-.24.09c-3.32-.67-5.23,2.16-5.23,2.16-3.51,1.4-4.47,5.76-4.47,5.76-2.75,1.26-3.76,5.1-3.76,5.1-2.7,3.25-6.46,5.41-8.66,6.34,1.36-1.03,6.29-5.88,5-17.57,0,0,.47-6.45,3.41-7.91,0,0-.69-.42-1.45-.68l-.04-.12c.48-1.24,3.73-9.63,7.68-10.53,0,0,15.87,6.95,37.39,5.85,0,0,5.32-.45,7.34,2.56,0,0,1.43,3.22,9.79,3.81,0,0,2.47,1.65,3.97,1.37,0,0,4.71,2.31,7.08,5.19,0,0,2.17,2.29,3.4.91,0,0,.86-.58-1.63-3.02.16.07,1.41.56,1.98-.45,0,0,1.02-1.97-4.29-6.33,0,0,.5-2.32-.54-5.55,0,0,2.23.26,4.41,0,0,0,6.15,2.98,7.96.59,0,0,1.49-2.15-7.59-3.27,0,0-6.54-1.1-10.63-2.43,0,0-3.84-1.02-5.24-2.65,0,0-2.2-2.01-6.99.25,0,0-3.6,2.24-15.32-2.47,0,0-11.89-6.66-19.26-5.99,0,0,9.35-15.14,19.94-22.44,0,0,2.28-2.56,5.99-.43,0,0,15.81,4.57,17.15.88,0,0-.07-1.31-3.39-1.98,1.8.15,5.46.3,5.73-1.54,0,0,.4-1.48-4.02-1.89.91-.06,2.42-.34,2.15-1.44,0,0,1.04-1.18-7.48-3.31,1.68.2,4.35.57,4.53-.03,0,0,1.64-2.86-8.28-5.15,0,0-6.01-.37-7.65-.84,0,0-2.99-.52-6.43,3.66,0,0-10.07,10.59-24.63,19.06,0,0-10.78,6.04-13.18,13.05,0,0-21.32-5.38-26.32-11.06,0,0,38.38-17.62,31.94-35.07,0,0-1.39-15.66-30.47-15.17,0,0,6.32-2.82,11.66-12.1,0,0,1.64-3.93,8.2-7.24,0,0,5.25-1.37,17.14-20.23,0,0,6.12-9.69,12.94-8.55,0,0,7.35,1.48,13.47-3,0,0,.75-.54,2.04-1.01,0,0,2.21-.53,1.95-1.64,0,0,.02-4.01-6.99.26,0,0-2.03,1.4-2.91-.68-.13-.35-.7-2.68,5.85-7.46,0,0,8.62-6.06,7.8-7.23,0,0-.85-1.96-7.65,3.97,0,0-4.51,3.77-5.74,2.21-.13-.35-.66-2.57,5.11-5.45l.24-.09c15.31-6.07,20.86-5.14,20.86-5.14,4.76-.12,9.18-1.58,9.18-1.58,6.59-.25,5.81-6.11,5.81-6.11,0,0,4.29-6.23,0-7.75,0,0,1.76-4.38-3.17-2.86,0,0,3.16-5.29-8.05-2.3,0,0-6.96,1.45-10.84,8.06,0,0-3.16,7.15-28.69,9.71,0,0-7.43.15-15.44,3.85,0,0-5.33,3-10.73-1.6,0,0-18.9-10.13-33.91-11.38,0,0-.12.04-.16-.07-.28-.04-.8.02-1.47,0-2.27-.38-5.99-1.44-6.67-4.4l-.04-.12.37-2.67c.48-1.24,3.63-1.04,3.63-1.04,3.46,1.82,7.94,1.27,11.84-.14,1.06-.38,1.85-.8,2.75-1.26l.35-.13c3.03-1.23,5.26-2.84,5.84-3.05l.07-.16c.09.24.11,2.5,0,2.94,0,0,7.23,7.41,13.17-.89l-5.16-9.09s5.88-25.11-18.33-22.23c0,0-8.59,1.37-9.92,6.93,0,0-1.43,6.4-9.36,10.33-.43-1.18-1.43-3.22-4.74-2.02,0,0-2.77.47-4.14-.37,0,0-1.72-.31-2.73.59,0,0-7.69-7.24-20.43-6.64,0,0-.24.09-.64.1-2.26.41-9.77,1.79-16.73,6.18l-3.71,2.68-1.13.94c-2.14,1.84-4.75,3.85-7.61,5.56-.24.09-.43.29-.55.33-.12.04-.19.2-.19.2-9.58,6-20.91,10.9-20.91,10.9-6.8,3-13.45,5.67-18.8,7.87-5.28,2.04-9.25,3.61-10.78,4.17,21.42-24.98,48.08-45.85,79.14-60.82Z"/>
      </g>
      <g>
        <path class="cls-5" d="m2177.29,813.49c-11.97-15.84-25.33-29.99-39.82-42.5-.4-.33-.88-.75-1.28-1.07-32.17-29.87-70.11-51.74-113.58-65.51-110.83-34.99-221.72-69.64-332.55-104.63-18.57-5.82-28.41,1.78-27.84,21.5,3.2,117.41,6.37,235,9.75,352.43,1.46,50.7,15.16,97.19,36.96,135.83l.3.4c6.83,13.42,14.99,26.31,24.38,38.74,92.55,122.5,266.94,146.8,389.44,54.25.7-.53,1.5-1.14,2.13-1.77,24.26-17.7,44.26-38.95,60.08-63.66,65.45-95.74,65.8-226.38-7.97-324.02Zm-309.17,200.82c.66.45,1.31.9,2.14,1.38-.27,2.56-.62,8.97-1.99,14.88-16.25.16-45.42.94-56.29,5.53,0,0-16.07,3.95-26.98-18.83l-.05-.28c-.41-1.58-3.65-15.67-1.62-33.41,0,0,.7-15.33-6.42-31.21,0,0-1.03.3-2.81.86-2.79-7.66-6.69-15.11-11.84-21.92,0,0-8.37-14.62-7.81-28.9,0,0,.19-8.5-5.48-22.47l51.21,37.36.43.15c2.36,1.67,4.63,3.43,7,5.1l-1.32,2.41c-.6,1.08-.9,1.94-.9,1.94,12.21.53,27.25,11.69,28.94,13.09l.25.13c9,7.53,19.67,19.78,29.96,39.25,0,0,2.05,4.59,5.23,8.17,2.68,4.59-1.67,26.76-1.67,26.76Zm-115.46-158.88c10.17-16.34,22.53-31.66,36.91-45.36,9.3,31.08,19.94,62.25,19.94,62.25,7.02,25.56-27.62,4.49-56.85-16.89Zm-16.59,112.68l-1.82-2.41s-7.24-8.54-15.99-16.58c2.75-19.08,7.76-37.67,15.01-55.58.32,5.42,1.17,10.93,2.84,14.39,0,0,1.58,7.31.85,11.33,0,0-3.11,22.35,7.62,45.1-2.86,1.22-5.72,2.43-8.5,3.75Zm212.84-18.61s-2.49-.17-6.53-.73l-1.66-.32c-.45.03-.98-.05-1.41-.2-12.95-1.71-35.2-6.16-43.4-15.55,0,0-24.02-28.46-37.01-41.48,0,0-13.71-11.69-21.39-31.23,0,0-19.33-38.94-27.33-67.85l1.61-1.21c12.23-9.24,24.99-17.15,38.19-23.65,7.18,20.55,15.53,22.43,15.53,22.43,13.68,17.69,16.45,34.49,16.45,34.49l-2.92,4.88c19.05,35.84,43.94,33.57,43.94,33.57,2.16-.06,4.22-.04,6.14.41,4.2.76,7.47,2.38,10.12,4.64l.08.1c19.05,14.58,16.12,54.27,15.78,58.62-.05.35-.08.53-.08.53-.06,10.75.75,28.09.75,28.09-1.49-.93-6.62-2.72-6.62-2.72l-.24-2.81Zm28.19-95.46c-.1.08-.18-.03-.28.05-.3.23-.75.26-1.13.38-.38.12-.65.18-.75.25-.38.13-.48.21-.48.21-.08-.1-.15-.2-.33-.23-24.98-16.39-61.82-60.36-61.82-60.36l-2.98,3.35-7.86-6.03-1.87-1.43c-5.26-4.05-12.22-9.5-14.82-12.74,0,0-9.69-10.95-15.7-18.69,24.21-9.63,49.65-15.15,75.05-16.55,14.39,19.05,39.47,50.17,53.48,58.49-.93.85-1.85,1.71-2.5,2.52.3.4,3.47,2.73,8.36,6.28,9.27,6.85,25.09,18.2,39.75,28.23,0,0,20.99,16.74,29.65,29.87-2.91,8.65-2.17,18.8-.61,26.92.15.82.31,1.65.54,2.58,1.42,3.96,2.66,7.91,3.28,11.85l.08.1s.07.1.05.28c.08.73.23,1.55.31,2.29.18.65.18,1.28.33,2.11.07.1.05.28.13.37.97,4.62,2.6,9.69,3.38,11.78.15.2.28.58.25.75l.07.1c.14,3.52,2.74,8.01,5.62,11.82-4.65-.11-8.71-3.19-8.71-3.19-14.52-12.34-27.42-15.65-27.42-15.65-11.39-2.57-12.01-5.26-12.01-5.26-7.06-7.89-18.08-11.85-18.08-11.85-19.55-9-23.92-13.11-24.85-14.76.1-.08.02-.18.12-.25-.49-33.17-12.86-34.53-18.28-33.58Zm29.18-107.07c2.13,6.58,3.63,12.52,4.36,17.65-6.89-2.66-17.89-13.26-25.23-21.1,7.06.81,14,1.86,20.87,3.45Zm129.46,72.57c3.48,3.98,6.99,7.79,10.27,11.92,1.21,1.61,2.45,3.03,3.58,4.54,79.78,106.64,58.52,257.95-48.04,338.46-106.46,80.43-257.83,59.53-338.68-46.46-1.67-2.21-3.16-4.39-4.65-6.57-1.64-2.38-3.36-4.87-4.9-7.32-1.46-2.35-2.86-4.61-4.32-6.97-2.02-3.51-3.94-7.1-5.87-10.68-1.92-3.59-3.67-7.15-5.31-10.79-1.24-2.68-2.48-5.37-3.55-8.03-1.14-2.76-2.2-5.42-3.17-8.16-2-4.94-3.7-10.11-5.15-15.16-.84-2.36-1.5-4.69-2.06-7.1-.15-.2-.13-.38-.1-.55-.79-2.71-1.5-5.32-2.04-7.91-.13-.38-.15-.83-.28-1.2-.97-3.99-1.74-8.14-2.43-12.18-.1-.55-.13-1-.26-1.38-.77-4.77-1.47-9.44-1.88-14.16-.05-.28-.08-.73-.13-1.01-.5-4.82-.89-9.72-1.03-14.49,6.96,6.71,16.95,17.43,24.32,28.23.28.58,14.96,31.68,22.94,49.74,1.17,3.22,2.64,6.83,4.38,10.39-.1.08-.02.18.05.28,3.6,7.68,8.27,15.95,14.18,23.77,6.66,8.82,14.94,17.06,25.18,23.33,0,0,29.93-14.58,34.04-22.88,0,0,7.79-14.7,6.14-19.6,0,0-4.15-8.83-8.75-8.66,0,0-1.96,1.16,2.99,7.5,0,0-6.87,11.96-6.62,17.92,0,0-14.82,10.4-29.18,11.81,0,0-12.89-20.81-13.39-33.98.3.4.43.78.56,1.15q.02-.18-.05-.28s15.19,16.56,30,13.24c3.24-.71,6-2.48,7.79-5.1,3.03-4.33,6.34-12.66-1.04-24.1,0,0-6.42-10.58-19.36-10.41,0,0,5.28-7.61,40.56-13.63,0,0,8.14-.48,17.16-1.47,1.1,5.62,4.39,13.53,13.3,23.64,0,0,2.37,2.31,2.09,7.56,0,0-.34,3.72,2,3.06,0,0-.29,3.37,2.05,3.34,0,0,.7.1.98,1.3,0,0,.69,3.42,3.32,1.27,0,0,6.48,6.91,6.87-4.25,0,0,.17-1.23,1.83-.91,0,0,3.49.04.51-3.69,0,0-1.34-1.35-1.62-3.19,0,0-.73-3.06-5.99-5.23,0,0-7.47-1.76-7.93-16.53,0,0,.18-5.18-1.51-9.09,1.96-.53,3.46-1.04,4.54-1.7,0,0,14.49-8.11,14.66-17.69,0,0-.41-3.47-1.9-3.76,0,0-2.64.26-4.08,4.19,0,0-6.43,8.79-13.06,10.65.99-3.27,1.79-7.65,1.21-11.94,1.26,0,1.96.1,1.96.1-1.32-4.67,2.47-11.32,2.47-11.32,7.26-8.32,7.39-15.65,7.39-15.65.35-7.04,5.01-10.24,5.01-10.24,4.86,3.72,5.06,8.77,5.06,8.77-2.2,2.92.19,3.79.19,3.79,2.52,1.25,3.56,4.09,3.56,4.09,1.02,4.27,2.29,2.2,2.29,2.2.25,6.58,5.07,6.09,5.07,6.09.04,3.59,3.58,3.28,3.58,3.28,1.61,2.55,5.3,1.18,5.3,1.18.38,1.13,1.99.55,1.99.55-.25,1.75,2.59.09,4.67-1.33.2-.15,5.73-.54,7.62-5.76.65-.81,1.3-1.61,1.55-2.74,0,0,.32-1.03,1.6-1.84,0,0,2.18-.86,2.19-4.81l.2-.15s1.19-5.93-2.95-9.74c-.45-.6-.91-1.2-1.64-1.76l-.15-.2c-.34-3.37-3.61-4.36-3.61-4.36-2.37-2.94-6.82-2.57-6.82-2.57-2.02-2.25-5.99-2.09-5.99-2.09-3.9-1.62-7.08-4.57-8.61-6.4,1.39,1,7.48,4.27,18.27-.41,0,0,6.3-1.45,8.57.92,0,0,.2-.78.22-1.58l.1-.08c1.33.09,10.3.72,12.33,4.23,0,0-1.95,17.22,5.46,37.45,0,0,2,4.94-.27,7.76,0,0-2.66,2.32-.74,10.48,0,0-.84,2.84-.13,4.2,0,0-.81,5.18-2.86,8.3,0,0-1.55,2.75.14,3.52,0,0,.81.65,2.4-2.45-.02.18-.12,1.51,1.01,1.76,0,0,2.19.39,4.78-5.97,0,0,2.36-.21,5.14-2.15,0,0,.41,2.21,1.3,4.22,0,0-1.03,6.76,1.79,7.78,0,0,2.49.79.88-8.22,0,0-.88-6.58-.82-10.88,0,0-.16-3.97.98-5.79,0,0,1.27-2.69-2.31-6.6,0,0-3.2-2.78-2.17-15.37,0,0,2.84-13.33.03-20.18,0,0,17.23,4.46,27.33,12.42,0,0,3.12,1.42,2.18,5.6,0,0,.31,16.45,4.23,16.64,0,0,1.23-.45.89-3.82.39,1.76,1.33,5.3,3.16,5.02,0,0,1.53-.06.61-4.4.33.85,1.04,2.21,2.02,1.63,0,0,1.43.65.95-8.12.31,1.66.74,4.32,1.37,4.32,0,0,3.22.72,2.48-9.43,0,0-1.43-5.85-1.46-7.56,0,0-.39-3.01-5.39-5.06,0,0-13.09-6.49-25.49-17.9,0,0-8.95-8.51-16.36-8.74,0,0-1.16-21.96,2.79-28.41,0,0,28.18,31.46,42.94,20.16,0,0,14.55-5.96,5.48-33.59,0,0,4.57,5.21,15,7.56,0,0,4.24.41,9.34,5.69,0,0,2.86,4.62,24.39,10.39,0,0,11.07,2.98,11.99,9.84,0,0,.75,7.46,6.85,11.98,0,0,.73.55,1.57,1.65,0,0,1.16,1.95,2.14,1.38,0,0,3.84-1.17-2.31-6.6,0,0-1.94-1.53-.21-2.99.3-.23,2.36-1.47,8.86,3.39,0,0,8.34,6.45,9.21,5.32,0,0,1.63-1.39-6.05-6.14,0,0-4.93-3.2-3.81-4.83.3-.23,2.26-1.39,6.72,3.27l.15.2c10.32,12.83,11.07,18.41,11.07,18.41,1.52,4.52,4.23,8.3,4.23,8.3,2.18,6.22,7.55,3.74,7.55,3.74,0,0,7.22,2.26,7.4-2.29,0,0,4.7.39,1.79-3.88,0,0,5.99,1.46-.18-8.37,0,0-3.44-6.22-10.91-7.98,0,0-7.77-.9-17.75-24.54,0,0-2.34-7.05-8.24-13.61,0,0-4.44-4.21-1.65-10.73,0,0,4.1-21.05.86-35.76,0,0-.07-.1.02-.17-.05-.28-.25-.75-.43-1.41-.31-2.28-.4-6.15,2.24-7.67l.1-.08,2.66-.44c1.33.09,2.07,3.16,2.07,3.16-.72,3.85,1.14,7.96,3.64,11.27.68.9,1.31,1.53,2.02,2.26l.23.3c2.07,2.53,4.26,4.18,4.64,4.68l.17.02c-.2.15-2.36.84-2.81.86,0,0-4.94,9.09,4.75,12.32l7.16-7.61s25.72-1.8,15.82-24.08c0,0-3.85-7.8-9.55-7.43,0,0-6.54.52-12.63-5.89,1-.76,2.65-2.32.53-5.13,0,0-1.26-2.51-.87-4.07,0,0-.21-1.73-1.37-2.43,0,0,4.64-9.49.31-21.48,0,0-.16-.21-.28-.58-1.06-2.04-4.6-8.8-10.85-14.16l-3.65-2.75-1.23-.8c-2.39-1.5-5.09-3.4-7.56-5.63-.15-.2-.4-.33-.48-.42-.08-.1-.25-.12-.25-.12-8.57-7.38-16.59-16.75-16.59-16.75-4.87-5.61-9.39-11.18-13.07-15.63-3.51-4.44-6.18-7.77-7.17-9.07,30.2,13.08,58.01,32.39,81.49,57.63Z"/>
        <path class="cls-4" d="m1100.72,1137.51c15.82,24.71,35.82,45.96,60.08,63.66.62.63,1.43,1.24,2.13,1.77,122.5,92.55,296.9,68.25,389.44-54.25,9.39-12.43,17.55-25.32,24.38-38.74l.3-.4c21.8-38.65,35.5-85.13,36.96-135.83,3.38-117.43,6.55-235.02,9.75-352.43.57-19.72-9.28-27.32-27.84-21.5-110.84,34.99-221.72,69.63-332.55,104.63-43.47,13.77-81.41,35.65-113.58,65.51-.4.33-.88.75-1.28,1.07-14.49,12.52-27.86,26.66-39.82,42.5-73.77,97.64-73.42,228.28-7.97,324.02Zm315.47-149.96c3.18-3.59,5.23-8.17,5.23-8.17,10.29-19.46,20.96-31.71,29.96-39.25l.25-.13c1.69-1.4,16.73-12.56,28.94-13.09,0,0-.3-.86-.9-1.94l-1.32-2.41c2.37-1.68,4.64-3.43,7-5.1l.43-.15,51.21-37.36c-5.68,13.98-5.48,22.47-5.48,22.47.56,14.27-7.81,28.9-7.81,28.9-5.15,6.81-9.05,14.26-11.84,21.92-1.78-.56-2.81-.86-2.81-.86-7.12,15.88-6.42,31.21-6.42,31.21,2.03,17.74-1.21,31.83-1.62,33.41l-.05.28c-10.91,22.78-26.98,18.83-26.98,18.83-10.86-4.59-40.04-5.37-56.29-5.53-1.37-5.91-1.72-12.32-1.99-14.88.83-.48,1.49-.93,2.14-1.38,0,0-4.35-22.18-1.67-26.76Zm60.28-115.22s10.64-31.17,19.94-62.25c14.37,13.7,26.74,29.02,36.91,45.36-29.23,21.38-63.87,42.45-56.85,16.89Zm64.94,92.04c10.73-22.75,7.62-45.1,7.62-45.1-.74-4.03.85-11.33.85-11.33,1.67-3.46,2.52-8.96,2.84-14.39,7.25,17.92,12.26,36.5,15.01,55.58-8.74,8.03-15.99,16.58-15.99,16.58l-1.82,2.41c-2.78-1.32-5.64-2.53-8.5-3.75Zm-204.57-12.05s-5.13,1.79-6.62,2.72c0,0,.81-17.34.75-28.09,0,0-.03-.17-.08-.53-.33-4.35-3.26-44.04,15.78-58.62l.08-.1c2.65-2.25,5.92-3.87,10.12-4.64,1.91-.45,3.97-.47,6.14-.41,0,0,24.89,2.27,43.94-33.57l-2.92-4.88s2.77-16.8,16.45-34.49c0,0,8.35-1.88,15.53-22.43,13.2,6.5,25.96,14.41,38.19,23.65l1.61,1.21c-7.99,28.92-27.33,67.85-27.33,67.85-7.68,19.55-21.39,31.23-21.39,31.23-12.99,13.02-37.01,41.48-37.01,41.48-8.2,9.39-30.45,13.84-43.4,15.55-.42.15-.95.22-1.41.2l-1.66.32c-4.05.56-6.53.73-6.53.73l-.24,2.81Zm-46.23-64.69c.1.07.02.18.12.25-.93,1.65-5.3,5.76-24.85,14.76,0,0-11.02,3.96-18.08,11.85,0,0-.61,2.69-12.01,5.26,0,0-12.9,3.32-27.42,15.65,0,0-4.06,3.08-8.71,3.19,2.88-3.81,5.48-8.3,5.62-11.82l.07-.1c-.02-.18.1-.55.25-.75.79-2.08,2.42-7.16,3.38-11.78.07-.1.05-.28.13-.37.15-.83.16-1.46.33-2.11.08-.73.23-1.56.31-2.29-.02-.18.05-.28.05-.28l.08-.1c.62-3.94,1.86-7.88,3.28-11.85.23-.93.39-1.76.54-2.58,1.56-8.11,2.3-18.26-.61-26.92,8.66-13.14,29.65-29.87,29.65-29.87,14.66-10.03,30.48-21.38,39.75-28.23,4.89-3.55,8.06-5.87,8.36-6.28-.65-.81-1.57-1.67-2.5-2.52,14-8.32,39.08-39.44,53.48-58.49,25.4,1.4,50.83,6.91,75.05,16.55-6.01,7.74-15.7,18.69-15.7,18.69-2.6,3.23-9.56,8.69-14.82,12.74l-1.87,1.43-7.86,6.03-2.98-3.35s-36.84,43.97-61.82,60.36c-.18.03-.25.12-.33.23,0,0-.1-.07-.48-.21-.1-.07-.37-.13-.75-.25-.38-.12-.83-.16-1.13-.38-.1-.08-.18.03-.28-.05-5.42-.95-17.79.42-18.28,33.58Zm9.97-144.1c-7.34,7.84-18.33,18.43-25.23,21.1.72-5.13,2.22-11.08,4.36-17.65,6.87-1.59,13.8-2.64,20.87-3.45Zm-68.84,18.38c-.98,1.3-3.66,4.63-7.17,9.07-3.68,4.46-8.2,10.02-13.07,15.63,0,0-8.02,9.37-16.59,16.75,0,0-.17.02-.25.12s-.33.22-.48.42c-2.47,2.23-5.17,4.13-7.56,5.63l-1.23.8-3.65,2.75c-6.25,5.36-9.79,12.12-10.85,14.16-.13.37-.28.58-.28.58-4.34,11.99.31,21.48.31,21.48-1.16.7-1.37,2.43-1.37,2.43.4,1.56-.87,4.07-.87,4.07-2.12,2.81-.47,4.37.53,5.13-6.1,6.41-12.63,5.89-12.63,5.89-5.7-.37-9.55,7.43-9.55,7.43-9.9,22.28,15.82,24.08,15.82,24.08l7.16,7.61c9.69-3.23,4.75-12.32,4.75-12.32-.46-.02-2.61-.71-2.81-.86l.17-.02c.38-.5,2.57-2.15,4.64-4.68l.23-.3c.71-.73,1.34-1.36,2.02-2.26,2.5-3.31,4.35-7.42,3.64-11.27,0,0,.74-3.06,2.07-3.16l2.66.44.1.08c2.63,1.52,2.54,5.39,2.24,7.67-.18.66-.39,1.13-.43,1.41.1.07.02.17.02.17-3.24,14.71.86,35.76.86,35.76,2.8,6.52-1.65,10.73-1.65,10.73-5.9,6.56-8.24,13.61-8.24,13.61-9.98,23.64-17.75,24.54-17.75,24.54-7.47,1.76-10.91,7.98-10.91,7.98-6.16,9.83-.18,8.37-.18,8.37-2.91,4.26,1.79,3.88,1.79,3.88.19,4.55,7.4,2.29,7.4,2.29,0,0,5.37,2.48,7.55-3.74,0,0,2.7-3.79,4.23-8.3,0,0,.75-5.58,11.07-18.41l.15-.2c4.46-4.66,6.42-3.49,6.72-3.27,1.13,1.63-3.81,4.83-3.81,4.83-7.68,4.75-6.05,6.14-6.05,6.14.88,1.13,9.21-5.32,9.21-5.32,6.5-4.85,8.56-3.61,8.86-3.39,1.73,1.46-.21,2.99-.21,2.99-6.15,5.43-2.31,6.6-2.31,6.6.98.58,2.14-1.38,2.14-1.38.83-1.1,1.57-1.65,1.57-1.65,6.1-4.53,6.85-11.98,6.85-11.98.93-6.86,11.99-9.84,11.99-9.84,21.53-5.78,24.39-10.39,24.39-10.39,5.1-5.28,9.34-5.69,9.34-5.69,10.44-2.35,15-7.56,15-7.56-9.07,27.63,5.48,33.59,5.48,33.59,14.76,11.31,42.94-20.16,42.94-20.16,3.95,6.45,2.79,28.41,2.79,28.41-7.41.22-16.36,8.74-16.36,8.74-12.4,11.41-25.49,17.9-25.49,17.9-5.01,2.04-5.39,5.06-5.39,5.06-.03,1.71-1.46,7.56-1.46,7.56-.74,10.15,2.48,9.43,2.48,9.43.63,0,1.06-2.66,1.37-4.32-.48,8.77.95,8.12.95,8.12.98.58,1.69-.78,2.02-1.63-.92,4.34.61,4.4.61,4.4,1.83.29,2.77-3.26,3.16-5.02-.34,3.37.89,3.82.89,3.82,3.92-.19,4.23-16.64,4.23-16.64-.94-4.18,2.18-5.6,2.18-5.6,10.11-7.96,27.33-12.42,27.33-12.42-2.81,6.85.03,20.18.03,20.18,1.04,12.59-2.17,15.37-2.17,15.37-3.58,3.91-2.31,6.6-2.31,6.6,1.15,1.81.98,5.79.98,5.79.06,4.3-.82,10.88-.82,10.88-1.61,9.01.88,8.22.88,8.22,2.82-1.02,1.79-7.78,1.79-7.78.89-2.01,1.3-4.22,1.3-4.22,2.78,1.95,5.14,2.15,5.14,2.15,2.59,6.37,4.78,5.97,4.78,5.97,1.13-.25,1.03-1.58,1.01-1.76,1.6,3.1,2.4,2.45,2.4,2.45,1.69-.77.14-3.52.14-3.52-2.05-3.12-2.86-8.3-2.86-8.3.71-1.36-.13-4.2-.13-4.2,1.91-8.16-.74-10.48-.74-10.48-2.28-2.82-.27-7.76-.27-7.76,7.41-20.23,5.46-37.45,5.46-37.45,2.02-3.51,11-4.13,12.33-4.23l.1.08c.02.8.22,1.58.22,1.58,2.27-2.38,8.57-.92,8.57-.92,10.79,4.68,16.88,1.41,18.27.41-1.54,1.83-4.71,4.78-8.61,6.4,0,0-3.97-.16-5.99,2.09,0,0-4.45-.37-6.82,2.57,0,0-3.27.99-3.61,4.36l-.15.2c-.73.55-1.19,1.16-1.64,1.76-4.13,3.8-2.95,9.74-2.95,9.74l.2.15c.01,3.95,2.19,4.81,2.19,4.81,1.28.81,1.6,1.84,1.6,1.84.25,1.13.9,1.93,1.55,2.74,1.89,5.21,7.42,5.6,7.62,5.76,2.08,1.42,4.91,3.08,4.67,1.33,0,0,1.61.58,1.99-.55,0,0,3.69,1.37,5.3-1.18,0,0,3.54.31,3.58-3.28,0,0,4.82.5,5.07-6.09,0,0,1.27,2.06,2.29-2.2,0,0,1.04-2.84,3.56-4.09,0,0,2.39-.87.19-3.79,0,0,.19-5.05,5.06-8.77,0,0,4.66,3.21,5.01,10.24,0,0,.13,7.34,7.39,15.65,0,0,3.79,6.65,2.47,11.32,0,0,.7-.1,1.96-.1-.57,4.3.22,8.67,1.21,11.94-6.63-1.86-13.06-10.65-13.06-10.65-1.44-3.93-4.08-4.19-4.08-4.19-1.48.29-1.9,3.76-1.9,3.76.17,9.57,14.66,17.69,14.66,17.69,1.08.66,2.58,1.17,4.54,1.7-1.7,3.92-1.51,9.09-1.51,9.09-.45,14.77-7.93,16.53-7.93,16.53-5.26,2.17-5.99,5.23-5.99,5.23-.28,1.84-1.62,3.19-1.62,3.19-2.98,3.73.51,3.69.51,3.69,1.66-.32,1.83.91,1.83.91.39,11.16,6.87,4.25,6.87,4.25,2.63,2.14,3.32-1.27,3.32-1.27.28-1.2.98-1.3.98-1.3,2.33.03,2.05-3.34,2.05-3.34,2.33.66,2-3.06,2-3.06-.28-5.25,2.09-7.56,2.09-7.56,8.9-10.12,12.2-18.02,13.3-23.64,9.02.98,17.16,1.47,17.16,1.47,35.28,6.03,40.56,13.63,40.56,13.63-12.94-.17-19.36,10.41-19.36,10.41-7.38,11.43-4.07,19.76-1.04,24.1,1.8,2.62,4.56,4.39,7.79,5.1,14.81,3.32,30-13.24,30-13.24q-.07.1-.05.28c.13-.37.26-.75.56-1.15-.5,13.17-13.39,33.98-13.39,33.98-14.36-1.41-29.18-11.81-29.18-11.81.25-5.96-6.62-17.92-6.62-17.92,4.94-6.34,2.99-7.5,2.99-7.5-4.6-.17-8.75,8.66-8.75,8.66-1.65,4.9,6.14,19.6,6.14,19.6,4.12,8.31,34.04,22.88,34.04,22.88,10.25-6.27,18.52-14.51,25.18-23.33,5.91-7.82,10.58-16.09,14.18-23.77.07-.1.15-.2.05-.28,1.75-3.56,3.22-7.17,4.38-10.39,7.98-18.06,22.66-49.17,22.94-49.74,7.37-10.8,17.36-21.53,24.32-28.23-.14,4.77-.53,9.67-1.03,14.49-.05.28-.08.73-.13,1.01-.42,4.72-1.11,9.39-1.88,14.16-.13.38-.15.83-.26,1.38-.69,4.04-1.46,8.19-2.43,12.18-.13.37-.15.82-.28,1.2-.54,2.58-1.25,5.2-2.04,7.91.03.17.05.35-.1.55-.56,2.41-1.22,4.74-2.06,7.1-1.45,5.05-3.15,10.22-5.15,15.16-.97,2.74-2.03,5.4-3.17,8.16-1.07,2.66-2.31,5.35-3.55,8.03-1.65,3.64-3.39,7.2-5.31,10.79-1.92,3.59-3.84,7.18-5.87,10.68-1.47,2.36-2.86,4.61-4.32,6.97-1.54,2.46-3.26,4.94-4.9,7.32-1.49,2.18-2.98,4.36-4.65,6.57-80.85,105.98-232.22,126.89-338.68,46.46-106.56-80.5-127.82-231.82-48.04-338.46,1.14-1.5,2.37-2.93,3.58-4.54,3.28-4.13,6.79-7.94,10.27-11.92,23.48-25.25,51.29-44.55,81.49-57.63Z"/>
      </g>
    </g>
    <g>
      <g>
        <path class="cls-45" d="m135.27,934.81h2.4v6.82c-1.75,1.47-4.17,2.22-6.62,2.22-5.37,0-9.32-3.77-9.32-8.95s3.95-8.95,9.37-8.95c2.77,0,5.12.92,6.72,2.7l-1.55,1.55c-1.45-1.4-3.1-2.02-5.07-2.02-4.05,0-6.97,2.82-6.97,6.72s2.92,6.72,6.95,6.72c1.47,0,2.85-.33,4.1-1.12v-5.7Z"/>
        <path class="cls-58" d="m142.1,925.12h2.4v18.55h-2.4v-18.55Z"/>
        <path class="cls-47" d="m147.85,937.04c0-3.95,2.92-6.75,6.9-6.75s6.87,2.8,6.87,6.75-2.9,6.77-6.87,6.77-6.9-2.82-6.9-6.77Zm11.35,0c0-2.82-1.9-4.65-4.45-4.65s-4.47,1.82-4.47,4.65,1.92,4.67,4.47,4.67,4.45-1.85,4.45-4.67Z"/>
        <path class="cls-29" d="m178.67,937.04c0,4.05-2.82,6.77-6.7,6.77-1.95,0-3.65-.75-4.72-2.25v2.1h-2.3v-18.55h2.4v7.3c1.1-1.42,2.75-2.12,4.62-2.12,3.87,0,6.7,2.7,6.7,6.75Zm-2.42,0c0-2.82-1.92-4.65-4.47-4.65s-4.45,1.82-4.45,4.65,1.92,4.67,4.45,4.67,4.47-1.85,4.47-4.67Z"/>
        <path class="cls-25" d="m192.37,935.66v8h-2.27v-1.75c-.8,1.2-2.27,1.9-4.35,1.9-3,0-4.9-1.6-4.9-3.9,0-2.12,1.37-3.87,5.32-3.87h3.8v-.48c0-2.02-1.17-3.2-3.55-3.2-1.57,0-3.17.55-4.2,1.42l-1-1.8c1.37-1.1,3.35-1.7,5.47-1.7,3.62,0,5.67,1.75,5.67,5.37Zm-2.4,3.95v-1.85h-3.7c-2.38,0-3.05.92-3.05,2.05,0,1.32,1.1,2.15,2.92,2.15s3.22-.82,3.82-2.35Z"/>
        <path class="cls-63" d="m196.82,925.12h2.4v18.55h-2.4v-18.55Z"/>
        <path class="cls-64" d="m222.02,939.29h-9.3l-1.92,4.37h-2.58l7.92-17.5h2.47l7.95,17.5h-2.62l-1.92-4.37Zm-.88-2l-3.77-8.57-3.77,8.57h7.55Z"/>
        <path class="cls-17" d="m227.47,937.04c0-3.95,2.92-6.75,7-6.75,2.38,0,4.35.97,5.4,2.82l-1.82,1.17c-.85-1.3-2.15-1.9-3.6-1.9-2.6,0-4.55,1.82-4.55,4.65s1.95,4.67,4.55,4.67c1.45,0,2.75-.6,3.6-1.9l1.82,1.15c-1.05,1.85-3.02,2.85-5.4,2.85-4.07,0-7-2.82-7-6.77Z"/>
        <path class="cls-10" d="m241.55,937.04c0-3.95,2.92-6.75,7-6.75,2.38,0,4.35.97,5.4,2.82l-1.82,1.17c-.85-1.3-2.15-1.9-3.6-1.9-2.6,0-4.55,1.82-4.55,4.65s1.95,4.67,4.55,4.67c1.45,0,2.75-.6,3.6-1.9l1.82,1.15c-1.05,1.85-3.02,2.85-5.4,2.85-4.07,0-7-2.82-7-6.77Z"/>
        <path class="cls-33" d="m268.77,937.84h-10.75c.3,2.32,2.17,3.87,4.8,3.87,1.55,0,2.85-.52,3.82-1.6l1.32,1.55c-1.2,1.4-3.02,2.15-5.22,2.15-4.27,0-7.12-2.82-7.12-6.77s2.82-6.75,6.65-6.75,6.55,2.75,6.55,6.82c0,.2-.02.5-.05.72Zm-10.75-1.72h8.5c-.25-2.22-1.92-3.8-4.25-3.8s-4,1.55-4.25,3.8Z"/>
        <path class="cls-8" d="m270.47,942.26l1-1.9c1.12.8,2.92,1.38,4.65,1.38,2.22,0,3.15-.67,3.15-1.8,0-2.97-8.37-.4-8.37-5.67,0-2.37,2.12-3.97,5.52-3.97,1.72,0,3.67.45,4.82,1.2l-1.02,1.9c-1.2-.77-2.52-1.05-3.82-1.05-2.1,0-3.12.77-3.12,1.82,0,3.12,8.4.57,8.4,5.72,0,2.4-2.2,3.92-5.72,3.92-2.2,0-4.37-.67-5.47-1.55Z"/>
        <path class="cls-12" d="m283,942.26l1-1.9c1.12.8,2.92,1.38,4.65,1.38,2.22,0,3.15-.67,3.15-1.8,0-2.97-8.37-.4-8.37-5.67,0-2.37,2.12-3.97,5.52-3.97,1.72,0,3.67.45,4.82,1.2l-1.02,1.9c-1.2-.77-2.52-1.05-3.82-1.05-2.1,0-3.12.77-3.12,1.82,0,3.12,8.4.57,8.4,5.72,0,2.4-2.2,3.92-5.72,3.92-2.2,0-4.37-.67-5.47-1.55Z"/>
      </g>
      <g>
        <path class="cls-57" d="m121.72,175.1l.72-1.42c1.25,1.23,3.47,2.12,5.77,2.12,3.27,0,4.7-1.37,4.7-3.1,0-4.8-10.77-1.85-10.77-8.32,0-2.57,2-4.8,6.45-4.8,1.97,0,4.02.57,5.42,1.55l-.62,1.47c-1.5-.97-3.25-1.45-4.8-1.45-3.2,0-4.62,1.42-4.62,3.17,0,4.8,10.77,1.9,10.77,8.27,0,2.57-2.05,4.77-6.52,4.77-2.62,0-5.2-.92-6.5-2.27Z"/>
        <path class="cls-19" d="m138,159.93c0-.67.58-1.25,1.3-1.25s1.3.55,1.3,1.22c0,.72-.55,1.3-1.3,1.3s-1.3-.58-1.3-1.27Zm.4,4.15h1.77v13.15h-1.77v-13.15Z"/>
        <path class="cls-38" d="m157.22,169.6v7.62h-1.77v-7.45c0-2.77-1.45-4.2-3.95-4.2-2.82,0-4.6,1.75-4.6,4.75v6.9h-1.77v-13.15h1.7v2.42c.95-1.6,2.72-2.52,5-2.52,3.2,0,5.4,1.85,5.4,5.62Z"/>
        <path class="cls-48" d="m160.77,170.65c0-3.92,2.85-6.67,6.77-6.67,2.22,0,4.1.87,5.15,2.6l-1.33.9c-.9-1.32-2.3-1.95-3.82-1.95-2.87,0-4.97,2.05-4.97,5.12s2.1,5.12,4.97,5.12c1.52,0,2.92-.6,3.82-1.92l1.33.9c-1.05,1.7-2.92,2.6-5.15,2.6-3.92,0-6.77-2.77-6.77-6.7Z"/>
        <path class="cls-56" d="m187.39,171.2h-11c.2,2.75,2.3,4.57,5.17,4.57,1.6,0,3.02-.57,4.02-1.72l1,1.15c-1.17,1.4-3,2.15-5.07,2.15-4.1,0-6.9-2.8-6.9-6.7s2.72-6.67,6.42-6.67,6.37,2.72,6.37,6.67c0,.15-.02.35-.02.55Zm-11-1.32h9.32c-.22-2.57-2.1-4.37-4.67-4.37s-4.42,1.8-4.65,4.37Z"/>
        <path class="cls-46" d="m208.37,175.63v1.6h-12.27v-1.27l7.27-7.12c1.97-1.95,2.35-3.12,2.35-4.32,0-2.02-1.42-3.27-4.1-3.27-2.05,0-3.62.62-4.77,1.95l-1.27-1.1c1.35-1.6,3.52-2.5,6.2-2.5,3.55,0,5.8,1.8,5.8,4.72,0,1.67-.53,3.17-2.88,5.47l-5.95,5.85h9.62Z"/>
        <path class="cls-39" d="m210.52,168.48c0-5.57,2.92-8.9,6.97-8.9s7,3.32,7,8.9-2.95,8.9-7,8.9-6.97-3.32-6.97-8.9Zm12.12,0c0-4.67-2.1-7.25-5.15-7.25s-5.15,2.57-5.15,7.25,2.1,7.25,5.15,7.25,5.15-2.57,5.15-7.25Z"/>
        <path class="cls-65" d="m238.97,175.63v1.6h-12.27v-1.27l7.27-7.12c1.97-1.95,2.35-3.12,2.35-4.32,0-2.02-1.42-3.27-4.1-3.27-2.05,0-3.62.62-4.77,1.95l-1.27-1.1c1.35-1.6,3.52-2.5,6.2-2.5,3.55,0,5.8,1.8,5.8,4.72,0,1.67-.53,3.17-2.88,5.47l-5.95,5.85h9.62Z"/>
        <path class="cls-51" d="m253.17,175.63v1.6h-12.27v-1.27l7.27-7.12c1.97-1.95,2.35-3.12,2.35-4.32,0-2.02-1.42-3.27-4.1-3.27-2.05,0-3.62.62-4.77,1.95l-1.27-1.1c1.35-1.6,3.52-2.5,6.2-2.5,3.55,0,5.8,1.8,5.8,4.72,0,1.67-.53,3.17-2.88,5.47l-5.95,5.85h9.62Z"/>
      </g>
      <g>
        <path class="cls-16" d="m149.12,110.24c0,7.45-5.4,11.95-14.3,11.95h-9.4v11.05h-3.7v-35h13.1c8.9,0,14.3,4.5,14.3,12Zm-3.7,0c0-5.6-3.7-8.8-10.7-8.8h-9.3v17.5h9.3c7,0,10.7-3.2,10.7-8.7Z"/>
        <path class="cls-54" d="m175.97,116.94v16.3h-3.4v-4.1c-1.6,2.7-4.7,4.35-9.05,4.35-5.95,0-9.6-3.1-9.6-7.65,0-4.05,2.6-7.45,10.15-7.45h8.35v-1.6c0-4.5-2.55-6.95-7.45-6.95-3.4,0-6.6,1.2-8.75,3.1l-1.6-2.65c2.65-2.25,6.55-3.55,10.7-3.55,6.8,0,10.65,3.4,10.65,10.2Zm-3.55,8.4v-4.3h-8.25c-5.1,0-6.75,2-6.75,4.7,0,3.05,2.45,4.95,6.65,4.95s6.95-1.9,8.35-5.35Z"/>
        <path class="cls-55" d="m198.87,106.74v3.45c-.3,0-.6-.05-.85-.05-5.5,0-8.85,3.5-8.85,9.7v13.4h-3.55v-26.3h3.4v5.15c1.65-3.5,5-5.35,9.85-5.35Z"/>
        <path class="cls-34" d="m220.27,131.64c-1.4,1.25-3.5,1.85-5.55,1.85-4.95,0-7.7-2.8-7.7-7.65v-15.9h-4.7v-3h4.7v-5.75h3.55v5.75h8v3h-8v15.7c0,3.1,1.6,4.8,4.55,4.8,1.45,0,2.9-.45,3.9-1.35l1.25,2.55Z"/>
        <path class="cls-24" d="m248.32,106.94l-13.15,29.45c-2.2,5.15-5,6.8-8.75,6.8-2.45,0-4.8-.8-6.4-2.4l1.65-2.65c1.3,1.3,2.9,2,4.8,2,2.35,0,3.95-1.1,5.45-4.4l1.15-2.55-11.75-26.25h3.7l9.9,22.35,9.9-22.35h3.5Z"/>
        <path class="cls-52" d="m289.12,123.89h-19.5l-4.2,9.35h-3.85l16-35h3.65l16,35h-3.9l-4.2-9.35Zm-1.35-3l-8.4-18.8-8.4,18.8h16.8Z"/>
        <path class="cls-44" d="m326.47,117.99v15.25h-3.55v-14.9c0-5.55-2.9-8.4-7.9-8.4-5.65,0-9.2,3.5-9.2,9.5v13.8h-3.55v-26.3h3.4v4.85c1.9-3.2,5.45-5.05,10-5.05,6.4,0,10.8,3.7,10.8,11.25Z"/>
        <path class="cls-22" d="m335.32,98.64c0-1.35,1.15-2.5,2.6-2.5s2.6,1.1,2.6,2.45c0,1.45-1.1,2.6-2.6,2.6s-2.6-1.15-2.6-2.55Zm.8,8.3h3.55v26.3h-3.55v-26.3Z"/>
        <path class="cls-18" d="m392.97,117.99v15.25h-3.55v-14.9c0-5.55-2.8-8.4-7.55-8.4-5.4,0-8.8,3.5-8.8,9.5v13.8h-3.55v-14.9c0-5.55-2.8-8.4-7.6-8.4-5.35,0-8.8,3.5-8.8,9.5v13.8h-3.55v-26.3h3.4v4.8c1.85-3.15,5.25-5,9.65-5s7.75,1.85,9.35,5.55c1.9-3.4,5.65-5.55,10.4-5.55,6.4,0,10.6,3.7,10.6,11.25Z"/>
        <path class="cls-32" d="m422.47,116.94v16.3h-3.4v-4.1c-1.6,2.7-4.7,4.35-9.05,4.35-5.95,0-9.6-3.1-9.6-7.65,0-4.05,2.6-7.45,10.15-7.45h8.35v-1.6c0-4.5-2.55-6.95-7.45-6.95-3.4,0-6.6,1.2-8.75,3.1l-1.6-2.65c2.65-2.25,6.55-3.55,10.7-3.55,6.8,0,10.65,3.4,10.65,10.2Zm-3.55,8.4v-4.3h-8.25c-5.1,0-6.75,2-6.75,4.7,0,3.05,2.45,4.95,6.65,4.95s6.95-1.9,8.35-5.35Z"/>
        <path class="cls-53" d="m432.12,96.14h3.55v37.1h-3.55v-37.1Z"/>
        <path class="cls-28" d="m444.77,98.64c0-1.35,1.15-2.5,2.6-2.5s2.6,1.1,2.6,2.45c0,1.45-1.1,2.6-2.6,2.6s-2.6-1.15-2.6-2.55Zm.8,8.3h3.55v26.3h-3.55v-26.3Z"/>
        <path class="cls-14" d="m478.87,116.94v16.3h-3.4v-4.1c-1.6,2.7-4.7,4.35-9.05,4.35-5.95,0-9.6-3.1-9.6-7.65,0-4.05,2.6-7.45,10.15-7.45h8.35v-1.6c0-4.5-2.55-6.95-7.45-6.95-3.4,0-6.6,1.2-8.75,3.1l-1.6-2.65c2.65-2.25,6.55-3.55,10.7-3.55,6.8,0,10.65,3.4,10.65,10.2Zm-3.55,8.4v-4.3h-8.25c-5.1,0-6.75,2-6.75,4.7,0,3.05,2.45,4.95,6.65,4.95s6.95-1.9,8.35-5.35Z"/>
      </g>
      <g>
        <path class="cls-37" d="m189.47,487.76c0,18.42-13.35,29.55-35.36,29.55h-23.24v27.32h-9.15v-86.54h32.39c22.01,0,35.36,11.13,35.36,29.67Zm-9.15,0c0-13.85-9.15-21.76-26.46-21.76h-23v43.27h23c17.31,0,26.46-7.91,26.46-21.51Z"/>
        <path class="cls-49" d="m255.86,504.33v40.3h-8.41v-10.14c-3.96,6.68-11.62,10.76-22.38,10.76-14.71,0-23.74-7.67-23.74-18.92,0-10.01,6.43-18.42,25.1-18.42h20.65v-3.96c0-11.13-6.31-17.18-18.42-17.18-8.41,0-16.32,2.97-21.64,7.67l-3.96-6.55c6.55-5.56,16.2-8.78,26.46-8.78,16.81,0,26.33,8.41,26.33,25.22Zm-8.78,20.77v-10.63h-20.4c-12.61,0-16.69,4.95-16.69,11.62,0,7.54,6.06,12.24,16.44,12.24s17.18-4.7,20.65-13.23Z"/>
        <path class="cls-9" d="m312.49,479.11v8.53c-.74,0-1.48-.12-2.1-.12-13.6,0-21.88,8.65-21.88,23.98v33.13h-8.78v-65.03h8.41v12.73c4.08-8.65,12.36-13.23,24.36-13.23Z"/>
        <path class="cls-59" d="m365.4,540.68c-3.46,3.09-8.65,4.57-13.72,4.57-12.24,0-19.04-6.92-19.04-18.92v-39.31h-11.62v-7.42h11.62v-14.22h8.78v14.22h19.78v7.42h-19.78v38.82c0,7.67,3.96,11.87,11.25,11.87,3.59,0,7.17-1.11,9.64-3.34l3.09,6.31Z"/>
        <path class="cls-41" d="m434.76,479.6l-32.51,72.82c-5.44,12.73-12.36,16.81-21.64,16.81-6.06,0-11.87-1.98-15.82-5.93l4.08-6.55c3.21,3.21,7.17,4.95,11.87,4.95,5.81,0,9.77-2.72,13.48-10.88l2.84-6.31-29.05-64.91h9.15l24.48,55.26,24.48-55.26h8.65Z"/>
        <path class="cls-62" d="m442.92,541.79c0-1.73,1.48-3.21,3.21-3.21s3.21,1.48,3.21,3.21-1.48,3.21-3.21,3.21-3.21-1.48-3.21-3.21Z"/>
        <path class="cls-61" d="m461.59,512.61c0-18.92,13.23-32.27,31.03-32.27s31.03,13.35,31.03,32.27-13.23,32.39-31.03,32.39-31.03-13.48-31.03-32.39Zm59.59,0c0-17.68-12.24-29.92-28.56-29.92s-28.56,12.24-28.56,29.92,12.24,30.04,28.56,30.04,28.56-12.36,28.56-30.04Z"/>
        <path class="cls-23" d="m599.43,506.93v37.71h-2.47v-37.71c0-15.82-8.53-24.23-23-24.23-16.81,0-26.95,11-26.95,27.2v34.74h-2.47v-63.92h2.47v17.06c3.83-10.63,13.23-17.43,26.83-17.43,15.7,0,25.59,9.27,25.59,26.58Z"/>
        <path class="cls-31" d="m678.81,512.61h-56.87c0,17.68,12.61,30.04,29.55,30.04,8.53,0,16.69-3.21,21.76-9.89l1.73,1.73c-5.69,6.92-14.34,10.51-23.49,10.51-18.42,0-31.9-13.48-31.9-32.39s12.61-32.27,29.55-32.27,29.67,13.1,29.67,31.65v.62Zm-56.87-2.35h54.52c-.87-15.82-12.24-27.57-27.32-27.57s-26.33,11.74-27.2,27.57Z"/>
      </g>
      <g>
        <path class="cls-26" d="m154.43,588.53c0,7.74-5.45,12.23-14.18,12.23h-8.08l-1.82,9.16h-4.32l6.05-30.26h11.24c7.05,0,11.11,3.24,11.11,8.86Zm-4.32.39c0-3.63-2.59-5.49-7.18-5.49h-7.26l-2.72,13.57h7.39c6.18,0,9.77-2.77,9.77-8.08Z"/>
        <path class="cls-7" d="m163.07,577.85h4.15l-6.4,32.08h-4.15l6.4-32.08Z"/>
        <path class="cls-15" d="m194.84,587.02l-4.54,22.91h-3.98l.56-2.81c-2.03,1.95-4.8,3.07-8.08,3.07-5.84,0-10.12-3.72-10.12-9.9,0-7.87,5.53-13.49,12.97-13.49,3.93,0,6.79,1.43,8.26,4.11l.78-3.89h4.15Zm-6.18,9.86c0-4.06-2.46-6.44-6.83-6.44-5.14,0-8.95,4.02-8.95,9.68,0,4.02,2.46,6.44,6.83,6.44,5.19,0,8.95-4.02,8.95-9.68Z"/>
        <path class="cls-20" d="m204.34,602.62c-.09.43-.13.82-.13,1.21,0,1.77.95,2.85,3.03,2.85,1.12,0,2.33-.39,3.29-1.08l.86,3.16c-1.56,1.08-3.5,1.43-5.32,1.43-3.59,0-6.05-2.16-6.05-5.75,0-.52.04-1.12.17-1.73l2.46-12.28h-3.89l.65-3.42h3.93l.99-5.01h4.15l-.99,5.01h6.57l-.69,3.42h-6.57l-2.46,12.19Z"/>
        <path class="cls-40" d="m220.64,587.02h4.15l-4.54,22.91h-4.15l4.54-22.91Zm.69-6.92c0-1.6,1.21-2.9,2.98-2.9,1.51,0,2.64,1.12,2.64,2.42,0,1.77-1.25,2.98-3.03,2.98-1.51,0-2.59-1.12-2.59-2.51Z"/>
        <path class="cls-42" d="m252.71,594.41c0,.82-.09,1.73-.26,2.68l-2.55,12.84h-4.15l2.55-12.84c.13-.69.22-1.34.22-1.9,0-2.98-1.73-4.67-5.32-4.67-4.45,0-7.48,2.38-8.47,7.31l-2.42,12.1h-4.15l4.54-22.91h3.98l-.56,2.94c2.12-2.16,5.01-3.16,8.3-3.16,5.19,0,8.3,2.72,8.3,7.61Z"/>
        <path class="cls-13" d="m283.49,587.02l-4.54,22.91h-3.98l.56-2.94c-2.12,2.16-5.01,3.2-8.21,3.2-5.01,0-8.21-2.81-8.21-7.69,0-.82.09-1.69.26-2.64l2.55-12.84h4.15l-2.55,12.88c-.13.69-.22,1.34-.22,1.95,0,2.94,1.73,4.63,5.23,4.63,4.32,0,7.39-2.42,8.39-7.31l2.42-12.15h4.15Z"/>
        <path class="cls-60" d="m327.7,594.37c0,.82-.13,1.73-.3,2.72l-2.55,12.84h-4.15l2.55-12.84c.13-.73.22-1.38.22-1.99,0-2.94-1.64-4.58-5.06-4.58-4.19,0-7.05,2.33-8.04,7.18l-2.46,12.23h-4.15l2.59-12.84c.13-.69.22-1.34.22-1.95,0-2.94-1.64-4.63-5.1-4.63-4.24,0-7.05,2.38-8.04,7.31l-2.42,12.1h-4.15l4.54-22.91h3.98l-.56,2.85c2.08-2.12,4.84-3.07,7.95-3.07,3.59,0,6.18,1.43,7.35,4.06,2.33-2.72,5.53-4.06,9.34-4.06,5.19,0,8.26,2.72,8.26,7.56Z"/>
        <path class="cls-11" d="m382.98,579.67l-6.05,30.26h-4.15l4.41-21.87-14.31,18.2h-1.99l-7.57-18.63-4.45,22.31h-4.15l6.05-30.26h3.5l8.43,21.31,16.56-21.31h3.72Z"/>
        <path class="cls-30" d="m389.46,599.77v.26c0,4.19,2.33,6.53,7.26,6.53,2.85,0,5.45-1.04,7.09-2.64l1.77,2.98c-2.25,2.12-5.71,3.29-9.21,3.29-6.79,0-10.98-3.89-10.98-9.94,0-7.78,5.45-13.44,12.92-13.44,6.18,0,10.25,3.72,10.25,9.9,0,1.08-.13,2.12-.3,3.07h-18.8Zm.43-3.03h14.78c.22-4.19-2.46-6.48-6.53-6.48s-7.22,2.51-8.26,6.48Z"/>
        <path class="cls-21" d="m452.7,594.37c0,.82-.13,1.73-.3,2.72l-2.55,12.84h-4.15l2.55-12.84c.13-.73.22-1.38.22-1.99,0-2.94-1.64-4.58-5.06-4.58-4.19,0-7.05,2.33-8.04,7.18l-2.46,12.23h-4.15l2.59-12.84c.13-.69.22-1.34.22-1.95,0-2.94-1.64-4.63-5.1-4.63-4.24,0-7.05,2.38-8.04,7.31l-2.42,12.1h-4.15l4.54-22.91h3.98l-.56,2.85c2.07-2.12,4.84-3.07,7.95-3.07,3.59,0,6.18,1.43,7.35,4.06,2.33-2.72,5.53-4.06,9.34-4.06,5.19,0,8.26,2.72,8.26,7.56Z"/>
        <path class="cls-35" d="m483.68,596.66c0,7.87-5.53,13.53-12.97,13.53-4.06,0-6.96-1.56-8.39-4.41l-.86,4.15h-3.93l6.4-32.08h4.15l-2.38,11.8c2.03-1.82,4.67-2.85,7.87-2.85,5.84,0,10.12,3.67,10.12,9.86Zm-4.19.22c0-4.06-2.46-6.44-6.83-6.44-5.19,0-8.95,4.02-8.95,9.68,0,4.02,2.46,6.44,6.83,6.44,5.14,0,8.95-4.02,8.95-9.68Z"/>
        <path class="cls-36" d="m491.03,599.77v.26c0,4.19,2.33,6.53,7.26,6.53,2.85,0,5.45-1.04,7.09-2.64l1.77,2.98c-2.25,2.12-5.71,3.29-9.21,3.29-6.79,0-10.98-3.89-10.98-9.94,0-7.78,5.45-13.44,12.93-13.44,6.18,0,10.25,3.72,10.25,9.9,0,1.08-.13,2.12-.3,3.07h-18.8Zm.43-3.03h14.78c.22-4.19-2.46-6.48-6.53-6.48s-7.22,2.51-8.26,6.48Z"/>
        <path class="cls-27" d="m530.36,586.8l-.78,4.02c-.39-.04-.65-.04-1.08-.04-4.58,0-7.61,2.42-8.65,7.69l-2.29,11.46h-4.15l4.54-22.91h3.98l-.65,3.42c2.08-2.59,4.97-3.63,9.08-3.63Z"/>
      </g>
    </g>
  </g>
</svg>