<svg xmlns="http://www.w3.org/2000/svg" xmlns:xlink="http://www.w3.org/1999/xlink" width="40" height="40" viewBox="0 0 40 40"><defs><clipPath id="a"><rect width="40" height="40" transform="translate(3825 -6510)" fill="#fff" stroke="#707070" stroke-width="1"/></clipPath></defs><g transform="translate(-3825 6510)" clip-path="url(#a)"><g transform="translate(2652.147 3221.711)" opacity="0.6"><path d="M160.444,103.488h32.3l1.1,21.261a2.28,2.28,0,0,1-.408,1.582,1.549,1.549,0,0,1-1.314.579H161.071a1.543,1.543,0,0,1-1.313-.579,2.273,2.273,0,0,1-.412-1.582Zm7.738-13.227a1.725,1.725,0,0,0-1.73,1.729v5.889a1.73,1.73,0,0,0,3.46,0V95.871a2.992,2.992,0,1,1-4.723,2.439v-4.95h-2.118a5.061,5.061,0,0,0-3.184,1,4.348,4.348,0,0,0-1.552,3.026l-1.729,27.249a4.817,4.817,0,0,0,.944,3.379,4.148,4.148,0,0,0,3.228,1.488h31.633a4.143,4.143,0,0,0,3.224-1.488,4.806,4.806,0,0,0,.945-3.379l-1.725-27.25a4.35,4.35,0,0,0-1.555-3.026,5.044,5.044,0,0,0-3.181-1h-3.385V91.989a1.728,1.728,0,1,0-3.455,0v5.889a1.728,1.728,0,1,0,3.455,0V95.87a2.992,2.992,0,1,1-4.723,2.439V93.36h-12.1V91.989a1.724,1.724,0,0,0-1.729-1.729Z" transform="translate(1016.259 -9821.212)" fill="#fff" fill-rule="evenodd"/><path d="M271.952,254.314a1.86,1.86,0,0,0-1.35.57l-8.841,8.838-2.825-2.825a1.651,1.651,0,0,0-2.322-.167L255.339,262a1.651,1.651,0,0,0,.168,2.322l5.178,5.174a1.585,1.585,0,0,0,2.155,0l11.187-11.19a1.644,1.644,0,0,0,.167-2.319l-1.27-1.273a1.394,1.394,0,0,0-.972-.4Z" transform="translate(928.087 -9968.301)" fill="#fff"/></g></g></svg>