<svg xmlns="http://www.w3.org/2000/svg" xmlns:xlink="http://www.w3.org/1999/xlink" width="40" height="40" viewBox="0 0 40 40"><defs><clipPath id="a"><rect width="40" height="40" transform="translate(3862 -6427)" fill="#fff" stroke="#707070" stroke-width="1"/></clipPath></defs><g transform="translate(-3862 6427)" clip-path="url(#a)"><g transform="translate(2602.595 3175)" opacity="0.6"><path d="M124.5,17.5a2.01,2.01,0,0,0-2,2V32.055a14.618,14.618,0,0,1,2.088.042,13.74,13.74,0,0,1,2.542.5,14.105,14.105,0,0,0,4.043.9,10.119,10.119,0,0,0,3.327-.663V31.5a3.349,3.349,0,0,1,3.333-3.333h2V19.5a2.01,2.01,0,0,0-2-2Zm13.333,12a2.01,2.01,0,0,0-2,2v5.264a17.634,17.634,0,0,1,2.944-.013c3.287.27,5.485,1.395,7.729,1.415a20.4,20.4,0,0,0,4.726-.887,18.094,18.094,0,0,1,5.934-.514V31.5a2.01,2.01,0,0,0-2-2Zm-14.828,3.862c-.16,0-.335.016-.505.025v1.447a22.939,22.939,0,0,0,2.419,10.395c1.376,2.615,3.3,4.564,5.581,4.887v6.052h-5.333a.667.667,0,1,0,0,1.333h12a.667.667,0,0,0,0-1.333h-5.333V50.115c2.268-.32,4.176-2.246,5.551-4.833A11.939,11.939,0,0,1,134.5,37.5V34.237a10.252,10.252,0,0,1-3.34.6,14.879,14.879,0,0,1-4.4-.954,11.83,11.83,0,0,0-3.754-.517Zm14.061,4.671c-.386.006-.8.033-1.215.07a10.679,10.679,0,0,0,9.982,10.041v8.023H140.5a.667.667,0,1,0,0,1.333h12a.667.667,0,0,0,0-1.333h-5.333V48.144A10.679,10.679,0,0,0,157.149,38.1a16.548,16.548,0,0,0-5.605.473,20.543,20.543,0,0,1-5.049.924c-3.083-.028-5.439-1.525-9.427-1.468Z" transform="translate(1139.572 -9619.5)" fill="#fff"/></g></g></svg>