<svg xmlns="http://www.w3.org/2000/svg" xmlns:xlink="http://www.w3.org/1999/xlink" width="40" height="40" viewBox="0 0 40 40"><defs><clipPath id="a"><rect width="40" height="40" transform="translate(3786 -6502)" fill="#fff" stroke="#707070" stroke-width="1"/></clipPath></defs><g transform="translate(-3786 6502)" clip-path="url(#a)"><g transform="translate(2531.568 3216.068)" opacity="0.6"><path d="M470.62,141.948a.894.894,0,0,0,.629-1.08.978.978,0,0,1,0-.482,1.02,1.02,0,0,1,1.981.483,1.021,1.021,0,0,1-1.232.75.884.884,0,1,0-.418,1.717,2.8,2.8,0,1,0-2.036-2.017.885.885,0,0,0,1.08.63Z" transform="translate(819.271 -9848.806)" fill="#fff"/><path d="M197.234,69.258a.882.882,0,0,0,.625-.259c.157-.158.4-.134,1.069.016a2.371,2.371,0,0,0,3.166-3.166,2.056,2.056,0,0,1-.1-.937.336.336,0,0,1,.081-.132.367.367,0,0,1,.242-.1,3.089,3.089,0,0,1,.825.12,2.686,2.686,0,0,0,2.706-.457,2.583,2.583,0,0,0,.484-2.581c-.009-.041-.018-.085-.027-.125-.15-.663-.174-.91-.018-1.066s.4-.131,1.066.018c.141.032.3.065.462.095a2.364,2.364,0,0,0,2.243-.551.884.884,0,0,0-1.25-1.25c-.155.156-.4.132-1.066-.018a2.367,2.367,0,0,0-3.162,3.162,2.022,2.022,0,0,1,.1.937.325.325,0,0,1-.079.129.366.366,0,0,1-.239.1,3.03,3.03,0,0,1-.828-.12,2.689,2.689,0,0,0-2.706.456,2.588,2.588,0,0,0-.485,2.585c.009.04.018.085.027.122.149.665.172.912.016,1.069s-.4.134-1.069-.016c-.14-.032-.3-.065-.462-.094a2.372,2.372,0,0,0-2.245.552.885.885,0,0,0,.625,1.51Z" transform="translate(1058.082 -9770.959)" fill="#fff"/><g transform="translate(1277.822 -9715.602)"><path d="M376.27,65.6h1.307a.568.568,0,1,0,0-1.136H376.27a.568.568,0,0,0,0,1.136Z" transform="translate(-375.702 -61.767)" fill="#fff"/><path d="M414.8,65.6h1.307a.568.568,0,0,0,0-1.136H414.8a.568.568,0,0,0,0,1.136Z" transform="translate(-410.143 -61.767)" fill="#fff"/><path d="M401.693,77.578a.569.569,0,0,0-.568.568v1.307a.568.568,0,1,0,1.136,0V78.146A.568.568,0,0,0,401.693,77.578Z" transform="translate(-398.427 -73.489)" fill="#fff"/><path d="M401.693,41.493a.568.568,0,0,0,.568-.568V39.619a.568.568,0,0,0-1.136,0v1.307A.568.568,0,0,0,401.693,41.493Z" transform="translate(-398.427 -39.052)" fill="#fff"/></g><path d="M292.9,201.025a5.852,5.852,0,1,0-5.852-5.852A5.859,5.859,0,0,0,292.9,201.025Z" transform="translate(982.318 -9894.823)" fill="#fff"/><path d="M286.564,313.463h-3.538a5.051,5.051,0,0,0-5.046,5.046V327.7h0l13.622.022v-9.215a5.049,5.049,0,0,0-5.039-5.046Z" transform="translate(990.42 -10005.791)" fill="#fff"/><path d="M434.216,260.353a4.782,4.782,0,1,0-4.782,4.782A4.787,4.787,0,0,0,434.216,260.353Z" transform="translate(859.314 -9954.043)" fill="#fff"/><path d="M179.116,258.9a4.782,4.782,0,1,0-4.782,4.782A4.787,4.787,0,0,0,179.116,258.9Z" transform="translate(1087.342 -9952.748)" fill="#fff"/><path d="M428.68,364.341a4.188,4.188,0,0,0-4.18-4.186h-3a4.184,4.184,0,0,0-4.046,3.134v6.171H428.68v-5.119Z" transform="translate(865.751 -10047.528)" fill="#fff"/><path d="M172.3,361.825a4.185,4.185,0,0,0-4.046-3.118h-3a4.188,4.188,0,0,0-4.18,4.186v5.026H172.3Z" transform="translate(1094.926 -10046.234)" fill="#fff"/></g></g></svg>