<svg xmlns="http://www.w3.org/2000/svg" width="23.15" height="22.711" viewBox="0 0 23.15 22.711">
  <path id="date_gold" d="M158.822,97.916h18.7l.634,12.3a1.32,1.32,0,0,1-.236.916.9.9,0,0,1-.761.335H159.185a.893.893,0,0,1-.76-.335,1.316,1.316,0,0,1-.239-.916Zm4.478-7.656a1,1,0,0,0-1,1v3.408a1,1,0,0,0,2,0V93.507a1.732,1.732,0,1,1-2.733,1.412V92.055h-1.226a2.929,2.929,0,0,0-1.843.578,2.516,2.516,0,0,0-.9,1.751l-1,15.771a2.788,2.788,0,0,0,.547,1.955,2.4,2.4,0,0,0,1.868.861h18.308a2.4,2.4,0,0,0,1.866-.861,2.781,2.781,0,0,0,.547-1.955l-1-15.771a2.517,2.517,0,0,0-.9-1.751A2.919,2.919,0,0,0,176,92.054h-1.959v-.794a1,1,0,1,0-2,0v3.408a1,1,0,1,0,2,0V93.507a1.732,1.732,0,1,1-2.733,1.412V92.054h-7v-.794a1,1,0,0,0-1-1Z" transform="translate(-156.594 -90.26)" fill="#d3bb8a" fill-rule="evenodd"/>
</svg>
