<svg xmlns="http://www.w3.org/2000/svg" width="25.823" height="24.231" viewBox="0 0 25.823 24.231">
  <g id="addguestgrey" transform="translate(0)">
    <path id="Path_392265" data-name="Path 392265" d="M470.205,140.492a.577.577,0,0,0,.406-.7.631.631,0,0,1,0-.311.658.658,0,0,1,1.279.312.659.659,0,0,1-.8.484.57.57,0,1,0-.27,1.108,1.807,1.807,0,1,0-1.315-1.3.571.571,0,0,0,.7.407Z" transform="translate(-447.314 -134.847)" fill="#c0c8d3"/>
    <path id="Path_392266" data-name="Path 392266" d="M196.921,65.489a.569.569,0,0,0,.4-.167c.1-.1.261-.086.69.01a1.531,1.531,0,0,0,2.044-2.044,1.328,1.328,0,0,1-.063-.605.217.217,0,0,1,.052-.085.237.237,0,0,1,.156-.066,1.994,1.994,0,0,1,.533.078,1.734,1.734,0,0,0,1.747-.295,1.667,1.667,0,0,0,.312-1.666c-.006-.026-.012-.055-.018-.081-.1-.428-.112-.588-.012-.688s.26-.085.688.012c.091.02.193.042.3.061A1.526,1.526,0,0,0,205.2,59.6a.571.571,0,1,0-.807-.807c-.1.1-.26.085-.688-.012a1.528,1.528,0,0,0-2.041,2.041,1.305,1.305,0,0,1,.063.605.21.21,0,0,1-.051.083.236.236,0,0,1-.154.066,1.956,1.956,0,0,1-.534-.078,1.736,1.736,0,0,0-1.747.295,1.671,1.671,0,0,0-.313,1.669c.006.026.012.055.017.079.1.429.111.589.01.69s-.261.086-.69-.01c-.09-.02-.192-.042-.3-.061a1.531,1.531,0,0,0-1.449.356.571.571,0,0,0,.4.975Z" transform="translate(-196.35 -56.515)" fill="#c0c8d3"/>
    <g id="Group_295612" data-name="Group 295612" transform="translate(15.1)">
      <path id="Path_392276" data-name="Path 392276" d="M376.069,65.2h.844a.367.367,0,1,0,0-.733h-.844a.367.367,0,0,0,0,.733Z" transform="translate(-375.702 -62.723)" fill="#c0c8d3"/>
      <path id="Path_392277" data-name="Path 392277" d="M414.6,65.2h.844a.367.367,0,0,0,0-.733H414.6a.367.367,0,0,0,0,.733Z" transform="translate(-411.593 -62.723)" fill="#c0c8d3"/>
      <path id="Path_392278" data-name="Path 392278" d="M401.491,77.578a.367.367,0,0,0-.367.366v.844a.367.367,0,1,0,.733,0v-.844A.367.367,0,0,0,401.491,77.578Z" transform="translate(-399.383 -74.938)" fill="#c0c8d3"/>
      <path id="Path_392279" data-name="Path 392279" d="M401.491,40.628a.367.367,0,0,0,.366-.366v-.844a.367.367,0,0,0-.733,0v.844A.367.367,0,0,0,401.491,40.628Z" transform="translate(-399.383 -39.052)" fill="#c0c8d3"/>
    </g>
    <path id="Path_392280" data-name="Path 392280" d="M290.823,196.876a3.778,3.778,0,1,0-3.778-3.778A3.782,3.782,0,0,0,290.823,196.876Z" transform="translate(-277.406 -182.801)" fill="#c0c8d3"/>
    <path id="Path_392281" data-name="Path 392281" d="M283.522,313.463h-2.284a3.261,3.261,0,0,0-3.257,3.257v5.933h0l8.794.014V316.72a3.259,3.259,0,0,0-3.253-3.257Z" transform="translate(-268.963 -298.438)" fill="#c0c8d3"/>
    <path id="Path_392282" data-name="Path 392282" d="M430.826,258.658a3.087,3.087,0,1,0-3.087,3.087A3.09,3.09,0,0,0,430.826,258.658Z" transform="translate(-405.586 -244.513)" fill="#c0c8d3"/>
    <path id="Path_392283" data-name="Path 392283" d="M175.726,257.208a3.087,3.087,0,1,0-3.087,3.087A3.09,3.09,0,0,0,175.726,257.208Z" transform="translate(-167.963 -243.163)" fill="#c0c8d3"/>
    <path id="Path_392284" data-name="Path 392284" d="M424.7,362.857a2.7,2.7,0,0,0-2.7-2.7h-1.939a2.7,2.7,0,0,0-2.612,2.023v3.984H424.7v-3.3Z" transform="translate(-398.878 -341.932)" fill="#c0c8d3"/>
    <path id="Path_392285" data-name="Path 392285" d="M168.316,360.72a2.7,2.7,0,0,0-2.612-2.013h-1.939a2.7,2.7,0,0,0-2.7,2.7v3.245h7.249Z" transform="translate(-160.059 -340.583)" fill="#c0c8d3"/>
  </g>
</svg>
