<svg xmlns="http://www.w3.org/2000/svg" width="24.232" height="24.23" viewBox="0 0 24.232 24.23">
  <g id="guest_icon" transform="translate(-1256.021 9715.602)">
    <path id="Path_392265" data-name="Path 392265" d="M470.205,140.492a.577.577,0,0,0,.406-.7.631.631,0,0,1,0-.311.658.658,0,0,1,1.279.312.659.659,0,0,1-.8.484.57.57,0,1,0-.27,1.108,1.807,1.807,0,1,0-1.315-1.3.571.571,0,0,0,.7.407Z" transform="translate(807.118 -9850.448)" fill="#d3bb8a"/>
    <g id="Group_295612" data-name="Group 295612" transform="translate(1269.532 -9715.602)">
      <path id="Path_392276" data-name="Path 392276" d="M376.069,65.2h.844a.367.367,0,1,0,0-.733h-.844a.367.367,0,0,0,0,.733Z" transform="translate(-375.702 -62.724)" fill="#d3bb8a"/>
      <path id="Path_392277" data-name="Path 392277" d="M414.6,65.2h.844a.367.367,0,0,0,0-.733H414.6a.367.367,0,0,0,0,.733Z" transform="translate(-411.593 -62.724)" fill="#d3bb8a"/>
      <path id="Path_392278" data-name="Path 392278" d="M401.491,77.578a.367.367,0,0,0-.367.366v.844a.367.367,0,1,0,.733,0v-.844A.367.367,0,0,0,401.491,77.578Z" transform="translate(-399.383 -74.938)" fill="#d3bb8a"/>
      <path id="Path_392279" data-name="Path 392279" d="M401.491,40.628a.367.367,0,0,0,.366-.366v-.844a.367.367,0,0,0-.733,0v.844A.367.367,0,0,0,401.491,40.628Z" transform="translate(-399.383 -39.052)" fill="#d3bb8a"/>
    </g>
    <path id="Path_392280" data-name="Path 392280" d="M290.823,196.876a3.778,3.778,0,1,0-3.778-3.778A3.782,3.782,0,0,0,290.823,196.876Z" transform="translate(977.026 -9898.402)" fill="#d3bb8a"/>
    <path id="Path_392281" data-name="Path 392281" d="M283.522,313.463h-2.284a3.261,3.261,0,0,0-3.257,3.257v5.933h0l8.794.014V316.72a3.259,3.259,0,0,0-3.253-3.257Z" transform="translate(985.469 -10014.04)" fill="#d3bb8a"/>
    <path id="Path_392282" data-name="Path 392282" d="M430.826,258.658a3.087,3.087,0,1,0-3.087,3.087A3.09,3.09,0,0,0,430.826,258.658Z" transform="translate(848.846 -9960.114)" fill="#d3bb8a"/>
    <path id="Path_392283" data-name="Path 392283" d="M175.726,257.208a3.087,3.087,0,1,0-3.087,3.087A3.09,3.09,0,0,0,175.726,257.208Z" transform="translate(1086.469 -9958.765)" fill="#d3bb8a"/>
    <path id="Path_392284" data-name="Path 392284" d="M424.7,362.857a2.7,2.7,0,0,0-2.7-2.7h-1.939a2.7,2.7,0,0,0-2.612,2.023v3.984H424.7v-3.3Z" transform="translate(855.554 -10057.533)" fill="#d3bb8a"/>
  </g>
</svg>
