<svg id="location" xmlns="http://www.w3.org/2000/svg" width="16.15" height="20.555" viewBox="0 0 16.15 20.555">
  <path id="Path_460927" data-name="Path 460927" d="M15.575,3A8.085,8.085,0,0,0,7.5,11.075,7.994,7.994,0,0,0,9.127,15.92s.22.29.256.332l6.192,7.3,6.2-7.307c.032-.039.253-.328.253-.328v0a7.991,7.991,0,0,0,1.626-4.843A8.085,8.085,0,0,0,15.575,3Zm0,11.012a2.936,2.936,0,1,1,2.936-2.936,2.936,2.936,0,0,1-2.936,2.936Z" transform="translate(-7.5 -3)" fill="#c0c8d3"/>
  <circle id="IconifyId-17e9079768a-d1151c-107" cx="2.936" cy="2.936" r="2.936" transform="translate(5.139 5.139)" fill="none"/>
</svg>
