<svg xmlns="http://www.w3.org/2000/svg" width="21.268" height="22.154" viewBox="0 0 21.268 22.154">
  <g id="notification-solid-badged" transform="translate(-4.067 -1.333)">
    <path id="Path_461736" data-name="Path 461736" d="M22.211,44.184a1.777,1.777,0,0,0,1.717-1.518h-3.5A1.777,1.777,0,0,0,22.211,44.184Z" transform="translate(-8.192 -20.697)" fill="#c0c8d3"/>
    <path id="Path_461737" data-name="Path 461737" d="M23.9,19.91l-.226-.2a9.566,9.566,0,0,1-1.671-1.95,8.407,8.407,0,0,1-.9-3.2V11.27A7.269,7.269,0,0,0,21,10.078a4.993,4.993,0,0,1-3.987-4.9V4.76a7.036,7.036,0,0,0-2.21-.666V3.255a.889.889,0,0,0-1.777,0v.872A7.2,7.2,0,0,0,6.836,11.27v3.288a8.407,8.407,0,0,1-.9,3.2,9.586,9.586,0,0,1-1.644,1.95l-.226.2v1.877H23.9Z" transform="translate(0 -0.517)" fill="#c0c8d3"/>
    <circle id="Ellipse_1735" data-name="Ellipse 1735" cx="3.328" cy="3.328" r="3.328" transform="translate(18.678 1.333)" fill="#c0c8d3"/>
  </g>
</svg>
