<svg xmlns="http://www.w3.org/2000/svg" width="20.855" height="20.754" viewBox="0 0 20.855 20.754">
  <g id="bottle" transform="translate(0 0)">
    <path id="Path_461659" data-name="Path 461659" d="M560.781,508.886l.576-.577a.959.959,0,0,1,.735-.3,1,1,0,0,1,.735.3l.519.519-.317.317.937.936-1.383,1.384-.937-.936-.346.346-.519-.519a.97.97,0,0,1-.288-.749.934.934,0,0,1,.288-.721" transform="translate(-560.492 -508.005)" fill="#c0c8d3"/>
    <path id="Path_461660" data-name="Path 461660" d="M558.249,524.206a.143.143,0,1,1-.2.2,2.561,2.561,0,0,0-1.9-.936.112.112,0,0,1-.1-.043.1.1,0,0,1-.058-.086.157.157,0,0,1,.043-.115.139.139,0,0,1,.1-.043,2.763,2.763,0,0,1,2.119,1.022" transform="translate(-553.52 -518.804)" fill="#c0c8d3"/>
    <path id="Path_461661" data-name="Path 461661" d="M556.42,519.929a.139.139,0,0,1,.044.1.137.137,0,0,1-.043.1.139.139,0,0,1-.2,0l-1.99-1.988a.143.143,0,1,1,.2-.2l1.99,1.988" transform="translate(-551.172 -515.046)" fill="#c0c8d3"/>
    <path id="Path_461662" data-name="Path 461662" d="M521.885,535.37l5.652-5.762-2-2a3.822,3.822,0,0,0-3.273-1.163l-.014,0a4.233,4.233,0,0,1-3.084-1.31l-1.515-1.551a.151.151,0,0,0-.1-.044.137.137,0,0,0-.1.044l-1.63,1.628a.151.151,0,0,0-.044.1.136.136,0,0,0,.044.1l1.517,1.553a4.757,4.757,0,0,1,1.009,1.466,3.784,3.784,0,0,1,.3,1.618,3.854,3.854,0,0,0,1.185,3.27Z" transform="translate(-511.173 -519.059)" fill="#c0c8d3"/>
    <path id="Path_461663" data-name="Path 461663" d="M503.613,556.115a.883.883,0,0,0,1.412,0l4.278-4.283a.889.889,0,0,0,.015-1.427l-3.47-3.469-5.655,5.764Z" transform="translate(-488.814 -535.714)" fill="#c0c8d3"/>
    <path id="Path_461664" data-name="Path 461664" d="M552.752,516.137a.164.164,0,0,1,.029.1,2.575,2.575,0,0,0,.938,1.917.143.143,0,1,1-.2.2,2.776,2.776,0,0,1-1.024-2.133.157.157,0,0,1,.058-.1.14.14,0,0,1,.1-.029A.172.172,0,0,1,552.752,516.137Z" transform="translate(-547.981 -513.762)" fill="#c0c8d3"/>
  </g>
</svg>
