<svg xmlns="http://www.w3.org/2000/svg" width="22.929" height="21.256" viewBox="0 0 22.929 21.256">
  <g id="chat" transform="translate(0 0)">
    <path id="Path_461654" data-name="Path 461654" d="M122.4,233.533a8.968,8.968,0,0,0-9.193-3.953,8.384,8.384,0,0,0-6.98,6.246c-.113.4-.151.817-.224,1.226v1.041c.023.122.038.246.069.366.192.726.354,1.461.59,2.175a4.417,4.417,0,0,1-.474,3.982.61.61,0,0,0,.307.929,4.708,4.708,0,0,0,4.777-.271.319.319,0,0,1,.321-.038,8.935,8.935,0,0,0,5.048.353C122.413,244.328,125.439,238.439,122.4,233.533Zm-8.7-.665h2.2v.675h-2.2Zm6.259,6.523H109.638v-1.71h.749a4.068,4.068,0,0,1,1.9-3.058,4.494,4.494,0,0,1,2.74-.723,4.292,4.292,0,0,1,4.174,3.778h.748Z" transform="translate(-106 -229.42)" fill="#c0c8d3"/>
    <path id="Path_461655" data-name="Path 461655" d="M8.19,18.325a6.365,6.365,0,0,0,3.962,1.856,7.291,7.291,0,0,0,4.148-.505s2.049,1.592,3.955.83-1.287-1.847-.32-4.093,1.586-4.913-1.021-8.394" transform="translate(1.553 0)" fill="none" stroke="#c0c8d3" stroke-linecap="round" stroke-width="1"/>
  </g>
</svg>
