
1.34k → 1.2k 89.58%
<svg xmlns="http://www.w3.org/2000/svg" width="42" height="42"><defs><clipPath id="a"><path d="M0 0h42v42H0z"  transform="translate(-10064 -19252)"/></clipPath></defs><g style="clip-path:url(#a)" transform="translate(10064 19252)"><path d="M-10040.504-19218.379c.125-.027.248-.057.37-.088q.625-.159 1.223-.376v-7.014a1.763 1.763 0 0 1 1.378-1.68l7.151-1.424a13.24 13.24 0 0 0 .047-4.377 12.959 12.959 0 0 0-9.482-10.726.9.9 0 0 1-.431-.336 3.834 3.834 0 0 0-2.21-1.614c-.173-.049-.352-.081-.545-.124v-2.887c0-.335-.167-.54-.418-.518-.3.021-.409.224-.409.5v2.86h-.008c-.044.044-.05.061-.06.061l-.336.074a3.631 3.631 0 0 0-2.344 1.635.846.846 0 0 1-.526.39 13.294 13.294 0 0 0-2.026.77c-.28.132-.544.274-.779.4a12.286 12.286 0 0 0-3.188 2.515v-.009a13.233 13.233 0 0 0-3.412 11.086 13.246 13.246 0 0 0 15.127 11.05q.443-.069.878-.168Zm9.48-13.7c.025.7-.019 1.4-.046 2.1 0 .082-.068.221-.134.242-.923.3-1.853.578-2.772.861v-4.818c.71.2 1.451.391 2.178.617s.749.243.774.998Zm-4.473-6.727v.009c.954.441 1.849.851 2.74 1.27a.467.467 0 0 1 .185.192 12.164 12.164 0 0 1 1.294 3.4.5.5 0 0 1 0 .115c-.936-.232-1.858-.458-2.777-.7a.323.323 0 0 1-.182-.207 16.933 16.933 0 0 0-1.265-3.9.971.971 0 0 1 .005-.18Zm-6.07-4.632a8.436 8.436 0 0 1 4.239 3.3c-.581-.109-1.081-.211-1.583-.3-.443-.074-.888-.123-1.33-.2a.363.363 0 0 1-.241-.17c-.37-.867-.726-1.752-1.086-2.631Zm-11.3 14.516c-.428-.1-.9-.205-1.373-.336a12.976 12.976 0 0 1-1.272-.425.479.479 0 0 1-.27-.32 63.45 63.45 0 0 1 0-2.581.364.364 0 0 1 .181-.281c.913-.295 1.833-.569 2.735-.845Zm1.669-7.887c.251-.7.587-1.372.893-2.052.051-.1.125-.227.211-.247 1.12-.247 2.241-.482 3.4-.728l-.736 4.59-4.382.5c.212-.71.374-1.401.618-2.063Zm.97 13.2a14.258 14.258 0 0 1-1.531-4.22l4.347.492h-.018l.741 4.536c-.456-.068-.937-.123-1.417-.217a43.63 43.63 0 0 1-1.816-.407.5.5 0 0 1-.303-.185Zm5.066 4.5a8.455 8.455 0 0 1-4.348-3.325 15.375 15.375 0 0 0 2.084.344h.052a1.218 1.218 0 0 1 1.3 1.127 3.628 3.628 0 0 0 .394.914c.148.3.319.582.52.943Zm-1.453-9.009a45.791 45.791 0 0 1 0-6.351h6.355a41.033 41.033 0 0 1 0 6.351Z"/><path d="M-10029.009-19226.983a.406.406 0 0 0-.192-.007l-.03.006-6.957 1.312a1.425 1.425 0 0 0-1.1 1.34v7.062H-10038.762l-.059.007a2.844 2.844 0 0 0-2.27 3.061 2.872 2.872 0 0 0 2.669 2.634 2.867 2.867 0 0 0 3.05-2.858v-7.151l5.13-1.022v3.372h-1.475v.043a2.856 2.856 0 0 0-2.339 2.8 2.867 2.867 0 0 0 2.919 2.863 2.9 2.9 0 0 0 2.809-2.911v-9.6a.965.965 0 0 0-.681-.951Z"/></g></svg>