<svg xmlns="http://www.w3.org/2000/svg" xmlns:xlink="http://www.w3.org/1999/xlink" width="42" height="42" viewBox="0 0 42 42"><defs><clipPath id="a"><rect class="a" width="42" height="42" transform="translate(-10010 -19252)"/></clipPath></defs><g class="b" transform="translate(10010 19252)"><g transform="translate(-7456.599 -19788.232)"><path d="M-2533.021,564.288a10.705,10.705,0,0,1,3.843-.344.717.717,0,0,0,.728-.721v-2.486a2.77,2.77,0,0,0-5.539,0v2.879A.715.715,0,0,0-2533.021,564.288Z" transform="translate(-4.526 -7.041)"/><path d="M-2522.256,563.264h4.1a.721.721,0,0,0,.721-.72V558.9a2.77,2.77,0,0,0-5.539,0v3.644A.721.721,0,0,0-2522.256,563.264Z" transform="translate(-8.542 -6.371)"/><path d="M-2521.538,561.051c-.081,0-13.948,0-14.311,0a2.77,2.77,0,0,0-.093,5.537c.174.009,7.6-.006,7.908,0h0a.742.742,0,0,1,0,1.484h-7.821a4.256,4.256,0,0,1-4.232-4.21l-.8-15.323a2.766,2.766,0,0,0-5.517.354l.886,17.117a.139.139,0,0,1,0,.133,13.764,13.764,0,0,0,.468,3.649,12.15,12.15,0,0,0,4.387,6.886,11.531,11.531,0,0,0,6.911,2.176h3a12.03,12.03,0,0,0,8.55-3.544,11.985,11.985,0,0,0,2.735-4.207,10.314,10.314,0,0,0,.489-1.77,17.289,17.289,0,0,0,.162-5.2c0-.037,0-.055-.007-.07A3.713,3.713,0,0,0-2521.538,561.051Z" transform="translate(0 -2.69)"/><path d="M-2511.351,541.435l-.528,14.715a.719.719,0,0,0,.729.743,9.792,9.792,0,0,1,3.94.419.722.722,0,0,0,1.026-.635l.372-15.258A2.77,2.77,0,0,0-2511.351,541.435Z" transform="translate(-12.589 0)"/></g></g></svg>