<svg xmlns="http://www.w3.org/2000/svg" width="26.383" height="26.383"><defs><clipPath id="a"><path d="M0 0h26.383v26.383H0z" style="fill:#fff" transform="translate(-19317.383 -11843.383)"/></clipPath></defs><g style="clip-path:url(#a)" transform="translate(19317.383 11843.383)"><path d="M83.079 34.259c-.094 0-8.72.009-8.824 0a.463.463 0 0 1-.308-.147.5.5 0 0 1-.025-.672c.2-.33 1.348-.136 1.72-.18a2.313 2.313 0 0 0 2.267-1.794c.028-.356.081-8.028.009-8.385a1.889 1.889 0 0 0-.7-1.128c-3.535-2.63-3.118-7.405-2.518-11.771h7.912c.427 4.149 1.18 9.125-2.515 11.772a1.862 1.862 0 0 0-.733 1.486c.16.851-.393 8.4.452 8.946 1.3 1.613 3.58.246 3.7 1.345a.5.5 0 0 1-.44.528" style="fill:#c0c8d3" transform="translate(-19382.852 -11852.415)"/><path d="M0 0h9.716v24.083H0z" style="fill:none" transform="translate(-19309.049 -11842.233)"/></g></svg>