<svg xmlns="http://www.w3.org/2000/svg" width="8.632" height="20.257" viewBox="0 0 8.632 20.257">
  <g id="ladies_night_icon" data-name="ladies night icon" transform="translate(15067.251 14641.192)">
    <path id="Path_462065" data-name="Path 462065" d="M58.245,61.75l-.064,6.466s-.1.956-.8,1.051a22.122,22.122,0,0,0-2.229.51s-.415.254-.1.445c0,0,.892.605,3.536.637a10.9,10.9,0,0,0,3.6-.54s.382-.351-.414-.541a14.411,14.411,0,0,1-2.421-.733,1.344,1.344,0,0,1-.287-.733V61.686s4.2-2.643,3.949-6.306c0,0-.383-3.536-.605-4.522a33.69,33.69,0,0,0-7.2-.128,33.356,33.356,0,0,0-.8,4.586S53.881,58.469,58.245,61.75Z" transform="translate(-15121.652 -14691.795)" fill="#bfc8d3"/>
    <path id="Icon_metro-moon2" data-name="Icon metro-moon2" d="M13.462,13.136a2.231,2.231,0,0,1-.52-2.327,2.237,2.237,0,1,0,2.846,2.847,2.23,2.23,0,0,1-2.327-.52Z" transform="translate(-15076.93 -14647.059)" fill="#090f17"/>
  </g>
</svg>
