<svg xmlns="http://www.w3.org/2000/svg" xmlns:xlink="http://www.w3.org/1999/xlink" width="42" height="42" viewBox="0 0 42 42"><defs><clipPath id="a"><rect class="a" width="42" height="42" transform="translate(-9943 -19252)"/></clipPath></defs><g class="b" transform="translate(9943 19252)"><path d="M525.138,488.287A13.511,13.511,0,0,0,511.627,501.8h0c0,7.8,8.016,18.473,11.7,22.962a2.337,2.337,0,0,0,3.622,0c3.684-4.489,11.7-15.158,11.7-22.962a13.5,13.5,0,0,0-13.493-13.511Zm0,20.59a7.079,7.079,0,1,1,7.079-7.079A7.079,7.079,0,0,1,525.138,508.877Z" transform="translate(-10447.26 -19737.832)"/></g></svg>