<svg xmlns="http://www.w3.org/2000/svg" width="20.611" height="18.5" viewBox="0 0 20.611 18.5">
  <path id="Path_461684" data-name="Path 461684" d="M-1614.549,168.592h-16.291a2.163,2.163,0,0,0-2.16,2.16v9.506a2.163,2.163,0,0,0,2.16,2.16h16.291a2.163,2.163,0,0,0,2.16-2.16v-9.506A2.163,2.163,0,0,0-1614.549,168.592Zm-7.9,6.979-1.478,1.074.564,1.738a.851.851,0,0,1-.314.966.851.851,0,0,1-1.015,0l-1.478-1.074-1.478,1.074a.865.865,0,0,1-.508.168.862.862,0,0,1-.509-.169.852.852,0,0,1-.313-.966l.564-1.737-1.478-1.074a.852.852,0,0,1-.315-.966.851.851,0,0,1,.822-.6h1.827l.564-1.738a.85.85,0,0,1,.821-.6.85.85,0,0,1,.821.6l.565,1.738h1.828a.852.852,0,0,1,.822.6A.852.852,0,0,1-1622.445,175.571Zm3.366,3.555a.4.4,0,0,1-.1.143.255.255,0,0,1-.064.052.236.236,0,0,1-.073.039.259.259,0,0,1-.082.026.5.5,0,0,1-.081.009.453.453,0,0,1-.307-.125.5.5,0,0,1-.09-.143.431.431,0,0,1-.035-.164.451.451,0,0,1,.126-.306.431.431,0,0,1,.389-.117.264.264,0,0,1,.082.026.237.237,0,0,1,.073.039h0a.442.442,0,0,1,.065.052.44.44,0,0,1,.13.306A.424.424,0,0,1-1619.079,179.126Zm1.22.268a.432.432,0,0,1-.432-.432.432.432,0,0,1,.432-.432.432.432,0,0,1,.432.432A.432.432,0,0,1-1617.859,179.394Zm1.62,0a.432.432,0,0,1-.432-.432.432.432,0,0,1,.432-.432.432.432,0,0,1,.432.432A.432.432,0,0,1-1616.239,179.394Z" transform="translate(1633 -168.592)" fill="#c0c8d3"/>
</svg>
