<svg xmlns="http://www.w3.org/2000/svg" width="20.612" height="20.095" viewBox="0 0 20.612 20.095">
  <path id="ticket" d="M11.444,4.754,12.95,4.73,13,1.56A1.534,1.534,0,0,0,11.425,0l-2.4.037A2.481,2.481,0,0,1,6.587,2.452,2.3,2.3,0,0,1,4.225.112L1.825.15A1.654,1.654,0,0,0,.2,1.76L.15,4.93l1.506-.023a.767.767,0,0,1,.788.78.827.827,0,0,1-.812.8L.125,6.515,0,14.44A1.534,1.534,0,0,0,1.575,16l9.6-.15A1.654,1.654,0,0,0,12.8,14.24l.125-7.925-1.506.023a.767.767,0,0,1-.788-.78A.827.827,0,0,1,11.444,4.754ZM5.4,6.433,3.89,6.456a.767.767,0,0,1-.788-.78.827.827,0,0,1,.812-.8L5.42,4.848a.767.767,0,0,1,.788.78.827.827,0,0,1-.812.8ZM9.16,6.374,7.655,6.4a.767.767,0,0,1-.788-.78.827.827,0,0,1,.812-.8l1.506-.023a.767.767,0,0,1,.788.78.827.827,0,0,1-.812.8Z" transform="matrix(0.616, -0.788, 0.788, 0.616, 0, 10.244)" fill="#c0c8d3"/>
</svg>
