<svg xmlns="http://www.w3.org/2000/svg" xmlns:xlink="http://www.w3.org/1999/xlink" width="42" height="42" viewBox="0 0 42 42"><defs><clipPath id="a"><rect class="a" width="42" height="42" transform="translate(-9888 -19252)"/></clipPath></defs><g class="b" transform="translate(9888 19252)"><path d="M-1599.141,168.592h-29.9a3.969,3.969,0,0,0-3.963,3.964V190a3.969,3.969,0,0,0,3.963,3.964h29.9a3.97,3.97,0,0,0,3.964-3.964V172.556A3.97,3.97,0,0,0-1599.141,168.592Zm-14.49,12.807-2.712,1.971,1.035,3.188a1.562,1.562,0,0,1-.577,1.773,1.561,1.561,0,0,1-1.864,0l-2.711-1.971-2.712,1.971a1.588,1.588,0,0,1-.932.308,1.583,1.583,0,0,1-.934-.309,1.563,1.563,0,0,1-.575-1.773l1.035-3.188-2.711-1.971a1.564,1.564,0,0,1-.577-1.773,1.562,1.562,0,0,1,1.509-1.092H-1623l1.036-3.189a1.559,1.559,0,0,1,1.507-1.092,1.56,1.56,0,0,1,1.507,1.092l1.037,3.189h3.352l0,0a1.563,1.563,0,0,1,1.509,1.092A1.564,1.564,0,0,1-1613.63,181.4Zm6.177,6.524a.733.733,0,0,1-.182.262.477.477,0,0,1-.118.095.436.436,0,0,1-.135.071.477.477,0,0,1-.151.047.926.926,0,0,1-.149.016.831.831,0,0,1-.562-.229.913.913,0,0,1-.166-.262.8.8,0,0,1-.064-.3.828.828,0,0,1,.231-.562.79.79,0,0,1,.714-.215.487.487,0,0,1,.151.047.433.433,0,0,1,.135.071l0,0a.8.8,0,0,1,.119.095.807.807,0,0,1,.238.562A.779.779,0,0,1-1607.454,187.923Zm2.239.491a.793.793,0,0,1-.793-.793.793.793,0,0,1,.793-.793.793.793,0,0,1,.793.793A.793.793,0,0,1-1605.215,188.414Zm2.974,0a.794.794,0,0,1-.794-.793.794.794,0,0,1,.794-.793.793.793,0,0,1,.793.793A.793.793,0,0,1-1602.242,188.414Z" transform="translate(-8252.911 -19412.156)"/></g></svg>