<svg xmlns="http://www.w3.org/2000/svg" xmlns:xlink="http://www.w3.org/1999/xlink" width="60" height="60" viewBox="0 0 60 60"><defs><clipPath id="a"><rect width="60" height="60" transform="translate(5509 -14465)" fill="#fff"/></clipPath><filter id="b" x="30.089" y="22.657" width="38.911" height="38.911" filterUnits="userSpaceOnUse"><feOffset dy="3" input="SourceAlpha"/><feGaussianBlur stdDeviation="3" result="c"/><feFlood flood-opacity="0.161"/><feComposite operator="in" in2="c"/><feComposite in="SourceGraphic"/></filter></defs><g transform="translate(-5509 14465)" clip-path="url(#a)"><g transform="translate(5187.429 -14747.188)"><rect width="53.525" height="32.374" rx="7" transform="translate(321.571 292.619)" fill="#dcdbdc"/><g transform="translate(326.716 298.878)"><circle cx="3.333" cy="3.333" r="3.333" transform="translate(2.349)" fill="#171717"/><path d="M360.18,368.711v1.1H348.815v-1.1a4.063,4.063,0,0,1,4.062-4.062h3.241A4.063,4.063,0,0,1,360.18,368.711Z" transform="translate(-348.815 -357.305)" fill="#171717"/></g><rect width="20.767" height="3.309" rx="1.655" transform="translate(346.847 302.115)" fill="#171717"/><rect width="13.813" height="3.309" rx="1.655" transform="translate(346.847 306.384)" fill="#171717"/><g transform="translate(360.661 310.845)"><g transform="matrix(1, 0, 0, 1, -39.09, -28.66)" filter="url(#b)"><circle cx="10.455" cy="10.455" r="10.455" transform="translate(39.09 28.66)" fill="#e4d4a0"/></g><g transform="translate(6.219 4.656)"><path d="M565.851,409.247V408.08h-8.534v1.167h.722v.779a3.325,3.325,0,0,0,.194,1.3,6.024,6.024,0,0,0,2.091,2.769.052.052,0,0,1,0,.082,6.024,6.024,0,0,0-2.091,2.769,3.325,3.325,0,0,0-.194,1.3v.766h-.722v1.167h8.534v-1.167H565.1v-.766a3.324,3.324,0,0,0-.194-1.3,6.024,6.024,0,0,0-2.091-2.769.052.052,0,0,1,0-.082h0a6.025,6.025,0,0,0,2.091-2.769,3.324,3.324,0,0,0,.194-1.3v-.779Zm-1.423,1.956a5.569,5.569,0,0,1-1.921,2.511h0a.54.54,0,0,0,0,.847,5.569,5.569,0,0,1,1.921,2.511,2.861,2.861,0,0,1,.181,1.133.245.245,0,0,0,0,.031v.682h-6.081v-.682a.218.218,0,0,0,0-.03,2.852,2.852,0,0,1,.181-1.135,5.569,5.569,0,0,1,1.921-2.511.54.54,0,0,0,0-.847,5.569,5.569,0,0,1-1.921-2.511,2.854,2.854,0,0,1-.181-1.133.235.235,0,0,0,0-.031v-.682h6.081v.682a.217.217,0,0,0,0,.03A2.859,2.859,0,0,1,564.428,411.2Z" transform="translate(-557.317 -408.08)"/><path d="M569.113,460.84h4.75a2.375,2.375,0,1,0-4.75,0Z" transform="translate(-567.234 -450.441)"/><path d="M572.618,429.454a2.968,2.968,0,0,1-1.046.14,3.285,3.285,0,0,1-1.195-.282,7.658,7.658,0,0,0,1.463,1.463,2.382,2.382,0,0,1,.667.83.146.146,0,0,0,.248.022,10.835,10.835,0,0,1,1.862-2.06A2.659,2.659,0,0,0,572.618,429.454Z" transform="translate(-568.297 -425.931)"/></g></g></g></g></svg>