<svg xmlns="http://www.w3.org/2000/svg" xmlns:xlink="http://www.w3.org/1999/xlink" width="60" height="60" viewBox="0 0 60 60"><defs><clipPath id="a"><rect width="60" height="60" transform="translate(4035 -14495)" fill="#fff" stroke="#707070" stroke-width="1"/></clipPath><filter id="b" x="30.089" y="22.657" width="38.911" height="38.911" filterUnits="userSpaceOnUse"><feOffset dy="3" input="SourceAlpha"/><feGaussianBlur stdDeviation="3" result="c"/><feFlood flood-opacity="0.161"/><feComposite operator="in" in2="c"/><feComposite in="SourceGraphic"/></filter></defs><g transform="translate(-4035 14495)" clip-path="url(#a)"><g transform="translate(3713.428 -14777.188)"><rect width="53.525" height="32.374" rx="7" transform="translate(321.571 292.619)" fill="#dcdbdc"/><g transform="translate(326.716 298.878)"><circle cx="3.333" cy="3.333" r="3.333" transform="translate(2.349)" fill="#171717"/><path d="M360.18,368.711v1.1H348.815v-1.1a4.063,4.063,0,0,1,4.062-4.062h3.241A4.063,4.063,0,0,1,360.18,368.711Z" transform="translate(-348.815 -357.305)" fill="#171717"/></g><rect width="20.767" height="3.309" rx="1.655" transform="translate(346.847 302.116)" fill="#171717"/><rect width="13.813" height="3.309" rx="1.655" transform="translate(346.847 306.384)" fill="#171717"/><g transform="translate(360.661 310.845)"><g transform="matrix(1, 0, 0, 1, -39.09, -28.66)" filter="url(#b)"><circle cx="10.455" cy="10.455" r="10.455" transform="translate(39.09 28.66)" fill="#3452ee"/></g><path d="M495.439,356.654l2.469,2.469,4.443-4.443" transform="translate(-488.11 -346.447)" fill="none" stroke="#fff" stroke-linecap="round" stroke-linejoin="round" stroke-width="4"/></g></g></g></svg>