<svg xmlns="http://www.w3.org/2000/svg" xmlns:xlink="http://www.w3.org/1999/xlink" width="60" height="60" viewBox="0 0 60 60"><defs><clipPath id="a"><rect width="60" height="60" transform="translate(4718 -14495)" fill="#fff" stroke="#707070" stroke-width="1"/></clipPath><linearGradient id="b" x1="1.123" y1="-0.288" x2="0.275" y2="0.554" gradientUnits="objectBoundingBox"><stop offset="0" stop-color="#dba611"/><stop offset="1" stop-color="#f7ce73"/></linearGradient></defs><g transform="translate(-4718 14495)" clip-path="url(#a)"><g transform="translate(4576.549 -14662.75)"><g transform="translate(141.451 178.464)"><g transform="translate(0 0)"><rect width="54.819" height="33.157" rx="7" transform="translate(0 0)" fill="#dcdbdc"/><g transform="translate(5.269 6.41)"><circle cx="3.414" cy="3.414" r="3.414" transform="translate(2.406)" fill="#171717"/><path d="M360.455,368.809v1.123h-11.64v-1.123a4.161,4.161,0,0,1,4.16-4.16h3.319A4.161,4.161,0,0,1,360.455,368.809Z" transform="translate(-348.815 -357.128)" fill="#171717"/></g><rect width="21.269" height="3.389" rx="1.695" transform="translate(25.887 9.726)" fill="#171717"/><rect width="14.147" height="3.389" rx="1.695" transform="translate(25.887 14.098)" fill="#171717"/></g><g transform="translate(40.298 18.871)"><circle cx="9.851" cy="9.851" r="9.851" transform="translate(0)" fill="url(#b)"/><path d="M495.439,356.55l2.339,2.339,4.209-4.209" transform="translate(-488.496 -346.987)" fill="none" stroke="#171717" stroke-linecap="round" stroke-linejoin="round" stroke-width="4"/></g></g></g></g></svg>