<svg xmlns="http://www.w3.org/2000/svg" xmlns:xlink="http://www.w3.org/1999/xlink" width="60" height="60" viewBox="0 0 60 60"><defs><clipPath id="a"><rect width="60" height="60" transform="translate(4459 -14495)" fill="#fff" stroke="#707070" stroke-width="1"/></clipPath><filter id="b" x="31.258" y="23.353" width="37.742" height="37.742" filterUnits="userSpaceOnUse"><feOffset dy="3" input="SourceAlpha"/><feGaussianBlur stdDeviation="3" result="c"/><feFlood flood-opacity="0.161"/><feComposite operator="in" in2="c"/><feComposite in="SourceGraphic"/></filter></defs><g transform="translate(-4459 14495)" clip-path="url(#a)"><g transform="translate(4317.549 -14662.559)"><g transform="translate(141.451 178.464)"><g transform="translate(0 0)"><rect width="54.635" height="33.045" rx="7" transform="translate(0 0)" fill="#dcdbdc"/><g transform="translate(5.252 6.389)"><circle cx="3.403" cy="3.403" r="3.403" transform="translate(2.398)" fill="#171717"/><path d="M360.416,368.8v1.119h-11.6V368.8a4.147,4.147,0,0,1,4.146-4.146h3.308A4.147,4.147,0,0,1,360.416,368.8Z" transform="translate(-348.815 -357.153)" fill="#171717"/></g><rect width="21.198" height="3.378" rx="1.689" transform="translate(25.799 9.693)" fill="#171717"/><rect width="14.099" height="3.378" rx="1.689" transform="translate(25.799 14.05)" fill="#171717"/></g><g transform="translate(40.258 18.447)"><g transform="matrix(1, 0, 0, 1, -40.26, -29.35)" filter="url(#b)"><circle cx="9.871" cy="9.871" r="9.871" transform="translate(40.26 29.35)" fill="#3452ee"/></g><g transform="translate(5.934 4.651)"><path d="M565.191,409.157V408.08h-7.874v1.077h.666v.719a3.065,3.065,0,0,0,.179,1.2,5.558,5.558,0,0,0,1.93,2.555.048.048,0,0,1,0,.075,5.558,5.558,0,0,0-1.93,2.555,3.065,3.065,0,0,0-.179,1.2v.707h-.666v1.077h7.874V418.17h-.7v-.707a3.066,3.066,0,0,0-.179-1.2,5.559,5.559,0,0,0-1.93-2.555.048.048,0,0,1,0-.075h0a5.56,5.56,0,0,0,1.93-2.555,3.066,3.066,0,0,0,.179-1.2v-.719Zm-1.313,1.8a5.137,5.137,0,0,1-1.772,2.317h0a.5.5,0,0,0,0,.782,5.137,5.137,0,0,1,1.772,2.317,2.638,2.638,0,0,1,.167,1.046.23.23,0,0,0,0,.028v.629h-5.611v-.629a.2.2,0,0,0,0-.027,2.629,2.629,0,0,1,.167-1.047,5.14,5.14,0,0,1,1.772-2.317.5.5,0,0,0,0-.782,5.14,5.14,0,0,1-1.772-2.317,2.631,2.631,0,0,1-.167-1.046.231.231,0,0,0,0-.028v-.629h5.611v.629a.214.214,0,0,0,0,.027A2.634,2.634,0,0,1,563.879,410.962Z" transform="translate(-557.317 -408.08)" fill="#fff"/><path d="M569.113,460.656H573.5a2.191,2.191,0,1,0-4.383,0Z" transform="translate(-567.38 -451.061)" fill="#fff"/><path d="M572.444,429.443a2.742,2.742,0,0,1-.965.129,3.034,3.034,0,0,1-1.1-.261,7.068,7.068,0,0,0,1.35,1.35,2.2,2.2,0,0,1,.615.766.134.134,0,0,0,.229.021,9.995,9.995,0,0,1,1.719-1.9A2.453,2.453,0,0,0,572.444,429.443Z" transform="translate(-568.458 -426.192)" fill="#fff"/></g></g></g></g></g></svg>