
<svg xmlns="http://www.w3.org/2000/svg" width="20" height="20"><defs><clipPath id="a"><path data-name="Rectangle 2396" transform="translate(8451 -20074)" style="fill:#fff" d="M0 0h20v20H0z"/></clipPath></defs><g data-name="Mask Group 26" transform="translate(-8451 20074)" style="clip-path:url(#a)"><path data-name="Path 7926" d="M29.042 4.254V.313c0-.173.07-.3.255-.313.157-.014.26.114.261.323V4.281c.121.027.232.047.34.077a2.393 2.393 0 0 1 1.379 1.007.559.559 0 0 0 .269.21 8.082 8.082 0 0 1 5.914 6.69A8.262 8.262 0 1 1 27 5.6a.528.528 0 0 0 .328-.243 2.266 2.266 0 0 1 1.462-1.02l.21-.046c.006 0 .01-.01.037-.038m-1.728 7.307a28.565 28.565 0 0 0 0 3.961h3.964a25.6 25.6 0 0 0 0-3.961Zm-3.243-.17 2.733-.315.459-2.863c-.722.153-1.421.3-2.119.454-.054.012-.1.094-.132.154-.191.424-.4.844-.557 1.28-.152.413-.253.844-.384 1.29M34.5 15.7l-2.7.312-.461 2.861c.71-.15 1.409-.3 2.106-.449.05-.011.1-.076.129-.128a9.066 9.066 0 0 0 .932-2.6m-7.695.311L24.1 15.7a8.9 8.9 0 0 0 .955 2.632.314.314 0 0 0 .19.115c.376.091.753.18 1.133.254.3.058.6.093.884.135l-.462-2.829m8.389-.958c.573-.176 1.153-.352 1.729-.537.041-.013.082-.1.084-.151.017-.437.044-.875.029-1.311-.016-.471-.032-.48-.485-.621s-.915-.26-1.358-.385ZM23.41 12.032c-.563.172-1.137.343-1.706.527a.227.227 0 0 0-.113.175 41.148 41.148 0 0 0 0 1.61.3.3 0 0 0 .168.2 8.138 8.138 0 0 0 .794.265c.292.082.589.145.856.21Zm10.831-3.178a.6.6 0 0 0 0 .115 10.547 10.547 0 0 1 .789 2.431.2.2 0 0 0 .113.129c.573.149 1.148.29 1.732.435a.3.3 0 0 0 0-.072 7.6 7.6 0 0 0-.807-2.12.294.294 0 0 0-.115-.12c-.556-.261-1.114-.517-1.709-.792m-3.789-2.894c.225.548.447 1.1.678 1.641a.227.227 0 0 0 .15.106c.275.049.553.08.829.126.313.053.625.117.987.185a5.26 5.26 0 0 0-2.644-2.059m-2.237 15.173c-.125-.225-.232-.4-.324-.588a2.251 2.251 0 0 1-.246-.57.76.76 0 0 0-.845-.7 9.581 9.581 0 0 1-1.3-.214 5.275 5.275 0 0 0 2.712 2.074" transform="translate(8431.695 -20075.793)" style="fill:#cdcdcd"/></g></svg>