
<svg xmlns="http://www.w3.org/2000/svg" width="20.728" height="27.3">
    <path d="M31.065 5.328V.393c0-.216.088-.372.32-.392.2-.017.326.143.326.405v4.958c.151.034.29.059.426.1a3 3 0 0 1 1.727 1.262.7.7 0 0 0 .337.264 10.124 10.124 0 0 1 7.409 8.38 10.349 10.349 0 1 1-13.1-8.35.661.661 0 0 0 .411-.3 2.839 2.839 0 0 1 1.831-1.278l.264-.057c.007 0 .012-.012.046-.048M28.9 14.481a35.782 35.782 0 0 0 0 4.961h4.966a32.063 32.063 0 0 0 0-4.961Zm-4.063-.213 3.423-.395.575-3.586c-.9.191-1.781.373-2.654.569-.067.015-.131.117-.165.193-.24.531-.5 1.057-.7 1.6-.19.517-.317 1.058-.481 1.616M37.9 19.662l-3.388.391-.578 3.584c.889-.188 1.765-.37 2.638-.563.063-.014.126-.1.161-.161a11.357 11.357 0 0 0 1.167-3.251m-9.639.389-3.389-.389a11.154 11.154 0 0 0 1.2 3.3.393.393 0 0 0 .237.144c.471.114.943.225 1.419.318.372.072.75.116 1.107.17l-.57-3.539m10.508-1.2c.718-.22 1.444-.44 2.166-.673.051-.017.1-.123.105-.189.021-.547.056-1.1.037-1.642-.02-.59-.04-.6-.607-.777s-1.147-.326-1.7-.482Zm-14.758-3.78c-.705.215-1.424.43-2.138.66a.284.284 0 0 0-.141.219 52.162 52.162 0 0 0 0 2.017.369.369 0 0 0 .21.251 10.194 10.194 0 0 0 .995.332c.365.1.738.182 1.072.263Zm13.567-3.98a.745.745 0 0 0 0 .144 13.212 13.212 0 0 1 .986 3.039.244.244 0 0 0 .141.161c.718.187 1.438.363 2.17.545a.381.381 0 0 0 0-.09 9.515 9.515 0 0 0-1.011-2.656.368.368 0 0 0-.144-.15c-.7-.327-1.4-.648-2.141-.992m-4.747-3.623c.282.687.56 1.373.849 2.055a.284.284 0 0 0 .189.133c.345.061.693.1 1.038.158.393.067.783.146 1.237.232a6.589 6.589 0 0 0-3.313-2.579m-2.8 19.005c-.156-.281-.291-.5-.406-.737a2.819 2.819 0 0 1-.308-.713.952.952 0 0 0-1.058-.88 12 12 0 0 1-1.625-.268 6.608 6.608 0 0 0 3.4 2.6" transform="translate(-21.031)" style="fill:#c7a05c"/>
</svg>
