<svg xmlns="http://www.w3.org/2000/svg" xmlns:xlink="http://www.w3.org/1999/xlink" width="20.21" height="20.211" viewBox="0 0 20.21 20.211"><defs><linearGradient id="a" x1="0.5" x2="-0.294" y2="1.889" gradientUnits="objectBoundingBox"><stop offset="0" stop-color="#e8d48a"/><stop offset="1" stop-color="#a86c00"/></linearGradient><clipPath id="b"><rect width="20.21" height="20.21" transform="translate(1.509 3.514)" fill="#fff"/></clipPath><clipPath id="c"><rect width="20.21" height="20.211" fill="url(#a)"/></clipPath></defs><g transform="translate(-1.509 -3.514)"><g clip-path="url(#b)"><g transform="translate(1.509 3.514)" clip-path="url(#c)"><path d="M218.4,0c.5.237.573.5.32,1a.72.72,0,0,0-.019.382c.028.247.1.492.11.739a.781.781,0,0,1-.911.889,7.713,7.713,0,0,1-.794-.118c-.341-.054-.4,0-.338.335.042.226.09.452.119.679a.807.807,0,0,1-.91.988c-.279-.011-.556-.083-.835-.119-.312-.04-.35,0-.3.3.035.214.082.426.116.64a.86.86,0,0,1-1.084,1.059c-.245-.037-.488-.091-.733-.125-.2-.028-.251.018-.23.21s.068.4.1.6a2.437,2.437,0,0,1,.034.333.807.807,0,0,1-.974.874c-.233-.024-.464-.069-.694-.113a.609.609,0,0,0-.495.077A.594.594,0,0,1,210.1,8.5a.583.583,0,0,1,.046-.791,1.363,1.363,0,0,1,1.072-.356c.173.008.346.035.541.057a1.688,1.688,0,0,1,.3-1.577,1.762,1.762,0,0,1,1.623-.3A1.674,1.674,0,0,1,214,3.938a1.774,1.774,0,0,1,1.615-.294,1.648,1.648,0,0,1,.306-1.585,1.729,1.729,0,0,1,1.618-.295c-.016-.122-.032-.229-.045-.337a1.615,1.615,0,0,1,.132-.962A.975.975,0,0,1,218.12,0Z" transform="translate(-198.663)" fill="url(#a)"/><path d="M100.2,110.884c.1.106.208.215.315.32.6.586,1.2,1.169,1.791,1.761a.4.4,0,0,1,.11.269,10.482,10.482,0,0,0,2.948,7.964c.022.024.043.049.081.093-.1.038-.18.071-.265.1-.658.243-1.317.485-1.975.73a.239.239,0,0,1-.272-.031,9.337,9.337,0,0,1-3.518-6.139,9.041,9.041,0,0,1,.67-4.883c.021-.048.041-.1.064-.144.005-.011.02-.017.05-.042" transform="translate(-93.973 -105.037)" fill="url(#a)"/><path d="M47.259,172.838l-1.746.644c-.194.072-.387.152-.586.206a.307.307,0,0,1-.243-.042,9.187,9.187,0,0,1-2.92-4.621.391.391,0,0,1,.015-.228q.914-2.408,1.837-4.813c.011-.028.027-.054.066-.13a10.673,10.673,0,0,0,3.576,8.983" transform="translate(-39.506 -155.215)" fill="url(#a)"/><path d="M178.431,175.334c.039.034.079.067.116.1q2.43,2.378,4.86,4.757a.641.641,0,0,1,.24.539.564.564,0,0,1-.376.5c-.557.21-1.115.416-1.677.611a.269.269,0,0,1-.215-.07,9.247,9.247,0,0,1-2.791-4.94c-.1-.487-.149-.984-.221-1.476l.064-.019" transform="translate(-168.761 -166.088)" fill="url(#a)"/><path d="M4.02,296.545c-1.1.4-2.153.789-3.209,1.173a.57.57,0,0,1-.63-.139.565.565,0,0,1-.129-.654q.426-1.106.848-2.213L1.555,293a10.865,10.865,0,0,0,2.465,3.547" transform="translate(-0.001 -277.548)" fill="url(#a)"/><path d="M262.265,155.738c.339.048.72.084,1.092.159a.59.59,0,0,1,.525.743.621.621,0,0,1-.812.4,4.2,4.2,0,0,0-3.043.491,15.2,15.2,0,0,0-1.355.979,1.34,1.34,0,0,1-.352.216.578.578,0,0,1-.661-.254.565.565,0,0,1,.071-.711,6.6,6.6,0,0,1,3.492-1.907c.328-.06.665-.077,1.043-.12" transform="translate(-243.694 -147.526)" fill="url(#a)"/><path d="M173.374,9.611a6.31,6.31,0,0,1-1.851,4.147c-.068.072-.137.145-.21.213a.611.611,0,0,1-.852.022.584.584,0,0,1-.007-.849,6.293,6.293,0,0,0,1.086-1.412A4.137,4.137,0,0,0,172,8.667a.6.6,0,0,1,1.15-.313c.1.412.151.837.222,1.256" transform="translate(-161.105 -7.529)" fill="url(#a)"/><path d="M322.266,222.925a.591.591,0,0,1-.6.582.591.591,0,1,1,.019-1.181.588.588,0,0,1,.585.6" transform="translate(-303.771 -210.603)" fill="url(#a)"/><path d="M147.664,48.34a.6.6,0,0,1-1.207-.008.6.6,0,0,1,1.207.008" transform="translate(-138.569 -45.232)" fill="url(#a)"/><path d="M258.8,32.38a.584.584,0,0,1-.595.591.588.588,0,1,1,.595-.591" transform="translate(-243.723 -30.118)" fill="url(#a)"/><path d="M338.192,111.766a.6.6,0,1,1-.607-.584.593.593,0,0,1,.607.584" transform="translate(-318.84 -105.32)" fill="url(#a)"/></g></g></g></svg>