<svg xmlns="http://www.w3.org/2000/svg" xmlns:xlink="http://www.w3.org/1999/xlink" width="20.21" height="20.211" viewBox="0 0 20.21 20.211"><defs><linearGradient id="a" x1="0.5" x2="0.5" y2="1" gradientUnits="objectBoundingBox"><stop offset="0" stop-color="#e8d48a"/><stop offset="1" stop-color="#b4962a"/></linearGradient><clipPath id="b"><rect width="20.21" height="20.21" transform="translate(19.47 0.004)" fill="#fff"/></clipPath><clipPath id="c"><path d="M.461,10.65A10.1,10.1,0,1,0,10.566.543,10.106,10.106,0,0,0,.461,10.65" transform="translate(-0.461 -0.543)" fill="url(#a)"/></clipPath></defs><g transform="translate(-19.47 -0.004)" clip-path="url(#b)"><g transform="translate(19.47)"><g clip-path="url(#c)"><path d="M17.7,3.231A9.749,9.749,0,0,0,7.1.592,10.664,10.664,0,0,0,0,10.973a10.82,10.82,0,0,0,2.036,6.008Q5.849,22.334,9.682,27.7c.428.6.891.6,1.32,0q3.766-5.3,7.552-10.6a11.067,11.067,0,0,0,2.084-6.235A10.022,10.022,0,0,0,17.7,3.231M5.17,15.913h0v-.05a2.962,2.962,0,0,1,.05-.478.7.7,0,0,1,.038-.163c.038-.176.063-.4.087-.579a.716.716,0,0,1,.2.063.814.814,0,0,0,.2.025c.038.075.076.163.125.251a5.907,5.907,0,0,1,.163,1.584,7.316,7.316,0,0,1-.842-.673Zm3.443,1.8a7.349,7.349,0,0,1-2.049-.792c.087-.377.717-2.959,1.068-2.087a15.293,15.293,0,0,0,1.076,2.677,1.282,1.282,0,0,0-.1.2m1.444.189a5.8,5.8,0,0,1-.654-.05c-.125-.113-.269-.269-.176-.377,0,0,.075-.063-.075-.2a13,13,0,0,1-.842-3.192,6.61,6.61,0,0,0,.135-1.358A1.582,1.582,0,0,1,9.1,11.541l-.028-.052s.063-.1.087-.135c0,0,.327.478.452.616,0,0-.163.515.269.579,0,0,.452.565-.05.918,0,0-.477.3-.339,1.21l.125.05a2.02,2.02,0,0,1,.176.854s-.134.163.05.673a6.337,6.337,0,0,1,.239,1.106s0,.29.087.327c0,0-.075.038-.1.214Zm2.275-.251a15.108,15.108,0,0,0,.176-2.249c.113-1.471.225-1.358.225-1.358a13.323,13.323,0,0,1,.755,3.192,9.843,9.843,0,0,1-1.155.415ZM13.5,13.61s.163.012.063-.314a1.823,1.823,0,0,1,.05-.955s0,.364.125.327a.659.659,0,0,1,.113.251s-.063.189.214.553a.814.814,0,0,1,.214.439.375.375,0,0,0,.125.277.3.3,0,0,1,.063.088,5.385,5.385,0,0,0-.741.83,8.89,8.89,0,0,0-.238-1.507Zm1.369,1.32c.038.075.327.478.339.49a1.264,1.264,0,0,0-.879-.24,3.223,3.223,0,0,1,.554-.235Zm-.929,2.087a8.007,8.007,0,0,1-.1-1.42,1.262,1.262,0,0,0,.515.025,2.471,2.471,0,0,1,.854.1.727.727,0,0,1,.113.352A7.392,7.392,0,0,1,13.939,17Zm2.236-1.785-.025-.038a2.209,2.209,0,0,0-.477.251,1.96,1.96,0,0,1-.1-1.005.868.868,0,0,0,.15-.15h.206a1.123,1.123,0,0,0-.428-.955l-.063-.063c-.151-.1-.026-.289.134-.465.113.038.087-.088.087-.088a2.548,2.548,0,0,1,.277-.239.591.591,0,0,0,.038.489.643.643,0,0,1,0-.377.422.422,0,0,0,.15.44c-.269-.44.465-1.421.465-1.421,1.031-.452,0-.672,0-.672-.452-.673-.792-.163-.792-.163s-.391-.277-.654-.135.163.817.163.817c.176.226-.277.414-.277.414-.579.226-.289.527-.289.527a1.442,1.442,0,0,0-.125,1.068,1.434,1.434,0,0,1,.075.59c-.226-.1-.3-.672-.3-.672-.05-.527-.176-.64-.176-.64-.113-.125-.087-.151-.087-.151.075,0,.05-.025.05-.025-.075-.075-.075-.538-.075-.538a1.025,1.025,0,0,0-.628-.981c.026-.063,0-.075,0-.075a.123.123,0,0,1-.025-.075c0-.088-.076-.063-.076-.063a.348.348,0,0,1,.151-.289c.1-.076.075-.269.075-.269-.125-.538-.616-.214-.616-.214l-.239-.038a.193.193,0,0,0,.047.268.19.19,0,0,0,.04.021l.063-.025c-.038.038-.025.163-.025.163-.087-.038-.026.251-.026.251-.025.038.012.151.012.151l-.063.075c-.025-.352-.565-.816-.565-.816a.209.209,0,0,1-.113-.214,1.138,1.138,0,0,0-.038-.365c-.134-.565-.012-.691-.012-.691a.387.387,0,0,0,.087-.289c-.025-.269-.113-.151-.113-.151,0-.113-.087-.05-.087-.05-.063-.075-.163.063-.163.063a.135.135,0,0,0-.091.168l0,.009a.742.742,0,0,0,.038.214,1.092,1.092,0,0,1,.05.49h.05l-.026.527a.445.445,0,0,0-.063.038.5.5,0,0,0,.063.289,2.682,2.682,0,0,0,.125.327,4.832,4.832,0,0,1,.075,2.614c-.176.5.026.428.026.428a8.84,8.84,0,0,0-.189,2.249c0,.942-.05,1.684-.063,1.985a7.966,7.966,0,0,1-1.357.135.512.512,0,0,0-.1-.2.335.335,0,0,0-.025-.239,2.159,2.159,0,0,1,.2-.942.638.638,0,0,0,.05-.428A9.473,9.473,0,0,0,10.805,15h.15a2.816,2.816,0,0,0-.087-.691s-.05-.088.049-.377a3.922,3.922,0,0,0,.05-1.12s.39-.188-.176-.779c0,0-.087-.025.24-.628a1,1,0,0,0,.163-.465s-.026-.05.15-.269a1.705,1.705,0,0,0,.277-.654.329.329,0,0,1,.113-.176,1.869,1.869,0,0,1,.033-.281c0-.1.012-.189.012-.277-.012.163-.075.151-.075.151-.038-.012,0-.135,0-.135.075-.188.026-.188.026-.188-.038,0-.087.226-.087.226-.05.189-.113.189-.113.189-.049,0-.038-.063-.038-.063.038-.189-.049-.151-.049-.151-.026,0-.026.05-.026.05v.05a.432.432,0,0,0,.038.314c.075.135-.087.34-.087.34-.315.4-.3.527-.3.527a.331.331,0,0,1-.087.226.7.7,0,0,0-.163.339c-.214-.628-.553-.527-.553-.527-.428,0-.5.942-.5.942-.163-.063-.44-.478-.44-.478a.669.669,0,0,0,.176-.377,2.664,2.664,0,0,1,.214-.672.161.161,0,0,0,.025-.163,1.565,1.565,0,0,1-.075-.151c-.125-.189-.176-.134-.176-.134s.038.088.05.113c-.125-.188-.134-.15-.134-.15-.038,0-.012.049,0,.063-.05-.1-.076-.088-.076-.088-.038.026,0,.125.026.151-.038-.075-.076-.075-.076-.075-.063.063.151.352.151.352a.1.1,0,0,1,.038.125,2.2,2.2,0,0,1-.327.6,1.125,1.125,0,0,0-.277-.365c-.189-.214-.176-.315-.176-.315a.149.149,0,0,0-.05-.15.4.4,0,0,1-.1-.088,2.065,2.065,0,0,1-.134-.2c-.087-.189-.125-.135-.125-.135-.038.063.075.163.075.163a.136.136,0,0,0,.038.088.228.228,0,0,0-.126.038c-.134-.075-.163-.038-.163-.038a.064.064,0,0,0,0,.05c-.075-.038-.075-.012-.075-.012-.025.038.05.063.05.063a.562.562,0,0,1,.163.113c0,.038.063.076.063.076.075.176.15.176.15.176.075.025.113.134.113.134a2.025,2.025,0,0,0,.415.755c.012.1-.163.251-.163.251a.018.018,0,0,0-.025,0h0c0,.075-.1.113-.1.113a.622.622,0,0,0-.339.251c-.025-.075-.049,0-.049,0a1.053,1.053,0,0,1,.188-.489c.026-.026,0-.026,0-.026a.039.039,0,0,0,.026-.049h0c.012,0,.012-.026.012-.026.026.026.012-.012.012-.012v-.025a.215.215,0,0,0-.025-.163v-.026c-.063-.163-.151-.134-.151-.134h-.05a.212.212,0,0,0-.163-.025c.038-.05-.05,0-.05,0A.1.1,0,0,1,8.16,10.6c-.063,0-.087.1-.087.1-.176-.025-.134.026-.134.026-.05.012-.026.038-.026.038-.113.063-.075.1-.075.1-.05.025-.025.038-.025.038-.038.038,0,.05,0,.05.012.025,0,.025,0,.025-.05.038-.012.063-.012.063a.135.135,0,0,1,0,.1c-.038,0-.012.038-.012.038a.182.182,0,0,1,0,.125c-.025.087.038.087.038.087a.3.3,0,0,1,.026.252.916.916,0,0,1-.151-.038.173.173,0,0,1,0,.087.673.673,0,0,0-.414-.339c-.214-.075-.226-.15-.226-.15,0-.038-.038,0-.038,0a.9.9,0,0,0-.3-.29.482.482,0,0,0-.1-.269c-.188-.277-.087-.4-.087-.4a.224.224,0,0,0,.038-.176.124.124,0,0,1-.012-.088c0-.113-.063-.05-.063-.05a.034.034,0,0,1-.049,0h0c-.163-.188-.176.012-.176.012-.076,0-.05.063-.05.063.012.025,0,.038,0,.038-.038.038,0,.088,0,.088-.05.025,0,.087,0,.087a.215.215,0,0,1,.063.163c-.049.6.2.767.2.767a2.048,2.048,0,0,1,.3.3.048.048,0,0,0,0,.063c.39.364.352.414.352.414,0,.113.012.239.012.239A2.031,2.031,0,0,1,6.922,13.8c-.125.15-.026.163-.026.163a3.4,3.4,0,0,1-.251.654c-.113.315-.24.672-.3.868a3.732,3.732,0,0,0-.026-.816v-.05a.82.82,0,0,0,.076-.113s.049-.063-.1-.24a2.035,2.035,0,0,0-.3-.905,1.06,1.06,0,0,1,0-.955.808.808,0,0,0,.226.4,2.8,2.8,0,0,1,.251.365,1.387,1.387,0,0,0,.214.251c.24.214.189.063.189.063-.026-.025.012-.049.012-.049.163-.214-.2-.29-.2-.29-.113-.012-.15-.163-.15-.163-.135-.579-.277-.691-.277-.691a.915.915,0,0,1-.2-.39c-.1-.538-.477-.39-.477-.39a.278.278,0,0,1-.269-.075.149.149,0,0,1-.015-.211l.015-.015c.075-.063.05-.113.05-.113v-.088c0-.113-.05-.125-.05-.125-.063-.026-.05-.076-.05-.076.012-.088-.05-.063-.05-.063-.063,0-.113-.135-.113-.135-.075-.214-.39-.063-.39-.063H4.68v.025H4.668a.733.733,0,0,0-.2.339,1.065,1.065,0,0,0,.012.34,1.065,1.065,0,0,1-.44-.377.913.913,0,0,0-.289-.3c-.452-.315-.39-.465-.39-.465C3.4,9.9,3.323,9.9,3.323,9.9a.236.236,0,0,1-.113-.05c-.1-.063-.1.038-.1.038,0,.026-.012.026-.012.026a.047.047,0,0,0-.038.025.122.122,0,0,0,.012.113c.038.038.025.063.025.063,0,.075.038.088.038.088a1.168,1.168,0,0,1,.269.315c.315.6.515.64.515.64a1.534,1.534,0,0,1,.515.64,1.4,1.4,0,0,0,.025.616.477.477,0,0,0,.1.214.189.189,0,0,1-.059.26l-.017.009c.214.025.214-.214.214-.214a1.135,1.135,0,0,1-.025.176.438.438,0,0,0,.049-.2.427.427,0,0,0,.05-.188,1.335,1.335,0,0,1,.134.269.791.791,0,0,1,0,.538,2.732,2.732,0,0,1-.134.352,2.156,2.156,0,0,0-.189.565,1.077,1.077,0,0,0,0,.527.1.1,0,0,0,.118.08l.017,0a4.68,4.68,0,0,0,.125.842,7.7,7.7,0,0,1,5.479-13.1h.063a7.558,7.558,0,0,1,3.1.673h.017a7.708,7.708,0,0,1,2.644,12Z" transform="translate(-0.284 -0.335)" fill="url(#a)"/></g></g></g></svg>