<svg xmlns="http://www.w3.org/2000/svg" xmlns:xlink="http://www.w3.org/1999/xlink" width="20.21" height="20" viewBox="0 0 20.21 20"><defs><clipPath id="a"><rect width="20.21" height="20" transform="translate(0.004)" fill="#fff"/></clipPath><clipPath id="b"><path d="M.461,10.648A10.107,10.107,0,1,0,10.568.543,10.106,10.106,0,0,0,.461,10.648" transform="translate(-0.461 -0.543)" fill="#cdcdcd"/></clipPath></defs><g transform="translate(-0.004)"><g clip-path="url(#a)"><g clip-path="url(#b)"><path d="M17.7,3.23A9.754,9.754,0,0,0,7.106.591,10.662,10.662,0,0,0,0,10.971a10.815,10.815,0,0,0,2.037,6.006Q5.85,22.33,9.684,27.7c.428.6.892.6,1.32,0Q14.77,22.4,18.557,17.1a11.062,11.062,0,0,0,2.084-6.234A10.018,10.018,0,0,0,17.7,3.23M5.171,15.91h0v-.05a2.96,2.96,0,0,1,.05-.477.7.7,0,0,1,.038-.163c.038-.176.063-.4.088-.579a.716.716,0,0,1,.2.063.815.815,0,0,0,.2.025c.038.075.076.163.125.251a5.9,5.9,0,0,1,.163,1.583,7.317,7.317,0,0,1-.842-.673Zm3.444,1.8a7.352,7.352,0,0,1-2.049-.792c.088-.376.717-2.959,1.068-2.086A15.287,15.287,0,0,0,8.71,17.5a1.282,1.282,0,0,0-.1.2m1.444.189a5.8,5.8,0,0,1-.654-.05c-.125-.113-.269-.269-.176-.376,0,0,.075-.063-.075-.2a13,13,0,0,1-.842-3.191,6.606,6.606,0,0,0,.135-1.357,1.582,1.582,0,0,1,.654-1.18l-.028-.052s.063-.1.088-.135c0,0,.327.477.452.616,0,0-.163.515.269.579,0,0,.452.565-.05.917,0,0-.478.3-.339,1.21l.125.05a2.019,2.019,0,0,1,.176.854s-.134.163.05.673a6.333,6.333,0,0,1,.239,1.105s0,.29.088.327c0,0-.075.038-.1.214Zm2.275-.251a15.1,15.1,0,0,0,.176-2.249c.113-1.471.226-1.357.226-1.357a13.316,13.316,0,0,1,.755,3.191,9.847,9.847,0,0,1-1.155.415ZM13.5,13.608s.163.012.063-.314a1.822,1.822,0,0,1,.05-.955s0,.364.125.327a.659.659,0,0,1,.113.251s-.063.189.214.553a.814.814,0,0,1,.214.439.375.375,0,0,0,.125.277.3.3,0,0,1,.063.087,5.384,5.384,0,0,0-.741.83,8.885,8.885,0,0,0-.238-1.506Zm1.369,1.32c.038.075.327.477.339.49a1.265,1.265,0,0,0-.879-.24,3.224,3.224,0,0,1,.554-.235Zm-.929,2.086a8,8,0,0,1-.1-1.42,1.263,1.263,0,0,0,.515.025,2.472,2.472,0,0,1,.854.1.727.727,0,0,1,.113.352A7.394,7.394,0,0,1,13.941,17Zm2.237-1.785-.025-.038a2.21,2.21,0,0,0-.478.251,1.959,1.959,0,0,1-.1-1,.868.868,0,0,0,.15-.15h.206a1.122,1.122,0,0,0-.428-.955l-.063-.063c-.151-.1-.026-.289.134-.465.113.038.088-.087.088-.087a2.549,2.549,0,0,1,.277-.239.591.591,0,0,0,.038.489.642.642,0,0,1,0-.376.422.422,0,0,0,.15.44c-.269-.44.465-1.421.465-1.421,1.031-.452,0-.672,0-.672-.452-.673-.792-.163-.792-.163s-.391-.277-.654-.135.163.817.163.817c.176.225-.277.414-.277.414-.579.226-.289.527-.289.527a1.441,1.441,0,0,0-.125,1.068,1.433,1.433,0,0,1,.075.59c-.226-.1-.3-.672-.3-.672-.05-.527-.176-.64-.176-.64-.113-.125-.088-.151-.088-.151.075,0,.05-.025.05-.025-.075-.075-.075-.538-.075-.538a1.025,1.025,0,0,0-.629-.981c.026-.063,0-.075,0-.075a.123.123,0,0,1-.025-.075c0-.087-.076-.063-.076-.063a.347.347,0,0,1,.151-.289c.1-.076.075-.269.075-.269-.125-.538-.616-.214-.616-.214l-.239-.038a.193.193,0,0,0,.047.268.19.19,0,0,0,.04.021l.063-.025c-.038.038-.025.163-.025.163-.088-.038-.026.251-.026.251-.025.038.012.151.012.151l-.063.075c-.025-.352-.565-.816-.565-.816a.209.209,0,0,1-.113-.214,1.137,1.137,0,0,0-.038-.365c-.134-.565-.012-.691-.012-.691a.387.387,0,0,0,.088-.289c-.025-.269-.113-.151-.113-.151,0-.113-.088-.05-.088-.05-.063-.075-.163.063-.163.063a.135.135,0,0,0-.091.168l0,.009a.742.742,0,0,0,.038.214,1.092,1.092,0,0,1,.05.49h.05l-.026.527a.445.445,0,0,0-.063.038.5.5,0,0,0,.063.289,2.681,2.681,0,0,0,.125.327,4.829,4.829,0,0,1,.075,2.614c-.176.5.026.428.026.428a8.835,8.835,0,0,0-.189,2.249c0,.941-.05,1.684-.063,1.985a7.97,7.97,0,0,1-1.358.135.512.512,0,0,0-.1-.2.335.335,0,0,0-.025-.239,2.158,2.158,0,0,1,.2-.941.637.637,0,0,0,.05-.428A9.468,9.468,0,0,0,10.807,15h.15a2.815,2.815,0,0,0-.087-.691s-.05-.087.049-.376a3.92,3.92,0,0,0,.05-1.119s.39-.188-.176-.779c0,0-.088-.025.24-.628a1,1,0,0,0,.163-.465s-.026-.05.15-.269a1.7,1.7,0,0,0,.277-.654.329.329,0,0,1,.113-.176,1.868,1.868,0,0,1,.033-.281c0-.1.012-.189.012-.277-.012.163-.075.151-.075.151-.038-.012,0-.135,0-.135.075-.188.026-.188.026-.188-.038,0-.088.225-.088.225-.05.189-.113.189-.113.189-.049,0-.038-.063-.038-.063.038-.189-.049-.151-.049-.151-.026,0-.026.05-.026.05v.05a.432.432,0,0,0,.038.314c.075.135-.088.339-.088.339-.315.4-.3.527-.3.527a.33.33,0,0,1-.088.226.7.7,0,0,0-.163.339c-.214-.628-.553-.527-.553-.527-.428,0-.5.942-.5.942-.163-.063-.44-.477-.44-.477a.669.669,0,0,0,.176-.377,2.662,2.662,0,0,1,.214-.672.161.161,0,0,0,.025-.163,1.564,1.564,0,0,1-.075-.151c-.125-.189-.176-.134-.176-.134s.038.087.05.113c-.125-.188-.134-.15-.134-.15-.038,0-.012.049,0,.063-.05-.1-.076-.087-.076-.087-.038.026,0,.125.026.151-.038-.075-.076-.075-.076-.075-.063.063.151.352.151.352a.1.1,0,0,1,.038.125,2.2,2.2,0,0,1-.327.6,1.125,1.125,0,0,0-.277-.365c-.189-.214-.176-.315-.176-.315a.149.149,0,0,0-.05-.15.4.4,0,0,1-.1-.087,2.064,2.064,0,0,1-.134-.2c-.088-.189-.125-.135-.125-.135-.038.063.075.163.075.163a.136.136,0,0,0,.038.087.228.228,0,0,0-.126.038C8.126,9.652,8.1,9.69,8.1,9.69a.064.064,0,0,0,0,.05c-.075-.038-.075-.012-.075-.012-.025.038.05.063.05.063a.562.562,0,0,1,.163.113c0,.038.063.076.063.076.075.176.15.176.15.176.075.025.113.134.113.134a2.024,2.024,0,0,0,.415.755c.012.1-.163.251-.163.251a.018.018,0,0,0-.025,0h0c0,.075-.1.113-.1.113a.622.622,0,0,0-.34.251c-.025-.075-.049,0-.049,0a1.053,1.053,0,0,1,.188-.489c.026-.026,0-.026,0-.026a.039.039,0,0,0,.026-.049h0c.012,0,.012-.026.012-.026.026.026.012-.012.012-.012v-.025a.215.215,0,0,0-.025-.163v-.026c-.063-.163-.151-.134-.151-.134H8.31a.212.212,0,0,0-.163-.025c.038-.05-.05,0-.05,0a.1.1,0,0,1,.063-.087c-.063,0-.088.1-.088.1-.176-.025-.134.026-.134.026-.05.012-.026.038-.026.038-.113.063-.075.1-.075.1-.05.025-.025.038-.025.038-.038.038,0,.05,0,.05.012.025,0,.025,0,.025-.05.038-.012.063-.012.063a.135.135,0,0,1,0,.1c-.038,0-.012.038-.012.038a.182.182,0,0,1,0,.125c-.025.087.038.087.038.087a.3.3,0,0,1,.026.252A.917.917,0,0,1,7.7,11.6a.173.173,0,0,1,0,.087.673.673,0,0,0-.414-.339c-.214-.075-.226-.15-.226-.15,0-.038-.038,0-.038,0a.9.9,0,0,0-.3-.29.482.482,0,0,0-.1-.269c-.188-.277-.087-.4-.087-.4a.224.224,0,0,0,.038-.176.124.124,0,0,1-.012-.087c0-.113-.063-.05-.063-.05a.034.034,0,0,1-.049,0h0c-.163-.188-.176.012-.176.012-.076,0-.05.063-.05.063.012.025,0,.038,0,.038-.038.038,0,.087,0,.087-.05.025,0,.087,0,.087a.215.215,0,0,1,.063.163c-.049.6.2.766.2.766a2.048,2.048,0,0,1,.3.3.048.048,0,0,0,0,.063c.39.364.352.414.352.414,0,.113.012.239.012.239A2.03,2.03,0,0,1,6.924,13.8c-.125.15-.026.163-.026.163a3.4,3.4,0,0,1-.251.654c-.113.315-.24.672-.3.867a3.729,3.729,0,0,0-.026-.816v-.05A.82.82,0,0,0,6.4,14.5s.049-.063-.1-.24a2.034,2.034,0,0,0-.3-.905,1.059,1.059,0,0,1,0-.955.808.808,0,0,0,.226.4,2.8,2.8,0,0,1,.251.365,1.387,1.387,0,0,0,.214.251c.24.214.189.063.189.063-.026-.025.012-.049.012-.049.163-.214-.2-.29-.2-.29-.113-.012-.15-.163-.15-.163-.135-.579-.277-.691-.277-.691a.914.914,0,0,1-.2-.39c-.1-.538-.478-.39-.478-.39a.278.278,0,0,1-.269-.075.149.149,0,0,1-.015-.211l.015-.015c.075-.063.05-.113.05-.113v-.087c0-.113-.05-.125-.05-.125-.063-.026-.05-.076-.05-.076.012-.087-.05-.063-.05-.063-.063,0-.113-.135-.113-.135-.075-.214-.39-.063-.39-.063H4.681v.025H4.669a.733.733,0,0,0-.2.339,1.064,1.064,0,0,0,.012.339,1.065,1.065,0,0,1-.44-.377.913.913,0,0,0-.289-.3c-.452-.315-.39-.465-.39-.465.038-.214-.038-.214-.038-.214a.236.236,0,0,1-.113-.05c-.1-.063-.1.038-.1.038,0,.026-.012.026-.012.026a.047.047,0,0,0-.038.025.122.122,0,0,0,.012.113c.038.038.025.063.025.063,0,.075.038.087.038.087a1.168,1.168,0,0,1,.269.315c.315.6.515.64.515.64a1.534,1.534,0,0,1,.515.64,1.4,1.4,0,0,0,.025.616.477.477,0,0,0,.1.214.189.189,0,0,1-.059.26l-.017.009c.214.025.214-.214.214-.214a1.134,1.134,0,0,1-.025.176.438.438,0,0,0,.049-.2.427.427,0,0,0,.05-.188,1.335,1.335,0,0,1,.134.269.791.791,0,0,1,0,.538,2.73,2.73,0,0,1-.134.352,2.155,2.155,0,0,0-.189.565,1.076,1.076,0,0,0,0,.527.1.1,0,0,0,.118.08l.017,0a4.678,4.678,0,0,0,.125.842,7.695,7.695,0,0,1,5.48-13.093h.063a7.562,7.562,0,0,1,3.105.673h.017a7.7,7.7,0,0,1,2.645,12Z" transform="translate(-0.284 -0.334)" fill="#cdcdcd"/></g></g></g></svg>