<svg xmlns="http://www.w3.org/2000/svg" width="15.742" height="14.606" viewBox="0 0 15.742 14.606">
  <g id="concierge_icon" transform="translate(0 0)">
    <path id="Path_461654" data-name="Path 461654" d="M117.142,232.215a6.094,6.094,0,0,0-6.247-2.686,5.7,5.7,0,0,0-4.743,4.244c-.076.271-.1.555-.152.833v.708c.015.083.026.167.047.248.13.493.24.993.4,1.478a3,3,0,0,1-.322,2.706.414.414,0,0,0,.209.631,3.2,3.2,0,0,0,3.246-.184.217.217,0,0,1,.218-.026,6.072,6.072,0,0,0,3.43.24C117.154,239.551,119.21,235.549,117.142,232.215Zm-5.913-.452h1.494v.458h-1.494Zm4.254,4.433h-7.01v-1.162h.509a2.764,2.764,0,0,1,1.295-2.078,3.054,3.054,0,0,1,1.862-.491,2.917,2.917,0,0,1,2.836,2.567h.508Z" transform="translate(-106 -229.42)" fill="#d3bb8a"/>
    <path id="Path_461655" data-name="Path 461655" d="M8.19,15.023a4.325,4.325,0,0,0,2.692,1.261A4.955,4.955,0,0,0,13.7,15.94a3.1,3.1,0,0,0,2.688.564c1.3-.518-.875-1.255-.218-2.782a5.112,5.112,0,0,0-.694-5.7" transform="translate(-1.569 -2.569)" fill="none" stroke="#d3bb8a" stroke-linecap="round" stroke-width="1"/>
  </g>
</svg>
