<svg xmlns="http://www.w3.org/2000/svg" width="27.053" height="29.034" viewBox="0 0 27.053 29.034">
  <g id="Group_341772" data-name="Group 341772" transform="translate(-116.104 -117.778)">
    <path id="Path_462076" data-name="Path 462076" d="M114.491,143.27h25l-6.039-4.9-4.293-3.485-.007-.007-2.158-1.751-2.157,1.751Zm25.756.54H113.731a.27.27,0,0,1-.27-.27V125.806h0v-.028l0-.014v-.011l0-.011a.264.264,0,0,1,.041-.093l.007-.007,0,0,0,0,0,0,.011-.011,0,0,0,0,.011-.011.007-.007,2.53-2.054v-5.971a.27.27,0,0,1,.27-.27h7.42l3.03-2.459a.268.268,0,0,1,.345,0l3.035,2.464h7.42a.27.27,0,0,1,.27.27v5.971l2.515,2.042a.269.269,0,0,1,.117.223v17.734a.27.27,0,0,1-.27.27Zm-.27-.836v-16.6l-2.176,1.766a.2.2,0,0,1-.033.026Zm-.157-17.168-1.936-1.571v3.142Zm-2.476-.243V117.84h-20.71v9.975l3.9,3.162.007,0,4.12,3.344,2.163-1.756a.271.271,0,0,1,.345,0l2.158,1.751,4.12-3.344.007,0,3.9-3.162Zm.423,2.6-3.979,3.23-4.039,3.278,4.039,3.278,6.189,5.023ZM114,142.974l6.189-5.023,4.039-3.278-4.039-3.278-3.98-3.23c-.011-.007-.022-.018-.033-.026l-.986-.8-1.19-.966v16.6Zm6.529-4.606-6.039,4.9m10.333-8.386-4.294,3.485Zm-8.73-7.507v-3.142l-1.936,1.571,1.373,1.114ZM129.341,117.3l-2.352-1.909-2.352,1.909Zm-4.511,17.578-.007.007Zm-5.059-13.415a.27.27,0,0,1,0-.54h14.436a.27.27,0,0,1,0,.54Zm0,2.232a.27.27,0,0,1,0-.54h14.436a.27.27,0,0,1,0,.54Zm0,2.232a.27.27,0,1,1,0-.54h14.436a.27.27,0,1,1,0,.54Zm0,2.232a.27.27,0,0,1,0-.54h14.436a.27.27,0,0,1,0,.54Z" transform="translate(2.643 3)" fill="#bfc8d3" fill-rule="evenodd"/>
  </g>
</svg>
