<svg xmlns="http://www.w3.org/2000/svg" width="20.134" height="18.999" viewBox="0 0 20.134 18.999">
  <g id="map" transform="translate(-2.667 -1.333)">
    <path id="Path_461738" data-name="Path 461738" d="M19.75,12.048A4.564,4.564,0,0,1,16.7,10.877v1.477h-1.22V10.089L9.988,7.277V9.3H8.768V7.027l-5.9,2.441a.317.317,0,0,0-.2.293V22.39a.329.329,0,0,0,.451.3l5.65-2.331V17.844h1.22v2.764l5.491,2.813V20.895H16.7v2.312l5.265-1.647a.329.329,0,0,0,.226-.311V11.34A4.57,4.57,0,0,1,19.75,12.048ZM9.988,16.624H8.768V14.183h1.22Zm0-3.661H8.768V10.523h1.22ZM16.7,19.675h-1.22V17.234H16.7Zm0-3.661h-1.22V13.573H16.7Z" transform="translate(0 -3.088)" fill="#d3bb8a"/>
    <circle id="Ellipse_1736" data-name="Ellipse 1736" cx="3.051" cy="3.051" r="3.051" transform="translate(16.7 1.333)" fill="#d3bb8a"/>
  </g>
</svg>
