<svg id="sandclock" xmlns="http://www.w3.org/2000/svg" width="12.147" height="17.228" viewBox="0 0 12.147 17.228">
  <path id="Path_395112" data-name="Path 395112" d="M569.464,409.742V408.08H557.317v1.662h1.028v1.109a4.732,4.732,0,0,0,.276,1.853,8.573,8.573,0,0,0,2.977,3.942.074.074,0,0,1,0,.116,8.573,8.573,0,0,0-2.977,3.942,4.732,4.732,0,0,0-.276,1.853v1.09h-1.028v1.662h12.147v-1.662h-1.076v-1.09a4.732,4.732,0,0,0-.276-1.853,8.575,8.575,0,0,0-2.977-3.942.074.074,0,0,1,0-.116h0a8.576,8.576,0,0,0,2.977-3.942,4.733,4.733,0,0,0,.276-1.853v-1.109Zm-2.025,2.784a7.925,7.925,0,0,1-2.734,3.575h0a.768.768,0,0,0,0,1.206,7.924,7.924,0,0,1,2.734,3.575,4.075,4.075,0,0,1,.258,1.613.335.335,0,0,0,0,.044v.971h-8.655v-.971a.294.294,0,0,0,0-.042,4.062,4.062,0,0,1,.257-1.615,7.927,7.927,0,0,1,2.734-3.575.768.768,0,0,0,0-1.206,7.928,7.928,0,0,1-2.734-3.575,4.06,4.06,0,0,1-.257-1.613.35.35,0,0,0,0-.044V409.9h8.655v.971a.348.348,0,0,0,0,.042A4.066,4.066,0,0,1,567.439,412.525Z" transform="translate(-557.317 -408.08)" fill="#d3bb8a"/>
  <path id="Path_395113" data-name="Path 395113" d="M569.113,461.846h6.761a3.381,3.381,0,1,0-6.761,0Z" transform="translate(-566.439 -447.044)" fill="#d3bb8a"/>
  <path id="Path_395114" data-name="Path 395114" d="M573.566,429.514a4.223,4.223,0,0,1-1.489.2,4.677,4.677,0,0,1-1.7-.4,10.907,10.907,0,0,0,2.082,2.082,3.39,3.39,0,0,1,.949,1.182.207.207,0,0,0,.354.032,15.416,15.416,0,0,1,2.651-2.933A3.784,3.784,0,0,0,573.566,429.514Z" transform="translate(-567.417 -424.499)" fill="#d3bb8a"/>
</svg>
