<svg id="tshirt" xmlns="http://www.w3.org/2000/svg" width="17.758" height="15.556" viewBox="0 0 17.758 15.556">
  <path id="Path_461680" data-name="Path 461680" d="M17.5,4.6,16.25,5.844a.9.9,0,0,1-1.266,0l-.555-.538v9.139a1.081,1.081,0,0,1-.321.78,1.058,1.058,0,0,1-.789.33H4.44a1.058,1.058,0,0,1-.789-.33,1.081,1.081,0,0,1-.321-.78V5.307l-.555.538a.862.862,0,0,1-.633.26.862.862,0,0,1-.633-.26L.26,4.6a.879.879,0,0,1,0-1.249L3.33.277A1.567,1.567,0,0,1,4.44,0h2.22A.867.867,0,0,0,7.24.876a4.538,4.538,0,0,0,1.639.234A4.538,4.538,0,0,0,10.518.876.867.867,0,0,0,11.1,0h2.22a1.567,1.567,0,0,1,1.11.277l3.07,3.07a.879.879,0,0,1,0,1.249Z" fill="#d3bb8a"/>
</svg>
