<svg xmlns="http://www.w3.org/2000/svg" width="113" height="113" viewBox="0 0 113 113"><g transform="translate(-0.499 -0.499)"><rect width="113" height="113" rx="7" transform="translate(0.499 0.499)" fill="#fafafa"/><g transform="translate(8.874 8.874)"><g transform="translate(55.293 0)"><g transform="translate(0)"><rect width="4" height="5" transform="translate(0.332 -0.375)"/></g></g><g transform="translate(41.64 4.778)"><g transform="translate(0 0)"><rect width="4" height="5" transform="translate(-0.015 -0.153)"/></g></g><g transform="translate(45.736 4.778)"><g transform="translate(0 0)"><rect width="5" height="5" transform="translate(-0.111 -0.153)"/></g></g><g transform="translate(50.514 4.778)"><g transform="translate(0 0)"><rect width="5" height="5" transform="translate(0.112 -0.153)"/></g></g><g transform="translate(55.293 4.778)"><g transform="translate(0 0)"><rect width="4" height="5" transform="translate(0.332 -0.153)"/></g></g><g transform="translate(36.862 9.557)"><g transform="translate(0 0)"><rect width="5" height="4" transform="translate(-0.236 0.068)"/></g></g><g transform="translate(41.64 9.557)"><g transform="translate(0 0)"><rect width="4" height="4" transform="translate(-0.015 0.068)"/></g></g><g transform="translate(55.293 9.557)"><g transform="translate(0 0)"><rect width="4" height="4" transform="translate(0.332 0.068)"/></g></g><g transform="translate(36.862 13.653)"><g transform="translate(0 0)"><rect width="5" height="5" transform="translate(-0.236 -0.027)"/></g></g><g transform="translate(36.862 18.431)"><g transform="translate(0 0)"><rect width="5" height="5" transform="translate(-0.236 0.194)"/></g></g><g transform="translate(41.64 18.431)"><g transform="translate(0 0)"><rect width="4" height="5" transform="translate(-0.015 0.194)"/></g></g><g transform="translate(55.293 18.431)"><g transform="translate(0 0)"><rect width="4" height="5" transform="translate(0.332 0.194)"/></g></g><g transform="translate(36.862 23.209)"><g transform="translate(0 0)"><rect width="5" height="4" transform="translate(-0.236 0.416)"/></g></g><g transform="translate(45.736 23.209)"><g transform="translate(0 0)"><rect width="5" height="4" transform="translate(-0.111 0.416)"/></g></g><g transform="translate(50.514 23.209)"><g transform="translate(0 0)"><rect width="5" height="4" transform="translate(0.112 0.416)"/></g></g><g transform="translate(36.862 27.988)"><g transform="translate(0 0)"><rect width="5" height="4" transform="translate(-0.236 -0.363)"/></g></g><g transform="translate(45.736 27.988)"><g transform="translate(0 0)"><rect width="5" height="4" transform="translate(-0.111 -0.363)"/></g></g><g transform="translate(55.293 27.988)"><g transform="translate(0 0)"><rect width="4" height="4" transform="translate(0.332 -0.363)"/></g></g><g transform="translate(36.862 32.083)"><g transform="translate(0 0)"><rect width="5" height="5" transform="translate(-0.236 -0.458)"/></g></g><g transform="translate(0 36.862)"><g transform="translate(0 0)"><rect width="5" height="5" transform="translate(-0.375 -0.237)"/></g></g><g transform="translate(9.557 36.862)"><g transform="translate(0 0)"><rect width="4" height="5" transform="translate(0.068 -0.237)"/></g></g><g transform="translate(13.653 36.862)"><g transform="translate(0 0)"><rect width="5" height="5" transform="translate(-0.027 -0.237)"/></g></g><g transform="translate(18.431 36.862)"><g transform="translate(0 0)"><rect width="5" height="5" transform="translate(0.195 -0.237)"/></g></g><g transform="translate(23.209 36.862)"><g transform="translate(0 0)"><rect width="4" height="5" transform="translate(0.416 -0.237)"/></g></g><g transform="translate(27.988 36.862)"><g transform="translate(0 0)"><rect width="4" height="5" transform="translate(-0.362 -0.237)"/></g></g><g transform="translate(41.64 36.862)"><g transform="translate(0 0)"><rect width="4" height="5" transform="translate(-0.015 -0.237)"/></g></g><g transform="translate(45.736 36.862)"><g transform="translate(0 0)"><rect width="5" height="5" transform="translate(-0.111 -0.237)"/></g></g><g transform="translate(50.514 36.862)"><g transform="translate(0 0)"><rect width="5" height="5" transform="translate(0.112 -0.237)"/></g></g><g transform="translate(64.167 36.862)"><g transform="translate(0 0)"><rect width="4" height="5" transform="translate(0.458 -0.237)"/></g></g><g transform="translate(68.945 36.862)"><g transform="translate(0 0)"><rect width="5" height="5" transform="translate(-0.32 -0.237)"/></g></g><g transform="translate(73.724 36.862)"><g transform="translate(0 0)"><rect width="4" height="5" transform="translate(-0.098 -0.237)"/></g></g><g transform="translate(77.819 36.862)"><g transform="translate(0 0)"><rect width="5" height="5" transform="translate(-0.194 -0.237)"/></g></g><g transform="translate(82.598 36.862)"><g transform="translate(0 0)"><rect width="5" height="5" transform="translate(0.028 -0.237)"/></g></g><g transform="translate(4.779 41.64)"><g transform="translate(0 0)"><rect width="5" height="4" transform="translate(-0.153 -0.015)"/></g></g><g transform="translate(9.557 41.64)"><g transform="translate(0 0)"><rect width="4" height="4" transform="translate(0.068 -0.015)"/></g></g><g transform="translate(13.653 41.64)"><g transform="translate(0 0)"><rect width="5" height="4" transform="translate(-0.027 -0.015)"/></g></g><g transform="translate(32.084 41.64)"><g transform="translate(0 0)"><rect width="5" height="4" transform="translate(-0.459 -0.015)"/></g></g><g transform="translate(36.862 41.64)"><g transform="translate(0 0)"><rect width="5" height="4" transform="translate(-0.236 -0.015)"/></g></g><g transform="translate(50.514 41.64)"><g transform="translate(0 0)"><rect width="5" height="4" transform="translate(0.112 -0.015)"/></g></g><g transform="translate(55.293 41.64)"><g transform="translate(0 0)"><rect width="4" height="4" transform="translate(0.332 -0.015)"/></g></g><g transform="translate(59.389 41.64)"><g transform="translate(0 0)"><rect width="5" height="4" transform="translate(0.237 -0.015)"/></g></g><g transform="translate(64.167 41.64)"><g transform="translate(0 0)"><rect width="4" height="4" transform="translate(0.458 -0.015)"/></g></g><g transform="translate(77.819 41.64)"><g transform="translate(0 0)"><rect width="5" height="4" transform="translate(-0.194 -0.015)"/></g></g><g transform="translate(82.598 41.64)"><g transform="translate(0 0)"><rect width="5" height="4" transform="translate(0.028 -0.015)"/></g></g><g transform="translate(91.472 41.64)"><g transform="translate(0 0)"><rect width="5" height="4" transform="translate(0.154 -0.015)"/></g></g><g transform="translate(0 45.736)"><g transform="translate(0 0)"><rect width="5" height="5" transform="translate(-0.375 -0.111)"/></g></g><g transform="translate(13.653 45.736)"><g transform="translate(0 0)"><rect width="5" height="5" transform="translate(-0.027 -0.111)"/></g></g><g transform="translate(23.209 45.736)"><g transform="translate(0 0)"><rect width="4" height="5" transform="translate(0.416 -0.111)"/></g></g><g transform="translate(27.988 45.736)"><g transform="translate(0 0)"><rect width="4" height="5" transform="translate(-0.362 -0.111)"/></g></g><g transform="translate(32.084 45.736)"><g transform="translate(0 0)"><rect width="5" height="5" transform="translate(-0.459 -0.111)"/></g></g><g transform="translate(41.64 45.736)"><g transform="translate(0 0)"><rect width="4" height="5" transform="translate(-0.015 -0.111)"/></g></g><g transform="translate(55.293 45.736)"><g transform="translate(0 0)"><rect width="4" height="5" transform="translate(0.332 -0.111)"/></g></g><g transform="translate(64.167 45.736)"><g transform="translate(0 0)"><rect width="4" height="5" transform="translate(0.458 -0.111)"/></g></g><g transform="translate(68.945 45.736)"><g transform="translate(0 0)"><rect width="5" height="5" transform="translate(-0.32 -0.111)"/></g></g><g transform="translate(91.472 45.736)"><g transform="translate(0 0)"><rect width="5" height="5" transform="translate(0.154 -0.111)"/></g></g><g transform="translate(18.431 50.514)"><g transform="translate(0 0)"><rect width="5" height="5" transform="translate(0.195 0.111)"/></g></g><g transform="translate(23.209 50.514)"><g transform="translate(0 0)"><rect width="4" height="5" transform="translate(0.416 0.111)"/></g></g><g transform="translate(32.084 50.514)"><g transform="translate(0 0)"><rect width="5" height="5" transform="translate(-0.459 0.111)"/></g></g><g transform="translate(41.64 50.514)"><g transform="translate(0 0)"><rect width="4" height="5" transform="translate(-0.015 0.111)"/></g></g><g transform="translate(45.736 50.514)"><g transform="translate(0 0)"><rect width="5" height="5" transform="translate(-0.111 0.111)"/></g></g><g transform="translate(50.514 50.514)"><g transform="translate(0 0)"><rect width="5" height="5" transform="translate(0.112 0.111)"/></g></g><g transform="translate(55.293 50.514)"><g transform="translate(0 0)"><rect width="4" height="5" transform="translate(0.332 0.111)"/></g></g><g transform="translate(59.389 50.514)"><g transform="translate(0 0)"><rect width="5" height="5" transform="translate(0.237 0.111)"/></g></g><g transform="translate(64.167 50.514)"><g transform="translate(0 0)"><rect width="4" height="5" transform="translate(0.458 0.111)"/></g></g><g transform="translate(77.819 50.514)"><g transform="translate(0 0)"><rect width="5" height="5" transform="translate(-0.194 0.111)"/></g></g><g transform="translate(82.598 50.514)"><g transform="translate(0 0)"><rect width="5" height="5" transform="translate(0.028 0.111)"/></g></g><g transform="translate(87.376 50.514)"><g transform="translate(0 0)"><rect width="4" height="5" transform="translate(0.249 0.111)"/></g></g><g transform="translate(4.779 55.293)"><g transform="translate(0 0)"><rect width="5" height="4" transform="translate(-0.153 0.332)"/></g></g><g transform="translate(13.653 55.293)"><g transform="translate(0 0)"><rect width="5" height="4" transform="translate(-0.027 0.332)"/></g></g><g transform="translate(23.209 55.293)"><g transform="translate(0 0)"><rect width="4" height="4" transform="translate(0.416 0.332)"/></g></g><g transform="translate(27.988 55.293)"><g transform="translate(0 0)"><rect width="4" height="4" transform="translate(-0.362 0.332)"/></g></g><g transform="translate(32.084 55.293)"><g transform="translate(0 0)"><rect width="5" height="4" transform="translate(-0.459 0.332)"/></g></g><g transform="translate(45.736 55.293)"><g transform="translate(0 0)"><rect width="5" height="4" transform="translate(-0.111 0.332)"/></g></g><g transform="translate(55.293 55.293)"><g transform="translate(0 0)"><rect width="4" height="4" transform="translate(0.332 0.332)"/></g></g><g transform="translate(68.945 55.293)"><g transform="translate(0 0)"><rect width="5" height="4" transform="translate(-0.32 0.332)"/></g></g><g transform="translate(82.598 55.293)"><g transform="translate(0 0)"><rect width="5" height="4" transform="translate(0.028 0.332)"/></g></g><g transform="translate(36.862 59.388)"><g transform="translate(0 0)"><rect width="5" height="5" transform="translate(-0.236 0.237)"/></g></g><g transform="translate(41.64 59.388)"><g transform="translate(0 0)"><rect width="4" height="5" transform="translate(-0.015 0.237)"/></g></g><g transform="translate(55.293 59.388)"><g transform="translate(0 0)"><rect width="4" height="5" transform="translate(0.332 0.237)"/></g></g><g transform="translate(68.945 59.388)"><g transform="translate(0 0)"><rect width="5" height="5" transform="translate(-0.32 0.237)"/></g></g><g transform="translate(82.598 59.388)"><g transform="translate(0 0)"><rect width="5" height="5" transform="translate(0.028 0.237)"/></g></g><g transform="translate(87.376 59.388)"><g transform="translate(0 0)"><rect width="4" height="5" transform="translate(0.249 0.237)"/></g></g><g transform="translate(91.472 59.388)"><g transform="translate(0 0)"><rect width="5" height="5" transform="translate(0.154 0.237)"/></g></g><g transform="translate(45.736 64.167)"><g transform="translate(0 0)"><rect width="5" height="4" transform="translate(-0.111 0.458)"/></g></g><g transform="translate(50.514 64.167)"><g transform="translate(0 0)"><rect width="5" height="4" transform="translate(0.112 0.458)"/></g></g><g transform="translate(59.389 64.167)"><g transform="translate(0 0)"><rect width="5" height="4" transform="translate(0.237 0.458)"/></g></g><g transform="translate(73.724 64.167)"><g transform="translate(0 0)"><rect width="4" height="4" transform="translate(-0.098 0.458)"/></g></g><g transform="translate(82.598 64.167)"><g transform="translate(0 0)"><rect width="5" height="4" transform="translate(0.028 0.458)"/></g></g><g transform="translate(91.472 64.167)"><g transform="translate(0 0)"><rect width="5" height="4" transform="translate(0.154 0.458)"/></g></g><g transform="translate(36.862 68.945)"><g transform="translate(0 0)"><rect width="5" height="5" transform="translate(-0.236 -0.32)"/></g></g><g transform="translate(41.64 68.945)"><g transform="translate(0 0)"><rect width="4" height="5" transform="translate(-0.015 -0.32)"/></g></g><g transform="translate(68.945 68.945)"><g transform="translate(0 0)"><rect width="5" height="5" transform="translate(-0.32 -0.32)"/></g></g><g transform="translate(73.724 68.945)"><g transform="translate(0 0)"><rect width="4" height="5" transform="translate(-0.098 -0.32)"/></g></g><g transform="translate(82.598 68.945)"><g transform="translate(0 0)"><rect width="5" height="5" transform="translate(0.028 -0.32)"/></g></g><g transform="translate(87.376 68.945)"><g transform="translate(0 0)"><rect width="4" height="5" transform="translate(0.249 -0.32)"/></g></g><g transform="translate(36.862 73.724)"><g transform="translate(0)"><rect width="5" height="4" transform="translate(-0.236 -0.098)"/></g></g><g transform="translate(41.64 73.724)"><g transform="translate(0)"><rect width="4" height="4" transform="translate(-0.015 -0.098)"/></g></g><g transform="translate(50.514 73.724)"><g transform="translate(0)"><rect width="5" height="4" transform="translate(0.112 -0.098)"/></g></g><g transform="translate(59.389 73.724)"><g transform="translate(0)"><rect width="5" height="4" transform="translate(0.237 -0.098)"/></g></g><g transform="translate(73.724 73.724)"><g transform="translate(0)"><rect width="4" height="4" transform="translate(-0.098 -0.098)"/></g></g><g transform="translate(82.598 73.724)"><g transform="translate(0)"><rect width="5" height="4" transform="translate(0.028 -0.098)"/></g></g><g transform="translate(36.862 77.819)"><g transform="translate(0 0)"><rect width="5" height="5" transform="translate(-0.236 -0.194)"/></g></g><g transform="translate(50.514 77.819)"><g transform="translate(0 0)"><rect width="5" height="5" transform="translate(0.112 -0.194)"/></g></g><g transform="translate(55.293 77.819)"><g transform="translate(0 0)"><rect width="4" height="5" transform="translate(0.332 -0.194)"/></g></g><g transform="translate(59.389 77.819)"><g transform="translate(0 0)"><rect width="5" height="5" transform="translate(0.237 -0.194)"/></g></g><g transform="translate(64.167 77.819)"><g transform="translate(0 0)"><rect width="4" height="5" transform="translate(0.458 -0.194)"/></g></g><g transform="translate(77.819 77.819)"><g transform="translate(0 0)"><rect width="5" height="5" transform="translate(-0.194 -0.194)"/></g></g><g transform="translate(36.862 82.598)"><g transform="translate(0 0)"><rect width="5" height="5" transform="translate(-0.236 0.027)"/></g></g><g transform="translate(41.64 82.598)"><g transform="translate(0 0)"><rect width="4" height="5" transform="translate(-0.015 0.027)"/></g></g><g transform="translate(45.736 82.598)"><g transform="translate(0 0)"><rect width="5" height="5" transform="translate(-0.111 0.027)"/></g></g><g transform="translate(55.293 82.598)"><g transform="translate(0 0)"><rect width="4" height="5" transform="translate(0.332 0.027)"/></g></g><g transform="translate(64.167 82.598)"><g transform="translate(0 0)"><rect width="4" height="5" transform="translate(0.458 0.027)"/></g></g><g transform="translate(68.945 82.598)"><g transform="translate(0 0)"><rect width="5" height="5" transform="translate(-0.32 0.027)"/></g></g><g transform="translate(41.64 87.376)"><g transform="translate(0 0)"><rect width="4" height="4" transform="translate(-0.015 0.249)"/></g></g><g transform="translate(50.514 87.376)"><g transform="translate(0 0)"><rect width="5" height="4" transform="translate(0.112 0.249)"/></g></g><g transform="translate(55.293 87.376)"><g transform="translate(0 0)"><rect width="4" height="4" transform="translate(0.332 0.249)"/></g></g><g transform="translate(59.389 87.376)"><g transform="translate(0 0)"><rect width="5" height="4" transform="translate(0.237 0.249)"/></g></g><g transform="translate(64.167 87.376)"><g transform="translate(0 0)"><rect width="4" height="4" transform="translate(0.458 0.249)"/></g></g><g transform="translate(77.819 87.376)"><g transform="translate(0 0)"><rect width="5" height="4" transform="translate(-0.194 0.249)"/></g></g><g transform="translate(91.472 87.376)"><g transform="translate(0 0)"><rect width="5" height="4" transform="translate(0.154 0.249)"/></g></g><g transform="translate(36.862 91.472)"><g transform="translate(0 0)"><rect width="5" height="5" transform="translate(-0.236 0.153)"/></g></g><g transform="translate(45.736 91.472)"><g transform="translate(0 0)"><rect width="5" height="5" transform="translate(-0.111 0.153)"/></g></g><g transform="translate(55.293 91.472)"><g transform="translate(0 0)"><rect width="4" height="5" transform="translate(0.332 0.153)"/></g></g><g transform="translate(68.945 91.472)"><g transform="translate(0 0)"><rect width="5" height="5" transform="translate(-0.32 0.153)"/></g></g><g transform="translate(82.598 91.472)"><g transform="translate(0 0)"><rect width="5" height="5" transform="translate(0.028 0.153)"/></g></g><g transform="translate(0.273 0.272)"><rect width="22.409" height="22.409" transform="translate(4.802 4.802)" fill="none"/><path d="M27.211,0H0V32.013H32.013V0Zm0,27.211H4.8V4.8H27.211Z"/></g><g transform="translate(64.299 0.272)"><rect width="22.409" height="22.409" transform="translate(4.802 4.802)" fill="none"/><path d="M27.211,0H0V32.013H32.013V0Zm0,27.211H4.8V4.8H27.211Z"/></g><g transform="translate(0.273 64.299)"><rect width="22.409" height="22.409" transform="translate(4.802 4.802)" fill="none"/><path d="M27.211,0H0V32.013H32.013V0Zm0,27.211H4.8V4.8H27.211Z"/></g><g transform="translate(9.557 9.557)"><g transform="translate(0 0)"><rect width="14" height="14" transform="translate(0.068 0.068)"/></g></g><g transform="translate(73.724 9.557)"><g transform="translate(0 0)"><rect width="14" height="14" transform="translate(-0.098 0.068)"/></g></g><g transform="translate(9.557 73.724)"><g transform="translate(0)"><rect width="14" height="14" transform="translate(0.068 -0.098)"/></g></g></g></g></svg>