<svg xmlns="http://www.w3.org/2000/svg" xmlns:xlink="http://www.w3.org/1999/xlink" width="40" height="40" viewBox="0 0 40 40"><defs><clipPath id="a"><rect width="40" height="40" transform="translate(3742 -6415)" fill="#fff" stroke="#707070" stroke-width="1"/></clipPath></defs><g transform="translate(-3742 6415)" clip-path="url(#a)"><g transform="translate(2473.852 3260.594)"><path d="M577.5,262.5h2.712v9.491H577.5Z" transform="translate(727.937 -9919.585)" fill="#201b21"/><path d="M551.25,210h2.712v2.712H551.25Z" transform="translate(752.153 -9871.153)" fill="#201b21"/><path d="M525,157.5h2.712v2.712H525Z" transform="translate(776.369 -9822.721)" fill="#201b21"/><path d="M577.5,140h2.712v2.712H577.5Z" transform="translate(727.937 -9806.577)" fill="#201b21"/><path d="M542.5,70h2.712v4.068H542.5Z" transform="translate(760.225 -9742)" fill="#201b21"/><path d="M525,262.5h2.712v9.491H525Z" transform="translate(776.369 -9919.585)" fill="#201b21"/><path d="M96.25,263.856v6.78a1.36,1.36,0,0,0,1.356,1.356h7.458V262.5H97.606A1.36,1.36,0,0,0,96.25,263.856Z" transform="translate(1171.898 -9919.585)" fill="#201b21"/><path d="M263.983,262.5H245v9.491h18.983a1.36,1.36,0,0,0,1.356-1.356v-6.78A1.36,1.36,0,0,0,263.983,262.5Z" transform="translate(1034.674 -9919.585)" fill="#201b21"/></g></g></svg>