<svg xmlns="http://www.w3.org/2000/svg" width="29" height="29" viewBox="0 0 29 29">
  <g id="alert" transform="translate(-27 -149)">
    <circle id="Ellipse_1734" data-name="Ellipse 1734" cx="14.5" cy="14.5" r="14.5" transform="translate(27 149)" fill="#090f17"/>
    <g id="info" transform="translate(33.78 155.465)">
      <path id="Path_461753" data-name="Path 461753" d="M7.72.333a7.439,7.439,0,0,1,5.46,2.26,7.418,7.418,0,0,1,2.26,5.442,7.418,7.418,0,0,1-2.26,5.442,7.439,7.439,0,0,1-5.46,2.26,7.439,7.439,0,0,1-5.46-2.26A7.418,7.418,0,0,1,0,8.035,7.418,7.418,0,0,1,2.26,2.593,7.439,7.439,0,0,1,7.72.333ZM8.5,11.9V7.276H6.943V11.9Zm0-6.183V4.166H6.943V5.721Z" transform="translate(0)" fill="#d3bb8a"/>
    </g>
  </g>
</svg>
