<svg xmlns="http://www.w3.org/2000/svg" width="29" height="29" viewBox="0 0 29 29">
  <g id="club" transform="translate(-27 -149)">
    <circle id="Ellipse_1734" data-name="Ellipse 1734" cx="14.5" cy="14.5" r="14.5" transform="translate(27 149)" fill="#090f17"/>
    <g id="Group_340851" data-name="Group 340851" transform="translate(32.639 154.682)">
      <path id="Path_461659" data-name="Path 461659" d="M560.737,508.754l.49-.49a.815.815,0,0,1,.624-.257.851.851,0,0,1,.625.257l.441.441-.269.27.8.8-1.175,1.176-.8-.8-.294.294-.441-.441a.825.825,0,0,1-.245-.637.794.794,0,0,1,.245-.613" transform="translate(-560.492 -508.005)" fill="#d3bb8a"/>
      <path id="Path_461660" data-name="Path 461660" d="M557.909,524.051a.121.121,0,1,1-.171.172,2.176,2.176,0,0,0-1.617-.8.1.1,0,0,1-.086-.037.089.089,0,0,1-.049-.073.133.133,0,0,1,.037-.1.118.118,0,0,1,.086-.037,2.348,2.348,0,0,1,1.8.869" transform="translate(-553.89 -519.461)" fill="#d3bb8a"/>
      <path id="Path_461661" data-name="Path 461661" d="M556.085,519.624a.118.118,0,0,1,.037.086.126.126,0,0,1-.122.123.118.118,0,0,1-.086-.037l-1.691-1.689a.121.121,0,1,1,.171-.172l1.691,1.689" transform="translate(-551.625 -515.475)" fill="#d3bb8a"/>
      <path id="Path_461662" data-name="Path 461662" d="M520.967,533.592l4.8-4.9-1.7-1.7a3.248,3.248,0,0,0-2.781-.988l-.012,0a3.6,3.6,0,0,1-2.621-1.113l-1.287-1.318a.128.128,0,0,0-.087-.037.116.116,0,0,0-.084.037l-1.385,1.383a.128.128,0,0,0-.037.087.116.116,0,0,0,.037.084l1.289,1.32a4.042,4.042,0,0,1,.857,1.246,3.216,3.216,0,0,1,.257,1.375,3.275,3.275,0,0,0,1.007,2.779Z" transform="translate(-511.864 -519.732)" fill="#d3bb8a"/>
      <path id="Path_461663" data-name="Path 461663" d="M503.1,554.736a.75.75,0,0,0,1.2,0l3.635-3.639a.756.756,0,0,0,.013-1.213L505,546.937l-4.8,4.9Z" transform="translate(-490.524 -537.401)" fill="#d3bb8a"/>
      <path id="Path_461664" data-name="Path 461664" d="M552.713,516.131a.139.139,0,0,1,.024.086,2.188,2.188,0,0,0,.8,1.629.121.121,0,1,1-.171.171,2.359,2.359,0,0,1-.87-1.812.133.133,0,0,1,.049-.086.119.119,0,0,1,.086-.025A.146.146,0,0,1,552.713,516.131Z" transform="translate(-548.658 -514.112)" fill="#d3bb8a"/>
    </g>
  </g>
</svg>
