<svg xmlns="http://www.w3.org/2000/svg" width="29" height="29" viewBox="0 0 29 29">
  <g id="heart" transform="translate(-27 -149)">
    <circle id="Ellipse_1734" data-name="Ellipse 1734" cx="14.5" cy="14.5" r="14.5" transform="translate(27 149)" fill="#090f17"/>
    <g id="heart-2" data-name="heart" transform="translate(34.331 155.852)">
      <path id="Path_461751" data-name="Path 461751" d="M14.058,4.4a6.18,6.18,0,0,1-1.042,5.6,15.855,15.855,0,0,1-2.59,2.736c-.852.793-2.759,2.363-3.265,2.406a4.142,4.142,0,0,1-1.3-.851A18.953,18.953,0,0,1,.632,8.926C-.28,6.992-.282,4.6,1.138,3.117a4.2,4.2,0,0,1,6.024.4A4.074,4.074,0,0,1,8.556,2.359a4.2,4.2,0,0,1,5.5,2.046Z" transform="translate(0 0)" fill="#d3bb8a"/>
    </g>
  </g>
</svg>
