<svg xmlns="http://www.w3.org/2000/svg" width="29" height="29" viewBox="0 0 29 29">
  <g id="local_offer" data-name="local offer" transform="translate(-27 -149)">
    <circle id="Ellipse_1734" data-name="Ellipse 1734" cx="14.5" cy="14.5" r="14.5" transform="translate(27 149)" fill="#090f17"/>
    <g id="local-offer" transform="translate(34.331 155.981)">
      <path id="Path_461752" data-name="Path 461752" d="M14.582,7.518a1.471,1.471,0,0,1,.458,1.074,1.359,1.359,0,0,1-.458,1.039L9.334,14.915a1.533,1.533,0,0,1-1.074.423,1.412,1.412,0,0,1-1.039-.423L.458,8.152A1.451,1.451,0,0,1,0,7.1V1.813A1.421,1.421,0,0,1,.44.774,1.462,1.462,0,0,1,1.515.333H6.762A1.434,1.434,0,0,1,7.819.756ZM2.624,4.067a1.135,1.135,0,0,0,.81-.317,1.046,1.046,0,0,0,.335-.792A1.142,1.142,0,0,0,2.624,1.813a1.046,1.046,0,0,0-.792.335,1.135,1.135,0,0,0-.317.81A1.083,1.083,0,0,0,2.624,4.067Z" transform="translate(0 0)" fill="#d3bb8a"/>
    </g>
  </g>
</svg>
