<svg xmlns="http://www.w3.org/2000/svg" width="29" height="29" viewBox="0 0 29 29">
  <g id="membership_fail" transform="translate(-27 -149)">
    <circle id="Ellipse_1734" data-name="Ellipse 1734" cx="14.5" cy="14.5" r="14.5" transform="translate(27 149)" fill="#090f17"/>
    <circle id="Ellipse_1738" data-name="Ellipse 1738" cx="3.5" cy="3.5" r="3.5" transform="translate(46.861 149)" fill="#ff7b7b"/>
    <path id="Path_461739" data-name="Path 461739" d="M-1617.881,168.592h-13.349a1.772,1.772,0,0,0-1.77,1.77v7.789a1.772,1.772,0,0,0,1.77,1.77h13.349a1.773,1.773,0,0,0,1.77-1.77v-7.789A1.773,1.773,0,0,0-1617.881,168.592Zm-6.47,5.718-1.211.88.462,1.424a.7.7,0,0,1-.258.791.7.7,0,0,1-.832,0l-1.211-.88-1.211.88a.709.709,0,0,1-.416.137.706.706,0,0,1-.417-.138.7.7,0,0,1-.257-.792l.462-1.424-1.211-.88a.7.7,0,0,1-.258-.791.7.7,0,0,1,.674-.488h1.5l.462-1.424a.7.7,0,0,1,.673-.488.7.7,0,0,1,.673.488l.463,1.424h1.5a.7.7,0,0,1,.674.488A.7.7,0,0,1-1624.351,174.31Zm2.758,2.913a.328.328,0,0,1-.082.117.207.207,0,0,1-.053.042.194.194,0,0,1-.06.032.213.213,0,0,1-.067.021.411.411,0,0,1-.067.007.371.371,0,0,1-.251-.1.407.407,0,0,1-.074-.117.352.352,0,0,1-.028-.134.369.369,0,0,1,.1-.251.353.353,0,0,1,.319-.1.215.215,0,0,1,.067.021.194.194,0,0,1,.06.032h0a.356.356,0,0,1,.053.042.361.361,0,0,1,.106.251A.347.347,0,0,1-1621.593,177.224Zm1,.219a.354.354,0,0,1-.354-.354.354.354,0,0,1,.354-.354.354.354,0,0,1,.354.354A.354.354,0,0,1-1620.594,177.443Zm1.328,0a.354.354,0,0,1-.354-.354.354.354,0,0,1,.354-.354.354.354,0,0,1,.354.354A.354.354,0,0,1-1619.266,177.443Z" transform="translate(1666.472 -10.756)" fill="#d3bb8a"/>
  </g>
</svg>
