<svg xmlns="http://www.w3.org/2000/svg" xmlns:xlink="http://www.w3.org/1999/xlink" width="60" height="60" viewBox="0 0 60 60"><defs><clipPath id="a"><rect width="60" height="60" transform="translate(5408 -13981)" fill="#fff"/></clipPath><clipPath id="b"><rect width="60" height="59.99" transform="translate(0 0)" fill="#9e9d9e"/></clipPath></defs><g transform="translate(-5408 13981)" clip-path="url(#a)"><g transform="translate(5408 -13981.001)"><g transform="translate(0 0.001)" clip-path="url(#b)"><path d="M30,59.989q-9.524,0-19.049,0A10.592,10.592,0,0,1,0,49.078Q0,29.995,0,10.911A10.588,10.588,0,0,1,10.951,0Q30,0,49.049,0A10.6,10.6,0,0,1,60,10.985Q60,29.994,60,49A10.6,10.6,0,0,1,48.974,59.989q-9.487,0-18.974,0M28.72,22.121c0,2.5.015,5-.009,7.5a1.73,1.73,0,0,0,.986,1.69c3.708,2.063,7.4,4.153,11.1,6.233.522.293,1.033.61,1.576.861a1.22,1.22,0,0,0,1.615-.512,1.282,1.282,0,0,0-.37-1.667,5.949,5.949,0,0,0-.642-.383c-3.675-2.072-7.343-4.154-11.032-6.2a1.137,1.137,0,0,1-.673-1.171c.027-3.173.013-6.346.013-9.519,0-1.424.021-2.849-.015-4.272a1.607,1.607,0,0,0-.32-1.1,1.921,1.921,0,0,0-1.319-.389c-.693.095-.905.7-.906,1.361q0,3.785,0,7.571m26.315,6.592v0H52.643c-.05,0-.1,0-.149,0-.938.039-1.508.542-1.488,1.314.019.749.562,1.236,1.476,1.246q2.578.03,5.156,0A1.3,1.3,0,0,0,59.09,30c0-.749-.543-1.257-1.44-1.282-.871-.024-1.744-.005-2.615-.005M28.722,5.449c0,.871-.019,1.743.006,2.614a1.278,1.278,0,1,0,2.544-.013q.035-2.614,0-5.228a1.3,1.3,0,0,0-1.28-1.444c-.742,0-1.246.563-1.267,1.457-.02.871,0,1.743,0,2.614M5.553,28.712c-.875,0-1.75-.018-2.625.005-.92.024-1.442.5-1.442,1.276S2,31.259,2.926,31.271q2.587.033,5.174,0A1.3,1.3,0,0,0,9.559,30c0-.747-.554-1.254-1.456-1.278-.849-.023-1.7-.005-2.55-.005M31.281,54.971c0-.824.009-1.649,0-2.473-.014-1.013-.5-1.591-1.3-1.58-.773.01-1.251.573-1.258,1.54q-.019,2.51,0,5.02c.009.969.493,1.506,1.292,1.5s1.244-.548,1.26-1.532c.014-.824,0-1.648,0-2.473" transform="translate(0 0)" fill="#9e9d9e"/></g></g></g></svg>