<svg xmlns="http://www.w3.org/2000/svg" width="249.294" height="194.863" viewBox="0 0 249.294 194.863"><g transform="translate(-57.314 -225.111)"><path d="M457.779,529.028l7.669-7.942a2.677,2.677,0,0,1,3.709-.036l8.243,7.96" transform="matrix(-0.695, -0.719, 0.719, -0.695, 17.371, 1107.994)" fill="none" stroke="#e4d4a0" stroke-linecap="round" stroke-width="3"/><path d="M0,0,7.669,7.942a2.677,2.677,0,0,0,3.709.036L19.622.017" transform="matrix(-0.695, 0.719, -0.719, -0.695, 79.922, 233.885)" fill="none" stroke="#e4d4a0" stroke-linecap="round" stroke-width="3"/><path d="M0,0,7.669,7.942a2.677,2.677,0,0,0,3.709.036L19.621.018" transform="matrix(0.695, -0.719, 0.719, 0.695, 284, 411.201)" fill="none" stroke="#e4d4a0" stroke-linecap="round" stroke-width="3"/><path d="M0,8.707,7.669.765A2.677,2.677,0,0,1,11.378.729l8.243,7.96" transform="matrix(0.695, 0.719, -0.719, 0.695, 290.264, 227.837)" fill="none" stroke="#e4d4a0" stroke-linecap="round" stroke-width="3"/></g></svg>