<svg xmlns="http://www.w3.org/2000/svg" width="267.294" height="383.863" viewBox="0 0 267.294 383.863"><g transform="translate(-3498.285 19214.725)"><path d="M6,1A5.006,5.006,0,0,0,1,6V362a5.006,5.006,0,0,0,5,5H243a5.006,5.006,0,0,0,5-5V6a5.006,5.006,0,0,0-5-5H6M6,0H243a6,6,0,0,1,6,6V362a6,6,0,0,1-6,6H6a6,6,0,0,1-6-6V6A6,6,0,0,1,6,0Z" transform="translate(3507 -19207)" fill="#707070"/><g transform="translate(3501 -19212)"><path d="M0,8.706,7.669.765A2.677,2.677,0,0,1,11.378.729l8.243,7.96" transform="matrix(-0.695, -0.719, 0.719, -0.695, 13.63, 378.413)" fill="none" stroke="#e4d4a0" stroke-linecap="round" stroke-width="3"/><path d="M0,0,7.669,7.942a2.677,2.677,0,0,0,3.709.036L19.622.017" transform="matrix(-0.695, 0.719, -0.719, -0.695, 19.893, 6.048)" fill="none" stroke="#e4d4a0" stroke-linecap="round" stroke-width="3"/><path d="M0,0,7.669,7.942a2.677,2.677,0,0,0,3.709.036L19.621.018" transform="matrix(0.695, -0.719, 0.719, 0.695, 241.972, 372.365)" fill="none" stroke="#e4d4a0" stroke-linecap="round" stroke-width="3"/><path d="M0,8.707,7.669.765A2.677,2.677,0,0,1,11.378.729l8.243,7.96" transform="matrix(0.695, 0.719, -0.719, 0.695, 248.235, 0)" fill="none" stroke="#e4d4a0" stroke-linecap="round" stroke-width="3"/></g></g></svg>