<svg xmlns="http://www.w3.org/2000/svg" xmlns:xlink="http://www.w3.org/1999/xlink" width="60" height="60" viewBox="0 0 60 60"><defs><clipPath id="a"><rect width="60" height="60" transform="translate(5357 -14871)" fill="#fff"/></clipPath><filter id="b" x="22.886" y="28.466" width="43.535" height="43.534" filterUnits="userSpaceOnUse"><feOffset dy="3" input="SourceAlpha"/><feGaussianBlur stdDeviation="3" result="c"/><feFlood flood-opacity="0.161"/><feComposite operator="in" in2="c"/><feComposite in="SourceGraphic"/></filter></defs><g transform="translate(-5357 14871)" clip-path="url(#a)"><g transform="translate(5213.513 -15094)"><g transform="translate(146.067 223.199)"><rect width="43.545" height="49.893" rx="7" fill="#dcdbdc"/><g transform="translate(8.933 9.985)"><rect width="25.36" height="4.041" rx="2.021" fill="#171717"/><rect width="25.36" height="4.041" rx="2.021" transform="translate(0 10.424)" fill="#171717"/><rect width="25.36" height="4.041" rx="2.021" transform="translate(0 20.847)" fill="#171717"/><rect width="25.36" height="4.041" rx="2.021" transform="translate(0 26.059)" fill="#171717"/><rect width="16.867" height="4.041" rx="2.021" transform="translate(0 5.212)" fill="#171717"/><rect width="16.867" height="4.041" rx="2.021" transform="translate(0 15.635)" fill="#171717"/></g></g><g transform="translate(175.373 257.465)"><g transform="matrix(1, 0, 0, 1, -31.89, -34.47)" filter="url(#b)"><circle cx="12.767" cy="12.767" r="12.767" transform="translate(31.89 34.47)" fill="#e4d4a0"/></g><g transform="translate(7.594 5.686)"><path d="M567.738,409.505V408.08H557.317v1.426h.882v.951a4.06,4.06,0,0,0,.237,1.59,7.356,7.356,0,0,0,2.554,3.382.063.063,0,0,1,0,.1,7.356,7.356,0,0,0-2.554,3.382,4.06,4.06,0,0,0-.237,1.59v.935h-.882v1.426h10.421v-1.426h-.923V420.5a4.059,4.059,0,0,0-.237-1.59,7.357,7.357,0,0,0-2.554-3.382.064.064,0,0,1,0-.1h0a7.358,7.358,0,0,0,2.554-3.382,4.059,4.059,0,0,0,.237-1.59v-.951ZM566,411.894a6.8,6.8,0,0,1-2.345,3.067h0a.659.659,0,0,0,0,1.035A6.8,6.8,0,0,1,566,419.062a3.493,3.493,0,0,1,.221,1.384.3.3,0,0,0,0,.038v.833h-7.425v-.833a.275.275,0,0,0,0-.036,3.481,3.481,0,0,1,.221-1.385A6.8,6.8,0,0,1,561.358,416a.659.659,0,0,0,0-1.035,6.8,6.8,0,0,1-2.346-3.067,3.485,3.485,0,0,1-.221-1.384.3.3,0,0,0,0-.038v-.833h7.425v.833a.285.285,0,0,0,0,.036A3.488,3.488,0,0,1,566,411.894Z" transform="translate(-557.317 -408.08)"/><path d="M569.113,461.365h5.8a2.9,2.9,0,1,0-5.8,0Z" transform="translate(-566.819 -448.666)"/><path d="M573.113,429.486a3.625,3.625,0,0,1-1.277.171,4.012,4.012,0,0,1-1.459-.345,9.354,9.354,0,0,0,1.786,1.786,2.908,2.908,0,0,1,.814,1.014.178.178,0,0,0,.3.027,13.227,13.227,0,0,1,2.274-2.516A3.246,3.246,0,0,0,573.113,429.486Z" transform="translate(-567.837 -425.183)"/></g></g></g></g></svg>