<svg xmlns="http://www.w3.org/2000/svg" xmlns:xlink="http://www.w3.org/1999/xlink" width="60" height="60" viewBox="0 0 60 60"><defs><clipPath id="a"><rect width="60" height="60" transform="translate(5421 -14790)" fill="#fff"/></clipPath><linearGradient id="b" x1="1.123" y1="-0.288" x2="0.275" y2="0.554" gradientUnits="objectBoundingBox"><stop offset="0" stop-color="#dba611"/><stop offset="1" stop-color="#f7ce73"/></linearGradient></defs><g transform="translate(-5421 14790)" clip-path="url(#a)"><g transform="translate(5276.683 -15013.199)"><g transform="translate(146.067 223.199)"><rect width="43.689" height="50.058" rx="7" transform="translate(0 0)" fill="#dcdbdc"/><g transform="translate(8.963 10.018)"><rect width="25.443" height="4.054" rx="2.027" fill="#171717"/><rect width="25.443" height="4.054" rx="2.027" transform="translate(0 10.458)" fill="#171717"/><rect width="25.443" height="4.054" rx="2.027" transform="translate(0 20.916)" fill="#171717"/><rect width="25.443" height="4.054" rx="2.027" transform="translate(0 26.145)" fill="#171717"/><rect width="16.923" height="4.054" rx="2.027" transform="translate(0 5.229)" fill="#171717"/><rect width="16.923" height="4.054" rx="2.027" transform="translate(0 15.687)" fill="#171717"/></g></g><g transform="translate(176.946 257.578)"><circle cx="12.811" cy="12.811" r="12.811" transform="translate(0)" fill="url(#b)"/><path d="M495.439,357.112l3.041,3.041,5.473-5.473" transform="translate(-486.41 -344.676)" fill="none" stroke="#171717" stroke-linecap="round" stroke-linejoin="round" stroke-width="4"/></g></g></g></svg>