<svg xmlns="http://www.w3.org/2000/svg" width="48" height="47" viewBox="0 0 48 47">
  <g id="callus_icon" transform="translate(0.01 -0.439)">
    <g id="Rectangle_183971" data-name="Rectangle 183971" transform="translate(-0.01 0.439)" fill="none" stroke="#bfc8d3" stroke-width="2">
      <rect width="48" height="47" rx="6" stroke="none"/>
      <rect x="1" y="1" width="46" height="45" rx="5" fill="none"/>
    </g>
    <path id="Path_461745" data-name="Path 461745" d="M147.069,115.144c-.174-.285-.632-.455-1.316-.8s-4.068-1.991-4.7-2.217-1.09-.341-1.546.34-1.776,2.218-2.178,2.673-.8.511-1.487.171a18.8,18.8,0,0,1-5.527-3.382,20.739,20.739,0,0,1-3.823-4.722c-.4-.681-.04-1.05.3-1.39.31-.307.688-.8,1.032-1.193a4.671,4.671,0,0,0,.688-1.14,1.238,1.238,0,0,0-.059-1.193c-.171-.34-1.546-3.7-2.119-5.062s-1.143-1.312-1.546-1.312a9.893,9.893,0,0,0-1.141.119,3.882,3.882,0,0,0-2.006.852,7.621,7.621,0,0,0-2.4,5.684c0,3.355,2.46,6.6,2.8,7.05s4.752,7.565,11.738,10.295,6.986,1.818,8.246,1.7,4.064-1.648,4.638-3.24a5.666,5.666,0,0,0,.4-3.24Zm0,0" transform="translate(-109.17 -84.929)" fill="#bfc8d3" fill-rule="evenodd"/>
  </g>
</svg>
