<svg id="watsapp_icon" xmlns="http://www.w3.org/2000/svg" width="48.453" height="48.452" viewBox="0 0 48.453 48.452">
  <path id="Path_461744" data-name="Path 461744" d="M155.319,107.469a23.825,23.825,0,0,1-35.283,20.664l-13.17,4.185,4.293-12.662a23.354,23.354,0,0,1-3.412-12.187,23.787,23.787,0,0,1,47.572,0ZM131.534,87.625a19.942,19.942,0,0,0-20,19.844,19.637,19.637,0,0,0,3.809,11.635l-2.5,7.368,7.684-2.442a19.9,19.9,0,1,0,11-36.405Zm12.011,25.28c-.147-.242-.536-.386-1.117-.676s-3.452-1.69-3.985-1.882-.925-.289-1.312.289-1.507,1.882-1.848,2.269-.678.434-1.262.145a15.952,15.952,0,0,1-4.69-2.87,17.6,17.6,0,0,1-3.244-4.007c-.339-.578-.034-.891.255-1.18.263-.26.584-.676.876-1.012a3.963,3.963,0,0,0,.583-.968,1.05,1.05,0,0,0-.05-1.012c-.145-.289-1.312-3.136-1.8-4.3s-.97-1.113-1.312-1.113a8.4,8.4,0,0,0-.968.1,3.294,3.294,0,0,0-1.7.723,6.467,6.467,0,0,0-2.04,4.824c0,2.847,2.087,5.6,2.379,5.983s4.032,6.419,9.96,8.736,5.928,1.543,7,1.445,3.449-1.4,3.935-2.75a4.809,4.809,0,0,0,.342-2.75Zm0,0" transform="translate(-106.866 -83.866)" fill="#c0c8d3" fill-rule="evenodd"/>
</svg>
