<svg xmlns="http://www.w3.org/2000/svg" width="18.37" height="25.897" viewBox="0 0 18.37 25.897">
  <path id="Path_6928" data-name="Path 6928" d="M65.907,6.861a8.488,8.488,0,0,0-9.428-2.429c-3.8,1.307-6.308,5.065-6.319,9.552a10.177,10.177,0,0,0,1.812,5.528q3.389,4.926,6.8,9.864c.38.555.794.555,1.174,0Q63.3,24.5,66.667,19.628a10.416,10.416,0,0,0,1.857-5.736A9.4,9.4,0,0,0,65.907,6.861ZM54.757,18.53h0v-.046a2.779,2.779,0,0,1,.045-.439.684.684,0,0,1,.034-.15c.034-.162.056-.37.078-.532a.635.635,0,0,1,.179.058.7.7,0,0,0,.179.023c.034.069.067.15.112.231a5.624,5.624,0,0,1,.145,1.457,6.5,6.5,0,0,1-.749-.613Zm3.064,1.654A6.433,6.433,0,0,1,56,19.455c.078-.347.637-2.718.951-1.92A14.349,14.349,0,0,0,57.91,20,1.222,1.222,0,0,0,57.821,20.183Zm1.286.173a4.924,4.924,0,0,1-.582-.046c-.112-.1-.235-.243-.157-.347,0,0,.067-.058-.067-.185a12.26,12.26,0,0,1-.749-2.937,6.3,6.3,0,0,0,.123-1.249,1.477,1.477,0,0,1,.582-1.087l-.034-.046s.056-.093.078-.127c0,0,.291.439.4.567,0,0-.145.474.235.532,0,0,.4.52-.045.844,0,0-.425.278-.3,1.11l.112.046a1.9,1.9,0,0,1,.157.786s-.123.15.045.624a6,6,0,0,1,.213,1.018s0,.266.078.3c0,0-.067.035-.089.2Zm2.024-.231a14.321,14.321,0,0,0,.157-2.07c.1-1.353.2-1.249.2-1.249a12.622,12.622,0,0,1,.671,2.937A8.5,8.5,0,0,1,61.131,20.125Zm1.04-3.712s.145.012.056-.289a1.729,1.729,0,0,1,.045-.879s0,.335.112.3a.611.611,0,0,1,.1.231s-.056.173.19.509a.758.758,0,0,1,.19.4.352.352,0,0,0,.112.254.287.287,0,0,1,.056.081,4.887,4.887,0,0,0-.66.763A8.392,8.392,0,0,0,62.16,16.4Zm1.219,1.214c.034.069.291.439.3.451a1.1,1.1,0,0,0-.783-.22,2.786,2.786,0,0,1,.492-.22Zm-.828,1.92a7.611,7.611,0,0,1-.089-1.307,1.079,1.079,0,0,0,.459.023,2.14,2.14,0,0,1,.76.093.686.686,0,0,1,.1.324,6.572,6.572,0,0,1-1.23.856Zm1.991-1.642-.022-.035a1.966,1.966,0,0,0-.425.231,1.864,1.864,0,0,1-.089-.925.772.772,0,0,0,.134-.139h.179a1.044,1.044,0,0,0-.38-.879h0l-.056-.058c-.134-.093-.022-.266.123-.428.1.035.078-.081.078-.081a2.354,2.354,0,0,1,.246-.22.561.561,0,0,0,.034.451.617.617,0,0,1,0-.347.394.394,0,0,0,.134.4c-.235-.4.414-1.307.414-1.307.917-.416,0-.624,0-.624-.4-.624-.7-.15-.7-.15s-.347-.254-.582-.127.145.752.145.752c.157.208-.246.382-.246.382-.514.208-.257.486-.257.486a1.369,1.369,0,0,0-.112.983,1.36,1.36,0,0,1,.067.544c-.2-.093-.268-.613-.268-.613-.045-.486-.157-.59-.157-.59-.1-.116-.078-.139-.078-.139.067,0,.045-.023.045-.023-.067-.069-.067-.5-.067-.5a.938.938,0,0,0-.559-.9c.022-.058,0-.069,0-.069a.117.117,0,0,1-.022-.069c0-.081-.067-.058-.067-.058a.321.321,0,0,1,.134-.266c.089-.069.067-.243.067-.243-.112-.5-.548-.2-.548-.2l-.213-.035a.179.179,0,0,0,.078.266l.056-.023c-.034.035-.022.15-.022.15-.078-.035-.022.231-.022.231-.022.035.011.139.011.139l-.056.069c-.022-.324-.5-.752-.5-.752a.2.2,0,0,1-.1-.2,1.076,1.076,0,0,0-.034-.335c-.123-.52-.011-.636-.011-.636a.368.368,0,0,0,.078-.266c-.022-.243-.1-.139-.1-.139,0-.1-.078-.046-.078-.046-.056-.069-.145.058-.145.058s-.112.023-.078.162a.715.715,0,0,0,.034.2,1.037,1.037,0,0,1,.045.451H60.7l-.022.486a.357.357,0,0,0-.056.035.468.468,0,0,0,.056.266,2.585,2.585,0,0,0,.112.3,4.589,4.589,0,0,1,.067,2.405c-.157.463.022.393.022.393a8.4,8.4,0,0,0-.168,2.07c0,.867-.045,1.55-.056,1.827a6.9,6.9,0,0,1-1.208.127.47.47,0,0,0-.089-.185.319.319,0,0,0-.022-.22,2.056,2.056,0,0,1,.179-.867.6.6,0,0,0,.045-.393,8.857,8.857,0,0,0,.224-.995h.134a2.67,2.67,0,0,0-.078-.636s-.045-.081.045-.347a3.73,3.73,0,0,0,.045-1.029s.347-.173-.157-.717c0,0-.078-.023.212-.578a.937.937,0,0,0,.145-.428s-.022-.046.134-.243a1.591,1.591,0,0,0,.246-.6.3.3,0,0,1,.1-.162h0a1.737,1.737,0,0,1,.022-.266c0-.093.011-.173.011-.254-.011.15-.067.139-.067.139-.034-.012,0-.127,0-.127.067-.173.022-.173.022-.173-.034,0-.078.208-.078.208-.045.173-.1.173-.1.173-.045,0-.034-.058-.034-.058.034-.173-.045-.139-.045-.139-.022,0-.022.046-.022.046v.046a.409.409,0,0,0,.034.289c.067.127-.078.312-.078.312-.28.37-.268.486-.268.486a.309.309,0,0,1-.078.208.653.653,0,0,0-.145.312c-.19-.578-.492-.486-.492-.486-.38,0-.447.867-.447.867-.145-.058-.391-.439-.391-.439a.622.622,0,0,0,.157-.347,2.521,2.521,0,0,1,.19-.624.152.152,0,0,0,.022-.15,1.511,1.511,0,0,1-.067-.139c-.112-.173-.157-.127-.157-.127s.034.081.045.1c-.112-.173-.123-.139-.123-.139-.034,0-.011.046,0,.058-.045-.093-.067-.081-.067-.081-.034.023,0,.116.022.139-.034-.069-.067-.069-.067-.069-.056.058.134.324.134.324a.092.092,0,0,1,.034.116,2.036,2.036,0,0,1-.291.555,1.025,1.025,0,0,0-.246-.335c-.168-.2-.157-.289-.157-.289a.139.139,0,0,0-.045-.139.346.346,0,0,1-.089-.081,1.84,1.84,0,0,1-.123-.185c-.078-.173-.112-.127-.112-.127-.034.058.067.15.067.15a.13.13,0,0,0,.034.081.2.2,0,0,0-.112.035c-.123-.069-.145-.035-.145-.035a.058.058,0,0,0,0,.046c-.067-.035-.067-.012-.067-.012-.022.035.045.058.045.058a.488.488,0,0,1,.145.1c0,.035.056.069.056.069.067.162.134.162.134.162.067.023.1.127.1.127a1.869,1.869,0,0,0,.369.694c.011.093-.145.231-.145.231a.015.015,0,0,0-.022,0c0,.069-.089.1-.089.1a.557.557,0,0,0-.3.231c-.022-.069-.045,0-.045,0a.987.987,0,0,1,.168-.451c.022-.023,0-.023,0-.023a.036.036,0,0,0,.022-.046c.011,0,.011-.023.011-.023.022.023.011-.012.011-.012v-.023a.2.2,0,0,0-.022-.15v-.023c-.056-.15-.134-.127-.134-.127h-.045a.184.184,0,0,0-.145-.023c.034-.046-.045,0-.045,0a.093.093,0,0,1,.056-.081c-.056,0-.078.093-.078.093-.157-.023-.123.023-.123.023-.045.012-.022.035-.022.035-.1.058-.067.093-.067.093-.045.023-.022.035-.022.035-.034.035,0,.046,0,.046.011.023,0,.023,0,.023-.045.035-.011.058-.011.058a.122.122,0,0,1,0,.093c-.034,0-.011.035-.011.035a.177.177,0,0,1,0,.116c-.022.081.034.081.034.081a.288.288,0,0,1,.022.231.741.741,0,0,1-.134-.035.178.178,0,0,1,0,.081.6.6,0,0,0-.369-.312c-.19-.069-.2-.139-.2-.139,0-.035-.034,0-.034,0a.814.814,0,0,0-.268-.266.455.455,0,0,0-.089-.243c-.168-.254-.078-.37-.078-.37a.21.21,0,0,0,.034-.162.117.117,0,0,1-.011-.081c0-.1-.056-.046-.056-.046a.03.03,0,0,1-.045,0c-.145-.173-.157.012-.157.012-.067,0-.045.058-.045.058.011.023,0,.035,0,.035-.034.035,0,.081,0,.081-.045.023,0,.081,0,.081a.2.2,0,0,1,.056.15c-.045.555.179.705.179.705a1.846,1.846,0,0,1,.268.278.046.046,0,0,0,0,.058c.347.335.313.382.313.382,0,.1.011.22.011.22a1.919,1.919,0,0,1-.2,1.5c-.112.139-.022.15-.022.15h0a3.188,3.188,0,0,1-.224.6c-.1.289-.212.613-.268.8a3.556,3.556,0,0,0-.022-.752v-.046a.739.739,0,0,0,.067-.1s.045-.058-.089-.22a1.91,1.91,0,0,0-.268-.833,1,1,0,0,1,0-.879.74.74,0,0,0,.2.37A2.57,2.57,0,0,1,55.9,16a1.237,1.237,0,0,0,.19.231c.212.2.168.058.168.058-.022-.023.011-.046.011-.046.145-.2-.179-.266-.179-.266-.1-.012-.134-.15-.134-.15-.123-.532-.246-.636-.246-.636a.858.858,0,0,1-.179-.358c-.089-.5-.425-.358-.425-.358a.243.243,0,0,1-.235-.069.141.141,0,0,1,0-.208c.067-.058.045-.1.045-.1v-.081c0-.1-.045-.116-.045-.116a.062.062,0,0,1-.045-.069c.011-.081-.045-.058-.045-.058-.056,0-.1-.127-.1-.127-.067-.2-.347-.058-.347-.058h-.022V13.6H54.3a.677.677,0,0,0-.179.312,1.014,1.014,0,0,0,.011.312.956.956,0,0,1-.391-.347.827.827,0,0,0-.257-.278c-.4-.289-.347-.428-.347-.428.034-.2-.034-.2-.034-.2a.206.206,0,0,1-.1-.046c-.089-.058-.089.035-.089.035,0,.023-.011.023-.011.023a.042.042,0,0,0-.034.023.116.116,0,0,0,.011.1c.034.035.022.058.022.058,0,.069.034.081.034.081a1.076,1.076,0,0,1,.235.289c.28.555.459.59.459.59a1.41,1.41,0,0,1,.459.59,1.318,1.318,0,0,0,.022.567.447.447,0,0,0,.089.2.175.175,0,0,1-.067.243c.19.023.19-.2.19-.2a1.049,1.049,0,0,1-.022.162.409.409,0,0,0,.045-.185.4.4,0,0,0,.045-.173,1.261,1.261,0,0,1,.123.243.758.758,0,0,1,0,.5,2.646,2.646,0,0,1-.123.324,2.015,2.015,0,0,0-.168.52,1.019,1.019,0,0,0,0,.486.089.089,0,0,0,.123.069h0a4.421,4.421,0,0,0,.112.775,7.183,7.183,0,0,1-1.968-4.973A6.964,6.964,0,0,1,59.331,6.2h.056a6.549,6.549,0,0,1,2.762.624h.034a7.223,7.223,0,0,1,2.349,11.067Z" transform="translate(-50.16 -3.896)" fill="#c7a05c"/>
</svg>
