<svg xmlns="http://www.w3.org/2000/svg" xmlns:xlink="http://www.w3.org/1999/xlink" width="14.911" height="14.911" viewBox="0 0 14.911 14.911"><defs><linearGradient id="a" x1="0.5" x2="0.5" y2="1" gradientUnits="objectBoundingBox"><stop offset="0" stop-color="#e8d48a"/><stop offset="1" stop-color="#c9a35e"/></linearGradient><clipPath id="b"><rect width="5.625" height="15.462" fill="url(#a)"/></clipPath></defs><g transform="translate(10.933) rotate(45)"><g clip-path="url(#b)"><path d="M.516,15.462A.782.782,0,0,1,0,14.632c0-2.084.008-4.169,0-6.253A1.845,1.845,0,0,1,.333,7.29c.358-.523.721-1.043,1.077-1.567a2.087,2.087,0,0,0,.364-1.235C1.76,3.058,1.769,1.628,1.769.2V0H3.854V.2c0,1.455.006,2.91,0,4.365a1.9,1.9,0,0,0,.324,1.095c.36.54.732,1.072,1.1,1.606a1.925,1.925,0,0,1,.35,1.145c-.013,2.084-.007,4.169-.005,6.253a.774.774,0,0,1-.266.66,1.82,1.82,0,0,1-.246.14ZM.783,14.43l.026,0c.022-.311.053-.622.064-.933q.083-2.376.155-4.752a2.262,2.262,0,0,1,.178-.819A10.707,10.707,0,0,1,2.3,6.141c.034-.051.071-.1.106-.151a4.332,4.332,0,0,0-1.064.884A2.9,2.9,0,0,0,.555,9c.073,1.417.1,2.836.147,4.254.014.391.053.781.081,1.171" transform="translate(0.001)" fill="url(#a)"/></g></g></svg>