<svg xmlns="http://www.w3.org/2000/svg" xmlns:xlink="http://www.w3.org/1999/xlink" width="14.407" height="18.909" viewBox="0 0 14.407 18.909"><defs><linearGradient id="a" x1="0.5" x2="0.5" y2="1" gradientUnits="objectBoundingBox"><stop offset="0" stop-color="#e8d48a"/><stop offset="1" stop-color="#caa45f"/></linearGradient></defs><path d="M19.356,9.537h-.9v-1.8a4.5,4.5,0,1,0-9,0v1.8h-.9a1.806,1.806,0,0,0-1.8,1.8v9a1.806,1.806,0,0,0,1.8,1.8h10.8a1.806,1.806,0,0,0,1.8-1.8v-9A1.806,1.806,0,0,0,19.356,9.537Zm-5.4,8.194a1.8,1.8,0,1,1,1.8-1.8A1.806,1.806,0,0,1,13.953,17.731Zm2.791-8.194H11.162v-1.8a2.791,2.791,0,1,1,5.583,0Z" transform="translate(-6.75 -3.234)" fill="url(#a)"/></svg>