<svg xmlns="http://www.w3.org/2000/svg" xmlns:xlink="http://www.w3.org/1999/xlink" width="10.85" height="10.85" viewBox="0 0 10.85 10.85"><defs><linearGradient id="a" x1="0.5" x2="0.5" y2="1" gradientUnits="objectBoundingBox"><stop offset="0" stop-color="#e8d48a"/><stop offset="1" stop-color="#e0b825"/></linearGradient></defs><path d="M5.987.562a5.425,5.425,0,1,0,5.425,5.425A5.424,5.424,0,0,0,5.987.562ZM7.236,8.221l-1.929-1.4A.264.264,0,0,1,5.2,6.606V2.925a.263.263,0,0,1,.262-.262h1.05a.263.263,0,0,1,.262.262V5.937L8.164,6.948a.262.262,0,0,1,.057.367L7.6,8.164A.264.264,0,0,1,7.236,8.221Z" transform="translate(-0.563 -0.563)" fill="url(#a)"/></svg>