<svg xmlns="http://www.w3.org/2000/svg" xmlns:xlink="http://www.w3.org/1999/xlink" width="7.676" height="13.648" viewBox="0 0 7.676 13.648"><defs><linearGradient id="a" x1="0.5" x2="0.5" y2="1" gradientUnits="objectBoundingBox"><stop offset="0" stop-color="#e7d07c"/><stop offset="0.999" stop-color="#e1be39"/><stop offset="1" stop-color="#74683e"/></linearGradient></defs><path d="M5.578,6.222,2.7,5.379a.786.786,0,0,1,.221-1.541H4.688a1.627,1.627,0,0,1,.912.28.416.416,0,0,0,.52-.053l.928-.906A.432.432,0,0,0,7,2.506a3.769,3.769,0,0,0-2.306-.8V.427A.428.428,0,0,0,4.267,0H3.414a.428.428,0,0,0-.427.427v1.28H2.921A2.921,2.921,0,0,0,.015,4.894,3.052,3.052,0,0,0,2.249,7.469l2.732.8A.786.786,0,0,1,4.76,9.81H2.992a1.627,1.627,0,0,1-.912-.28.416.416,0,0,0-.52.053l-.928.906a.432.432,0,0,0,.048.653,3.769,3.769,0,0,0,2.306.8v1.28a.428.428,0,0,0,.427.427h.853a.428.428,0,0,0,.427-.427V11.937A3.011,3.011,0,0,0,7.511,10,2.927,2.927,0,0,0,5.578,6.222Z" transform="translate(-0.003)" fill="url(#a)"/></svg>