<svg xmlns="http://www.w3.org/2000/svg" xmlns:xlink="http://www.w3.org/1999/xlink" width="15.5" height="17.714" viewBox="0 0 15.5 17.714"><defs><linearGradient id="a" x1="0.5" x2="0.5" y2="1" gradientUnits="objectBoundingBox"><stop offset="0" stop-color="#e8d48a"/><stop offset="1" stop-color="#caa560"/></linearGradient></defs><path d="M15.085,5.536H.415A.415.415,0,0,1,0,5.121V3.875A1.661,1.661,0,0,1,1.661,2.214H3.321V.415A.415.415,0,0,1,3.737,0H5.121a.415.415,0,0,1,.415.415v1.8H9.964V.415A.415.415,0,0,1,10.379,0h1.384a.415.415,0,0,1,.415.415v1.8h1.661A1.661,1.661,0,0,1,15.5,3.875V5.121A.415.415,0,0,1,15.085,5.536ZM.415,6.643h14.67a.415.415,0,0,1,.415.415v9a1.661,1.661,0,0,1-1.661,1.661H1.661A1.661,1.661,0,0,1,0,16.054v-9A.415.415,0,0,1,.415,6.643Zm11.531,3.32-.975-.983a.415.415,0,0,0-.587,0L6.716,12.617l-1.591-1.6a.415.415,0,0,0-.587,0l-.982.975a.415.415,0,0,0,0,.587l2.858,2.881a.415.415,0,0,0,.587,0l4.946-4.906a.415.415,0,0,0,0-.587Z" fill="url(#a)"/></svg>