<svg xmlns="http://www.w3.org/2000/svg" xmlns:xlink="http://www.w3.org/1999/xlink" width="14.395" height="10.076" viewBox="0 0 14.395 10.076"><defs><linearGradient id="a" x1="0.5" x2="0.5" y2="1" gradientUnits="objectBoundingBox"><stop offset="0" stop-color="#e8d48a"/><stop offset="1" stop-color="#e1bc32"/></linearGradient></defs><path d="M4.318,7.288A2.519,2.519,0,1,0,1.8,4.769,2.518,2.518,0,0,0,4.318,7.288Zm1.727.72H5.859a3.478,3.478,0,0,1-3.081,0H2.591A2.592,2.592,0,0,0,0,10.6v.648a1.08,1.08,0,0,0,1.08,1.08H7.557a1.08,1.08,0,0,0,1.08-1.08V10.6A2.592,2.592,0,0,0,6.046,8.008Zm4.75-.72A2.159,2.159,0,1,0,8.637,5.129,2.16,2.16,0,0,0,10.8,7.288Zm1.08.72H11.79a2.836,2.836,0,0,1-1.988,0H9.717a2.5,2.5,0,0,0-1.253.346A3.292,3.292,0,0,1,9.357,10.6v.864c0,.049-.011.1-.013.144h3.972a1.08,1.08,0,0,0,1.08-1.08A2.518,2.518,0,0,0,11.876,8.008Z" transform="translate(0 -2.25)" fill="url(#a)"/></svg>