<svg xmlns="http://www.w3.org/2000/svg" xmlns:xlink="http://www.w3.org/1999/xlink" width="22.182" height="23.659" viewBox="0 0 22.182 23.659">
  <defs>
    <linearGradient id="linear-gradient" x1="0.107" x2="0.935" y2="1.052" gradientUnits="objectBoundingBox">
      <stop offset="0" stop-color="#c7a05c"/>
      <stop offset="1" stop-color="#cb9334"/>
    </linearGradient>
  </defs>
  <path id="Path_7857" data-name="Path 7857" d="M157.454,167.618a11.619,11.619,0,0,0-3.667-5.567,13.149,13.149,0,0,0-6.276-2.9.653.653,0,0,0-.719.882c.372.946,2.088,5.889-.631,10.255a10.831,10.831,0,0,1-4.112,3.779h-1.132v-4.929a3.988,3.988,0,0,0,2.264-3.573V158.7h-5.312v6.865a3.988,3.988,0,0,0,2.264,3.573v4.929h-1.317a.392.392,0,0,0,0,.784h1.3a10.908,10.908,0,0,1-3.725.431.653.653,0,0,0-.6.984,13.312,13.312,0,0,0,2.369,2.9,11.57,11.57,0,0,0,8,3.2,11.527,11.527,0,0,0,11.291-14.74ZM142,159.678v1.428h-2.817a.512.512,0,0,0-.129.017v-1.445Zm-3.015,5.878v-3.141a.537.537,0,0,0,.135.018h2.95v3.123a2.644,2.644,0,0,1-1.543,2.383A2.644,2.644,0,0,1,138.983,165.556Z" transform="translate(-135.7 -158.698)" fill="url(#linear-gradient)"/>
</svg>
