<svg xmlns="http://www.w3.org/2000/svg" width="21.17" height="14.29" viewBox="0 0 21.17 14.29"><path d="M.072,17.092V5.334q0-.02.061-.388l6.92,5.92L.154,17.5a1.73,1.73,0,0,1-.082-.408ZM.991,4.129a.88.88,0,0,1,.347-.061H19.976a1.156,1.156,0,0,1,.367.061L13.4,10.07l-.919.735-1.817,1.49L8.85,10.8l-.919-.735ZM1.011,18.3l6.961-6.675,2.695,2.184,2.695-2.184L20.323,18.3a.98.98,0,0,1-.347.061H1.338a.925.925,0,0,1-.327-.061ZM14.28,10.866l6.9-5.92a1.218,1.218,0,0,1,.061.388V17.092a1.565,1.565,0,0,1-.061.408Z" transform="translate(-0.072 -4.068)" fill="#e8d48a"/></svg>