<svg xmlns="http://www.w3.org/2000/svg" width="79.598" height="74.645" viewBox="0 0 79.598 74.645">
  <g id="no_favourite_clubs_" data-name="no favourite clubs " transform="translate(-142 -133)">
    <path id="Path_462071" data-name="Path 462071" d="M5336.438-13668.661v-6.264h3.543v-38.385h-3.543v-13.987H5353.4v-16.009h45.666v16.009h16.966v14.855h-2.928v37.517h2.928v6.264h-79.6" transform="translate(-5194.438 13876.306)" fill="#fff" opacity="0.161"/>
    <g id="Group_341723" data-name="Group 341723" transform="translate(166.303 162.511)">
      <path id="Path_462072" data-name="Path 462072" d="M16.042.794A15.238,15.238,0,0,0,4.549,26.049L1.469,29.129a1.051,1.051,0,0,0,1.486,1.486l3.079-3.079a15.239,15.239,0,0,0,21.5-21.5l3.079-3.079a1.052,1.052,0,1,0-1.49-1.486L26.047,4.547A15.178,15.178,0,0,0,16.042.794Zm0,2.1a13.089,13.089,0,0,1,8.524,3.132L6.029,24.568A13.151,13.151,0,0,1,16.042,2.9Zm10.01,4.62A13.15,13.15,0,0,1,7.516,26.053Z" transform="translate(-0.794 -0.794)" fill="#0b1524"/>
    </g>
  </g>
</svg>
