<svg xmlns="http://www.w3.org/2000/svg" width="14.399" height="14.999" fill="#e4d4a0"><defs/><g transform="translate(-4.066 -1.333)"><path d="M10.804 16.332a1.2 1.2 0 0 0 1.166-1.027H9.597a1.2 1.2 0 0 0 1.207 1.027ZM17.5 13.56l-.153-.135a6.476 6.476 0 0 1-1.131-1.32 5.692 5.692 0 0 1-.608-2.168V7.711a4.921 4.921 0 0 0-.072-.807 3.38 3.38 0 0 1-2.7-3.317v-.284a4.764 4.764 0 0 0-1.5-.451v-.568a.6.6 0 0 0-1.2 0v.59a4.872 4.872 0 0 0-4.195 4.837v2.226a5.692 5.692 0 0 1-.608 2.168 6.49 6.49 0 0 1-1.113 1.32l-.153.135v1.271H17.5Z" class="a"/><circle cx="2.253" cy="2.253" r="2.253" class="a" transform="translate(13.959 1.333)"/></g></svg>