<svg xmlns="http://www.w3.org/2000/svg" width="83.17" height="83.17" viewBox="0 0 83.17 83.17">
  <g id="update_app_icon" data-name="update app icon" transform="translate(-151.415 -224)">
    <g id="Path_462075" data-name="Path 462075" transform="translate(242.998 311.957) rotate(180)" fill="#fff">
      <path d="M 50.02167892456055 66.45779418945312 L 49.74909973144531 66.43171691894531 C 49.48508071899414 66.39772033691406 49.23749923706055 66.31100463867188 49.01309585571289 66.17391204833984 L 49.00969314575195 66.17183685302734 L 49.00626373291016 66.16981506347656 C 48.86018371582031 66.083740234375 48.73889541625977 65.99198150634766 48.63547515869141 65.88931274414062 L 37.36626434326172 54.61912536621094 C 36.62063598632812 53.87311553955078 36.62063598632812 52.65912246704102 37.3663444519043 51.91303253173828 C 37.72711563110352 51.55225372314453 38.20762252807617 51.353515625 38.71924591064453 51.353515625 C 39.23085403442383 51.353515625 39.71136474609375 51.55225372314453 40.07223510742188 51.91312408447266 L 47.23285293579102 59.07424545288086 L 48.08642578125 59.92787551879883 L 48.08642578125 58.720703125 L 48.08642578125 29.10889434814453 C 48.08642578125 28.05374336242676 48.94484329223633 27.1953239440918 49.99999237060547 27.1953239440918 C 51.05487442016602 27.1953239440918 51.9130859375 28.05374336242676 51.9130859375 29.10889434814453 L 51.9130859375 58.73047256469727 L 51.9130859375 59.93746566772461 L 52.7666130065918 59.08405303955078 L 59.9277458190918 51.92389297485352 C 60.26781463623047 51.58382415771484 60.76104354858398 51.3887939453125 61.28098297119141 51.3887939453125 C 61.80100250244141 51.3887939453125 62.29400253295898 51.58375549316406 62.63356399536133 51.92367553710938 C 62.99335479736328 52.28347396850586 63.19140243530273 52.76415252685547 63.19140243530273 53.27734375 C 63.19140243530273 53.7899055480957 62.99335479736328 54.27023315429688 62.63375473022461 54.62984466552734 L 51.36422348022461 65.89937591552734 C 51.33675384521484 65.92683410644531 51.30500411987305 65.94751739501953 51.27698516845703 65.96575164794922 L 51.25769424438477 65.97831726074219 L 51.2396354675293 65.99259185791016 C 51.13533401489258 66.07509613037109 51.06559371948242 66.12562561035156 50.9989128112793 66.16703033447266 C 50.91805267333984 66.2164306640625 50.85792541503906 66.24937438964844 50.80088424682617 66.27530670166016 L 50.79801559448242 66.27660369873047 L 50.795166015625 66.27794647216797 C 50.65988159179688 66.34151458740234 50.53025054931641 66.38662719726562 50.39953231811523 66.41558074951172 L 50.3097038269043 66.426513671875 L 50.29801559448242 66.42794036865234 L 50.28641510009766 66.42991638183594 C 50.18485260009766 66.44715881347656 50.09795761108398 66.45632171630859 50.02167892456055 66.45779418945312 Z" stroke="none"/>
      <path d="M 50.03690338134766 65.95697021484375 C 50.08306503295898 65.95454406738281 50.13862228393555 65.94784545898438 50.20269393920898 65.93697357177734 L 50.24928283691406 65.93018341064453 L 50.31288146972656 65.92243957519531 C 50.40020751953125 65.90135955810547 50.48877716064453 65.86946868896484 50.58251571655273 65.82542419433594 L 50.59395599365234 65.82013702392578 C 50.63088989257812 65.8033447265625 50.67409133911133 65.77946472167969 50.73793792724609 65.74053192138672 C 50.78680419921875 65.70995330810547 50.84264373779297 65.66910552978516 50.92946243286133 65.60043334960938 L 50.96557235717773 65.57186126708984 L 51.00416564941406 65.54674530029297 C 51.00871658325195 65.54378509521484 51.01415634155273 65.54045867919922 51.02005767822266 65.53641510009766 L 62.28019332885742 54.27628326416016 C 62.54536437988281 54.01111221313477 62.69140243530273 53.65635299682617 62.69140243530273 53.27734375 C 62.69140243530273 52.897705078125 62.54536437988281 52.54259490966797 62.27982330322266 52.27704238891602 C 62.03334426879883 52.03030395507812 61.66928482055664 51.8887939453125 61.28098297119141 51.8887939453125 C 60.89266586303711 51.8887939453125 60.52829360961914 52.03044509887695 60.28127288818359 52.2774658203125 L 51.4130859375 61.14445495605469 L 51.4130859375 29.10889434814453 C 51.4130859375 28.32944488525391 50.7791748046875 27.6953239440918 49.99999237060547 27.6953239440918 C 49.22054290771484 27.6953239440918 48.58642578125 28.32944488525391 48.58642578125 29.10889434814453 L 48.58642578125 61.13503265380859 L 39.71867370605469 52.26668548583984 C 39.45224380493164 52.000244140625 39.09730529785156 51.853515625 38.71924591064453 51.853515625 C 38.34118270874023 51.853515625 37.98623275756836 52.000244140625 37.71998596191406 52.26649475097656 C 37.16907501220703 52.81769561767578 37.16907501220703 53.71454238891602 37.71983337402344 54.26558303833008 L 48.98774337768555 65.53447723388672 C 49.06124496459961 65.60745239257812 49.15033340454102 65.67436218261719 49.26009368896484 65.73903656005859 L 49.27376556396484 65.74723052978516 C 49.43569946289062 65.84616851806641 49.61462020874023 65.90926361083984 49.80574035644531 65.93486022949219 L 50.03690338134766 65.95697021484375 M 50.00000381469727 66.95800018310547 L 49.69384384155273 66.9287109375 C 49.35839462280273 66.88672637939453 49.0385627746582 66.775390625 48.75243377685547 66.60059356689453 C 48.57177352905273 66.494140625 48.4160041809082 66.37598419189453 48.283203125 66.244140625 L 37.0126953125 54.97266387939453 C 36.07177352905273 54.03125381469727 36.07177352905273 52.50098419189453 37.0126953125 51.55957412719727 C 37.9541015625 50.61816024780273 39.48437118530273 50.61816024780273 40.42578506469727 51.55957412719727 L 47.58642578125 58.720703125 L 47.58642578125 29.10889434814453 C 47.58642578125 27.7778434753418 48.6689338684082 26.6953239440918 49.99999237060547 26.6953239440918 C 51.3310546875 26.6953239440918 52.4130859375 27.7778434753418 52.4130859375 29.10889434814453 L 52.4130859375 58.73047256469727 L 59.57421493530273 51.5703125 C 60.48339462280273 50.66112518310547 62.08007049560547 50.66211700439453 62.9873046875 51.5703125 C 63.44140243530273 52.0244140625 63.69140243530273 52.63086318969727 63.69140243530273 53.27734375 C 63.69140243530273 53.92284393310547 63.44140243530273 54.52929306030273 62.9873046875 54.98339462280273 L 51.7177734375 66.25292205810547 C 51.65429306030273 66.31640625 51.59179306030273 66.357421875 51.5498046875 66.384765625 C 51.4423828125 66.4697265625 51.35546493530273 66.53418731689453 51.2626953125 66.591796875 C 51.1748046875 66.64550018310547 51.09375381469727 66.69140625 51.0078125 66.73047637939453 C 50.82910537719727 66.814453125 50.6552734375 66.873046875 50.48242568969727 66.90918731689453 L 50.37012481689453 66.9228515625 C 50.26660537719727 66.94043731689453 50.13477325439453 66.95800018310547 50.00000381469727 66.95800018310547 Z" stroke="none" fill="#090f17"/>
    </g>
    <circle id="Ellipse_1790" data-name="Ellipse 1790" cx="40.085" cy="40.085" r="40.085" transform="translate(152.915 225.5)" fill="none" stroke="#fff" stroke-miterlimit="10" stroke-width="3"/>
  </g>
</svg>
