<svg xmlns="http://www.w3.org/2000/svg" width="38.908" height="40.001"><path d="M-588.371 46.59c-11.741-10.817-30.463-2.945-32.424 12.438a19.322 19.322 0 0 0 2.473 11.658 1.652 1.652 0 0 1 .193 1.179l-1.837 7.92a1.481 1.481 0 0 0 .171 1.062 1.483 1.483 0 0 0 .843.668 1.484 1.484 0 0 0 1.073-.079l6.562-3.245a.827.827 0 0 1 .757.028 19.613 19.613 0 0 0 9.664 2.266c17.41-.475 25.471-22.219 12.525-33.895Zm-12.87 2.5a3.106 3.106 0 0 1 3.106 3.105 3.105 3.105 0 0 1-3.106 3.105 3.105 3.105 0 0 1-3.105-3.105 3.105 3.105 0 0 1 3.105-3.101Zm3.114 20.817a3.11 3.11 0 0 1-3.11 3.11 3.11 3.11 0 0 1-3.109-3.11v-9.961a3.11 3.11 0 0 1 3.109-3.109 3.11 3.11 0 0 1 3.11 3.109Z" style="fill:#e4d4a0" transform="translate(620.9 -41.581)"/></svg>