<svg xmlns="http://www.w3.org/2000/svg" width="30.371" height="40"><path d="M35.734 7.807V.576c0-.317.129-.545.469-.575.289-.025.478.209.478.593q.006 3.028 0 6.056v1.21c.221.05.426.086.624.142a4.393 4.393 0 0 1 2.531 1.849 1.026 1.026 0 0 0 .494.386c6.07 1.935 9.77 6.028 10.859 12.278a15.164 15.164 0 1 1-19.194-12.234.969.969 0 0 0 .6-.446 4.159 4.159 0 0 1 2.685-1.873c.128-.029.258-.055.386-.084.01 0 .018-.018.067-.07m-3.171 13.411a52.429 52.429 0 0 0 0 7.27h7.276a46.98 46.98 0 0 0 0-7.27Zm-5.953-.313 5.016-.579.843-5.255c-1.324.28-2.609.547-3.889.834-.1.022-.192.172-.242.283-.351.779-.729 1.549-1.023 2.349-.278.758-.465 1.55-.7 2.367m19.138 7.9-4.965.572-.847 5.252c1.3-.275 2.586-.542 3.865-.825.093-.02.184-.14.236-.235a16.64 16.64 0 0 0 1.711-4.764m-14.123.571-4.969-.566a16.344 16.344 0 0 0 1.752 4.83.576.576 0 0 0 .348.212c.69.167 1.382.33 2.079.466.546.106 1.1.17 1.622.249l-.836-5.186m15.4-1.759c1.051-.323 2.115-.645 3.174-.986.075-.024.15-.18.154-.278.031-.8.082-1.605.054-2.406-.03-.865-.059-.881-.89-1.139s-1.68-.478-2.492-.706ZM25.4 22.083c-1.033.315-2.086.63-3.132.967a.417.417 0 0 0-.207.32 74.69 74.69 0 0 0 0 2.956.541.541 0 0 0 .308.367 14.935 14.935 0 0 0 1.457.487c.535.151 1.081.266 1.571.385Zm19.879-5.831a1.091 1.091 0 0 0 0 .211 19.359 19.359 0 0 1 1.445 4.453.358.358 0 0 0 .207.236c1.052.274 2.107.532 3.179.8a.559.559 0 0 0 0-.132 13.942 13.942 0 0 0-1.482-3.892.54.54 0 0 0-.212-.22c-1.02-.479-2.045-.95-3.137-1.454m-6.95-5.3c.413 1.006.82 2.012 1.244 3.011a.416.416 0 0 0 .276.2c.505.089 1.016.146 1.522.232.575.1 1.148.214 1.812.34a9.654 9.654 0 0 0-4.854-3.779M34.222 38.8c-.229-.412-.426-.739-.6-1.08a4.131 4.131 0 0 1-.451-1.045 1.4 1.4 0 0 0-1.55-1.29 17.586 17.586 0 0 1-2.382-.392 9.682 9.682 0 0 0 4.983 3.807" style="fill:#e4d4a0" transform="translate(-21.031)"/></svg>