<svg xmlns="http://www.w3.org/2000/svg" width="39.164" height="40" fill="#e4d4a0"><defs><clipPath id="a"><path d="M0 0h39.163v40H0z" class="a"/></clipPath></defs><g style="clip-path:url(#a)"><path d="M38.252 0c.964.469 1.111.992.619 1.974a1.455 1.455 0 0 0-.036.756c.054.49.189.973.213 1.463a1.53 1.53 0 0 1-1.765 1.76 14.657 14.657 0 0 1-1.539-.234c-.66-.107-.772.007-.655.663.081.448.174.894.23 1.345a1.584 1.584 0 0 1-1.762 1.956c-.541-.022-1.077-.164-1.617-.235-.605-.079-.679 0-.584.587.068.423.16.843.224 1.267a1.685 1.685 0 0 1-2.1 2.1c-.475-.073-.945-.179-1.421-.247-.385-.055-.486.036-.446.416.042.4.132.794.192 1.192a4.916 4.916 0 0 1 .066.658 1.578 1.578 0 0 1-1.887 1.729c-.451-.047-.9-.136-1.345-.224a1.159 1.159 0 0 0-.959.152 1.135 1.135 0 0 1-1.508-.254 1.172 1.172 0 0 1 .089-1.565 2.607 2.607 0 0 1 2.077-.7c.336.015.67.07 1.049.112-.143-1.107-.3-2.226.589-3.122s2-.758 3.145-.6c-.152-1.141-.3-2.257.6-3.146s1.99-.738 3.129-.582c-.172-1.138-.3-2.25.592-3.137s1.982-.769 3.135-.584c-.032-.241-.061-.453-.087-.666A3.257 3.257 0 0 1 36.742.92a1.905 1.905 0 0 1 .959-.92ZM12.06 11.572c.2.209.4.425.611.633 1.158 1.16 2.323 2.314 3.47 3.486a.8.8 0 0 1 .213.532 21 21 0 0 0 5.712 15.761c.043.047.083.1.157.184-.188.074-.35.141-.513.2-1.276.482-2.552.96-3.827 1.445a.456.456 0 0 1-.527-.061 18.571 18.571 0 0 1-6.813-12.148 18.24 18.24 0 0 1 1.3-9.664c.04-.1.08-.191.124-.285.01-.021.038-.034.1-.083" class="a"/><path d="m15.025 34.878-3.383 1.275c-.377.142-.749.3-1.135.409a.584.584 0 0 1-.47-.083 18.236 18.236 0 0 1-5.658-9.146.79.79 0 0 1 .028-.45q1.772-4.765 3.56-9.525c.021-.056.053-.107.128-.257a21.355 21.355 0 0 0 6.93 17.778M18.74 18.298c.075.068.154.132.225.2l9.418 9.414a1.281 1.281 0 0 1 .465 1.067 1.113 1.113 0 0 1-.73.981 130.73 130.73 0 0 1-3.25 1.21.515.515 0 0 1-.417-.139 18.4 18.4 0 0 1-5.408-9.777c-.2-.963-.288-1.947-.428-2.922l.125-.037M7.789 37.597c-2.129.8-4.173 1.561-6.218 2.322a1.088 1.088 0 0 1-1.22-.275 1.135 1.135 0 0 1-.251-1.3q.825-2.189 1.644-4.38l1.269-3.384a21.515 21.515 0 0 0 4.776 7.019M23.775 4.121a12.611 12.611 0 0 1-3.586 8.207c-.132.143-.266.286-.406.421a1.168 1.168 0 1 1-1.665-1.637 12.427 12.427 0 0 0 2.105-2.795 8.338 8.338 0 0 0 .893-6.064 1.159 1.159 0 0 1 .8-1.376 1.118 1.118 0 0 1 1.427.757c.2.816.292 1.657.431 2.487M17.628 6.15a1.169 1.169 0 1 1-2.338-.016 1.169 1.169 0 0 1 2.338.016" class="a"/></g></svg>