<svg xmlns="http://www.w3.org/2000/svg" width="37.502" height="40"><path d="M172.478 173.778a19.644 19.644 0 0 0-6.2-9.411 22.231 22.231 0 0 0-10.61-4.9 1.1 1.1 0 0 0-1.216 1.492c.628 1.6 3.53 9.956-1.067 17.337a18.311 18.311 0 0 1-6.952 6.388h-1.913v-8.334a6.742 6.742 0 0 0 3.828-6.041V158.7h-8.981v11.6a6.742 6.742 0 0 0 3.828 6.041v8.334h-2.226a.663.663 0 0 0 0 1.325h2.2a18.443 18.443 0 0 1-6.3.728 1.1 1.1 0 0 0-1.016 1.663 22.5 22.5 0 0 0 4.006 4.895 19.562 19.562 0 0 0 13.53 5.407 19.489 19.489 0 0 0 19.089-24.92Zm-26.13-13.424v2.414h-4.762a.865.865 0 0 0-.218.029v-2.443Zm-5.1 9.938v-5.31a.909.909 0 0 0 .228.03h4.988v5.28a4.471 4.471 0 0 1-2.608 4.029 4.471 4.471 0 0 1-2.607-4.029Z" style="fill:#e4d4a0" transform="translate(-135.701 -158.698)"/></svg>