<svg xmlns="http://www.w3.org/2000/svg" width="40" height="40" fill="#e4d4a0"><defs><clipPath id="a"><path d="M0 20.001a20 20 0 1 0 20-20 20 20 0 0 0-20 20" class="a"/></clipPath></defs><path d="M35.029 6.393a19.3 19.3 0 0 0-20.967-5.222A21.1 21.1 0 0 0 .01 21.714 21.408 21.408 0 0 0 4.04 33.6q7.536 10.6 15.123 21.218c.846 1.193 1.764 1.193 2.612 0q7.454-10.483 14.946-20.966a21.9 21.9 0 0 0 4.124-12.338 19.83 19.83 0 0 0-5.816-15.121m-24.8 25.1v-.1a5.86 5.86 0 0 1 .1-.945 1.388 1.388 0 0 1 .074-.322c.074-.349.126-.8.173-1.145a1.417 1.417 0 0 1 .4.126 1.612 1.612 0 0 0 .4.05c.074.149.15.322.248.5a11.686 11.686 0 0 1 .323 3.134 14.479 14.479 0 0 1-1.667-1.332Zm6.815 3.556a14.547 14.547 0 0 1-4.055-1.568c.173-.745 1.418-5.856 2.113-4.129a30.259 30.259 0 0 0 2.13 5.3 2.537 2.537 0 0 0-.189.4m2.858.373a11.483 11.483 0 0 1-1.294-.1c-.248-.223-.532-.533-.349-.745 0 0 .149-.126-.149-.4a25.728 25.728 0 0 1-1.667-6.316 13.077 13.077 0 0 0 .267-2.686 3.131 3.131 0 0 1 1.294-2.336l-.056-.1s.124-.2.173-.267c0 0 .646.945.894 1.219 0 0-.322 1.019.533 1.145 0 0 .894 1.118-.1 1.816 0 0-.945.6-.671 2.395l.248.1a4 4 0 0 1 .349 1.69s-.266.323.1 1.332a12.537 12.537 0 0 1 .473 2.188s0 .573.173.647c0 0-.149.074-.2.423Zm4.5-.5a29.89 29.89 0 0 0 .349-4.451c.223-2.911.446-2.686.446-2.686A26.36 26.36 0 0 1 26.7 34.1a19.484 19.484 0 0 1-2.286.821Zm2.313-7.987s.322.024.124-.622a3.606 3.606 0 0 1 .1-1.89s0 .721.248.646a1.3 1.3 0 0 1 .224.5s-.126.373.423 1.1a1.611 1.611 0 0 1 .423.869.741.741 0 0 0 .248.549.6.6 0 0 1 .124.173 10.656 10.656 0 0 0-1.466 1.643 17.588 17.588 0 0 0-.472-2.981Zm2.71 2.612c.074.149.647.945.671.969a2.5 2.5 0 0 0-1.74-.474 6.379 6.379 0 0 1 1.1-.466Zm-1.839 4.129a15.841 15.841 0 0 1-.2-2.811 2.5 2.5 0 0 0 1.019.05 4.891 4.891 0 0 1 1.69.2 1.438 1.438 0 0 1 .224.7 14.63 14.63 0 0 1-2.738 1.839Zm4.426-3.533-.05-.074a4.372 4.372 0 0 0-.945.5 3.878 3.878 0 0 1-.2-1.989 1.718 1.718 0 0 0 .3-.3h.407a2.222 2.222 0 0 0-.846-1.89l-.124-.126c-.3-.2-.051-.572.266-.921.223.074.173-.173.173-.173a5.043 5.043 0 0 1 .548-.473 1.17 1.17 0 0 0 .076.968 1.272 1.272 0 0 1 0-.745.835.835 0 0 0 .3.871c-.533-.871.921-2.812.921-2.812 2.04-.894 0-1.33 0-1.33-.894-1.332-1.567-.322-1.567-.322s-.773-.549-1.294-.267.322 1.617.322 1.617c.349.446-.549.819-.549.819-1.145.448-.572 1.044-.572 1.044a2.853 2.853 0 0 0-.248 2.113 2.837 2.837 0 0 1 .149 1.168c-.448-.2-.6-1.33-.6-1.33-.1-1.044-.349-1.267-.349-1.267-.223-.248-.173-.3-.173-.3.149 0 .1-.05.1-.05-.149-.149-.149-1.065-.149-1.065a2.028 2.028 0 0 0-1.244-1.941c.051-.124 0-.149 0-.149a.243.243 0 0 1-.05-.149c0-.173-.15-.126-.15-.126a.688.688 0 0 1 .3-.572c.2-.15.149-.533.149-.533-.248-1.065-1.219-.423-1.219-.423l-.473-.074a.381.381 0 0 0 .094.53.377.377 0 0 0 .079.041l.124-.05c-.074.074-.05.322-.05.322-.173-.074-.051.5-.051.5-.05.074.024.3.024.3l-.126.149c-.05-.7-1.118-1.616-1.118-1.616a.414.414 0 0 1-.223-.423 2.251 2.251 0 0 0-.074-.722c-.266-1.118-.024-1.368-.024-1.368a.767.767 0 0 0 .173-.572c-.05-.533-.223-.3-.223-.3 0-.223-.173-.1-.173-.1-.126-.149-.322.126-.322.126a.266.266 0 0 0-.179.332l.006.017a1.469 1.469 0 0 0 .074.423 2.161 2.161 0 0 1 .1.969h.1l-.051 1.043a.88.88 0 0 0-.126.076.986.986 0 0 0 .126.572 5.307 5.307 0 0 0 .248.646 9.56 9.56 0 0 1 .149 5.173c-.349 1 .051.846.051.846a17.489 17.489 0 0 0-.373 4.451c0 1.863-.1 3.333-.124 3.929a15.768 15.768 0 0 1-2.686.267 1.013 1.013 0 0 0-.2-.4.663.663 0 0 0-.05-.473 4.272 4.272 0 0 1 .4-1.863 1.262 1.262 0 0 0 .1-.846 18.742 18.742 0 0 0 .5-2.13h.3a5.572 5.572 0 0 0-.172-1.368s-.1-.173.1-.745a7.759 7.759 0 0 0 .1-2.216s.772-.372-.349-1.541c0 0-.173-.05.474-1.243a1.979 1.979 0 0 0 .322-.921s-.051-.1.3-.533a3.374 3.374 0 0 0 .53-1.296.652.652 0 0 1 .223-.349 3.7 3.7 0 0 1 .065-.556c0-.2.023-.373.023-.549-.023.322-.149.3-.149.3-.074-.024 0-.267 0-.267.149-.372.051-.372.051-.372-.074 0-.173.446-.173.446-.1.373-.224.373-.224.373-.1 0-.074-.124-.074-.124.074-.373-.1-.3-.1-.3-.051 0-.051.1-.051.1v.1a.855.855 0 0 0 .074.622c.149.267-.173.672-.173.672-.623.8-.6 1.043-.6 1.043a.654.654 0 0 1-.173.448 1.389 1.389 0 0 0-.322.671c-.423-1.243-1.094-1.044-1.094-1.044-.846 0-1 1.864-1 1.864-.323-.126-.871-.945-.871-.945a1.325 1.325 0 0 0 .349-.746 5.27 5.27 0 0 1 .423-1.33.318.318 0 0 0 .05-.322 3.1 3.1 0 0 1-.149-.3c-.248-.373-.349-.266-.349-.266s.074.173.1.223c-.248-.372-.266-.3-.266-.3-.076 0-.024.1 0 .124-.1-.2-.15-.173-.15-.173-.074.051 0 .248.051.3-.074-.149-.15-.149-.15-.149-.124.124.3.7.3.7a.194.194 0 0 1 .074.248 4.352 4.352 0 0 1-.646 1.193 2.227 2.227 0 0 0-.549-.722c-.373-.423-.349-.623-.349-.623a.294.294 0 0 0-.1-.3.8.8 0 0 1-.2-.173 4.086 4.086 0 0 1-.266-.4c-.173-.373-.248-.267-.248-.267-.074.126.149.322.149.322a.268.268 0 0 0 .076.173.451.451 0 0 0-.249.074c-.266-.149-.322-.074-.322-.074a.126.126 0 0 0 0 .1c-.149-.074-.149-.024-.149-.024-.05.076.1.126.1.126a1.112 1.112 0 0 1 .322.223c0 .074.126.15.126.15.149.349.3.349.3.349.149.05.223.266.223.266a4.007 4.007 0 0 0 .821 1.494c.024.2-.322.5-.322.5a.035.035 0 0 0-.049 0c0 .149-.2.223-.2.223a1.231 1.231 0 0 0-.672.5c-.05-.149-.1 0-.1 0a2.084 2.084 0 0 1 .372-.968c.051-.051 0-.051 0-.051a.076.076 0 0 0 .051-.1c.023 0 .023-.051.023-.051.051.051.024-.024.024-.024v-.05a.426.426 0 0 0-.05-.322v-.051c-.126-.322-.3-.266-.3-.266h-.1a.42.42 0 0 0-.322-.05c.074-.1-.1 0-.1 0a.205.205 0 0 1 .126-.173c-.126 0-.173.2-.173.2-.349-.05-.266.051-.266.051-.1.023-.051.074-.051.074-.223.126-.149.2-.149.2-.1.05-.05.074-.05.074-.076.074 0 .1 0 .1.023.05 0 .05 0 .05-.1.074-.024.126-.024.126a.267.267 0 0 1 0 .2c-.074 0-.024.076-.024.076a.36.36 0 0 1 0 .248c-.05.172.074.172.074.172a.6.6 0 0 1 .051.5 1.814 1.814 0 0 1-.3-.074.342.342 0 0 1 0 .172 1.332 1.332 0 0 0-.819-.671c-.423-.149-.448-.3-.448-.3 0-.074-.074 0-.074 0a1.787 1.787 0 0 0-.6-.573.954.954 0 0 0-.2-.532c-.372-.549-.172-.8-.172-.8a.443.443 0 0 0 .09-.354.245.245 0 0 1-.024-.173c0-.223-.126-.1-.126-.1a.068.068 0 0 1-.1 0c-.323-.372-.349.024-.349.024-.15 0-.1.126-.1.126.024.05 0 .074 0 .074-.074.074 0 .173 0 .173-.1.05 0 .172 0 .172a.426.426 0 0 1 .124.323c-.1 1.193.4 1.517.4 1.517a4.054 4.054 0 0 1 .6.6.1.1 0 0 0 0 .126c.772.721.7.819.7.819 0 .223.023.473.023.473a4.019 4.019 0 0 1-.448 3.23c-.248.3-.051.322-.051.322a6.736 6.736 0 0 1-.5 1.294c-.223.623-.474 1.33-.6 1.717a7.383 7.383 0 0 0-.051-1.616v-.1a1.622 1.622 0 0 0 .15-.223s.1-.126-.2-.474a4.027 4.027 0 0 0-.6-1.791 2.1 2.1 0 0 1 0-1.89 1.6 1.6 0 0 0 .448.8 5.537 5.537 0 0 1 .5.722 2.745 2.745 0 0 0 .423.5c.474.423.373.124.373.124-.051-.05.023-.1.023-.1.322-.423-.4-.573-.4-.573-.223-.023-.3-.322-.3-.322-.267-1.145-.549-1.368-.549-1.368a1.81 1.81 0 0 1-.4-.772c-.2-1.065-.945-.772-.945-.772a.55.55 0 0 1-.533-.149.3.3 0 0 1-.03-.417.36.36 0 0 1 .03-.03c.149-.126.1-.223.1-.223v-.173c0-.224-.1-.248-.1-.248-.126-.051-.1-.15-.1-.15.024-.173-.1-.124-.1-.124-.124 0-.223-.267-.223-.267-.149-.423-.772-.124-.772-.124h-.03v.05h-.024a1.451 1.451 0 0 0-.4.671 2.106 2.106 0 0 0 .023.672A2.108 2.108 0 0 1 8 21.521a1.806 1.806 0 0 0-.572-.6C6.529 20.3 6.652 20 6.652 20c.074-.423-.074-.423-.074-.423a.467.467 0 0 1-.224-.1c-.2-.124-.2.074-.2.074 0 .051-.024.051-.024.051a.093.093 0 0 0-.074.05.241.241 0 0 0 .024.224c.074.074.05.124.05.124 0 .149.074.173.074.173a2.311 2.311 0 0 1 .533.623C7.36 22 7.757 22.07 7.757 22.07a3.036 3.036 0 0 1 1.019 1.267 2.764 2.764 0 0 0 .05 1.219.944.944 0 0 0 .2.423.374.374 0 0 1-.116.515l-.033.018c.423.05.423-.423.423-.423a2.246 2.246 0 0 1-.05.349.867.867 0 0 0 .1-.4.846.846 0 0 0 .1-.372 2.642 2.642 0 0 1 .266.532 1.565 1.565 0 0 1 0 1.065 5.4 5.4 0 0 1-.266.7 4.265 4.265 0 0 0-.373 1.118 2.13 2.13 0 0 0 0 1.044.2.2 0 0 0 .234.159.168.168 0 0 0 .033-.01 9.26 9.26 0 0 0 .248 1.667 15.229 15.229 0 0 1 10.84-25.916h.126A14.961 14.961 0 0 1 26.7 6.357h.034a15.25 15.25 0 0 1 5.234 23.75Z" class="a" style="clip-path:url(#a)" transform="translate(-.562 -.662)"/></svg>