<svg xmlns="http://www.w3.org/2000/svg" xmlns:xlink="http://www.w3.org/1999/xlink" width="40" height="40" viewBox="0 0 40 40"><defs><clipPath id="a"><rect width="40" height="40" transform="translate(3776 -5860)" fill="#fff" stroke="#707070" stroke-width="1"/></clipPath></defs><g transform="translate(-3776 5860)" clip-path="url(#a)"><g transform="translate(-81.656 -339)"><g transform="translate(3867.32 -5516.791)"><path d="M290.637,428.2a.7.7,0,0,1-.746.746H272a.746.746,0,1,1,0-1.491h8.2V420h1.491v7.456h8.2A.7.7,0,0,1,290.637,428.2Z" transform="translate(-267.522 -393.157)"/><path d="M235.633,210a8.808,8.808,0,0,1-8.128,2.833v2.386A11.17,11.17,0,0,0,238.69,226.4h4.474a11.17,11.17,0,0,0,11.185-11.185V210Z" transform="translate(-227.505 -201.052)"/><path d="M337.193,107.983A9.33,9.33,0,0,1,336,112.456h17.6v-2.983H339.43a.746.746,0,0,1,0-1.491H353.6V105H336.671a8.111,8.111,0,0,1,.522,2.983Z" transform="translate(-326.754 -105)"/></g><g transform="translate(3861.149 -5521)"><path d="M172.413,59.956a7.456,7.456,0,1,1-7.456-7.456,7.457,7.457,0,0,1,7.456,7.456" transform="translate(-157.5 -52.5)"/><g transform="translate(2.74 2.74)"><path d="M4227.125-9512.2h9.53" transform="translate(-4227.125 9516.96)" fill="none" stroke="#fff" stroke-width="1"/><path d="M0,0H9.53" transform="translate(4.765 0) rotate(90)" fill="none" stroke="#fff" stroke-width="1"/></g></g></g></g></svg>