<svg xmlns="http://www.w3.org/2000/svg" xmlns:xlink="http://www.w3.org/1999/xlink" width="40" height="40" viewBox="0 0 40 40"><defs><clipPath id="a"><rect width="40" height="40" transform="translate(3865 -5854)" fill="#fff" stroke="#707070" stroke-width="1"/></clipPath></defs><g transform="translate(-3865 5854)" clip-path="url(#a)"><g transform="translate(3826.79 -6431.699)"><g transform="translate(45.261 583.072)"><path d="M100.06,136.163a.067.067,0,0,0-.02-.007l-19.3-3.345c-.382-.066-.77.316-.867.854l-.244,1.359c-.1.538.135,1.027.517,1.093l19.3,3.345a.062.062,0,0,0,.021,0,.989.989,0,0,1-.736-1.128l.244-1.359a1,1,0,0,1,1.085-.813Zm-27.85-5.5,27.648,4.79a1.651,1.651,0,0,1,1.36,1.909l-.244,1.359a1.675,1.675,0,0,1-1.943,1.337l-27.648-4.79a1.65,1.65,0,0,1-1.36-1.909L70.267,132A1.675,1.675,0,0,1,72.21,130.665Zm28.324,4.059a2.578,2.578,0,0,0-.288-1.825c-.61-.9-1.4-1.658-1.5-2.18a2.356,2.356,0,0,1,.566-2.156,2.615,2.615,0,0,0,.371,1.964,5.42,5.42,0,0,1,1.5,2.263,1.738,1.738,0,0,1-.642,1.934Zm1.254-2.6a4.323,4.323,0,0,0-.483-3.061c-1.024-1.516-2.35-2.782-2.523-3.658a3.952,3.952,0,0,1,.949-3.616,4.387,4.387,0,0,0,.623,3.294c1.429,1.634,2.327,2.691,2.512,3.8q.386,2.312-1.078,3.244Z" transform="translate(-69.998 -121.793)"/></g><g transform="translate(38.708 586.367)"><path d="M167.935,57.718a5.218,5.218,0,1,1-5.218-5.218,5.218,5.218,0,0,1,5.218,5.218" transform="translate(-157.5 -52.5)" stroke="#fff" stroke-width="1"/><g transform="translate(1.918 1.918)"><path d="M4227.125-9512.2h6.669" transform="translate(-4227.125 9515.529)" fill="none" stroke="#fff" stroke-width="1"/><path d="M0,0H6.669" transform="translate(3.334 0) rotate(90)" fill="none" stroke="#fff" stroke-width="1"/></g></g></g></g></svg>