<svg xmlns="http://www.w3.org/2000/svg" xmlns:xlink="http://www.w3.org/1999/xlink" width="40" height="40" viewBox="0 0 40 40"><defs><clipPath id="a"><rect width="40" height="40" transform="translate(3941 -5854)" fill="#fff" stroke="#707070" stroke-width="1"/></clipPath></defs><g transform="translate(-3941 5854)" clip-path="url(#a)"><g transform="translate(3943.925 -5852.944)"><path d="M8.294,6H34.855a3.794,3.794,0,0,1,3.794,3.794V36.355a3.794,3.794,0,0,1-3.794,3.794H8.294A3.794,3.794,0,0,1,4.5,36.355V9.794A3.794,3.794,0,0,1,8.294,6Z" transform="translate(-4.5 -2.206)" fill="none" stroke="#e8d48a" stroke-linecap="round" stroke-linejoin="round" stroke-width="2"/><path d="M24,3v7.589" transform="translate(0.664 -3)" fill="none" stroke="#e8d48a" stroke-linecap="round" stroke-linejoin="round" stroke-width="2"/><path d="M12,3v7.589" transform="translate(-2.514 -3)" fill="none" stroke="#e8d48a" stroke-linecap="round" stroke-linejoin="round" stroke-width="2"/><path d="M4.5,15H38.649" transform="translate(-4.5 0.178)" fill="none" stroke="#e8d48a" stroke-linecap="round" stroke-linejoin="round" stroke-width="2"/></g></g></svg>