<svg xmlns="http://www.w3.org/2000/svg" width="96.758" height="96.758" viewBox="0 0 96.758 96.758"><path d="M0,28.22V0H28.22V28.22Z" fill="#4a1b3d"/><path d="M0,28.222V0H28.22V28.222Z" transform="translate(0 68.536)" fill="#4a1b3d"/><path d="M0,28.22V0H28.22V28.22Z" transform="translate(68.537)" fill="#4a1b3d"/><path d="M20.157,0V24.189H0v8.062H28.221V0Z" transform="translate(68.537 36.284)" fill="#4a1b3d" opacity="0.5"/><path d="M0,0V20.157H8.062V8.062H20.157V20.157h8.064V0Z" transform="translate(68.537 76.601)" fill="#4a1b3d"/><path d="M0,0V8.064H16.126V28.221h8.064V0Z" transform="translate(36.284)" fill="#4a1b3d" opacity="0.5"/><path d="M16.126,0V16.127H0V40.317H16.126V60.474h8.064V32.252H8.064V24.189H24.189V8.064h8.064v8.064h8.062V0Z" transform="translate(36.284 36.284)" fill="#4a1b3d"/><rect width="8.064" height="12.095" transform="translate(36.284 84.663)" fill="#4a1b3d" opacity="0.5"/><rect width="12.095" height="8.062" transform="translate(16.126 52.411)" fill="#4a1b3d" opacity="0.5"/><path d="M36.284,0V20.158H0V44.348H8.064V28.222H44.348V0Z" transform="translate(0 16.126)" fill="#4a1b3d" opacity="0.5"/></svg>