<svg xmlns="http://www.w3.org/2000/svg" xmlns:xlink="http://www.w3.org/1999/xlink" width="50" height="50" viewBox="0 0 50 50"><defs><clipPath id="a"><rect width="50" height="50" transform="translate(2067 1197)" fill="#ae3a3a"/></clipPath></defs><g transform="translate(-2067 -1197)" clip-path="url(#a)"><g transform="translate(1913.449 848.626)"><g transform="translate(160.196 348.374)"><path d="M-2687.105-39.742q.252-.055.5-.119.844-.215,1.649-.507v-9.455a2.376,2.376,0,0,1,1.857-2.264l9.64-1.92a17.838,17.838,0,0,0,.063-5.9,17.468,17.468,0,0,0-12.782-14.46,1.212,1.212,0,0,1-.582-.454A5.171,5.171,0,0,0-2689.74-77c-.234-.066-.474-.109-.736-.167v-3.892c0-.452-.224-.729-.563-.7-.4.028-.551.3-.551.677v3.856l-.01,0c-.059.06-.068.082-.081.082l-.454.1a4.9,4.9,0,0,0-3.161,2.2,1.138,1.138,0,0,1-.709.525,17.884,17.884,0,0,0-2.732,1.037h0c-.377.178-.735.37-1.05.541a16.558,16.558,0,0,0-4.3,3.391l0-.012a17.845,17.845,0,0,0-4.6,14.945,17.857,17.857,0,0,0,20.393,14.9Q-2687.69-39.609-2687.105-39.742Zm12.781-18.47c.033.942-.026,1.889-.063,2.834,0,.11-.092.3-.18.326-1.245.4-2.5.78-3.737,1.161l0-6.495c.958.27,1.956.527,2.936.832S-2674.358-59.23-2674.324-58.212Zm-6.03-9.069.007.013c1.286.6,2.492,1.148,3.693,1.712a.626.626,0,0,1,.249.259,16.391,16.391,0,0,1,1.745,4.582.687.687,0,0,1,0,.155c-1.262-.313-2.5-.617-3.744-.94a.436.436,0,0,1-.244-.279,22.8,22.8,0,0,0-1.705-5.254A1.411,1.411,0,0,1-2680.354-67.281Zm-8.182-6.244a11.37,11.37,0,0,1,5.714,4.45c-.782-.146-1.457-.285-2.134-.4-.6-.1-1.2-.166-1.792-.272a.49.49,0,0,1-.324-.23c-.5-1.169-.979-2.362-1.464-3.546Zm-15.23,19.57c-.577-.141-1.219-.277-1.85-.453a17.511,17.511,0,0,1-1.715-.573.646.646,0,0,1-.364-.432c-.027-1.158-.02-2.32,0-3.48a.491.491,0,0,1,.244-.378c1.23-.4,2.47-.767,3.687-1.139Zm2.25-10.632c.34-.942.792-1.85,1.2-2.767.07-.13.169-.306.284-.333,1.51-.333,3.021-.65,4.582-.981l-.993,6.188-5.906.681C-2702.063-62.764-2701.845-63.7-2701.517-64.588Zm1.307,17.793a19.231,19.231,0,0,1-2.063-5.689l5.86.664h-.024l1,6.115c-.614-.091-1.263-.166-1.911-.292-.82-.16-1.636-.353-2.448-.549A.681.681,0,0,1-2700.209-46.8Zm6.831,6.069a11.4,11.4,0,0,1-5.863-4.483,20.725,20.725,0,0,0,2.811.463c.024,0,.046,0,.069-.006a1.644,1.644,0,0,1,1.758,1.519,4.853,4.853,0,0,0,.53,1.233c.2.406.431.785.7,1.271Zm-1.959-12.145a62.079,62.079,0,0,1,0-8.561h8.568a55.374,55.374,0,0,1,0,8.561Z" transform="translate(2708.901 81.758)" fill="#dedede"/><path d="M-2447,283.211a.546.546,0,0,0-.259-.009l-.04.008-9.378,1.769a1.921,1.921,0,0,0-1.483,1.806v9.52l-1.022,0c-.4,0-.492,0-.521,0h-.445l-.08.01a3.835,3.835,0,0,0-3.06,4.127,3.872,3.872,0,0,0,3.6,3.55,3.865,3.865,0,0,0,4.111-3.852V290.5l6.917-1.378v4.546h-1.988v.057a3.85,3.85,0,0,0-3.153,3.777,3.865,3.865,0,0,0,3.935,3.86,3.9,3.9,0,0,0,3.787-3.924V284.5A1.3,1.3,0,0,0-2447,283.211Z" transform="translate(2482.949 -254)" fill="#dedede"/></g><path d="M-9985.114-17713.627l-37.509,37.506" transform="translate(10182.174 18068.943)" fill="none" stroke="#deaa1a" stroke-linecap="round" stroke-width="4"/></g></g></svg>