<svg xmlns="http://www.w3.org/2000/svg" xmlns:xlink="http://www.w3.org/1999/xlink" width="50" height="50" viewBox="0 0 50 50"><defs><clipPath id="a"><rect width="50" height="50" transform="translate(2571 1170)" fill="#ae3a3a"/></clipPath><linearGradient id="b" x1="0.5" x2="0.5" y2="1" gradientUnits="objectBoundingBox"><stop offset="0" stop-color="#f7ce73"/><stop offset="1" stop-color="#dda918"/></linearGradient></defs><g transform="translate(-2571 -1170)" clip-path="url(#a)"><g transform="translate(2432.646 825.001)"><path d="M39.89,0c.061.036.123.072.186.1a8.119,8.119,0,0,1,.89.652,15.068,15.068,0,0,1,1.62,1.491,14.189,14.189,0,0,1,.955,1.146,1.867,1.867,0,0,1,.349.631.356.356,0,0,1,.022.38,1.186,1.186,0,0,1-.462.065q-.4,0-.8-.008c.1.07.2.142.3.219a16.55,16.55,0,0,1,2.625,2.492,6.389,6.389,0,0,1,.539.719c.191.149.378.3.567.455A15.12,15.12,0,0,1,48.3,9.926a7.126,7.126,0,0,1,.99,1.328.537.537,0,0,1,.089.563l-.022.017a3.516,3.516,0,0,1-.611.1c-.577.05-1.156.084-1.735.106-2.18.085-4.361.145-6.542.2-3.422.091-6.847.116-10.269-.012-3.85-.1-7.693-.358-11.526-.714-3.774-.344-7.541-.762-11.289-1.31Q6.6,10.081,5.822,9.96a3.706,3.706,0,0,1-1.5-.429A9.606,9.606,0,0,1,2.451,8.124,15.164,15.164,0,0,1,.876,6.513C.665,6.294-.53,4.738.276,4.843c.629.145,1.275.218,1.913.323q.654.1,1.309.195c-.241-.251-.473-.51-.7-.772a4.087,4.087,0,0,1-.735-1.123A.34.34,0,0,1,2.04,3.1a1.213,1.213,0,0,1,.492-.069c.237,0,.474.014.711.025l-.123-.09A15.868,15.868,0,0,1,.6.582" transform="translate(138.354 368.668) rotate(-3)" fill="#2a2a2a"/><g transform="matrix(0.788, -0.616, 0.616, 0.788, 139.373, 369.411)"><g transform="translate(10.075 0)"><path d="M11.549,15.705c-1.659,0-3.727-1.114-5.359-2.209A25.074,25.074,0,0,1,.311,8.127h0c-.38-.551-.6-1.534.493-3.084A12.893,12.893,0,0,1,3.97,2.073C6.613.254,9.79-.841,10.93.815a25.077,25.077,0,0,1,2.919,7.407c.59,2.565.933,5.871-.787,7.056A2.61,2.61,0,0,1,11.549,15.705ZM.989,7.66a24.329,24.329,0,0,0,5.659,5.153c2.749,1.845,4.917,2.5,5.948,1.787s1.2-2.967.452-6.194a24.33,24.33,0,0,0-2.795-7.125C9.577.3,7.077.932,4.436,2.751S.314,6.679.989,7.66Z" transform="translate(0)" fill="url(#b)"/></g><rect width="1.663" height="11.951" transform="matrix(0.824, -0.567, 0.567, 0.824, 22.214, 15.404)" fill="url(#b)"/><path d="M.864,0H7.449a.864.864,0,0,1,.864.864v0a.864.864,0,0,1-.864.864H.864A.864.864,0,0,1,0,.864v0A.864.864,0,0,1,.864,0Z" transform="matrix(0.824, -0.567, 0.567, 0.824, 25.601, 26.185)" fill="url(#b)"/><g transform="translate(11.001 1.097)"><path d="M.411,6.789a.411.411,0,0,1-.122-.8A17.141,17.141,0,0,0,8.666.16a.411.411,0,0,1,.651.5A17.971,17.971,0,0,1,.534,6.77.412.412,0,0,1,.411,6.789Z" transform="translate(0 0)" fill="url(#b)"/></g><path d="M12.8,2.729a1.331,1.331,0,0,0-1.356-1.017,4.877,4.877,0,0,0-1.763.668,2.289,2.289,0,0,1-1.825.253C7.06,2.308,6.728,1.28,5.929.969a3.969,3.969,0,0,0-1.879.075A7.507,7.507,0,0,1,.051,0C-.065.041.046.234.1.292a5.986,5.986,0,0,0,2.16,2.3A35.075,35.075,0,0,0,5.664,5.308a12.166,12.166,0,0,0,4.02,1.842,2.855,2.855,0,0,0,2.14-.255A2.736,2.736,0,0,0,12.7,5.6,5.441,5.441,0,0,0,12.8,2.729Z" transform="translate(10.976 7.84)" fill="url(#b)"/><path d="M3.037,1.5A2.3,2.3,0,0,0,1.124.008,1.286,1.286,0,0,0,.378.133.7.7,0,0,0,0,.757c.024.395.456.648.851.67a10.931,10.931,0,0,0,1.177-.132A2.252,2.252,0,0,1,3.037,1.5Z" transform="translate(5.763 3.172)" fill="url(#b)"/><path d="M2.32.169A3.722,3.722,0,0,0,1.109.007,1.262,1.262,0,0,0,.092.6a.774.774,0,0,0,.3,1.05,1.045,1.045,0,0,0,1.128-.441A3.78,3.78,0,0,1,2.382.248C2.517.295,2.684.259,2.32.169Z" transform="translate(1.239 3.224)" fill="url(#b)"/><path d="M1.844.006A2.024,2.024,0,0,0,.66.256,1.329,1.329,0,0,0,0,1.241a1,1,0,0,0,.566,1,.8.8,0,0,0,1.025-.405,2.254,2.254,0,0,0-.028-1C1.537.491,1.677.068,1.844.006Z" transform="matrix(0.799, 0.602, -0.602, 0.799, 3.457, 5.338)" fill="url(#b)"/><path d="M1.844.006A2.024,2.024,0,0,0,.66.256,1.329,1.329,0,0,0,0,1.241a1,1,0,0,0,.566,1,.8.8,0,0,0,1.025-.405,2.254,2.254,0,0,0-.028-1C1.537.491,1.677.068,1.844.006Z" transform="matrix(0, 1, -1, 0, 2.296, 0.027)" fill="url(#b)"/></g></g></g></svg>