<svg xmlns="http://www.w3.org/2000/svg" xmlns:xlink="http://www.w3.org/1999/xlink" width="50" height="50" viewBox="0 0 50 50"><defs><clipPath id="a"><rect width="50" height="50" transform="translate(2396 1182)" fill="#ae3a3a"/></clipPath></defs><g transform="translate(-2396 -1182)" clip-path="url(#a)"><g transform="translate(2238.53 829.251)"><g transform="translate(162.612 352.749)"><path d="M491.27,490.171v5.646a5.7,5.7,0,0,1,3.614-1.28H498.8V490.18a3.764,3.764,0,1,0-7.528,0h0Z" transform="translate(-480.546 -466.009)" fill="#cdcdcd"/><path d="M501.956,495.585v-5.932a3.764,3.764,0,1,0-7.528,0h0v5.932Z" transform="translate(-474.195 -467.069)" fill="#cdcdcd"/><path d="M525.2,510.991l-.06.03-.151,7.137v.081a4.958,4.958,0,0,1-5.035,4.8h-26a4.961,4.961,0,0,1-5.035-4.8v-4.417a.192.192,0,0,0,0-.181l-1.2-28.486a3.758,3.758,0,0,1,7.5-.482l1.084,26.047a5.784,5.784,0,0,0,5.751,5.721h10.63a1.009,1.009,0,1,0,0-2.017h-10.63a3.764,3.764,0,0,1,0-7.528h19.332a3.766,3.766,0,0,1,3.764,3.764A1.08,1.08,0,0,0,525.2,510.991Z" transform="translate(-487.709 -476.389)" fill="#cdcdcd"/><path d="M497.6,508.158h3.872a5.706,5.706,0,0,1,3.86,1.506l.545-26.27h0a3.764,3.764,0,1,0-7.528.021h0Z" transform="translate(-467.817 -479.639)" fill="#cdcdcd"/></g><path d="M-9979.186-17713.625l-43.437,43.436" transform="translate(10182.173 18070.955)" fill="none" stroke="#deaa1a" stroke-linecap="round" stroke-width="4"/></g></g></svg>