<svg xmlns="http://www.w3.org/2000/svg" width="123.567" height="114.455" viewBox="0 0 123.567 114.455">
  <g id="no_connectiojn" data-name="no connectiojn" transform="translate(9977 15784.455)">
    <g id="Layer_64" data-name="Layer 64" transform="translate(-9977 -15784.455)">
      <path id="Path_462204" data-name="Path 462204" d="M8.825,93.086a1.013,1.013,0,1,1-1.6,1.241c-.832-1.075-1.642-2.2-2.408-3.334a1.012,1.012,0,1,1,1.678-1.131Q7.607,91.514,8.825,93.086Zm23.342,18.086c-1.207-.52-2.418-1.089-3.6-1.694a1.013,1.013,0,0,0-.923,1.8c1.222.624,2.476,1.214,3.724,1.749a.986.986,0,0,0,.4.083,1.012,1.012,0,0,0,.4-1.941ZM41.6,114.3c-1.3-.31-2.59-.666-3.832-1.055a1.012,1.012,0,1,0-.607,1.929c1.287.4,2.623.773,3.971,1.095a.955.955,0,0,0,.235.028,1.012,1.012,0,0,0,.233-2Zm-18.2-7.8q-1.672-1.082-3.264-2.275a1.012,1.012,0,1,0-1.212,1.621c1.1.824,2.238,1.616,3.375,2.354a1.013,1.013,0,1,0,1.1-1.7Zm-10.69-8.878a1.012,1.012,0,0,0-1.466,1.4c.944.99,1.93,1.96,2.933,2.884a1.012,1.012,0,0,0,1.37-1.49C14.58,99.511,13.625,98.573,12.713,97.614Zm38.711,18.162c-1.328-.085-2.659-.218-3.957-.389a.988.988,0,0,0-1.138.868,1.012,1.012,0,0,0,.869,1.136c1.344.182,2.722.316,4.1.4.023,0,.045,0,.066,0a1.012,1.012,0,0,0,.064-2.022Zm28.988-5.552c-1.2.571-2.425,1.1-3.644,1.587a1.012,1.012,0,0,0,.372,1.953.986.986,0,0,0,.372-.071c1.262-.5,2.532-1.05,3.773-1.643a1.012,1.012,0,1,0-.872-1.826Zm-9.3,3.494c-1.264.356-2.563.674-3.863.945a1.012,1.012,0,0,0,.206,2,.932.932,0,0,0,.207-.022c1.345-.281,2.69-.609,4-.976a1.012,1.012,0,1,0-.546-1.949Zm-9.756,1.864c-1.322.136-2.657.229-3.967.275a1.012,1.012,0,1,0,.035,2.024h.036c1.355-.047,2.736-.144,4.105-.287a1.012,1.012,0,1,0-.21-2.012ZM84.723,6.473q1.722,1.005,3.368,2.121a1,1,0,0,0,.567.174,1.012,1.012,0,0,0,.568-1.85c-1.129-.765-2.3-1.5-3.481-2.192a1.012,1.012,0,1,0-1.022,1.747Zm26.618,33.474a1.012,1.012,0,0,0,.967.713.976.976,0,0,0,.3-.045,1.012,1.012,0,0,0,.67-1.265c-.4-1.3-.854-2.611-1.346-3.89a1.012,1.012,0,0,0-1.889.727c.476,1.235.915,2.5,1.3,3.759Zm-8.95-17.653a1.013,1.013,0,0,0,1.625-1.209c-.814-1.095-1.677-2.176-2.563-3.216a1.012,1.012,0,1,0-1.54,1.312Q101.2,20.7,102.391,22.294Zm-6.574-7.453a1.012,1.012,0,1,0,1.4-1.462c-.994-.953-2.026-1.876-3.064-2.745a1.012,1.012,0,1,0-1.3,1.553C93.858,13.027,94.855,13.92,95.817,14.841Zm11.8,15.9a1.012,1.012,0,0,0,1.8-.917c-.619-1.222-1.288-2.433-1.986-3.6a1.012,1.012,0,1,0-1.737,1.036c.674,1.132,1.32,2.3,1.919,3.484ZM112.8,45.722c.256,1.291.472,2.611.642,3.925a1.012,1.012,0,0,0,1,.882.984.984,0,0,0,.131-.008,1.014,1.014,0,0,0,.874-1.135c-.176-1.358-.4-2.725-.666-4.059a1,1,0,0,0-1.19-.795,1.012,1.012,0,0,0-.794,1.19Zm1.106,9.872q.022.8.022,1.611a1.012,1.012,0,0,0,1.01,1.014h0a1.012,1.012,0,0,0,1.012-1.01q0-.836-.022-1.67a1.075,1.075,0,0,0-1.04-.984,1.012,1.012,0,0,0-.984,1.039ZM24.635,6.976a1,1,0,0,0,.519-.144l.607-.358a1.012,1.012,0,1,0-1.024-1.747l-.624.369a1.012,1.012,0,0,0,.521,1.88Zm-8.2,5.91a1.015,1.015,0,0,0,.658-.243c1.012-.868,2.056-1.7,3.106-2.484a1.013,1.013,0,1,0-1.209-1.625c-1.086.81-2.167,1.676-3.213,2.57a1.012,1.012,0,0,0,.658,1.781ZM3.043,28.232a1.013,1.013,0,0,0,1.383-.368c.662-1.142,1.373-2.277,2.11-3.372a1.012,1.012,0,1,0-1.678-1.13c-.763,1.132-1.5,2.3-2.183,3.486a1.012,1.012,0,0,0,.368,1.383Zm6.294-8.148a1.012,1.012,0,0,0,.779-.364c.843-1.014,1.733-2.014,2.646-2.973a1.012,1.012,0,1,0-1.466-1.4c-.944.992-1.865,2.026-2.736,3.071a1.012,1.012,0,0,0,.777,1.66Zm115.683,71.1a24.762,24.762,0,0,1-45.361,13.751,53.71,53.71,0,1,1,28.181-37.322A24.809,24.809,0,0,1,125.021,91.187ZM103.894,66.714a49.794,49.794,0,0,0,.873-7.483h-19.1c-.072,3.834-.344,8.129-.793,12.568a24.211,24.211,0,0,1,19.018-5.085ZM73.452,103.329a32.846,32.846,0,0,0,2.69-6.535,24.683,24.683,0,0,1-.665-5.608c0-.482.045-.954.072-1.43a82.89,82.89,0,0,0-18.285-2.39v19.359A49.736,49.736,0,0,0,73.452,103.329Zm-20.235,3.409V87.36a80.678,80.678,0,0,0-20.755,3.051,49.156,49.156,0,0,0,4.4,12.836,49.242,49.242,0,0,0,16.35,3.493ZM28.609,91.688A49.1,49.1,0,0,0,22.5,94.4a49.8,49.8,0,0,0,8.7,6.152,73.549,73.549,0,0,1-2.591-8.864Zm3.829-67.669a80.675,80.675,0,0,0,20.78,3.057V7.675A49.239,49.239,0,0,0,36.789,11.2a50.251,50.251,0,0,0-4.351,12.82ZM31.151,13.891a49.806,49.806,0,0,0-8.664,6.139,49.033,49.033,0,0,0,6.1,2.712,74.529,74.529,0,0,1,2.565-8.851ZM57.265,7.675v19.4a80.789,80.789,0,0,0,20.588-3.005A49.823,49.823,0,0,0,73.434,11.1,49.244,49.244,0,0,0,57.265,7.675ZM81.709,22.806a49.227,49.227,0,0,0,6.285-2.779,49.8,49.8,0,0,0-8.92-6.285,74.163,74.163,0,0,1,2.635,9.064ZM57.265,55.183H81.615A167.44,167.44,0,0,0,78.69,28.026a85.125,85.125,0,0,1-21.425,3.1ZM31.6,27.973a167.418,167.418,0,0,0-2.934,27.211H53.218V31.123A85.006,85.006,0,0,1,31.6,27.973ZM28.664,59.231a166.415,166.415,0,0,0,2.952,27.228,84.989,84.989,0,0,1,21.6-3.145V59.231ZM80.242,76.641a163.652,163.652,0,0,0,1.379-17.411H57.265V83.32A87.236,87.236,0,0,1,76.1,85.732a24.634,24.634,0,0,1,4.139-9.09Zm10.8-53.683a52.426,52.426,0,0,1-8.484,3.831,176.773,176.773,0,0,1,3.1,28.394h19.111A49.4,49.4,0,0,0,91.044,22.958ZM5.709,55.183H24.617a176.736,176.736,0,0,1,3.117-28.462,52.267,52.267,0,0,1-8.3-3.762A49.4,49.4,0,0,0,5.709,55.183ZM19.452,91.47a52.318,52.318,0,0,1,8.3-3.762,175.7,175.7,0,0,1-3.136-28.477H5.709A49.394,49.394,0,0,0,19.452,91.47Zm101.521-.283a20.724,20.724,0,1,0-20.724,20.724,20.724,20.724,0,0,0,20.724-20.724Zm-4.048,0a16.7,16.7,0,0,1-24.753,14.605,2.024,2.024,0,0,1-.458-3.206l19.934-19.934a2.022,2.022,0,0,1,3.206.459A16.854,16.854,0,0,1,116.925,91.187Zm-4.048,0a12.735,12.735,0,0,0-.5-3.536L96.708,103.318a12.654,12.654,0,0,0,16.17-12.131Zm-4.094-11.38L88.869,99.721a2.028,2.028,0,0,1-1.431.593,1.888,1.888,0,0,1-.279-.02,2.02,2.02,0,0,1-1.488-1.02A16.67,16.67,0,0,1,100.249,74.51a16.41,16.41,0,0,1,8.09,2.1,2.024,2.024,0,0,1,.445,3.2Zm-4.98-.743A12.629,12.629,0,0,0,88.131,94.735Z" transform="translate(-1.453 -3.426)" fill="#c0c8d3"/>
    </g>
  </g>
</svg>
