<svg xmlns="http://www.w3.org/2000/svg" width="28.24" height="28.584" viewBox="0 0 28.24 28.584">
  <g id="Icon_feather-camera" data-name="Icon feather-camera" transform="translate(1 1)">
    <path id="Path_461774" data-name="Path 461774" d="M27.74,28.13a2.716,2.716,0,0,1-2.385,2.954H3.885A2.716,2.716,0,0,1,1.5,28.13V11.884A2.716,2.716,0,0,1,3.885,8.931H8.656L11.042,4.5H18.2l2.385,4.431h4.771a2.716,2.716,0,0,1,2.385,2.954Z" transform="translate(-1.5 -4.5)" fill="none" stroke="#fff" stroke-linecap="round" stroke-linejoin="round" stroke-width="2"/>
    <path id="Path_461775" data-name="Path 461775" d="M24,19.5a6,6,0,1,1-6-6,6,6,0,0,1,6,6Z" transform="translate(-5 -4.916)" fill="none" stroke="#fff" stroke-linecap="round" stroke-linejoin="round" stroke-width="2"/>
  </g>
</svg>
