<svg xmlns="http://www.w3.org/2000/svg" width="75.418" height="45.987" viewBox="0 0 75.418 45.987">
  <g id="membership" transform="translate(-227.5 -484.086)">
    <g id="Group_340765" data-name="Group 340765" transform="translate(604 365.5)">
      <path id="Path_461728" data-name="Path 461728" d="M78,11.5H4.42a.911.911,0,0,0-.92.92V56.567a.911.911,0,0,0,.92.92H78a.911.911,0,0,0,.92-.92V12.42A.911.911,0,0,0,78,11.5Zm-.92,44.147H5.339V24.376H77.079Zm0-37.709v4.6H5.339v-9.2H77.079Z" transform="translate(-380 107.086)" fill="#c0c8d3"/>
      <path id="Path_461730" data-name="Path 461730" d="M9.381,36.84H19.959a.873.873,0,0,0,.881-.881V25.381a.873.873,0,0,0-.881-.881H9.381a.873.873,0,0,0-.881.881V35.959A.873.873,0,0,0,9.381,36.84Zm.881-10.577h8.815v8.815H10.263Z" transform="translate(-377.185 119.918)" fill="#c0c8d3"/>
    </g>
  </g>
</svg>
