<svg xmlns="http://www.w3.org/2000/svg" width="74.13" height="77.922" viewBox="0 0 74.13 77.922">
  <g id="pending" transform="translate(-150 -463.078)">
    <path id="Path_461731" data-name="Path 461731" d="M74.931,48.655A13.135,13.135,0,1,1,61.8,35.521,13.149,13.149,0,0,1,74.931,48.655ZM64.339,63.871a15.488,15.488,0,0,1-4.711.058v6.538a1.146,1.146,0,0,1-1.147,1.146H12.39v4.712H64.34V63.871ZM5.386,69.321V16.084H17.34a1.145,1.145,0,0,0,1.146-1.146V2.986H57.337v30.9a15.492,15.492,0,0,0-9.993,9.373h-34.3a1.146,1.146,0,0,0,0,2.292H46.683a15.459,15.459,0,0,0-.047,5.96H13.046a1.146,1.146,0,0,0,0,2.292H47.254a15.5,15.5,0,0,0,10.083,9.618v5.9H5.386ZM7.007,13.792h9.188V4.6L7.007,13.792Zm52.622-3.8V33.381a15.317,15.317,0,0,1,2.168-.153,15.531,15.531,0,0,1,2.543.21V9.987Zm7,53.316V77.47a1.146,1.146,0,0,1-1.146,1.146H11.244A1.147,1.147,0,0,1,10.1,77.47V71.612H4.24a1.146,1.146,0,0,1-1.146-1.146V14.938a1.146,1.146,0,0,1,.336-.81l13.1-13.1a1.148,1.148,0,0,1,.811-.334H58.483A1.145,1.145,0,0,1,59.63,1.84V7.7h5.856a1.146,1.146,0,0,1,1.146,1.147V34.005a15.426,15.426,0,0,1,0,29.3ZM49.678,59.766H13.046a1.146,1.146,0,0,0,0,2.292H49.678a1.146,1.146,0,0,0,0-2.292ZM13.046,37.3H49.678a1.146,1.146,0,0,0,0-2.292H13.046a1.146,1.146,0,0,0,0,2.292Zm0-8.254H49.678a1.146,1.146,0,0,0,0-2.292H13.046a1.146,1.146,0,0,0,0,2.292ZM25.3,12.537H49.677a1.146,1.146,0,0,0,0-2.292H25.3a1.146,1.146,0,1,0,0,2.292ZM11.9,19.645a1.145,1.145,0,0,0,1.146,1.147H49.678a1.146,1.146,0,0,0,0-2.292H13.046A1.147,1.147,0,0,0,11.9,19.645Z" transform="translate(146.906 462.384)" fill="#c0c8d3" fill-rule="evenodd"/>
    <path id="Path_461717" data-name="Path 461717" d="M29.82,13.866h2.164V13H19v.866h2.164v4.112L24.93,20.7l-3.722,2.727v4.285H19v.866H31.984v-.866H29.864V23.431L26.055,20.7l3.765-2.727ZM29,23.885v3.83H22.073v-3.83l3.419-2.51Zm-.043-6.341-3.462,2.489L22.03,17.545V13.866h6.925Z" transform="translate(184 490.039)" fill="#c0c8d3"/>
  </g>
</svg>
