<svg xmlns="http://www.w3.org/2000/svg" width="75.694" height="77.921" viewBox="0 0 75.694 77.921">
  <g id="take_a_selfie" data-name="take a selfie" transform="translate(14139.114 6339)">
    <path id="Path_461713" data-name="Path 461713" d="M77.777,1.5H3.69a.8.8,0,0,0-.8.8V78.618a.8.8,0,0,0,.8.8H77.777a.8.8,0,0,0,.8-.8V2.3A.8.8,0,0,0,77.777,1.5ZM4.519,77.815c.529-15.772,16.564-28.473,36.214-28.473s35.686,12.7,36.216,28.473ZM40.733,47.735c-17.081,0-31.547,9.283-36.239,21.988V3.107H76.974V69.724C72.281,57.018,57.814,47.735,40.733,47.735Z" transform="translate(-14142 -6340.5)" fill="#c0c8d3"/>
    <path id="Path_461714" data-name="Path 461714" d="M46.326,17.122A15.008,15.008,0,1,0,61.335,32.13,15.024,15.024,0,0,0,46.326,17.122Zm0,28.409a13.4,13.4,0,1,1,13.4-13.4A13.417,13.417,0,0,1,46.326,45.531Z" transform="translate(-14147.592 -6343.573)" fill="#c0c8d3"/>
  </g>
</svg>
