<svg xmlns="http://www.w3.org/2000/svg" width="92" height="85.7" viewBox="0 0 92 85.7">
  <g id="upgrade" transform="translate(12198 8403)">
    <g id="Group_340763" data-name="Group 340763" transform="translate(-12202 -8410.1)">
      <path id="Path_461724" data-name="Path 461724" d="M39.8,71.9h7.9a1,1,0,0,0,0-2H39.8a1,1,0,0,0,0,2Z" fill="#c0c8d3"/>
      <path id="Path_461725" data-name="Path 461725" d="M59.3,75.9H39.8a1,1,0,0,0,0,2H59.4a.945.945,0,0,0,1-1A1.028,1.028,0,0,0,59.3,75.9Z" fill="#c0c8d3"/>
      <path id="Path_461726" data-name="Path 461726" d="M87.8,80.3a4.4,4.4,0,1,0,4.4,4.4A4.375,4.375,0,0,0,87.8,80.3Zm0,6.8a2.4,2.4,0,1,1,2.4-2.4A2.369,2.369,0,0,1,87.8,87.1Z" fill="#c0c8d3"/>
      <path id="Path_461727" data-name="Path 461727" d="M95,53.4H73.7L89.5,37.6a.967.967,0,0,0,0-1.4L60.6,7.4a.967.967,0,0,0-1.4,0L4.3,62.3a.967.967,0,0,0,0,1.4L33.1,92.5a.908.908,0,0,0,.7.3H95a.945.945,0,0,0,1-1V54.4A1,1,0,0,0,95,53.4Zm-1,5.2H35.3V55.4H94Zm0,2v4.3H35.3V60.6H94Zm-77.3-2L55.5,19.8a6.679,6.679,0,0,0,4.1,1.3,6.829,6.829,0,0,0,4-1.3L77.1,33.3a6.75,6.75,0,0,0,0,8.1l-12,12H59.3a12.861,12.861,0,0,0-19.7-14,11.92,11.92,0,0,0-1.8,1.5c-.6.7-1.2,1.4-1.7,2.1a12.764,12.764,0,0,0-1.6,10.4h-.2a.945.945,0,0,0-1,1V78.9a7.1,7.1,0,0,0-3.1,1.3L16.7,66.7a6.6,6.6,0,0,0,1.3-4A7.387,7.387,0,0,0,16.7,58.6Zm35.1-5.2a2.934,2.934,0,0,0,.4-1.6,3.74,3.74,0,0,0-1-2.5,3.693,3.693,0,0,0-5,0,1.569,1.569,0,0,1-2.2,0,1.46,1.46,0,0,1,0-2.2h0l1.8-1.8a.99.99,0,0,0-1.4-1.4L43.2,45l-.4-.4A.99.99,0,0,0,41.4,46l.5.5a3.287,3.287,0,0,0-.4,1.7,3.552,3.552,0,0,0,1,2.5,3.693,3.693,0,0,0,5,0,1.569,1.569,0,0,1,2.2,0,1.46,1.46,0,0,1,0,2.2l-.5.5H36.6A11.16,11.16,0,0,1,37.8,44a21.965,21.965,0,0,1,1.4-1.8A7.886,7.886,0,0,1,40.7,41a10.77,10.77,0,0,1,13.8,1.2h0a10.844,10.844,0,0,1,2.6,11.1H51.8ZM6.4,63,59.9,9.5,87.3,37,70.9,53.4h-3L79.2,42.1a.967.967,0,0,0,0-1.4,4.769,4.769,0,0,1,0-6.8.967.967,0,0,0,0-1.4L64.4,17.7a.908.908,0,0,0-.7-.3h0a.908.908,0,0,0-.7.3,4.762,4.762,0,0,1-3.4,1.4h0a4.762,4.762,0,0,1-3.4-1.4.967.967,0,0,0-1.4,0L14.6,57.9a.967.967,0,0,0,0,1.4,4.829,4.829,0,0,1,0,6.8.967.967,0,0,0,0,1.4L29.4,82.3a.967.967,0,0,0,1.4,0A4.656,4.656,0,0,1,33.3,81v9ZM35.3,90.9v-24H94v24Z" fill="#c0c8d3"/>
    </g>
  </g>
</svg>
