<svg xmlns="http://www.w3.org/2000/svg" width="104.75" height="76.75" viewBox="0 0 104.75 76.75">
  <g id="uploadfront_image" transform="translate(-142 -240)">
    <g id="Group_341627" data-name="Group 341627" transform="translate(13656 7176)">
      <g id="Path_462037" data-name="Path 462037" transform="translate(-13518 -6953)" fill="#c0c8d3">
        <path d="M 95.5 82.5 L 4.5 82.5 L 4.5 17.5 L 95.5 17.5 L 95.5 82.5 Z M 37.11307144165039 48.33597564697266 L 36.79995346069336 48.64297485351562 L 7.64995288848877 77.22297668457031 L 7.5 77.37000274658203 L 7.5 77.58000183105469 L 7.5 79 L 7.5 79.5 L 8 79.5 L 92 79.5 L 92.5 79.5 L 92.5 79 L 92.5 75.31999969482422 L 92.5 75.11666870117188 L 92.35809326171875 74.97104644775391 L 72.48809051513672 54.58104705810547 L 72.16033935546875 54.24471664428711 L 71.80415344238281 54.55076599121094 L 59.04531478881836 65.51340484619141 L 37.45829391479492 48.60636520385742 L 37.11307144165039 48.33597564697266 Z M 7.5 20.5 L 7.5 21 L 7.5 72 L 7.5 73.18998718261719 L 8.349941253662109 72.35713195800781 L 36.89694976806641 44.38383102416992 L 58.6318473815918 61.39375305175781 L 58.95509338378906 61.646728515625 L 59.26618957519531 61.37895202636719 L 72.33989715576172 50.12563323974609 L 91.64186096191406 69.93890380859375 L 92.5 70.81977844238281 L 92.5 69.58999633789062 L 92.5 21 L 92.5 20.5 L 92 20.5 L 8 20.5 L 7.5 20.5 Z" stroke="none"/>
        <path d="M 5 18 L 5 82 L 95 82 L 95 18 L 5 18 M 93 72.049560546875 L 72.30979156494141 50.81126022338867 L 58.97018814086914 62.29344940185547 L 36.93389511108398 45.04766082763672 L 7 74.37997436523438 L 7 20 L 93 20 L 93 72.049560546875 M 59.03063583374023 64.86680603027344 L 72.19068908691406 53.55942535400391 L 93 74.91333770751953 L 93 80 L 7 80 L 7 77.15998840332031 L 37.07614898681641 47.67195129394531 L 59.03063583374023 64.86680603027344 M 4 17 L 96 17 L 96 83 L 4 83 L 4 17 Z M 92 69.58999633789062 L 92 21 L 8 21 L 8 72 L 36.86000061035156 43.72000122070312 L 58.93999862670898 61 L 72.37000274658203 49.43999862670898 L 92 69.58999633789062 Z M 59.06000137329102 66.16000366210938 L 37.15000152587891 49 L 8 77.58000183105469 L 8 79 L 92 79 L 92 75.31999969482422 L 72.12999725341797 54.93000030517578 L 59.06000137329102 66.16000366210938 Z" stroke="none" fill="#0b1524"/>
      </g>
      <g id="Path_462038" data-name="Path 462038" transform="translate(-13518 -6953)" fill="#c0c8d3">
        <path d="M 78.33000183105469 44.5 C 73.09168243408203 44.5 68.83000183105469 40.23831939697266 68.83000183105469 35 C 68.83000183105469 29.76168060302734 73.09168243408203 25.5 78.33000183105469 25.5 C 83.56832122802734 25.5 87.83000183105469 29.76168060302734 87.83000183105469 35 C 87.83000183105469 40.23831939697266 83.56832122802734 44.5 78.33000183105469 44.5 Z M 78.33000183105469 28.5 C 74.74589538574219 28.5 71.83000183105469 31.41588973999023 71.83000183105469 35 C 71.83000183105469 38.58411026000977 74.74589538574219 41.5 78.33000183105469 41.5 C 81.91410827636719 41.5 84.83000183105469 38.58411026000977 84.83000183105469 35 C 84.83000183105469 31.41588973999023 81.91410827636719 28.5 78.33000183105469 28.5 Z" stroke="none"/>
        <path d="M 78.33000183105469 44 C 83.29262542724609 44 87.33000183105469 39.96261978149414 87.33000183105469 35 C 87.33000183105469 30.03738021850586 83.29262542724609 26 78.33000183105469 26 C 73.36737823486328 26 69.33000183105469 30.03738021850586 69.33000183105469 35 C 69.33000183105469 39.96261978149414 73.36737823486328 44 78.33000183105469 44 M 78.33000183105469 28 C 82.18981170654297 28 85.33000183105469 31.14019012451172 85.33000183105469 35 C 85.33000183105469 38.85980987548828 82.18981170654297 42 78.33000183105469 42 C 74.47019195556641 42 71.33000183105469 38.85980987548828 71.33000183105469 35 C 71.33000183105469 31.14019012451172 74.47019195556641 28 78.33000183105469 28 M 78.33000183105469 45 C 72.80715179443359 45 68.33000183105469 40.52285003662109 68.33000183105469 35 C 68.33000183105469 29.47714996337891 72.80715179443359 25 78.33000183105469 25 C 83.85284423828125 25 88.33000183105469 29.47714996337891 88.33000183105469 35 C 88.33000183105469 40.52285003662109 83.85285186767578 45 78.33000183105469 45 Z M 78.33000183105469 29 C 75.01628875732422 29 72.33000183105469 31.6862907409668 72.33000183105469 35 C 72.33000183105469 38.3137092590332 75.01628875732422 41 78.33000183105469 41 C 81.64371490478516 41 84.33000183105469 38.3137092590332 84.33000183105469 35 C 84.33000183105469 31.6862907409668 81.64371490478516 29 78.33000183105469 29 Z" stroke="none" fill="#0b1524"/>
      </g>
    </g>
    <g id="Icon_feather-arrow-up-circle" data-name="Icon feather-arrow-up-circle" transform="translate(213 283)">
      <path id="Path_462039" data-name="Path 462039" d="M33,18A15,15,0,1,1,18,3,15,15,0,0,1,33,18Z" fill="#0b1524" stroke="#c0c8d3" stroke-linecap="round" stroke-linejoin="round" stroke-width="1.5"/>
      <path id="Path_462040" data-name="Path 462040" d="M24,18l-6-6-6,6" fill="#0b1524" stroke="#c0c8d3" stroke-linecap="round" stroke-linejoin="round" stroke-width="1.5"/>
      <path id="Path_462041" data-name="Path 462041" d="M18,24V12" fill="#0b1524" stroke="#c0c8d3" stroke-linecap="round" stroke-linejoin="round" stroke-width="1.5"/>
    </g>
  </g>
</svg>
