<svg xmlns="http://www.w3.org/2000/svg" width="82.284" height="111.572"><path d="M90.234 2.175A34.839 34.839 0 0 0 77.463.018 2.976 2.976 0 0 0 77.055 0a41.145 41.145 0 0 0-41.141 41.135 38.481 38.481 0 0 0 .577 6.753v.075A43.481 43.481 0 0 0 44.243 67.3q15.114 21.25 30.283 42.478c1.692 2.379 3.531 2.4 5.2.055Q94.678 88.8 109.661 67.816a43.816 43.816 0 0 0 7.565-17.864l.056-.242A41.086 41.086 0 0 0 90.237 2.175M66.365 48.019a5.416 5.416 0 0 0 .111 1.431 19.077 19.077 0 0 1-.034 7.308l-.018.037c-.075.316-.856 2.974-2.25 4.127a2.043 2.043 0 0 0 .276.149l.368.167c-.131.408-.242.819-.368 1.226l-.038.056L61.7 71.5a9.291 9.291 0 0 0-1.357-3.142 9.308 9.308 0 0 1-1.656-4.108 12.444 12.444 0 0 0-.557-3.643c.26-.092.408-.149.408-.149a11.294 11.294 0 0 0-2.026-4.258 15.086 15.086 0 0 1-2.788-4.09l-.018-.037c-.744-3.663 1.506-4.63 1.506-4.63 1.692-.428 5.206-2.937 7.138-4.369a16.91 16.91 0 0 1 1.564 1.579c-.056.131-.092.243-.131.354 0 0 2.491 2.231 2.584 3.011M69.528 67s1.524 4.63 3.2 9.128a34.362 34.362 0 0 1-8.4-2.063c1.543-5.131 3.755-10.709 5.2-7.065m-15.879-5.077a13.051 13.051 0 0 0 3.123 6 5.76 5.76 0 0 1 .912 1.414 6.239 6.239 0 0 0 .948 1.951 35.251 35.251 0 0 1-6.732-5.22 31.176 31.176 0 0 0 .408-3.383v-.446c.446-.092.892-.2 1.338-.316M78.876 45.1a8.281 8.281 0 0 0 .538-.912s1.452 2.116 2.417 3.384l.056.055c.428.484 4.313 4.909 3.364 8.329v.018a3.1 3.1 0 0 1-.78 1.45 3.588 3.588 0 0 1-.688.6s-3.141 1.949-2.193 7.876l.781.316a12.621 12.621 0 0 1 1.134 5.54s-.818.967.167 4.034a35.141 35.141 0 0 1-6.618.614h-.3a70.685 70.685 0 0 1-2.826-10.448 12.727 12.727 0 0 1-.26-5.595c.368-2.7.67-8.2.67-8.2.131-1.84 2.36-4.35 3.738-5.7a.558.558 0 0 1 .148-.149l.167-.184c.428-.427.706-.669.706-.669ZM90.1 48.614c-.018 0-.018-.018-.037-.018-.038-.276.11-1.153 1.616-3.956a7.484 7.484 0 0 0 1.078-3.012s-.167-.368.948-1.692a11.367 11.367 0 0 0 1.84-4.293 2.528 2.528 0 0 1 .744-1.153 3.638 3.638 0 0 0 .39 1.9v.01a.2.2 0 0 1 .037.111 13.767 13.767 0 0 0 .651 1.692c0 .018.018.037.018.056.056.111.112.184.148.276.056.092.112.205.168.3a.058.058 0 0 1 .018.038v.018a9.8 9.8 0 0 1 .67 1.692c.056.131.11.242.166.352a8.136 8.136 0 0 0 2.473 3.128 26.09 26.09 0 0 1-.832 6.161 218.954 218.954 0 0 0-2.175 6.879c-.26.855-.428 1.413-.428 1.487a3.707 3.707 0 0 0 .521.075c-.912 2.232-1.1 8.142-1.1 11.674a35.306 35.306 0 0 1-10.334 4.746c.018-1.45.184-3.606.184-3.606a16.649 16.649 0 0 1 .613-2.826l.092-.334.391-1.413.65.13s.428-8.477 1.915-12.64a.07.07 0 0 0 .018-.056.3.3 0 0 0 .074-.018.63.63 0 0 0 .111-.038.58.58 0 0 1 .167-.055c.018 0 .018-.019.038-.019.724-.368 2.063-1.636-.836-5.595m11.674 17.9a14.46 14.46 0 0 1 1.1-4.741 15.863 15.863 0 0 1 1.06 2.472 27.58 27.58 0 0 1-2.156 2.268m6.487-8.31c0-.242.018-.874.037-1.71.038-.856.075-1.914.149-3.012a26.768 26.768 0 0 1 .465-3.457.063.063 0 0 0 .018-.038.741.741 0 0 0 .018-.092 8.088 8.088 0 0 1 .39-1.338l.075-.2.184-.65a7.1 7.1 0 0 0 .018-2.639.339.339 0 0 1-.018-.092 4.349 4.349 0 0 0-1.952-2.509.54.54 0 0 0-.056-.409 1.131 1.131 0 0 1-.26-.557c0-.522-.335-.558-.521-.558a2.512 2.512 0 0 1 .967-1.821c.706-.465.465-1.728.465-1.728-.819-3.514-4.016-1.431-4.016-1.431L102.7 35.7a1.216 1.216 0 0 0 .539 1.878 2.16 2.16 0 0 1 .408-.149l-.018.018a8.632 8.632 0 0 0-.131.966v.056a3.445 3.445 0 0 0-.037.446 2.23 2.23 0 0 0 .576 1.656s.184.428.037.558l-.353.184h-.021c-.446.055-.781-.409-.948-.706-.038-.092-.056-.168-.075-.206a.017.017 0 0 1-.018-.018 16.051 16.051 0 0 0-3.29-4.145 1.426 1.426 0 0 1-.763-1.414 6.354 6.354 0 0 0-.241-2.342C97.433 28.8 98.271 28 98.271 28a2.66 2.66 0 0 0 .577-1.914c-.149-1.71-.725-1-.725-1-.038-.763-.558-.3-.558-.3-.428-.52-1.078.391-1.078.391a.8.8 0 0 0-.557 1.115 5.309 5.309 0 0 0 .241 1.357 7 7 0 0 1 .335 3.162v.037c-.111.948-.446.985-.5.985-.276-.092.018-.911.018-.911.484-1.246.168-1.264.168-1.264-.205-.056-.614 1.45-.614 1.45-.335 1.153-.688 1.189-.744 1.189-.334-.018-.242-.368-.242-.368.242-1.189-.316-.986-.316-.986-.167.018-.13.353-.13.353a1.331 1.331 0 0 1-.038.335 2.76 2.76 0 0 0 .26 2.024c.5.892-.539 2.232-.539 2.232-2.024 2.6-1.952 3.4-1.952 3.4a2.5 2.5 0 0 1-.6 1.5 4.324 4.324 0 0 0-1.1 2.232c-1.394-4.071-3.644-3.476-3.644-3.476-2.751-.018-3.272 6.209-3.272 6.209-1.04-.408-2.862-3.1-2.862-3.1a4.888 4.888 0 0 0 1.152-2.491 18.2 18.2 0 0 1 1.414-4.387c.408-.688.184-1.078.184-1.078a9.722 9.722 0 0 1-.5-1.022c-.818-1.265-1.134-.892-1.134-.892-.075.055.111.408.224.632-.726-1.078-.837-.874-.837-.874-.167.018-.13.243-.092.368-.276-.6-.465-.465-.465-.465-.242.13-.037.632.074.874-.259-.429-.446-.373-.446-.373-.446.373.985 2.342.985 2.342a.694.694 0 0 1 .243.856 13.2 13.2 0 0 1-2.116 3.9 6.739 6.739 0 0 0-1.785-2.379c-1.246-1.394-1.115-2.007-1.115-2.007.075-.781-.316-.985-.316-.985a1.957 1.957 0 0 1-.632-.6 13.974 13.974 0 0 1-.874-1.357c-.614-1.209-.836-.892-.836-.892-.242.368.484 1.078.484 1.078a3.207 3.207 0 0 0 .223.614 1.732 1.732 0 0 0-.8.2c-.874-.521-1.1-.276-1.1-.276-.111.13.018.276.037.3-.465-.223-.5-.074-.5-.074-.131.241.3.427.3.427a3.761 3.761 0 0 1 1.078.724c.037.224.39.484.39.484.5 1.133 1.023 1.171 1.023 1.171.521.13.724.892.724.892a13.378 13.378 0 0 0 2.7 4.908c.074.6-.93 1.472-1.079 1.6h-.027a1.238 1.238 0 0 0-.168-.167c-.056.484-.929.874-.929.874-1.692.409-2.116 1.338-2.194 1.58a3.6 3.6 0 0 1 .446-1.524 1.276 1.276 0 0 0 .521-.781 1.281 1.281 0 0 0 .576-.912.788.788 0 0 0 .037-.836v-.034a1.2 1.2 0 0 0 .038-.354 1.664 1.664 0 0 0-.521-1.413h-.037c-.353-.465-.687-.368-.687-.368a.552.552 0 0 1-.352-.078.987.987 0 0 0-.428-.184 1.417 1.417 0 0 0-1.413 0c-.368.018-.856.075-.67.259 0 0-.242.075-.184.243 0 0-.557.167-.521.613a.473.473 0 0 0-.131.707s-.614.368-.056 1.171c0 0-.334-.131-.075.465a1.207 1.207 0 0 1-.056.8s-.2.316.316.465a1.863 1.863 0 0 1 .184 1.487 2 2 0 0 1-1.5-.763 3.99 3.99 0 0 0-2.27-1.19s-1.04-.446-1.3-1.116a2.224 2.224 0 0 1-.223.184 4.315 4.315 0 0 0-1.209-1.3 4.777 4.777 0 0 1 2.491.092.828.828 0 0 0 .856.132c.148-.167-.111-.614-.111-.614-.874-1.116-3.312-.781-3.312-.781a2.689 2.689 0 0 0-.688.2 3.634 3.634 0 0 0-.633-1.208c-1.264-1.785-.538-2.659-.538-2.659a1.354 1.354 0 0 0 .242-1.152.964.964 0 0 1-.092-.522c.018-.706-.39-.39-.39-.39-.168.184-.3.056-.3.056-1.041-1.283-1.189.111-1.189.111-.5-.018-.276.446-.276.446.074.167 0 .242 0 .242-.276.2.056.576.056.576-.335.131.037.539.037.539a1.472 1.472 0 0 1 .428 1.078 7.671 7.671 0 0 0 .538 3.978c-1.152.688-2.156 1.358-2.156 1.358-4.7 2.435-6 2.007-6 2.007a3.461 3.461 0 0 0 1.354-2.953 3 3 0 0 0-2.032-2.934 1.866 1.866 0 0 0-1.375.092c-2.045.93-2.361 4.24-2.361 4.24 0-.018 0-.018-.018-.038a.564.564 0 0 1 .036.184c-1.114-1.6-1.45-5.206-1.45-5.206a10.815 10.815 0 0 1 4.5-1.208 7.543 7.543 0 0 0 2.38 1.525c-.018 1.189.316 1.152.316 1.152.558-.391.26-1.8.26-1.8-.242-.725-2.473-1.766-2.473-1.766-1.226-.614-6.06.335-6.06.335a13.606 13.606 0 0 0-.892 5 19.778 19.778 0 0 0 .446 4.071c0 .018 0 .037.018.037a15.654 15.654 0 0 0 .408 1.617c.67 2.844 1.71 7.827 1.728 7.918a28.908 28.908 0 0 1-.353 5.5c-.408-.577-.8-1.189-1.171-1.8-.018-.038-.056-.092-.074-.132a28.302 28.302 0 0 1-1.041-1.84 1.574 1.574 0 0 0-.092-.184c-.276-.539-.557-1.1-.8-1.656-.018-.055-.056-.11-.075-.167a15.768 15.768 0 0 1-.465-1.115.092.092 0 0 1-.037-.075 9.521 9.521 0 0 1-.391-1.022 22.867 22.867 0 0 1-.743-2.249 24.114 24.114 0 0 1-.354-1.246c-.11-.409-.2-.837-.3-1.264-.131-.577-.242-1.153-.335-1.748s-.184-1.189-.259-1.785c-.038-.408-.075-.8-.111-1.208-.038-.428-.056-.874-.075-1.3-.018-.39-.037-.78-.037-1.189a35.851 35.851 0 1 1 71.7-.018c0 .276-.019.557-.019.855-.019.781-.092 1.543-.149 2.324a35.953 35.953 0 0 1-4.474 14.066" style="fill:#dec47c" transform="translate(-35.914)"/></svg>