<svg xmlns="http://www.w3.org/2000/svg" width="221.184" height="223.031" viewBox="0 0 221.184 223.031"><defs></defs><path class="a" d="M112.379,3.063A49.043,49.043,0,0,0,94.4.026,4.189,4.189,0,0,0,93.827,0,57.919,57.919,0,0,0,35.914,57.9a54.167,54.167,0,0,0,.812,9.506v.1A61.206,61.206,0,0,0,47.638,94.73q21.276,29.912,42.629,59.8c2.381,3.349,4.971,3.376,7.327.078q21.041-29.6,42.132-59.14a61.678,61.678,0,0,0,10.649-25.147c.026-.1.053-.236.079-.341A57.836,57.836,0,0,0,112.383,3.063m-33.6,64.532a7.624,7.624,0,0,0,.157,2.015A26.854,26.854,0,0,1,78.887,79.9l-.026.052c-.1.445-1.2,4.186-3.167,5.809a2.875,2.875,0,0,0,.388.21l.518.236c-.184.575-.341,1.152-.518,1.726l-.053.079-3.82,12.64a13.079,13.079,0,0,0-1.91-4.423,13.1,13.1,0,0,1-2.331-5.783,17.516,17.516,0,0,0-.785-5.128c.366-.129.575-.21.575-.21a15.9,15.9,0,0,0-2.849-5.992,21.236,21.236,0,0,1-3.925-5.757l-.026-.052c-1.048-5.156,2.12-6.517,2.12-6.517,2.381-.6,7.328-4.135,10.049-6.15a23.8,23.8,0,0,1,2.2,2.223c-.079.184-.129.342-.184.5,0,0,3.507,3.14,3.637,4.238m4.449,26.718s2.146,6.517,4.5,12.849a48.37,48.37,0,0,1-11.828-2.9c2.172-7.223,5.286-15.074,7.327-9.945M60.879,87.167a18.372,18.372,0,0,0,4.4,8.452,8.108,8.108,0,0,1,1.283,1.99,8.782,8.782,0,0,0,1.334,2.747A49.622,49.622,0,0,1,58.42,93a43.885,43.885,0,0,0,.575-4.763v-.628c.628-.129,1.256-.287,1.884-.445m35.512-23.68a11.658,11.658,0,0,0,.758-1.283s2.043,2.978,3.4,4.764l.079.078c.6.681,6.072,6.91,4.736,11.724v.026a4.356,4.356,0,0,1-1.1,2.041,5.05,5.05,0,0,1-.969.839s-4.422,2.748-3.088,11.095l1.1.444a17.766,17.766,0,0,1,1.6,7.8s-1.151,1.361.236,5.678a49.468,49.468,0,0,1-9.316.864h-.42a99.5,99.5,0,0,1-3.978-14.708,17.915,17.915,0,0,1-.366-7.876c.518-3.8.943-11.54.943-11.54.184-2.59,3.323-6.124,5.261-8.028a.786.786,0,0,1,.208-.21l.236-.259c.6-.6.994-.941.994-.941ZM112.2,68.432c-.026,0-.026-.026-.052-.026-.053-.388.155-1.623,2.275-5.568a10.534,10.534,0,0,0,1.518-4.24s-.236-.518,1.335-2.381a16,16,0,0,0,2.59-6.043,3.558,3.558,0,0,1,1.048-1.623,5.121,5.121,0,0,0,.549,2.669v.026a.28.28,0,0,1,.052.157,19.378,19.378,0,0,0,.917,2.381c0,.026.026.052.026.079.079.157.158.259.208.388.079.129.158.289.237.418a.082.082,0,0,1,.026.053v.026a13.791,13.791,0,0,1,.943,2.381c.079.184.155.341.234.5a11.452,11.452,0,0,0,3.481,4.4,36.726,36.726,0,0,1-1.172,8.673c-1.177,3.508-2.381,7.381-3.061,9.683-.366,1.2-.6,1.989-.6,2.093a5.218,5.218,0,0,0,.733.1c-1.283,3.141-1.544,11.461-1.544,16.434a49.7,49.7,0,0,1-14.561,6.678c.026-2.041.259-5.076.259-5.076a23.436,23.436,0,0,1,.862-3.978l.129-.47.55-1.989.916.183s.6-11.933,2.7-17.793a.1.1,0,0,0,.026-.079.422.422,0,0,0,.1-.026.888.888,0,0,0,.157-.053.816.816,0,0,1,.236-.078c.026,0,.026-.027.053-.027,1.019-.518,2.9-2.3-1.177-7.876m16.434,25.2a20.355,20.355,0,0,1,1.544-6.674,22.329,22.329,0,0,1,1.492,3.479,38.824,38.824,0,0,1-3.035,3.193m9.132-11.7c0-.341.026-1.23.052-2.407.053-1.2.1-2.695.21-4.24a37.68,37.68,0,0,1,.654-4.866.088.088,0,0,0,.026-.053,1.044,1.044,0,0,0,.026-.129,11.385,11.385,0,0,1,.549-1.884l.1-.287.259-.916a9.995,9.995,0,0,0,.026-3.715.478.478,0,0,1-.026-.129,6.122,6.122,0,0,0-2.748-3.531.76.76,0,0,0-.079-.576,1.591,1.591,0,0,1-.366-.785c0-.734-.471-.786-.733-.786a3.536,3.536,0,0,1,1.361-2.564c.995-.654.654-2.433.654-2.433-1.152-4.947-5.654-2.015-5.654-2.015l-2.146-.366a1.712,1.712,0,0,0,.759,2.644,3.04,3.04,0,0,1,.575-.21l-.026.026a12.153,12.153,0,0,0-.184,1.36v.079a4.849,4.849,0,0,0-.052.628,3.139,3.139,0,0,0,.811,2.331s.259.6.052.786l-.5.259h-.026c-.628.078-1.1-.576-1.335-.994-.053-.129-.079-.237-.1-.29a.025.025,0,0,1-.026-.026,22.6,22.6,0,0,0-4.632-5.835,2.007,2.007,0,0,1-1.073-1.99,8.944,8.944,0,0,0-.339-3.3c-1.309-5.18-.129-6.308-.129-6.308a3.745,3.745,0,0,0,.812-2.695c-.21-2.407-1.02-1.413-1.02-1.413-.053-1.073-.786-.42-.786-.42-.6-.732-1.518.55-1.518.55A1.124,1.124,0,0,0,120.4,37a7.473,7.473,0,0,0,.339,1.91s.576,1.02.471,4.451v.052c-.157,1.335-.628,1.387-.707,1.387-.388-.129.026-1.282.026-1.282.681-1.753.237-1.779.237-1.779-.289-.079-.864,2.041-.864,2.041-.471,1.623-.969,1.674-1.048,1.674-.47-.026-.341-.518-.341-.518.341-1.674-.445-1.388-.445-1.388-.236.026-.183.5-.183.5a1.874,1.874,0,0,1-.053.471,3.885,3.885,0,0,0,.366,2.849c.706,1.256-.759,3.141-.759,3.141-2.849,3.663-2.748,4.791-2.748,4.791a3.525,3.525,0,0,1-.838,2.118,6.086,6.086,0,0,0-1.545,3.141c-1.962-5.731-5.129-4.893-5.129-4.893-3.872-.026-4.606,8.741-4.606,8.741-1.465-.575-4.028-4.37-4.028-4.37a6.881,6.881,0,0,0,1.621-3.507,25.625,25.625,0,0,1,1.99-6.175c.575-.969.259-1.518.259-1.518a13.686,13.686,0,0,1-.706-1.439c-1.151-1.781-1.6-1.256-1.6-1.256-.1.078.157.575.315.89-1.022-1.518-1.178-1.23-1.178-1.23-.236.026-.183.342-.129.518-.388-.838-.654-.654-.654-.654-.341.183-.052.89.1,1.23-.365-.6-.628-.524-.628-.524-.628.524,1.387,3.3,1.387,3.3a.976.976,0,0,1,.342,1.2,18.574,18.574,0,0,1-2.978,5.5,9.486,9.486,0,0,0-2.522-3.353c-1.753-1.962-1.569-2.825-1.569-2.825.1-1.1-.445-1.387-.445-1.387a2.754,2.754,0,0,1-.89-.839,19.672,19.672,0,0,1-1.23-1.91c-.864-1.7-1.177-1.256-1.177-1.256-.341.518.681,1.518.681,1.518a4.515,4.515,0,0,0,.313.864,2.438,2.438,0,0,0-1.124.287c-1.23-.733-1.545-.388-1.545-.388-.157.183.026.388.052.418-.654-.313-.706-.1-.706-.1-.184.339.418.6.418.6a5.294,5.294,0,0,1,1.518,1.019c.052.315.549.681.549.681.707,1.6,1.44,1.648,1.44,1.648.733.183,1.019,1.256,1.019,1.256a18.832,18.832,0,0,0,3.8,6.908c.1.838-1.309,2.072-1.519,2.251h-.026a1.743,1.743,0,0,0-.237-.236c-.079.681-1.308,1.23-1.308,1.23-2.381.576-2.978,1.884-3.088,2.225a5.062,5.062,0,0,1,.628-2.146,1.8,1.8,0,0,0,.733-1.1,1.8,1.8,0,0,0,.811-1.283,1.11,1.11,0,0,0,.052-1.177V59.22a1.682,1.682,0,0,0,.053-.5,2.342,2.342,0,0,0-.733-1.989H90.58c-.5-.654-.967-.518-.967-.518a.777.777,0,0,1-.5-.11,1.39,1.39,0,0,0-.6-.259,1.994,1.994,0,0,0-1.989,0c-.518.026-1.2.1-.943.365,0,0-.341.1-.259.342,0,0-.785.236-.733.862a.666.666,0,0,0-.184,1s-.864.518-.079,1.648c0,0-.47-.184-.1.654a1.7,1.7,0,0,1-.079,1.125s-.287.444.445.654a2.622,2.622,0,0,1,.259,2.094,2.816,2.816,0,0,1-2.118-1.073,5.616,5.616,0,0,0-3.2-1.676s-1.465-.628-1.832-1.571a3.13,3.13,0,0,1-.313.259,6.074,6.074,0,0,0-1.7-1.832,6.725,6.725,0,0,1,3.507.129,1.165,1.165,0,0,0,1.2.185c.208-.236-.157-.864-.157-.864-1.23-1.571-4.662-1.1-4.662-1.1a3.785,3.785,0,0,0-.969.287,5.115,5.115,0,0,0-.891-1.7c-1.779-2.512-.758-3.742-.758-3.742a1.906,1.906,0,0,0,.341-1.621,1.357,1.357,0,0,1-.13-.734c.026-.993-.549-.549-.549-.549-.237.259-.418.079-.418.079-1.466-1.806-1.674.157-1.674.157-.707-.026-.388.628-.388.628.1.236,0,.341,0,.341-.388.287.079.811.079.811-.471.184.052.759.052.759a2.072,2.072,0,0,1,.6,1.518,10.8,10.8,0,0,0,.758,5.6c-1.621.969-3.035,1.911-3.035,1.911-6.621,3.428-8.452,2.826-8.452,2.826a4.871,4.871,0,0,0,1.906-4.157A4.218,4.218,0,0,0,59.2,55.321a2.627,2.627,0,0,0-1.936.129c-2.879,1.309-3.324,5.968-3.324,5.968,0-.026,0-.026-.026-.053a.794.794,0,0,1,.05.259C52.4,59.373,51.928,54.3,51.928,54.3a15.224,15.224,0,0,1,6.332-1.7,10.618,10.618,0,0,0,3.35,2.147c-.026,1.673.445,1.621.445,1.621.786-.55.366-2.539.366-2.539-.341-1.02-3.481-2.486-3.481-2.486-1.726-.864-8.531.471-8.531.471a19.153,19.153,0,0,0-1.256,7.038,27.841,27.841,0,0,0,.628,5.731c0,.026,0,.052.026.052a22.035,22.035,0,0,0,.575,2.276c.943,4,2.407,11.017,2.433,11.147a40.692,40.692,0,0,1-.5,7.746c-.575-.812-1.124-1.674-1.648-2.538-.026-.053-.079-.129-.1-.185-.524-.837-1-1.7-1.466-2.59a2.216,2.216,0,0,0-.13-.259c-.388-.759-.785-1.545-1.124-2.331-.026-.078-.079-.155-.1-.236-.236-.5-.444-1.02-.654-1.569a.13.13,0,0,1-.052-.1,13.4,13.4,0,0,1-.55-1.439,32.189,32.189,0,0,1-1.046-3.166c-.184-.576-.341-1.152-.5-1.753-.155-.576-.287-1.178-.417-1.779-.184-.812-.341-1.623-.471-2.46s-.259-1.674-.365-2.512c-.053-.575-.1-1.125-.157-1.7-.053-.6-.079-1.23-.1-1.832-.026-.549-.052-1.1-.052-1.674a50.466,50.466,0,1,1,100.932-.026c0,.388-.027.785-.027,1.2-.027,1.1-.13,2.172-.21,3.271a50.61,50.61,0,0,1-6.308,19.812" transform="translate(12.651 0.001)"/><g transform="translate(0 181.718)"><g class="b" transform="translate(0 0.274)"><g class="b"><path class="a" d="M712.809,586.66c0,6.932-5.017,11.126-13.314,11.126h-7.889v9.667h-4.559V575.534H699.5C707.792,575.534,712.809,579.731,712.809,586.66Zm-4.559,0c0-4.559-3.057-7.16-8.894-7.16h-7.75v14.32h7.75C705.194,593.82,708.25,591.221,708.25,586.66Z" transform="translate(-687.047 -575.534)"/></g><g class="b" transform="translate(29.95 7.525)"><path class="a" d="M721.207,588.639V603.23h-4.149v-3.191c-1.461,2.188-4.149,3.465-7.937,3.465-5.471,0-8.936-2.918-8.936-7.114,0-3.875,2.507-7.066,9.713-7.066h6.929v-.866c0-3.693-2.143-5.838-6.476-5.838a12.225,12.225,0,0,0-7.659,2.6l-1.823-3.285a16.083,16.083,0,0,1,9.986-3.1C717.469,578.835,721.207,582.026,721.207,588.639Zm-4.379,7.205v-3.376h-6.747c-4.331,0-5.564,1.689-5.564,3.738,0,2.419,2.008,3.923,5.336,3.923C713.136,600.13,715.736,598.625,716.828,595.844Z" transform="translate(-700.186 -578.835)"/></g><g class="b" transform="translate(59.081 7.525)"><path class="a" d="M725.961,578.835v4.24a7.717,7.717,0,0,0-1-.046c-4.7,0-7.616,2.874-7.616,8.163V603.23h-4.379V579.063h4.2v4.058C718.71,580.294,721.721,578.835,725.961,578.835Z" transform="translate(-712.966 -578.835)"/></g><g class="b" transform="translate(74.764 2.462)"><path class="a" d="M736.9,604.658a8.256,8.256,0,0,1-5.288,1.687c-4.88,0-7.661-2.69-7.661-7.57V585.508h-4.1v-3.6h4.1v-5.291h4.377V581.9h6.932v3.6h-6.932v13.086c0,2.6,1.37,4.057,3.786,4.057a5.537,5.537,0,0,0,3.422-1.14Z" transform="translate(-719.846 -576.614)"/><path class="a" d="M753.723,578.935,742,605.52c-2.143,5.106-4.926,6.7-8.619,6.7a9.072,9.072,0,0,1-6.2-2.234l1.869-3.285a6.187,6.187,0,0,0,4.331,1.778c2.1,0,3.419-.955,4.607-3.738l.775-1.685L728.1,578.935h4.559l8.436,19.334,8.343-19.334Z" transform="translate(-710.455 -573.644)"/></g></g><g class="b" transform="translate(121.11)"><g class="b"><path class="a" d="M740.178,589.919a2.413,2.413,0,0,1,2.416-2.462,2.451,2.451,0,0,1,2.462,2.462,2.491,2.491,0,0,1-2.462,2.508A2.453,2.453,0,0,1,740.178,589.919Z" transform="translate(-740.178 -560.006)"/><path class="a" d="M743.818,591.646c0-9.3,7.114-16.232,16.781-16.232,9.576,0,16.734,6.886,16.734,16.232S770.175,607.88,760.6,607.88C750.932,607.88,743.818,600.949,743.818,591.646Zm30.141,0a12.93,12.93,0,0,0-13.36-13.223c-7.707,0-13.451,5.61-13.451,13.223s5.744,13.225,13.451,13.225A12.931,12.931,0,0,0,773.959,591.646Z" transform="translate(-735.521 -575.414)"/></g><g class="b" transform="translate(48.188 8.026)"><path class="a" d="M783.39,589.195V603.1h-3.239V589.514c0-5.063-2.644-7.661-7.2-7.661-5.154,0-8.391,3.191-8.391,8.664V603.1h-3.239V579.117h3.1v4.422c1.732-2.918,4.969-4.6,9.12-4.6C779.376,578.935,783.39,582.308,783.39,589.195Z" transform="translate(-761.318 -578.935)"/><path class="a" d="M797.141,592.113H777.075c.365,5.017,4.2,8.345,9.439,8.345a9.451,9.451,0,0,0,7.342-3.148l1.824,2.1a11.809,11.809,0,0,1-9.257,3.921c-7.479,0-12.585-5.108-12.585-12.22s4.971-12.175,11.719-12.175,11.628,4.969,11.628,12.175C797.184,591.383,797.141,591.748,797.141,592.113ZM777.075,589.7h17.009a8.522,8.522,0,0,0-17.009,0Z" transform="translate(-745.299 -578.935)"/></g></g></g></svg>