<svg xmlns="http://www.w3.org/2000/svg" width="385.455" height="188.004" viewBox="0 0 385.455 188.004"><defs><style>.a{fill:#dec47c;}.b{isolation:isolate;}</style></defs><path class="a" d="M127.447,3.666A58.707,58.707,0,0,0,105.927.032,5.014,5.014,0,0,0,105.238,0,69.331,69.331,0,0,0,35.914,69.315a64.841,64.841,0,0,0,.972,11.379v.126A73.267,73.267,0,0,0,49.949,113.4q25.468,35.807,51.029,71.578c2.851,4.008,5.951,4.041,8.77.093q25.187-35.429,50.434-70.793a73.831,73.831,0,0,0,12.748-30.1c.031-.126.064-.282.095-.408a69.232,69.232,0,0,0-45.572-80.1M87.225,80.914a9.127,9.127,0,0,0,.188,2.412,32.144,32.144,0,0,1-.057,12.314l-.031.062c-.126.533-1.442,5.011-3.792,6.954a3.442,3.442,0,0,0,.465.251l.62.282c-.22.688-.408,1.38-.62,2.066l-.064.095-4.573,15.13a15.656,15.656,0,0,0-2.286-5.3,15.684,15.684,0,0,1-2.79-6.923,20.968,20.968,0,0,0-.939-6.138c.439-.155.688-.251.688-.251a19.03,19.03,0,0,0-3.41-7.172,25.421,25.421,0,0,1-4.7-6.892l-.031-.062c-1.254-6.172,2.537-7.8,2.537-7.8C71.282,79.225,77.2,75,80.46,72.584A28.5,28.5,0,0,1,83.1,75.246c-.095.22-.155.409-.22.6,0,0,4.2,3.759,4.354,5.073M92.556,112.9s2.568,7.8,5.388,15.381A57.9,57.9,0,0,1,83.785,124.8c2.6-8.646,6.327-18.044,8.77-11.9M65.8,104.344a21.992,21.992,0,0,0,5.263,10.117,9.706,9.706,0,0,1,1.536,2.382,10.512,10.512,0,0,0,1.6,3.288,59.4,59.4,0,0,1-11.339-8.8,52.535,52.535,0,0,0,.688-5.7v-.752c.752-.155,1.5-.344,2.255-.533M108.308,76a13.951,13.951,0,0,0,.907-1.536s2.446,3.565,4.074,5.7l.095.093c.721.815,7.268,8.271,5.669,14.034v.031a5.214,5.214,0,0,1-1.314,2.443,6.046,6.046,0,0,1-1.159,1s-5.294,3.289-3.7,13.281l1.316.532a21.267,21.267,0,0,1,1.911,9.335s-1.378,1.629.282,6.8a59.215,59.215,0,0,1-11.151,1.034h-.5a119.106,119.106,0,0,1-4.762-17.606,21.445,21.445,0,0,1-.439-9.428c.62-4.543,1.128-13.814,1.128-13.814.22-3.1,3.978-7.33,6.3-9.61a.941.941,0,0,1,.25-.251l.282-.31c.721-.719,1.19-1.127,1.19-1.127Zm18.92,5.921c-.031,0-.031-.031-.062-.031-.064-.465.186-1.942,2.724-6.665a12.61,12.61,0,0,0,1.817-5.075s-.282-.62,1.6-2.851a19.153,19.153,0,0,0,3.1-7.234,4.259,4.259,0,0,1,1.254-1.942,6.13,6.13,0,0,0,.657,3.195v.031a.335.335,0,0,1,.062.188,23.2,23.2,0,0,0,1.1,2.851c0,.031.031.062.031.095.095.188.189.31.25.465.095.155.189.346.284.5a.1.1,0,0,1,.031.064v.031a16.506,16.506,0,0,1,1.129,2.851c.095.22.186.408.281.594a13.708,13.708,0,0,0,4.167,5.27,43.961,43.961,0,0,1-1.4,10.382c-1.409,4.2-2.851,8.835-3.664,11.591-.439,1.44-.721,2.381-.721,2.5a6.249,6.249,0,0,0,.877.126c-1.536,3.76-1.848,13.72-1.848,19.672a59.492,59.492,0,0,1-17.431,7.994c.031-2.443.31-6.076.31-6.076a28.053,28.053,0,0,1,1.032-4.762l.155-.563.659-2.381,1.1.219s.721-14.284,3.227-21.3a.118.118,0,0,0,.031-.095.507.507,0,0,0,.124-.031,1.063,1.063,0,0,0,.188-.064.976.976,0,0,1,.282-.093c.031,0,.031-.033.064-.033,1.22-.62,3.477-2.756-1.409-9.428m19.672,30.166a24.365,24.365,0,0,1,1.848-7.989,26.729,26.729,0,0,1,1.786,4.165,46.482,46.482,0,0,1-3.633,3.822m10.931-14c0-.408.031-1.473.062-2.882.064-1.442.126-3.226.251-5.075a45.11,45.11,0,0,1,.783-5.825.105.105,0,0,0,.031-.064,1.246,1.246,0,0,0,.031-.155,13.629,13.629,0,0,1,.657-2.255l.126-.344.31-1.1a11.965,11.965,0,0,0,.031-4.447.571.571,0,0,1-.031-.155,7.329,7.329,0,0,0-3.289-4.227.91.91,0,0,0-.095-.69,1.9,1.9,0,0,1-.439-.939c0-.879-.564-.941-.877-.941A4.233,4.233,0,0,1,157,65.914c1.19-.783.783-2.913.783-2.913-1.38-5.921-6.768-2.412-6.768-2.412l-2.568-.439a2.049,2.049,0,0,0,.908,3.165,3.639,3.639,0,0,1,.688-.251l-.031.031a14.552,14.552,0,0,0-.22,1.628v.095a5.806,5.806,0,0,0-.062.752,3.757,3.757,0,0,0,.97,2.79s.31.721.062.941l-.6.31h-.031c-.752.093-1.316-.69-1.6-1.19-.064-.155-.095-.284-.126-.347a.029.029,0,0,1-.031-.031,27.047,27.047,0,0,0-5.545-6.985,2.4,2.4,0,0,1-1.285-2.382,10.706,10.706,0,0,0-.406-3.946c-1.567-6.2-.155-7.55-.155-7.55a4.483,4.483,0,0,0,.972-3.226c-.251-2.882-1.221-1.691-1.221-1.691-.064-1.285-.941-.5-.941-.5-.721-.876-1.817.659-1.817.659a1.345,1.345,0,0,0-.939,1.879,8.944,8.944,0,0,0,.406,2.286s.69,1.221.564,5.328v.062c-.188,1.6-.752,1.66-.846,1.66-.465-.155.031-1.535.031-1.535.815-2.1.284-2.13.284-2.13-.346-.095-1.034,2.443-1.034,2.443-.564,1.942-1.159,2-1.254,2-.563-.031-.408-.62-.408-.62.408-2-.533-1.662-.533-1.662-.282.031-.219.6-.219.6a2.242,2.242,0,0,1-.064.564,4.65,4.65,0,0,0,.439,3.41c.845,1.5-.908,3.76-.908,3.76-3.41,4.385-3.289,5.735-3.289,5.735a4.219,4.219,0,0,1-1,2.536,7.286,7.286,0,0,0-1.849,3.76c-2.348-6.861-6.14-5.858-6.14-5.858-4.635-.031-5.514,10.463-5.514,10.463-1.753-.688-4.822-5.231-4.822-5.231a8.237,8.237,0,0,0,1.941-4.2,30.676,30.676,0,0,1,2.382-7.392c.688-1.159.31-1.817.31-1.817a16.385,16.385,0,0,1-.845-1.722c-1.378-2.131-1.911-1.5-1.911-1.5-.126.093.188.688.377,1.065-1.223-1.817-1.411-1.473-1.411-1.473-.282.031-.219.409-.155.62-.465-1-.783-.783-.783-.783-.408.219-.062,1.065.124,1.473-.437-.722-.752-.628-.752-.628-.752.628,1.66,3.946,1.66,3.946a1.169,1.169,0,0,1,.409,1.442,22.236,22.236,0,0,1-3.565,6.579,11.356,11.356,0,0,0-3.02-4.013c-2.1-2.348-1.879-3.382-1.879-3.382.126-1.316-.533-1.66-.533-1.66a3.3,3.3,0,0,1-1.065-1,23.545,23.545,0,0,1-1.473-2.286c-1.034-2.037-1.409-1.5-1.409-1.5-.408.62.815,1.817.815,1.817a5.4,5.4,0,0,0,.375,1.034,2.919,2.919,0,0,0-1.346.344c-1.473-.877-1.849-.465-1.849-.465-.188.219.031.465.062.5-.783-.375-.845-.124-.845-.124-.22.406.5.719.5.719a6.336,6.336,0,0,1,1.817,1.22c.062.377.657.815.657.815.846,1.91,1.724,1.973,1.724,1.973.877.219,1.22,1.5,1.22,1.5a22.542,22.542,0,0,0,4.543,8.27c.124,1-1.567,2.48-1.818,2.694h-.031a2.085,2.085,0,0,0-.284-.282c-.095.815-1.566,1.473-1.566,1.473-2.851.69-3.565,2.255-3.7,2.663a6.059,6.059,0,0,1,.752-2.568A2.15,2.15,0,0,0,101.2,73.9a2.159,2.159,0,0,0,.97-1.536,1.328,1.328,0,0,0,.062-1.409V70.89a2.014,2.014,0,0,0,.064-.6,2.8,2.8,0,0,0-.877-2.381h-.062c-.6-.783-1.158-.62-1.158-.62a.93.93,0,0,1-.594-.132,1.663,1.663,0,0,0-.721-.31,2.387,2.387,0,0,0-2.381,0c-.62.031-1.442.126-1.128.437,0,0-.408.126-.31.409,0,0-.939.282-.877,1.032a.8.8,0,0,0-.22,1.192s-1.034.62-.095,1.973c0,0-.563-.22-.126.783a2.034,2.034,0,0,1-.095,1.347s-.344.532.533.783a3.139,3.139,0,0,1,.31,2.506,3.371,3.371,0,0,1-2.536-1.285,6.723,6.723,0,0,0-3.826-2.006s-1.753-.752-2.193-1.88a3.743,3.743,0,0,1-.375.31,7.272,7.272,0,0,0-2.037-2.193,8.05,8.05,0,0,1,4.2.155,1.4,1.4,0,0,0,1.442.222c.25-.282-.188-1.034-.188-1.034-1.473-1.88-5.58-1.316-5.58-1.316a4.532,4.532,0,0,0-1.159.344,6.123,6.123,0,0,0-1.066-2.035c-2.13-3.007-.907-4.48-.907-4.48a2.282,2.282,0,0,0,.408-1.941,1.625,1.625,0,0,1-.155-.879c.031-1.189-.657-.657-.657-.657-.284.31-.5.095-.5.095-1.755-2.162-2,.188-2,.188-.846-.031-.465.752-.465.752.124.282,0,.408,0,.408-.465.344.095.97.095.97-.564.22.062.908.062.908a2.48,2.48,0,0,1,.721,1.817,12.926,12.926,0,0,0,.907,6.7c-1.941,1.159-3.633,2.288-3.633,2.288-7.926,4.1-10.117,3.382-10.117,3.382A5.831,5.831,0,0,0,67.2,71.172a5.049,5.049,0,0,0-3.41-4.949,3.145,3.145,0,0,0-2.317.155c-3.446,1.567-3.979,7.144-3.979,7.144,0-.031,0-.031-.031-.064a.951.951,0,0,1,.06.31C55.65,71.073,55.084,65,55.084,65a18.225,18.225,0,0,1,7.58-2.035,12.71,12.71,0,0,0,4.01,2.57c-.031,2,.533,1.941.533,1.941.941-.659.439-3.04.439-3.04-.408-1.221-4.167-2.976-4.167-2.976-2.066-1.034-10.212.564-10.212.564a22.927,22.927,0,0,0-1.5,8.425,33.328,33.328,0,0,0,.752,6.861c0,.031,0,.062.031.062a26.375,26.375,0,0,0,.688,2.725c1.128,4.793,2.882,13.188,2.913,13.343a48.711,48.711,0,0,1-.6,9.273c-.688-.972-1.345-2-1.973-3.038-.031-.064-.095-.155-.124-.222-.628-1-1.192-2.035-1.755-3.1a2.652,2.652,0,0,0-.155-.31c-.465-.908-.939-1.849-1.345-2.79-.031-.093-.095-.186-.126-.282-.282-.6-.532-1.221-.783-1.879a.155.155,0,0,1-.062-.126,16.049,16.049,0,0,1-.659-1.722,38.534,38.534,0,0,1-1.252-3.79c-.22-.69-.408-1.38-.6-2.1-.186-.69-.344-1.411-.5-2.13-.22-.972-.408-1.942-.564-2.945s-.31-2-.437-3.007c-.064-.688-.126-1.347-.188-2.035-.064-.721-.095-1.473-.126-2.193-.031-.657-.062-1.314-.062-2a60.411,60.411,0,1,1,120.821-.031c0,.465-.033.939-.033,1.44-.033,1.316-.155,2.6-.251,3.915a60.582,60.582,0,0,1-7.55,23.716" transform="translate(-35.914 0.001)"/><g transform="translate(144.204 122.628)"><g class="b" transform="translate(0 0.298)"><g class="b"><path class="a" d="M715.147,587.669c0,7.561-5.472,12.135-14.522,12.135h-8.6v10.544h-4.973V575.534h13.578C709.675,575.534,715.147,580.111,715.147,587.669Zm-4.973,0c0-4.973-3.334-7.81-9.7-7.81H692.02v15.619h8.453C706.84,595.479,710.174,592.644,710.174,587.669Z" transform="translate(-687.047 -575.534)"/></g><g class="b" transform="translate(32.667 8.207)"><path class="a" d="M723.115,589.528v15.914h-4.525v-3.481c-1.594,2.387-4.525,3.779-8.657,3.779-5.967,0-9.746-3.182-9.746-7.76,0-4.227,2.735-7.707,10.594-7.707h7.558v-.945c0-4.028-2.337-6.367-7.064-6.367a13.334,13.334,0,0,0-8.354,2.837l-1.989-3.583a17.542,17.542,0,0,1,10.892-3.381C719.037,578.835,723.115,582.316,723.115,589.528Zm-4.776,7.859v-3.682h-7.359c-4.724,0-6.069,1.842-6.069,4.078,0,2.638,2.19,4.279,5.82,4.279C714.311,602.062,717.147,600.421,718.338,597.387Z" transform="translate(-700.186 -578.835)"/></g><g class="b" transform="translate(64.442 8.207)"><path class="a" d="M727.14,578.835v4.624a8.414,8.414,0,0,0-1.091-.05c-5.124,0-8.307,3.135-8.307,8.9v13.13h-4.776V579.084h4.577v4.426C719.231,580.426,722.516,578.835,727.14,578.835Z" transform="translate(-712.966 -578.835)"/></g><g class="b" transform="translate(81.547 2.685)"><path class="a" d="M738.446,607.2a9.005,9.005,0,0,1-5.768,1.84c-5.323,0-8.357-2.934-8.357-8.257v-14.47h-4.475v-3.931h4.475v-5.771h4.774v5.771h7.561v3.931h-7.561v14.274c0,2.832,1.494,4.425,4.13,4.425a6.039,6.039,0,0,0,3.732-1.243Z" transform="translate(-719.846 -576.614)"/><path class="a" d="M756.131,578.935l-12.782,29c-2.337,5.569-5.373,7.31-9.4,7.31a9.9,9.9,0,0,1-6.763-2.437l2.039-3.583a6.748,6.748,0,0,0,4.724,1.939c2.287,0,3.729-1.042,5.025-4.077l.845-1.837L728.18,578.935h4.973l9.2,21.088,9.1-21.088Z" transform="translate(-708.937 -573.165)"/></g></g><g class="b" transform="translate(132.098 0)"><g class="b"><path class="a" d="M740.178,590.142a2.632,2.632,0,0,1,2.635-2.685,2.674,2.674,0,0,1,2.685,2.685,2.717,2.717,0,0,1-2.685,2.735A2.676,2.676,0,0,1,740.178,590.142Z" transform="translate(-740.178 -557.515)"/><path class="a" d="M743.818,593.119c0-10.144,7.76-17.7,18.3-17.7,10.445,0,18.252,7.511,18.252,17.7s-7.807,17.707-18.252,17.707C751.578,610.826,743.818,603.265,743.818,593.119Zm32.876,0c0-8.3-6.216-14.423-14.572-14.423-8.406,0-14.672,6.119-14.672,14.423s6.266,14.425,14.672,14.425C770.478,607.544,776.694,601.425,776.694,593.119Z" transform="translate(-734.768 -575.414)"/></g><g class="b" transform="translate(52.56 8.754)"><path class="a" d="M785.392,590.126v15.169H781.86v-14.82c0-5.522-2.884-8.356-7.857-8.356-5.621,0-9.152,3.481-9.152,9.45v13.727h-3.533v-26.16H764.7v4.823c1.89-3.183,5.42-5.022,9.948-5.022C781.014,578.935,785.392,582.615,785.392,590.126Z" transform="translate(-761.318 -578.935)"/><path class="a" d="M799.255,593.308H777.369c.4,5.472,4.577,9.1,10.3,9.1a10.309,10.309,0,0,0,8.008-3.434l1.989,2.29a12.881,12.881,0,0,1-10.1,4.276c-8.158,0-13.727-5.572-13.727-13.329s5.422-13.279,12.782-13.279,12.682,5.42,12.682,13.279C799.3,592.513,799.255,592.91,799.255,593.308Zm-21.887-2.635h18.552a9.3,9.3,0,0,0-18.552,0Z" transform="translate(-742.71 -578.935)"/></g></g></g></svg>