<svg xmlns="http://www.w3.org/2000/svg" xmlns:xlink="http://www.w3.org/1999/xlink" width="114.133" height="116.321" viewBox="0 0 114.133 116.321">
  <defs>
    <linearGradient id="linear-gradient" x1="0.142" y1="0.169" x2="1.088" y2="0.856" gradientUnits="objectBoundingBox">
      <stop offset="0" stop-color="#c78c40"/>
      <stop offset="1" stop-color="#ebc978"/>
    </linearGradient>
  </defs>
  <g id="partyone_new_logo" data-name="partyone new logo" transform="translate(15076.51 2675.334)">
    <g id="Group_341798" data-name="Group 341798" transform="translate(-15076.51 -2572.361)">
      <path id="Path_462155" data-name="Path 462155" d="M782.721,494.053c0,2.789-2.234,4.478-5.919,4.478h-3.889v4.142H771.38V489.56H776.8c3.685,0,5.919,1.684,5.919,4.5Zm-1.534,0c0-2.1-1.533-3.3-4.429-3.3h-3.85v6.557h3.85C779.654,497.314,781.188,496.117,781.188,494.053Z" transform="translate(-771.38 -489.424)" fill="#ebc978"/>
      <path id="Path_462156" data-name="Path 462156" d="M805.585,499.194h-8.056l-1.738,3.5H794.2l6.61-13.094h1.509l6.61,13.094h-1.611l-1.738-3.5Zm-.56-1.124-3.47-7.034-3.471,7.034Z" transform="translate(-783.092 -489.444)" fill="#ebc978"/>
      <path id="Path_462157" data-name="Path 462157" d="M838.851,502.653l-3.315-4.22a11,11,0,0,1-1.159.058h-3.894v4.162H828.95V489.53h5.427c3.685,0,5.924,1.689,5.924,4.5a4.131,4.131,0,0,1-3.315,4.123l3.543,4.5h-1.679Zm-.083-8.625c0-2.1-1.533-3.3-4.434-3.3h-3.85v6.581h3.85C837.234,497.308,838.768,496.091,838.768,494.027Z" transform="translate(-800.927 -489.408)" fill="#ebc978"/>
      <path id="Path_462158" data-name="Path 462158" d="M860.841,490.747H855.75v-1.2h11.711v1.2H862.37v11.916h-1.533V490.747Z" transform="translate(-814.682 -489.418)" fill="#ebc978"/>
      <path id="Path_462159" data-name="Path 462159" d="M890.466,498.111v4.541h-1.514v-4.541l-5.8-8.591h1.635l4.975,7.374,4.975-7.374h1.533Z" transform="translate(-828.745 -489.403)" fill="#ebc978"/>
      <path id="Path_462160" data-name="Path 462160" d="M909.02,514.477a.672.672,0,0,1,1.344,0,.672.672,0,0,1-1.344,0Z" transform="translate(-842.023 -501.88)" fill="#ebc978"/>
      <path id="Path_462161" data-name="Path 462161" d="M924.281,489.28c-4.273,0-7.491,2.867-7.491,6.673s3.222,6.673,7.491,6.673,7.511-2.867,7.511-6.673S928.56,489.28,924.281,489.28Zm6.416,6.673c0,3.247-2.76,5.695-6.416,5.695s-6.4-2.448-6.4-5.695,2.75-5.7,6.4-5.7S930.7,492.707,930.7,495.953Z" transform="translate(-846.011 -489.28)" fill="#ebc978"/>
      <path id="Path_462162" data-name="Path 462162" d="M964.963,489.28v11.444l-9.789-11.37-.058-.073h-.876v13.347h1.11V491.188l9.784,11.37.064.068h.871V489.28Z" transform="translate(-865.232 -489.28)" fill="#ebc978"/>
      <path id="Path_462163" data-name="Path 462163" d="M986.275,501.643v-5.3h7.759v-.983h-7.759v-5.1h8.679v-.983H985.17v13.347h10.071v-.983Z" transform="translate(-881.107 -489.28)" fill="#ebc978"/>
    </g>
    <path id="Path_462164" data-name="Path 462164" d="M863.346,279.571h0a29.538,29.538,0,0,0-10.83-1.825,2.033,2.033,0,0,0-.346-.01A34.874,34.874,0,0,0,817.29,312.6a32.284,32.284,0,0,0,.492,5.729v.058a36.812,36.812,0,0,0,6.571,16.4Q837.166,352.8,850.019,370.8c1.436,2.01,2.994,2.03,4.415.049q12.668-17.83,25.37-35.616a37.072,37.072,0,0,0,6.416-15.143,1.632,1.632,0,0,1,.049-.209,34.822,34.822,0,0,0-22.926-40.3ZM836.122,329.1c.224-.078.346-.127.346-.127a9.431,9.431,0,0,0-1.718-3.607,12.972,12.972,0,0,1-2.361-3.466l-.019-.029c-.633-3.106,1.271-3.923,1.271-3.923a27.112,27.112,0,0,0,6.055-3.709,13.769,13.769,0,0,1,1.324,1.344c-.049.112-.078.2-.112.3,0,0,2.113,1.893,2.19,2.555h0a4.37,4.37,0,0,0,.093,1.207,16.16,16.16,0,0,1-.034,6.191l-.01.034a7.975,7.975,0,0,1-1.908,3.495,2.191,2.191,0,0,0,.234.127l.312.141c-.112.346-.2.7-.312,1.037l-.029.049-2.3,7.613A7.953,7.953,0,0,0,838,335.669a7.789,7.789,0,0,1-1.407-3.485,10.689,10.689,0,0,0-.472-3.086Zm.428,9.059a29.775,29.775,0,0,1-5.7-4.429,27.063,27.063,0,0,0,.346-2.867v-.38c.38-.083.759-.17,1.134-.268a11.08,11.08,0,0,0,2.648,5.091,4.6,4.6,0,0,1,.769,1.2A5.428,5.428,0,0,0,836.55,338.161Zm9.234-3.636s1.29,3.923,2.706,7.735a29.253,29.253,0,0,1-7.121-1.747C842.679,336.156,844.553,331.434,845.784,334.525Zm22.926-31.313a.713.713,0,0,0-.165.049,1.437,1.437,0,0,0-.652.5c-.258.326-.238.492-.477.633-.166.092-.2.029-.331.122a1.116,1.116,0,0,0-.346.91,2.47,2.47,0,0,0,.122.842,3.073,3.073,0,0,1-.462,1.9c-.545,1.236-.847,1.212-1.348,2.371-.312.72-.239.828-.555,1.592a9.476,9.476,0,0,1-1.183,2.083c-1.178-3.451-3.086-2.95-3.086-2.95-2.331-.01-2.775,5.267-2.775,5.267-.881-.346-2.429-2.633-2.429-2.633.127-.239.273-.531.433-.871.258-.55.443-.988.545-1.236a21.136,21.136,0,0,0,1.2-3.719,2.367,2.367,0,0,0-.068-1.343,2.411,2.411,0,0,0-.287-.492c-.18-.263-.526-.759-.876-.706a.206.206,0,0,1-.292-.088.327.327,0,0,0-.195.019.578.578,0,0,0-.146.092.372.372,0,0,0-.243.01.318.318,0,0,0-.17.18.263.263,0,0,0-.209.039c-.18.156.092.73.224.993a4.258,4.258,0,0,0,.56.876.586.586,0,0,1,.2.725,11.361,11.361,0,0,1-1.791,3.31,5.8,5.8,0,0,0-1.519-2.02c-1.056-1.178-.944-1.7-.944-1.7.059-.672-.268-.842-.268-.842a1.551,1.551,0,0,1-.535-.5,11.464,11.464,0,0,1-.735-1.149c-.526-1.022-.711-.755-.711-.755-.2.312.414.91.414.91a2.6,2.6,0,0,0,.185.526,1.473,1.473,0,0,0-.672.166c-.74-.438-.93-.234-.93-.234a.136.136,0,0,0-.063.078.123.123,0,0,0,0,.092.32.32,0,0,0-.224-.01.162.162,0,0,0-.083.058.19.19,0,0,0,0,.156c.034.1.151.146.234.18,0,0,.092.039.487.268a1.771,1.771,0,0,1,.433.346c.029.185.331.409.331.409.428.964.871.993.871.993.443.112.613.759.613.759a11.442,11.442,0,0,0,2.288,4.162c.058.5-.789,1.241-.915,1.353h-.019a1,1,0,0,0-.141-.146c-.049.414-.789.74-.789.74-1.431.35-1.791,1.139-1.854,1.344a2.083,2.083,0,0,1,.117-.672,3.828,3.828,0,0,1,.545-.915,7.279,7.279,0,0,0,.492-.706,2.864,2.864,0,0,0,.273-.793,2.349,2.349,0,0,0-.136-1.343,2.319,2.319,0,0,0-1.855-1.348,2.281,2.281,0,0,0-1.582.414,2.408,2.408,0,0,0-.891,1.679,3.414,3.414,0,0,0,.146,1.441,4.855,4.855,0,0,1,.4,1.339,2.861,2.861,0,0,1-.053.647,1.711,1.711,0,0,1-1.28-.647,3.419,3.419,0,0,0-1.928-1s-.881-.38-1.1-.944a1.393,1.393,0,0,1-.185.156,3.652,3.652,0,0,0-1.027-1.1,4.153,4.153,0,0,1,1.5-.083,1.8,1.8,0,0,1,.531.117,1.289,1.289,0,0,0,.389.18.418.418,0,0,0,.385-.054.324.324,0,0,0,.078-.165.807.807,0,0,0-.146-.331c-.74-.944-2.808-.672-2.808-.672a2.375,2.375,0,0,0-.584.17,3.068,3.068,0,0,0-.535-1.022c-1.066-1.5-.457-2.254-.457-2.254a1.175,1.175,0,0,0,.2-.978.847.847,0,0,1-.078-.438c.01-.6-.341-.341-.341-.341-.141.156-.253.054-.253.054-.881-1.09-1,.092-1,.092-.428-.02-.234.38-.234.38.059.141,0,.2,0,.2a.3.3,0,0,0-.078.088.423.423,0,0,0,.034.36.907.907,0,0,0-.01.122.641.641,0,0,0,.126.375,1.21,1.21,0,0,1,.36.91,6.554,6.554,0,0,0,.458,3.373c-.974.584-1.821,1.149-1.821,1.149-3.991,2.069-5.091,1.7-5.091,1.7a2.933,2.933,0,0,0,1.144-2.5,2.533,2.533,0,0,0-1.709-2.492,1.578,1.578,0,0,0-1.173.078c-1.733.789-2.01,3.6-2.01,3.6a.046.046,0,0,0-.019-.034.461.461,0,0,1,.029.156,11.941,11.941,0,0,1-1.227-4.415,9.133,9.133,0,0,1,3.811-1.022,6.343,6.343,0,0,0,2.01,1.29c-.01,1,.268.974.268.974.472-.331.224-1.528.224-1.528-.2-.613-2.1-1.494-2.1-1.494-1.037-.521-5.135.282-5.135.282a11.392,11.392,0,0,0-.759,4.245,16.894,16.894,0,0,0,.38,3.451c0,.01,0,.029.01.029a13.541,13.541,0,0,0,.35,1.373c.565,2.409,1.446,6.63,1.465,6.712a24.515,24.515,0,0,1-.3,4.663c-.346-.492-.672-1-.993-1.528a.5.5,0,0,1-.059-.112c-.316-.5-.6-1.022-.881-1.558a.941.941,0,0,0-.083-.156c-.234-.458-.467-.935-.667-1.4-.019-.054-.048-.1-.063-.146-.316-.72-.565-1.353-.754-1.874-.292-.789-.472-1.4-.633-1.9-.112-.346-.2-.7-.3-1.056s-.17-.711-.253-1.076c-.112-.487-.2-.974-.287-1.475s-.151-1-.214-1.514c-.034-.346-.063-.667-.1-1.022-.044-.457-.054-.969-.068-1.412-.01-.214-.019-.428-.019-.638a30.383,30.383,0,0,1,30.378-30.451h.019a30.381,30.381,0,0,1,30.383,30.378,25.64,25.64,0,0,1-.146,2.692c-.638,5.836-3.31,10.65-3.777,10.494a10.792,10.792,0,0,1,.122-2.555,22.822,22.822,0,0,1,.4-2.925.088.088,0,0,0,.01-.034.223.223,0,0,0,.02-.078,7.12,7.12,0,0,1,.341-1.139l.058-.165.156-.555a6.051,6.051,0,0,0,.01-2.234.415.415,0,0,1-.01-.078,3.72,3.72,0,0,0-1.66-2.132.477.477,0,0,0-.049-.346.968.968,0,0,1-.224-.472c0-.443-.287-.472-.443-.472a2.139,2.139,0,0,1,.823-1.548c.594-.389.389-1.465.389-1.465-.7-2.979-3.4-1.207-3.4-1.207l-.983-.17a.409.409,0,0,0-.467.258.984.984,0,0,0,.355,1.129.777.777,0,0,0,.433.078.579.579,0,0,0,.175-.054l-.01.019a7.671,7.671,0,0,0-.112.818,1.959,1.959,0,0,0-.034.428,2.452,2.452,0,0,0,.492,1.4.386.386,0,0,1,.063.195.5.5,0,0,1-.331.433h-.019c-.375.049-.672-.346-.808-.594-.029-.083-.049-.146-.058-.17a.02.02,0,0,1-.019-.02,13.617,13.617,0,0,0-2.784-3.514,1.2,1.2,0,0,1-.647-1.2,5.261,5.261,0,0,0-.2-1.986c-.788-3.125-.078-3.8-.078-3.8a2.246,2.246,0,0,0,.492-1.621,1.714,1.714,0,0,0-.36-.974.664.664,0,0,0-.4-.234.561.561,0,0,0-.346.063,1.039,1.039,0,0,0-.492.088,2.071,2.071,0,0,0-.409.287.667.667,0,0,0-.526.789v.01a.526.526,0,0,0,.054.146c.068.38.136.764.2,1.149.117.691.224,1.368.321,2.04Zm6.245,28.976a24.314,24.314,0,0,1-1.825,1.923,12.413,12.413,0,0,1,.93-4.016,13.088,13.088,0,0,1,.9,2.1Zm-4.926-4.726c-.769,1.893-.93,6.9-.93,9.9a29.837,29.837,0,0,1-8.766,4.016c.019-1.227.151-3.052.151-3.052a14.975,14.975,0,0,1,.521-2.4l.083-.282.331-1.2.55.112a51.144,51.144,0,0,1,1.631-10.718.075.075,0,0,0,.019-.049.094.094,0,0,0,.058-.019.522.522,0,0,0,.092-.029.515.515,0,0,1,.146-.049c.01,0,.01-.02.029-.02a1.608,1.608,0,0,0,.535-.462c1.134-1.519-1.236-4.274-1.251-4.278a.2.2,0,0,0-.024-.02H863.2c.594-1.562,1.051-2.638,1.368-3.349a19.253,19.253,0,0,0,.964-2.336,5.1,5.1,0,0,1,.263-.73,7.323,7.323,0,0,1,.5-.915s.326-.55.589-1.081a18.524,18.524,0,0,0,.969-2.56,2.047,2.047,0,0,1,.633-.973,3.163,3.163,0,0,0,.331,1.606v.019a.262.262,0,0,1,.034.093,10.838,10.838,0,0,0,.55,1.431c0,.02.019.034.019.049a2.229,2.229,0,0,1,.122.238c.034.078.1.166.146.253a.051.051,0,0,1,.01.029v.02a8.451,8.451,0,0,1,.575,1.431c.049.112.092.2.141.3a6.762,6.762,0,0,0,2.1,2.648,22.28,22.28,0,0,1-.706,5.223c-.706,2.113-1.436,4.444-1.84,5.831-.224.72-.36,1.2-.36,1.256a2.694,2.694,0,0,0,.438.063ZM849.289,328.9c.316-2.288.574-6.951.574-6.951.112-1.558,2.01-3.68,3.164-4.833a.516.516,0,0,1,.127-.127l.141-.151c.36-.36.6-.565.6-.565l-.18-.312a7.1,7.1,0,0,0,.458-.769s1.231,1.791,2.049,2.872l.049.049c.36.409,3.656,4.157,2.843,7.058v.02a2.6,2.6,0,0,1-.672,1.227,2.971,2.971,0,0,1-.579.5S855.2,328.577,856,333.6l.672.268a10.755,10.755,0,0,1,.964,4.7s-.7.818.141,3.417a29.734,29.734,0,0,1-5.612.521h-.253a59.785,59.785,0,0,1-2.4-8.854,10.982,10.982,0,0,1-.224-4.741Zm-27.711-16.53a30.6,30.6,0,0,1,30.6-30.6h0a30.6,30.6,0,1,0,0,61.2h0A30.6,30.6,0,0,1,821.578,312.368Z" transform="translate(-15871.453 -2953.065)" fill="url(#linear-gradient)" style="isolation: isolate"/>
  </g>
</svg>
